<mxfile host="app.diagrams.net" modified="2021-01-20T04:59:40.887Z" agent="5.0 (Macintosh; Intel Mac OS X 11_1_0) AppleWebKit/537.36 (KHTML, like Gecko) Chrome/87.0.4280.141 Safari/537.36" etag="icyl17H6ac8n5VnVf9ZW" version="14.0.1" type="github">
  <diagram id="JiCelrxwiA5blp69eUNr" name="Page-1">
    <mxGraphModel dx="983" dy="496" grid="0" gridSize="10" guides="1" tooltips="1" connect="1" arrows="1" fold="1" page="1" pageScale="1" pageWidth="900" pageHeight="400" background="none" math="0" shadow="0">
      <root>
        <mxCell id="0" />
        <mxCell id="1" parent="0" />
        <mxCell id="Lh2qIq0kyytRX2KrADmU-1" value="" style="endArrow=classic;html=1;exitX=0.5;exitY=1;exitDx=0;exitDy=0;exitPerimeter=0;entryX=0;entryY=0.5;entryDx=0;entryDy=0;fillColor=#dae8fc;strokeColor=#6c8ebf;" edge="1" parent="1" source="Lh2qIq0kyytRX2KrADmU-2" target="Lh2qIq0kyytRX2KrADmU-3">
          <mxGeometry width="50" height="50" relative="1" as="geometry">
            <mxPoint x="538" y="223" as="sourcePoint" />
            <mxPoint x="538" y="233" as="targetPoint" />
          </mxGeometry>
        </mxCell>
        <mxCell id="Lh2qIq0kyytRX2KrADmU-2" value="" style="shape=cylinder3;whiteSpace=wrap;html=1;boundedLbl=1;backgroundOutline=1;size=15;rotation=91;fillColor=#CCCCCC;" vertex="1" parent="1">
          <mxGeometry x="467.1" y="166.70999999999998" width="21.3" height="74.43" as="geometry" />
        </mxCell>
        <mxCell id="Lh2qIq0kyytRX2KrADmU-3" value="" style="rounded=1;whiteSpace=wrap;html=1;fillColor=#7EA6E0;" vertex="1" parent="1">
          <mxGeometry x="539.5" y="174" width="68.5" height="58.46" as="geometry" />
        </mxCell>
        <mxCell id="Lh2qIq0kyytRX2KrADmU-4" value="" style="rounded=1;whiteSpace=wrap;html=1;fillColor=#7EA6E0;" vertex="1" parent="1">
          <mxGeometry x="328" y="113" width="80" height="40" as="geometry" />
        </mxCell>
        <mxCell id="Lh2qIq0kyytRX2KrADmU-5" value="" style="shape=image;verticalLabelPosition=bottom;labelBackgroundColor=#ffffff;verticalAlign=top;aspect=fixed;imageAspect=0;image=data:image/svg+xml,PHN2ZyB4bWxuczpkYz0iaHR0cDovL3B1cmwub3JnL2RjL2VsZW1lbnRzLzEuMS8iIHhtbG5zOmNjPSJodHRwOi8vY3JlYXRpdmVjb21tb25zLm9yZy9ucyMiIHhtbG5zOnJkZj0iaHR0cDovL3d3dy53My5vcmcvMTk5OS8wMi8yMi1yZGYtc3ludGF4LW5zIyIgeG1sbnM6c3ZnPSJodHRwOi8vd3d3LnczLm9yZy8yMDAwL3N2ZyIgeG1sbnM9Imh0dHA6Ly93d3cudzMub3JnLzIwMDAvc3ZnIiB4bWxuczpzb2RpcG9kaT0iaHR0cDovL3NvZGlwb2RpLnNvdXJjZWZvcmdlLm5ldC9EVEQvc29kaXBvZGktMC5kdGQiIHhtbG5zOmlua3NjYXBlPSJodHRwOi8vd3d3Lmlua3NjYXBlLm9yZy9uYW1lc3BhY2VzL2lua3NjYXBlIiB2ZXJzaW9uPSIxLjEiIGlkPSJMYXllcl8xIiB4PSIwcHgiIHk9IjBweCIgdmlld0JveD0iMCAwIDIzMS4xOTE0IDU0LjY2OTMxMyIgeG1sOnNwYWNlPSJwcmVzZXJ2ZSIgc29kaXBvZGk6ZG9jbmFtZT0iZ25taS1sb2dvLWluayBjb3B5LnN2ZyIgaW5rc2NhcGU6dmVyc2lvbj0iMS4wcmMxICgwOTk2MGQ2LCAyMDIwLTA0LTA5KSIgaW5rc2NhcGU6ZXhwb3J0LWZpbGVuYW1lPSIvVXNlcnMvcm9tYW5kb2Rpbi9Eb3dubG9hZHMvZ25taS1sb2dvMS5wbmciIGlua3NjYXBlOmV4cG9ydC14ZHBpPSI5NiIgaW5rc2NhcGU6ZXhwb3J0LXlkcGk9Ijk2IiB3aWR0aD0iMjMxLjE5MTM5IiBoZWlnaHQ9IjU0LjY2OTMxMiI+PG1ldGFkYXRhIGlkPSJtZXRhZGF0YTE3NCI+PHJkZjpSREY+PGNjOldvcmsgcmRmOmFib3V0PSIiPjxkYzpmb3JtYXQ+aW1hZ2Uvc3ZnK3htbDwvZGM6Zm9ybWF0PjxkYzp0eXBlIHJkZjpyZXNvdXJjZT0iaHR0cDovL3B1cmwub3JnL2RjL2RjbWl0eXBlL1N0aWxsSW1hZ2UiLz48ZGM6dGl0bGUvPjwvY2M6V29yaz48L3JkZjpSREY+PC9tZXRhZGF0YT48ZGVmcyBpZD0iZGVmczE3MiIvPjxzb2RpcG9kaTpuYW1lZHZpZXcgaW5rc2NhcGU6ZG9jdW1lbnQtcm90YXRpb249IjAiIHBhZ2Vjb2xvcj0iI2ZmZmZmZiIgYm9yZGVyY29sb3I9IiM2NjY2NjYiIGJvcmRlcm9wYWNpdHk9IjEiIG9iamVjdHRvbGVyYW5jZT0iMTAiIGdyaWR0b2xlcmFuY2U9IjEwIiBndWlkZXRvbGVyYW5jZT0iMTAiIGlua3NjYXBlOnBhZ2VvcGFjaXR5PSIwIiBpbmtzY2FwZTpwYWdlc2hhZG93PSIyIiBpbmtzY2FwZTp3aW5kb3ctd2lkdGg9IjI1NjAiIGlua3NjYXBlOndpbmRvdy1oZWlnaHQ9IjEzOTUiIGlkPSJuYW1lZHZpZXcxNzAiIHNob3dncmlkPSJ0cnVlIiBpbmtzY2FwZTp6b29tPSIzLjE4MDk1OTUiIGlua3NjYXBlOmN4PSIxMjcuMzMzOTciIGlua3NjYXBlOmN5PSI1Ny4xOTgzODYiIGlua3NjYXBlOndpbmRvdy14PSIxNDQwIiBpbmtzY2FwZTp3aW5kb3cteT0iMjMiIGlua3NjYXBlOndpbmRvdy1tYXhpbWl6ZWQ9IjEiIGlua3NjYXBlOmN1cnJlbnQtbGF5ZXI9ImcxNjUiIHNob3dndWlkZXM9ImZhbHNlIj48aW5rc2NhcGU6Z3JpZCB0eXBlPSJ4eWdyaWQiIGlkPSJncmlkMTIxNSIgb3JpZ2lueD0iLTEuMTkyNDYwOCIgb3JpZ2lueT0iLTQuODcwMTYyOSIvPjwvc29kaXBvZGk6bmFtZWR2aWV3PiYjeGE7PHN0eWxlIHR5cGU9InRleHQvY3NzIiBpZD0ic3R5bGUxMjgiPiYjeGE7CS5zdDB7ZmlsbDojMkRCQ0FGO30mI3hhOzwvc3R5bGU+JiN4YTs8ZyBpZD0iZzE2NyIgdHJhbnNmb3JtPSJ0cmFuc2xhdGUoLTEuMTkyNDYwOCwtNy41NTEyNzM4KSI+JiN4YTsJPGcgaWQ9ImcxMzYiIHN0eWxlPSJmaWxsOiMwMGM5ZmY7ZmlsbC1vcGFjaXR5OjEiIHRyYW5zZm9ybT0ibWF0cml4KDAuOTI2MTYzNjIsMCwwLDAuODM4ODI5ODksMS4xOTI0NjA4LDUuMzAyMjc3MykiPiYjeGE7CQk8ZyBpZD0iZzEzNCIgc3R5bGU9ImZpbGw6IzAwYzlmZjtmaWxsLW9wYWNpdHk6MSI+JiN4YTsJCQk8ZyBpZD0iZzEzMiIgc3R5bGU9ImZpbGw6IzAwYzlmZjtmaWxsLW9wYWNpdHk6MSI+JiN4YTsJCQkJPHBhdGggY2xhc3M9InN0MCIgZD0iTSAxNS41LDIzLjIgQyAxNS4xLDIzLjIgMTUsMjMgMTUuMiwyMi43IEwgMTcuMywyMCBjIDAuMiwtMC4zIDAuNywtMC41IDEuMSwtMC41IGggMzUuNyBjIDAuNCwwIDAuNSwwLjMgMC4zLDAuNiBsIC0xLjcsMi42IGMgLTAuMiwwLjMgLTAuNywwLjYgLTEsMC42IHoiIGlkPSJwYXRoMTMwIiBzdHlsZT0iZmlsbDojMDBjOWZmO2ZpbGwtb3BhY2l0eToxIiBpbmtzY2FwZTpjb25uZWN0b3ItY3VydmF0dXJlPSIwIi8+JiN4YTsJCQk8L2c+JiN4YTsJCTwvZz4mI3hhOwk8L2c+JiN4YTsJPGcgaWQ9ImcxNDQiIHN0eWxlPSJmaWxsOiMwMGM5ZmY7ZmlsbC1vcGFjaXR5OjEiIHRyYW5zZm9ybT0ibWF0cml4KDAuOTI2MTYzNjIsMCwwLDAuODM4ODI5ODksMS4xOTI0NjA4LDUuMzAyMjc3MykiPiYjeGE7CQk8ZyBpZD0iZzE0MiIgc3R5bGU9ImZpbGw6IzAwYzlmZjtmaWxsLW9wYWNpdHk6MSI+JiN4YTsJCQk8ZyBpZD0iZzE0MCIgc3R5bGU9ImZpbGw6IzAwYzlmZjtmaWxsLW9wYWNpdHk6MSI+JiN4YTsJCQkJPHBhdGggY2xhc3M9InN0MCIgZD0iTSAwLjQsMzIuNCBDIDAsMzIuNCAtMC4xLDMyLjIgMC4xLDMxLjkgbCAyLjEsLTIuNyBjIDAuMiwtMC4zIDAuNywtMC41IDEuMSwtMC41IGggNDUuNiBjIDAuNCwwIDAuNiwwLjMgMC41LDAuNiBsIC0wLjgsMi40IGMgLTAuMSwwLjQgLTAuNSwwLjYgLTAuOSwwLjYgeiIgaWQ9InBhdGgxMzgiIHN0eWxlPSJmaWxsOiMwMGM5ZmY7ZmlsbC1vcGFjaXR5OjEiIGlua3NjYXBlOmNvbm5lY3Rvci1jdXJ2YXR1cmU9IjAiLz4mI3hhOwkJCTwvZz4mI3hhOwkJPC9nPiYjeGE7CTwvZz4mI3hhOwk8ZyBpZD0iZzE1MiIgc3R5bGU9ImZpbGw6IzAwYzlmZjtmaWxsLW9wYWNpdHk6MSIgdHJhbnNmb3JtPSJtYXRyaXgoMC45MjYxNjM2MiwwLDAsMC44Mzg4Mjk4OSwxLjE5MjQ2MDgsNS4zMDIyNzczKSI+JiN4YTsJCTxnIGlkPSJnMTUwIiBzdHlsZT0iZmlsbDojMDBjOWZmO2ZpbGwtb3BhY2l0eToxIj4mI3hhOwkJCTxnIGlkPSJnMTQ4IiBzdHlsZT0iZmlsbDojMDBjOWZmO2ZpbGwtb3BhY2l0eToxIj4mI3hhOwkJCQk8cGF0aCBjbGFzcz0ic3QwIiBkPSJtIDI0LjYsNDEuNiBjIC0wLjQsMCAtMC41LC0wLjMgLTAuMywtMC42IGwgMS40LC0yLjUgYyAwLjIsLTAuMyAwLjYsLTAuNiAxLC0wLjYgaCAyMCBjIDAuNCwwIDAuNiwwLjMgMC42LDAuNyBMIDQ3LjEsNDEgYyAwLDAuNCAtMC40LDAuNyAtMC43LDAuNyB6IiBpZD0icGF0aDE0NiIgc3R5bGU9ImZpbGw6IzAwYzlmZjtmaWxsLW9wYWNpdHk6MSIgaW5rc2NhcGU6Y29ubmVjdG9yLWN1cnZhdHVyZT0iMCIvPiYjeGE7CQkJPC9nPiYjeGE7CQk8L2c+JiN4YTsJPC9nPiYjeGE7CTxnIGlkPSJnMTY1IiB0cmFuc2Zvcm09Im1hdHJpeCgwLjkyNjE2MzYyLDAsMCwwLjgzODgyOTg5LDQuODM1NDYxOSw3Ljc1ODIwODcpIj4mI3hhOwkJJiN4YTsJPHRleHQgeG1sOnNwYWNlPSJwcmVzZXJ2ZSIgc3R5bGU9ImZvbnQtc3R5bGU6bm9ybWFsO2ZvbnQtdmFyaWFudDpub3JtYWw7Zm9udC13ZWlnaHQ6bm9ybWFsO2ZvbnQtc3RyZXRjaDpub3JtYWw7Zm9udC1zaXplOjY5LjMzMzNweDtsaW5lLWhlaWdodDoxLjI1O2ZvbnQtZmFtaWx5OidOb2tpYSBQdXJlIEhlYWRsaW5lJzstaW5rc2NhcGUtZm9udC1zcGVjaWZpY2F0aW9uOidOb2tpYSBQdXJlIEhlYWRsaW5lIHdlaWdodD0yNTUnO2ZpbGw6IzAwMDAwMDtmaWxsLW9wYWNpdHk6MTtzdHJva2U6bm9uZSIgeD0iNDMuMzQ1Mzc1IiB5PSI0OC40OTQ2MTQiIGlkPSJ0ZXh0MTc4Ij48dHNwYW4gc29kaXBvZGk6cm9sZT0ibGluZSIgaWQ9InRzcGFuMTc2IiB4PSI0My4zNDUzNzUiIHk9IjQ4LjQ5NDYxNCIgc3R5bGU9ImZvbnQtc3R5bGU6aXRhbGljO2ZvbnQtdmFyaWFudDpub3JtYWw7Zm9udC13ZWlnaHQ6Ym9sZDtmb250LXN0cmV0Y2g6bm9ybWFsO2ZvbnQtZmFtaWx5OidOb2tpYSBQdXJlIFRleHQnOy1pbmtzY2FwZS1mb250LXNwZWNpZmljYXRpb246J05va2lhIFB1cmUgVGV4dCBCb2xkJztmaWxsOiMxMjQxOTE7ZmlsbC1vcGFjaXR5OjEiPmdOTUljPC90c3Bhbj48L3RleHQ+PC9nPiYjeGE7PC9nPiYjeGE7PC9zdmc+;" vertex="1" parent="1">
          <mxGeometry x="328" y="98" width="63" height="15" as="geometry" />
        </mxCell>
        <mxCell id="Lh2qIq0kyytRX2KrADmU-6" value="" style="shape=image;verticalLabelPosition=bottom;labelBackgroundColor=#ffffff;verticalAlign=top;aspect=fixed;imageAspect=0;image=data:image/svg+xml,PHN2ZyB4bWxucz0iaHR0cDovL3d3dy53My5vcmcvMjAwMC9zdmciIHhtbG5zOnhsaW5rPSJodHRwOi8vd3d3LnczLm9yZy8xOTk5L3hsaW5rIiB2aWV3Qm94PSIwIDAgMTA3IDI3IiBmaWxsPSIjZmZmIiBmaWxsLXJ1bGU9ImV2ZW5vZGQiIHN0cm9rZT0iIzAwMCIgc3Ryb2tlLWxpbmVjYXA9InJvdW5kIiBzdHJva2UtbGluZWpvaW49InJvdW5kIj48dXNlIHhsaW5rOmhyZWY9IiNBIiB4PSIuNSIgeT0iLjUiLz48c3ltYm9sIGlkPSJBIiBvdmVyZmxvdz0idmlzaWJsZSI+PGcgc3Ryb2tlPSJub25lIiBmaWxsLXJ1bGU9Im5vbnplcm8iPjxwYXRoIGQ9Ik0wIDIwLjE1aDEwLjYyM2w2LjA5MiA1LjY0di01LjY0aDguMTNWMEgwek00LjAwMyA0LjcySDguNjZsOC45NjIgOC4zNThWNC43MmgyLjk3djEwLjhoLTQuNTA1bC05LjExMy04LjV2OC41aC0yLjk3eiIgZmlsbD0iIzI3YWFlMSIvPjxwYXRoIGQ9Ik02Ljk3MyA3bDkuMTEzIDguNWg0LjUwNlY0LjdoLTIuOTd2OC4zNThMOC42NiA0LjdINC4wMDN2MTAuOGgyLjk3eiIvPjxwYXRoIGQ9Ik0zOS4xNDUgNi41OGwtMy4yMjIgNC42MDdoNi40NDR6TTI2LjkyNyAyMC4xNWgyNC44NDZWMEgyNi45Mjd6bTEwLjMyLTE1LjQ4SDQxLjJsNy43NTMgMTAuODc1aC0zLjU1bC0xLjQ2LTIuMWgtOS42bC0xLjQ2IDIuMWgtMy40TDM3LjIzNSA0LjY3eiIgZmlsbD0iIzM0YTU3NCIvPjxwYXRoIGQ9Ik0zNC4zNjIgMTMuNDNoOS42bDEuNDYgMi4xaDMuNTVMNDEuMjIgNC42OGgtMy45NjJsLTcuNzUzIDEwLjg3NWgzLjR6bTQuNzgzLTYuODQ3bDMuMjIyIDQuNjA2aC02LjQ0NHoiLz48cGF0aCBkPSJNNTMuODcyIDIwLjE1aDI0Ljg1NVYwSDUzLjg3MnptMy45MDItMTUuNDNoMTYuOHYyLjQ0MmgtNi44NDd2OC4zNThoLTMuMDdWNy4xNmgtNi44NzJWNC43MnoiIGZpbGw9IiMzNzVjOTMiLz48cGF0aCBkPSJNNjQuNjQ3IDE1LjUxOGgzLjA3VjcuMTZoNi44NDdWNC43MmgtMTYuOHYyLjQ0Mmg2Ljg3MnoiLz48cGF0aCBkPSJNODAuODA3IDB2MjAuMTRoMjQuODQ2VjB6bTE5LjI1OCAxNC4yNzRjLS44MDYuODA2LTIuNTY4IDEuNDM1LTYuNzQ3IDEuNDM1LTMuMDk2IDAtNi4wNjctLjQ3OC03LjcyOC0xLjE4M1YxMi4wMmMxLjU4Ni43MDUgNS4wNiAxLjM4NSA3LjcyOCAxLjM4NSAyLjM0IDAgMy45NzctLjA3NiA0LjQwNS0uNTNhLjY2LjY2IDAgMCAwIC4xNzYtLjUwMy41Ny41NyAwIDAgMC0uMTc2LS40NTNjLS4yNTItLjI1Mi0uNjU1LS40MjgtNC4zOC0uNTMtMy45NTItLjEtNS45LS41MDQtNi43OTctMS40LS40NTctLjUyLS42OTItMS4xOTctLjY1NS0xLjg4OCAwLS44My4xNS0xLjU2LjgzLTIuMjQuOTA2LS45MDYgMi42OTMtMS4zMzQgNi4zMi0xLjMzNCAyLjcyIDAgNS40MzcuNDI4IDYuODcyIDEuMDA3djIuNTQzYy0xLjYzNi0uNzA1LTQuNDgtMS4yLTYuODQ3LTEuMi0yLjYxOCAwLTMuNzI2LjE1LTQuMDc4LjUwNGEuNzMuNzMgMCAwIDAtLjAyNS45ODJjLjMyNy4zMjcgMS41MzYuNDI4IDQuMzU1LjQ3OCA0LjEyOC4xIDUuOTE2LjQ1MyA2Ljc5NyAxLjMuNDc1LjUzMi43MjggMS4yMjYuNzA1IDEuOTM4YTIuODkgMi44OSAwIDAgMS0uNzU1IDIuMjE1eiIgZmlsbD0iIzhkYzYzZiIvPjxwYXRoIGQ9Ik05My4zNyA4Ljc5N2MtMi44Mi0uMDUtNC4wMjgtLjE1LTQuMzU1LS40NzhhLjczLjczIDAgMCAxIC4wMjUtLjk4MmMuMzI3LS4zMjcgMS40Ni0uNTA0IDQuMDc4LS41MDQgMi4zNjYgMCA1LjIuNTA0IDYuODQ3IDEuMjA4VjUuNTI0Yy0xLjQzNS0uNTgtNC4xOC0xLjAwNy02Ljg3Mi0xLjAwNy0zLjY1IDAtNS40MzcuNDUzLTYuMzIgMS4zMzQtLjY4LjY4LS44MyAxLjQtLjgzIDIuMjRhMi43NiAyLjc2IDAgMCAwIC42NTUgMS44ODhjLjkwNi45MDYgMi44NDUgMS4zIDYuNzk3IDEuNCAzLjcyNi4xIDQuMTI4LjI3NyA0LjM4LjUzYS41Ny41NyAwIDAgMSAuMTc2LjQ1My42OS42OSAwIDAgMS0uMTc2LjUwM2MtLjQ1My40NTMtMi4xLjUzLTQuNDA1LjUzLTIuNjY4IDAtNi4xMTctLjY1NS03LjcyOC0xLjM4NXYyLjU0MmMxLjY2LjcwNSA0LjYzMiAxLjE4MyA3LjcyOCAxLjE4MyA0LjE4IDAgNS45NC0uNjMgNi43NDctMS40MzUuNjA0LS42MDQuNzgtMS40Ljc4LTIuMjRhMi43MyAyLjczIDAgMCAwLS43MDUtMS45MzhjLS45MDYtLjg4LTIuNjkzLTEuMjM0LTYuODIyLTEuMzM0eiIvPjwvZz48L3N5bWJvbD48L3N2Zz4=;" vertex="1" parent="1">
          <mxGeometry x="450" y="180.00000000000003" width="47.56" height="12" as="geometry" />
        </mxCell>
        <mxCell id="Lh2qIq0kyytRX2KrADmU-7" value="" style="endArrow=classic;html=1;entryX=0;entryY=0.5;entryDx=0;entryDy=0;exitX=1;exitY=0.5;exitDx=0;exitDy=0;fillColor=#dae8fc;strokeColor=#6c8ebf;" edge="1" parent="1" source="Lh2qIq0kyytRX2KrADmU-25" target="Lh2qIq0kyytRX2KrADmU-4">
          <mxGeometry width="50" height="50" relative="1" as="geometry">
            <mxPoint x="268" y="123" as="sourcePoint" />
            <mxPoint x="378" y="193" as="targetPoint" />
          </mxGeometry>
        </mxCell>
        <mxCell id="Lh2qIq0kyytRX2KrADmU-8" value="" style="endArrow=classic;html=1;exitX=1;exitY=0.5;exitDx=0;exitDy=0;entryX=0.5;entryY=1;entryDx=0;entryDy=0;entryPerimeter=0;fillColor=#dae8fc;strokeColor=#6c8ebf;" edge="1" parent="1" source="Lh2qIq0kyytRX2KrADmU-4" target="Lh2qIq0kyytRX2KrADmU-2">
          <mxGeometry width="50" height="50" relative="1" as="geometry">
            <mxPoint x="438" y="123" as="sourcePoint" />
            <mxPoint x="478" y="203" as="targetPoint" />
          </mxGeometry>
        </mxCell>
        <mxCell id="Lh2qIq0kyytRX2KrADmU-9" value="input" style="rounded=0;whiteSpace=wrap;html=1;fillColor=#D4E1F5;" vertex="1" parent="1">
          <mxGeometry x="539.5" y="192.26999999999998" width="31" height="20" as="geometry" />
        </mxCell>
        <mxCell id="Lh2qIq0kyytRX2KrADmU-10" value="" style="shape=image;verticalLabelPosition=bottom;labelBackgroundColor=#ffffff;verticalAlign=top;aspect=fixed;imageAspect=0;image=data:image/svg+xml,PHN2ZyB4bWxuczpkYz0iaHR0cDovL3B1cmwub3JnL2RjL2VsZW1lbnRzLzEuMS8iIHhtbG5zOmNjPSJodHRwOi8vY3JlYXRpdmVjb21tb25zLm9yZy9ucyMiIHhtbG5zOnJkZj0iaHR0cDovL3d3dy53My5vcmcvMTk5OS8wMi8yMi1yZGYtc3ludGF4LW5zIyIgeG1sbnM6c3ZnPSJodHRwOi8vd3d3LnczLm9yZy8yMDAwL3N2ZyIgeG1sbnM9Imh0dHA6Ly93d3cudzMub3JnLzIwMDAvc3ZnIiB4bWxuczpzb2RpcG9kaT0iaHR0cDovL3NvZGlwb2RpLnNvdXJjZWZvcmdlLm5ldC9EVEQvc29kaXBvZGktMC5kdGQiIHhtbG5zOmlua3NjYXBlPSJodHRwOi8vd3d3Lmlua3NjYXBlLm9yZy9uYW1lc3BhY2VzL2lua3NjYXBlIiB2ZXJzaW9uPSIxLjEiIGlkPSJMYXllcl8xIiB4PSIwcHgiIHk9IjBweCIgdmlld0JveD0iMCAwIDIzMS4xOTE0IDU0LjY2OTMxMyIgeG1sOnNwYWNlPSJwcmVzZXJ2ZSIgc29kaXBvZGk6ZG9jbmFtZT0iZ25taS1sb2dvLWluayBjb3B5LnN2ZyIgaW5rc2NhcGU6dmVyc2lvbj0iMS4wcmMxICgwOTk2MGQ2LCAyMDIwLTA0LTA5KSIgaW5rc2NhcGU6ZXhwb3J0LWZpbGVuYW1lPSIvVXNlcnMvcm9tYW5kb2Rpbi9Eb3dubG9hZHMvZ25taS1sb2dvMS5wbmciIGlua3NjYXBlOmV4cG9ydC14ZHBpPSI5NiIgaW5rc2NhcGU6ZXhwb3J0LXlkcGk9Ijk2IiB3aWR0aD0iMjMxLjE5MTM5IiBoZWlnaHQ9IjU0LjY2OTMxMiI+PG1ldGFkYXRhIGlkPSJtZXRhZGF0YTE3NCI+PHJkZjpSREY+PGNjOldvcmsgcmRmOmFib3V0PSIiPjxkYzpmb3JtYXQ+aW1hZ2Uvc3ZnK3htbDwvZGM6Zm9ybWF0PjxkYzp0eXBlIHJkZjpyZXNvdXJjZT0iaHR0cDovL3B1cmwub3JnL2RjL2RjbWl0eXBlL1N0aWxsSW1hZ2UiLz48ZGM6dGl0bGUvPjwvY2M6V29yaz48L3JkZjpSREY+PC9tZXRhZGF0YT48ZGVmcyBpZD0iZGVmczE3MiIvPjxzb2RpcG9kaTpuYW1lZHZpZXcgaW5rc2NhcGU6ZG9jdW1lbnQtcm90YXRpb249IjAiIHBhZ2Vjb2xvcj0iI2ZmZmZmZiIgYm9yZGVyY29sb3I9IiM2NjY2NjYiIGJvcmRlcm9wYWNpdHk9IjEiIG9iamVjdHRvbGVyYW5jZT0iMTAiIGdyaWR0b2xlcmFuY2U9IjEwIiBndWlkZXRvbGVyYW5jZT0iMTAiIGlua3NjYXBlOnBhZ2VvcGFjaXR5PSIwIiBpbmtzY2FwZTpwYWdlc2hhZG93PSIyIiBpbmtzY2FwZTp3aW5kb3ctd2lkdGg9IjI1NjAiIGlua3NjYXBlOndpbmRvdy1oZWlnaHQ9IjEzOTUiIGlkPSJuYW1lZHZpZXcxNzAiIHNob3dncmlkPSJ0cnVlIiBpbmtzY2FwZTp6b29tPSIzLjE4MDk1OTUiIGlua3NjYXBlOmN4PSIxMjcuMzMzOTciIGlua3NjYXBlOmN5PSI1Ny4xOTgzODYiIGlua3NjYXBlOndpbmRvdy14PSIxNDQwIiBpbmtzY2FwZTp3aW5kb3cteT0iMjMiIGlua3NjYXBlOndpbmRvdy1tYXhpbWl6ZWQ9IjEiIGlua3NjYXBlOmN1cnJlbnQtbGF5ZXI9ImcxNjUiIHNob3dndWlkZXM9ImZhbHNlIj48aW5rc2NhcGU6Z3JpZCB0eXBlPSJ4eWdyaWQiIGlkPSJncmlkMTIxNSIgb3JpZ2lueD0iLTEuMTkyNDYwOCIgb3JpZ2lueT0iLTQuODcwMTYyOSIvPjwvc29kaXBvZGk6bmFtZWR2aWV3PiYjeGE7PHN0eWxlIHR5cGU9InRleHQvY3NzIiBpZD0ic3R5bGUxMjgiPiYjeGE7CS5zdDB7ZmlsbDojMkRCQ0FGO30mI3hhOzwvc3R5bGU+JiN4YTs8ZyBpZD0iZzE2NyIgdHJhbnNmb3JtPSJ0cmFuc2xhdGUoLTEuMTkyNDYwOCwtNy41NTEyNzM4KSI+JiN4YTsJPGcgaWQ9ImcxMzYiIHN0eWxlPSJmaWxsOiMwMGM5ZmY7ZmlsbC1vcGFjaXR5OjEiIHRyYW5zZm9ybT0ibWF0cml4KDAuOTI2MTYzNjIsMCwwLDAuODM4ODI5ODksMS4xOTI0NjA4LDUuMzAyMjc3MykiPiYjeGE7CQk8ZyBpZD0iZzEzNCIgc3R5bGU9ImZpbGw6IzAwYzlmZjtmaWxsLW9wYWNpdHk6MSI+JiN4YTsJCQk8ZyBpZD0iZzEzMiIgc3R5bGU9ImZpbGw6IzAwYzlmZjtmaWxsLW9wYWNpdHk6MSI+JiN4YTsJCQkJPHBhdGggY2xhc3M9InN0MCIgZD0iTSAxNS41LDIzLjIgQyAxNS4xLDIzLjIgMTUsMjMgMTUuMiwyMi43IEwgMTcuMywyMCBjIDAuMiwtMC4zIDAuNywtMC41IDEuMSwtMC41IGggMzUuNyBjIDAuNCwwIDAuNSwwLjMgMC4zLDAuNiBsIC0xLjcsMi42IGMgLTAuMiwwLjMgLTAuNywwLjYgLTEsMC42IHoiIGlkPSJwYXRoMTMwIiBzdHlsZT0iZmlsbDojMDBjOWZmO2ZpbGwtb3BhY2l0eToxIiBpbmtzY2FwZTpjb25uZWN0b3ItY3VydmF0dXJlPSIwIi8+JiN4YTsJCQk8L2c+JiN4YTsJCTwvZz4mI3hhOwk8L2c+JiN4YTsJPGcgaWQ9ImcxNDQiIHN0eWxlPSJmaWxsOiMwMGM5ZmY7ZmlsbC1vcGFjaXR5OjEiIHRyYW5zZm9ybT0ibWF0cml4KDAuOTI2MTYzNjIsMCwwLDAuODM4ODI5ODksMS4xOTI0NjA4LDUuMzAyMjc3MykiPiYjeGE7CQk8ZyBpZD0iZzE0MiIgc3R5bGU9ImZpbGw6IzAwYzlmZjtmaWxsLW9wYWNpdHk6MSI+JiN4YTsJCQk8ZyBpZD0iZzE0MCIgc3R5bGU9ImZpbGw6IzAwYzlmZjtmaWxsLW9wYWNpdHk6MSI+JiN4YTsJCQkJPHBhdGggY2xhc3M9InN0MCIgZD0iTSAwLjQsMzIuNCBDIDAsMzIuNCAtMC4xLDMyLjIgMC4xLDMxLjkgbCAyLjEsLTIuNyBjIDAuMiwtMC4zIDAuNywtMC41IDEuMSwtMC41IGggNDUuNiBjIDAuNCwwIDAuNiwwLjMgMC41LDAuNiBsIC0wLjgsMi40IGMgLTAuMSwwLjQgLTAuNSwwLjYgLTAuOSwwLjYgeiIgaWQ9InBhdGgxMzgiIHN0eWxlPSJmaWxsOiMwMGM5ZmY7ZmlsbC1vcGFjaXR5OjEiIGlua3NjYXBlOmNvbm5lY3Rvci1jdXJ2YXR1cmU9IjAiLz4mI3hhOwkJCTwvZz4mI3hhOwkJPC9nPiYjeGE7CTwvZz4mI3hhOwk8ZyBpZD0iZzE1MiIgc3R5bGU9ImZpbGw6IzAwYzlmZjtmaWxsLW9wYWNpdHk6MSIgdHJhbnNmb3JtPSJtYXRyaXgoMC45MjYxNjM2MiwwLDAsMC44Mzg4Mjk4OSwxLjE5MjQ2MDgsNS4zMDIyNzczKSI+JiN4YTsJCTxnIGlkPSJnMTUwIiBzdHlsZT0iZmlsbDojMDBjOWZmO2ZpbGwtb3BhY2l0eToxIj4mI3hhOwkJCTxnIGlkPSJnMTQ4IiBzdHlsZT0iZmlsbDojMDBjOWZmO2ZpbGwtb3BhY2l0eToxIj4mI3hhOwkJCQk8cGF0aCBjbGFzcz0ic3QwIiBkPSJtIDI0LjYsNDEuNiBjIC0wLjQsMCAtMC41LC0wLjMgLTAuMywtMC42IGwgMS40LC0yLjUgYyAwLjIsLTAuMyAwLjYsLTAuNiAxLC0wLjYgaCAyMCBjIDAuNCwwIDAuNiwwLjMgMC42LDAuNyBMIDQ3LjEsNDEgYyAwLDAuNCAtMC40LDAuNyAtMC43LDAuNyB6IiBpZD0icGF0aDE0NiIgc3R5bGU9ImZpbGw6IzAwYzlmZjtmaWxsLW9wYWNpdHk6MSIgaW5rc2NhcGU6Y29ubmVjdG9yLWN1cnZhdHVyZT0iMCIvPiYjeGE7CQkJPC9nPiYjeGE7CQk8L2c+JiN4YTsJPC9nPiYjeGE7CTxnIGlkPSJnMTY1IiB0cmFuc2Zvcm09Im1hdHJpeCgwLjkyNjE2MzYyLDAsMCwwLjgzODgyOTg5LDQuODM1NDYxOSw3Ljc1ODIwODcpIj4mI3hhOwkJJiN4YTsJPHRleHQgeG1sOnNwYWNlPSJwcmVzZXJ2ZSIgc3R5bGU9ImZvbnQtc3R5bGU6bm9ybWFsO2ZvbnQtdmFyaWFudDpub3JtYWw7Zm9udC13ZWlnaHQ6bm9ybWFsO2ZvbnQtc3RyZXRjaDpub3JtYWw7Zm9udC1zaXplOjY5LjMzMzNweDtsaW5lLWhlaWdodDoxLjI1O2ZvbnQtZmFtaWx5OidOb2tpYSBQdXJlIEhlYWRsaW5lJzstaW5rc2NhcGUtZm9udC1zcGVjaWZpY2F0aW9uOidOb2tpYSBQdXJlIEhlYWRsaW5lIHdlaWdodD0yNTUnO2ZpbGw6IzAwMDAwMDtmaWxsLW9wYWNpdHk6MTtzdHJva2U6bm9uZSIgeD0iNDMuMzQ1Mzc1IiB5PSI0OC40OTQ2MTQiIGlkPSJ0ZXh0MTc4Ij48dHNwYW4gc29kaXBvZGk6cm9sZT0ibGluZSIgaWQ9InRzcGFuMTc2IiB4PSI0My4zNDUzNzUiIHk9IjQ4LjQ5NDYxNCIgc3R5bGU9ImZvbnQtc3R5bGU6aXRhbGljO2ZvbnQtdmFyaWFudDpub3JtYWw7Zm9udC13ZWlnaHQ6Ym9sZDtmb250LXN0cmV0Y2g6bm9ybWFsO2ZvbnQtZmFtaWx5OidOb2tpYSBQdXJlIFRleHQnOy1pbmtzY2FwZS1mb250LXNwZWNpZmljYXRpb246J05va2lhIFB1cmUgVGV4dCBCb2xkJztmaWxsOiMxMjQxOTE7ZmlsbC1vcGFjaXR5OjEiPmdOTUljPC90c3Bhbj48L3RleHQ+PC9nPiYjeGE7PC9nPiYjeGE7PC9zdmc+;" vertex="1" parent="1">
          <mxGeometry x="539.5" y="159.99999999999997" width="63" height="15" as="geometry" />
        </mxCell>
        <mxCell id="Lh2qIq0kyytRX2KrADmU-11" value="" style="rounded=1;whiteSpace=wrap;html=1;glass=0;fillColor=#7EA6E0;" vertex="1" parent="1">
          <mxGeometry x="328" y="183" width="80" height="40" as="geometry" />
        </mxCell>
        <mxCell id="Lh2qIq0kyytRX2KrADmU-12" value="" style="shape=image;verticalLabelPosition=bottom;labelBackgroundColor=#ffffff;verticalAlign=top;aspect=fixed;imageAspect=0;image=data:image/svg+xml,PHN2ZyB4bWxuczpkYz0iaHR0cDovL3B1cmwub3JnL2RjL2VsZW1lbnRzLzEuMS8iIHhtbG5zOmNjPSJodHRwOi8vY3JlYXRpdmVjb21tb25zLm9yZy9ucyMiIHhtbG5zOnJkZj0iaHR0cDovL3d3dy53My5vcmcvMTk5OS8wMi8yMi1yZGYtc3ludGF4LW5zIyIgeG1sbnM6c3ZnPSJodHRwOi8vd3d3LnczLm9yZy8yMDAwL3N2ZyIgeG1sbnM9Imh0dHA6Ly93d3cudzMub3JnLzIwMDAvc3ZnIiB4bWxuczpzb2RpcG9kaT0iaHR0cDovL3NvZGlwb2RpLnNvdXJjZWZvcmdlLm5ldC9EVEQvc29kaXBvZGktMC5kdGQiIHhtbG5zOmlua3NjYXBlPSJodHRwOi8vd3d3Lmlua3NjYXBlLm9yZy9uYW1lc3BhY2VzL2lua3NjYXBlIiB2ZXJzaW9uPSIxLjEiIGlkPSJMYXllcl8xIiB4PSIwcHgiIHk9IjBweCIgdmlld0JveD0iMCAwIDIzMS4xOTE0IDU0LjY2OTMxMyIgeG1sOnNwYWNlPSJwcmVzZXJ2ZSIgc29kaXBvZGk6ZG9jbmFtZT0iZ25taS1sb2dvLWluayBjb3B5LnN2ZyIgaW5rc2NhcGU6dmVyc2lvbj0iMS4wcmMxICgwOTk2MGQ2LCAyMDIwLTA0LTA5KSIgaW5rc2NhcGU6ZXhwb3J0LWZpbGVuYW1lPSIvVXNlcnMvcm9tYW5kb2Rpbi9Eb3dubG9hZHMvZ25taS1sb2dvMS5wbmciIGlua3NjYXBlOmV4cG9ydC14ZHBpPSI5NiIgaW5rc2NhcGU6ZXhwb3J0LXlkcGk9Ijk2IiB3aWR0aD0iMjMxLjE5MTM5IiBoZWlnaHQ9IjU0LjY2OTMxMiI+PG1ldGFkYXRhIGlkPSJtZXRhZGF0YTE3NCI+PHJkZjpSREY+PGNjOldvcmsgcmRmOmFib3V0PSIiPjxkYzpmb3JtYXQ+aW1hZ2Uvc3ZnK3htbDwvZGM6Zm9ybWF0PjxkYzp0eXBlIHJkZjpyZXNvdXJjZT0iaHR0cDovL3B1cmwub3JnL2RjL2RjbWl0eXBlL1N0aWxsSW1hZ2UiLz48ZGM6dGl0bGUvPjwvY2M6V29yaz48L3JkZjpSREY+PC9tZXRhZGF0YT48ZGVmcyBpZD0iZGVmczE3MiIvPjxzb2RpcG9kaTpuYW1lZHZpZXcgaW5rc2NhcGU6ZG9jdW1lbnQtcm90YXRpb249IjAiIHBhZ2Vjb2xvcj0iI2ZmZmZmZiIgYm9yZGVyY29sb3I9IiM2NjY2NjYiIGJvcmRlcm9wYWNpdHk9IjEiIG9iamVjdHRvbGVyYW5jZT0iMTAiIGdyaWR0b2xlcmFuY2U9IjEwIiBndWlkZXRvbGVyYW5jZT0iMTAiIGlua3NjYXBlOnBhZ2VvcGFjaXR5PSIwIiBpbmtzY2FwZTpwYWdlc2hhZG93PSIyIiBpbmtzY2FwZTp3aW5kb3ctd2lkdGg9IjI1NjAiIGlua3NjYXBlOndpbmRvdy1oZWlnaHQ9IjEzOTUiIGlkPSJuYW1lZHZpZXcxNzAiIHNob3dncmlkPSJ0cnVlIiBpbmtzY2FwZTp6b29tPSIzLjE4MDk1OTUiIGlua3NjYXBlOmN4PSIxMjcuMzMzOTciIGlua3NjYXBlOmN5PSI1Ny4xOTgzODYiIGlua3NjYXBlOndpbmRvdy14PSIxNDQwIiBpbmtzY2FwZTp3aW5kb3cteT0iMjMiIGlua3NjYXBlOndpbmRvdy1tYXhpbWl6ZWQ9IjEiIGlua3NjYXBlOmN1cnJlbnQtbGF5ZXI9ImcxNjUiIHNob3dndWlkZXM9ImZhbHNlIj48aW5rc2NhcGU6Z3JpZCB0eXBlPSJ4eWdyaWQiIGlkPSJncmlkMTIxNSIgb3JpZ2lueD0iLTEuMTkyNDYwOCIgb3JpZ2lueT0iLTQuODcwMTYyOSIvPjwvc29kaXBvZGk6bmFtZWR2aWV3PiYjeGE7PHN0eWxlIHR5cGU9InRleHQvY3NzIiBpZD0ic3R5bGUxMjgiPiYjeGE7CS5zdDB7ZmlsbDojMkRCQ0FGO30mI3hhOzwvc3R5bGU+JiN4YTs8ZyBpZD0iZzE2NyIgdHJhbnNmb3JtPSJ0cmFuc2xhdGUoLTEuMTkyNDYwOCwtNy41NTEyNzM4KSI+JiN4YTsJPGcgaWQ9ImcxMzYiIHN0eWxlPSJmaWxsOiMwMGM5ZmY7ZmlsbC1vcGFjaXR5OjEiIHRyYW5zZm9ybT0ibWF0cml4KDAuOTI2MTYzNjIsMCwwLDAuODM4ODI5ODksMS4xOTI0NjA4LDUuMzAyMjc3MykiPiYjeGE7CQk8ZyBpZD0iZzEzNCIgc3R5bGU9ImZpbGw6IzAwYzlmZjtmaWxsLW9wYWNpdHk6MSI+JiN4YTsJCQk8ZyBpZD0iZzEzMiIgc3R5bGU9ImZpbGw6IzAwYzlmZjtmaWxsLW9wYWNpdHk6MSI+JiN4YTsJCQkJPHBhdGggY2xhc3M9InN0MCIgZD0iTSAxNS41LDIzLjIgQyAxNS4xLDIzLjIgMTUsMjMgMTUuMiwyMi43IEwgMTcuMywyMCBjIDAuMiwtMC4zIDAuNywtMC41IDEuMSwtMC41IGggMzUuNyBjIDAuNCwwIDAuNSwwLjMgMC4zLDAuNiBsIC0xLjcsMi42IGMgLTAuMiwwLjMgLTAuNywwLjYgLTEsMC42IHoiIGlkPSJwYXRoMTMwIiBzdHlsZT0iZmlsbDojMDBjOWZmO2ZpbGwtb3BhY2l0eToxIiBpbmtzY2FwZTpjb25uZWN0b3ItY3VydmF0dXJlPSIwIi8+JiN4YTsJCQk8L2c+JiN4YTsJCTwvZz4mI3hhOwk8L2c+JiN4YTsJPGcgaWQ9ImcxNDQiIHN0eWxlPSJmaWxsOiMwMGM5ZmY7ZmlsbC1vcGFjaXR5OjEiIHRyYW5zZm9ybT0ibWF0cml4KDAuOTI2MTYzNjIsMCwwLDAuODM4ODI5ODksMS4xOTI0NjA4LDUuMzAyMjc3MykiPiYjeGE7CQk8ZyBpZD0iZzE0MiIgc3R5bGU9ImZpbGw6IzAwYzlmZjtmaWxsLW9wYWNpdHk6MSI+JiN4YTsJCQk8ZyBpZD0iZzE0MCIgc3R5bGU9ImZpbGw6IzAwYzlmZjtmaWxsLW9wYWNpdHk6MSI+JiN4YTsJCQkJPHBhdGggY2xhc3M9InN0MCIgZD0iTSAwLjQsMzIuNCBDIDAsMzIuNCAtMC4xLDMyLjIgMC4xLDMxLjkgbCAyLjEsLTIuNyBjIDAuMiwtMC4zIDAuNywtMC41IDEuMSwtMC41IGggNDUuNiBjIDAuNCwwIDAuNiwwLjMgMC41LDAuNiBsIC0wLjgsMi40IGMgLTAuMSwwLjQgLTAuNSwwLjYgLTAuOSwwLjYgeiIgaWQ9InBhdGgxMzgiIHN0eWxlPSJmaWxsOiMwMGM5ZmY7ZmlsbC1vcGFjaXR5OjEiIGlua3NjYXBlOmNvbm5lY3Rvci1jdXJ2YXR1cmU9IjAiLz4mI3hhOwkJCTwvZz4mI3hhOwkJPC9nPiYjeGE7CTwvZz4mI3hhOwk8ZyBpZD0iZzE1MiIgc3R5bGU9ImZpbGw6IzAwYzlmZjtmaWxsLW9wYWNpdHk6MSIgdHJhbnNmb3JtPSJtYXRyaXgoMC45MjYxNjM2MiwwLDAsMC44Mzg4Mjk4OSwxLjE5MjQ2MDgsNS4zMDIyNzczKSI+JiN4YTsJCTxnIGlkPSJnMTUwIiBzdHlsZT0iZmlsbDojMDBjOWZmO2ZpbGwtb3BhY2l0eToxIj4mI3hhOwkJCTxnIGlkPSJnMTQ4IiBzdHlsZT0iZmlsbDojMDBjOWZmO2ZpbGwtb3BhY2l0eToxIj4mI3hhOwkJCQk8cGF0aCBjbGFzcz0ic3QwIiBkPSJtIDI0LjYsNDEuNiBjIC0wLjQsMCAtMC41LC0wLjMgLTAuMywtMC42IGwgMS40LC0yLjUgYyAwLjIsLTAuMyAwLjYsLTAuNiAxLC0wLjYgaCAyMCBjIDAuNCwwIDAuNiwwLjMgMC42LDAuNyBMIDQ3LjEsNDEgYyAwLDAuNCAtMC40LDAuNyAtMC43LDAuNyB6IiBpZD0icGF0aDE0NiIgc3R5bGU9ImZpbGw6IzAwYzlmZjtmaWxsLW9wYWNpdHk6MSIgaW5rc2NhcGU6Y29ubmVjdG9yLWN1cnZhdHVyZT0iMCIvPiYjeGE7CQkJPC9nPiYjeGE7CQk8L2c+JiN4YTsJPC9nPiYjeGE7CTxnIGlkPSJnMTY1IiB0cmFuc2Zvcm09Im1hdHJpeCgwLjkyNjE2MzYyLDAsMCwwLjgzODgyOTg5LDQuODM1NDYxOSw3Ljc1ODIwODcpIj4mI3hhOwkJJiN4YTsJPHRleHQgeG1sOnNwYWNlPSJwcmVzZXJ2ZSIgc3R5bGU9ImZvbnQtc3R5bGU6bm9ybWFsO2ZvbnQtdmFyaWFudDpub3JtYWw7Zm9udC13ZWlnaHQ6bm9ybWFsO2ZvbnQtc3RyZXRjaDpub3JtYWw7Zm9udC1zaXplOjY5LjMzMzNweDtsaW5lLWhlaWdodDoxLjI1O2ZvbnQtZmFtaWx5OidOb2tpYSBQdXJlIEhlYWRsaW5lJzstaW5rc2NhcGUtZm9udC1zcGVjaWZpY2F0aW9uOidOb2tpYSBQdXJlIEhlYWRsaW5lIHdlaWdodD0yNTUnO2ZpbGw6IzAwMDAwMDtmaWxsLW9wYWNpdHk6MTtzdHJva2U6bm9uZSIgeD0iNDMuMzQ1Mzc1IiB5PSI0OC40OTQ2MTQiIGlkPSJ0ZXh0MTc4Ij48dHNwYW4gc29kaXBvZGk6cm9sZT0ibGluZSIgaWQ9InRzcGFuMTc2IiB4PSI0My4zNDUzNzUiIHk9IjQ4LjQ5NDYxNCIgc3R5bGU9ImZvbnQtc3R5bGU6aXRhbGljO2ZvbnQtdmFyaWFudDpub3JtYWw7Zm9udC13ZWlnaHQ6Ym9sZDtmb250LXN0cmV0Y2g6bm9ybWFsO2ZvbnQtZmFtaWx5OidOb2tpYSBQdXJlIFRleHQnOy1pbmtzY2FwZS1mb250LXNwZWNpZmljYXRpb246J05va2lhIFB1cmUgVGV4dCBCb2xkJztmaWxsOiMxMjQxOTE7ZmlsbC1vcGFjaXR5OjEiPmdOTUljPC90c3Bhbj48L3RleHQ+PC9nPiYjeGE7PC9nPiYjeGE7PC9zdmc+;" vertex="1" parent="1">
          <mxGeometry x="328" y="168.00000000000006" width="63" height="15" as="geometry" />
        </mxCell>
        <mxCell id="Lh2qIq0kyytRX2KrADmU-13" value="output" style="rounded=0;whiteSpace=wrap;html=1;align=center;fillColor=#D4E1F5;" vertex="1" parent="1">
          <mxGeometry x="361" y="193" width="47" height="20" as="geometry" />
        </mxCell>
        <mxCell id="Lh2qIq0kyytRX2KrADmU-14" value="" style="rounded=1;whiteSpace=wrap;html=1;fillColor=#7EA6E0;" vertex="1" parent="1">
          <mxGeometry x="328" y="253" width="80" height="40" as="geometry" />
        </mxCell>
        <mxCell id="Lh2qIq0kyytRX2KrADmU-15" value="" style="shape=image;verticalLabelPosition=bottom;labelBackgroundColor=#ffffff;verticalAlign=top;aspect=fixed;imageAspect=0;image=data:image/svg+xml,PHN2ZyB4bWxuczpkYz0iaHR0cDovL3B1cmwub3JnL2RjL2VsZW1lbnRzLzEuMS8iIHhtbG5zOmNjPSJodHRwOi8vY3JlYXRpdmVjb21tb25zLm9yZy9ucyMiIHhtbG5zOnJkZj0iaHR0cDovL3d3dy53My5vcmcvMTk5OS8wMi8yMi1yZGYtc3ludGF4LW5zIyIgeG1sbnM6c3ZnPSJodHRwOi8vd3d3LnczLm9yZy8yMDAwL3N2ZyIgeG1sbnM9Imh0dHA6Ly93d3cudzMub3JnLzIwMDAvc3ZnIiB4bWxuczpzb2RpcG9kaT0iaHR0cDovL3NvZGlwb2RpLnNvdXJjZWZvcmdlLm5ldC9EVEQvc29kaXBvZGktMC5kdGQiIHhtbG5zOmlua3NjYXBlPSJodHRwOi8vd3d3Lmlua3NjYXBlLm9yZy9uYW1lc3BhY2VzL2lua3NjYXBlIiB2ZXJzaW9uPSIxLjEiIGlkPSJMYXllcl8xIiB4PSIwcHgiIHk9IjBweCIgdmlld0JveD0iMCAwIDIzMS4xOTE0IDU0LjY2OTMxMyIgeG1sOnNwYWNlPSJwcmVzZXJ2ZSIgc29kaXBvZGk6ZG9jbmFtZT0iZ25taS1sb2dvLWluayBjb3B5LnN2ZyIgaW5rc2NhcGU6dmVyc2lvbj0iMS4wcmMxICgwOTk2MGQ2LCAyMDIwLTA0LTA5KSIgaW5rc2NhcGU6ZXhwb3J0LWZpbGVuYW1lPSIvVXNlcnMvcm9tYW5kb2Rpbi9Eb3dubG9hZHMvZ25taS1sb2dvMS5wbmciIGlua3NjYXBlOmV4cG9ydC14ZHBpPSI5NiIgaW5rc2NhcGU6ZXhwb3J0LXlkcGk9Ijk2IiB3aWR0aD0iMjMxLjE5MTM5IiBoZWlnaHQ9IjU0LjY2OTMxMiI+PG1ldGFkYXRhIGlkPSJtZXRhZGF0YTE3NCI+PHJkZjpSREY+PGNjOldvcmsgcmRmOmFib3V0PSIiPjxkYzpmb3JtYXQ+aW1hZ2Uvc3ZnK3htbDwvZGM6Zm9ybWF0PjxkYzp0eXBlIHJkZjpyZXNvdXJjZT0iaHR0cDovL3B1cmwub3JnL2RjL2RjbWl0eXBlL1N0aWxsSW1hZ2UiLz48ZGM6dGl0bGUvPjwvY2M6V29yaz48L3JkZjpSREY+PC9tZXRhZGF0YT48ZGVmcyBpZD0iZGVmczE3MiIvPjxzb2RpcG9kaTpuYW1lZHZpZXcgaW5rc2NhcGU6ZG9jdW1lbnQtcm90YXRpb249IjAiIHBhZ2Vjb2xvcj0iI2ZmZmZmZiIgYm9yZGVyY29sb3I9IiM2NjY2NjYiIGJvcmRlcm9wYWNpdHk9IjEiIG9iamVjdHRvbGVyYW5jZT0iMTAiIGdyaWR0b2xlcmFuY2U9IjEwIiBndWlkZXRvbGVyYW5jZT0iMTAiIGlua3NjYXBlOnBhZ2VvcGFjaXR5PSIwIiBpbmtzY2FwZTpwYWdlc2hhZG93PSIyIiBpbmtzY2FwZTp3aW5kb3ctd2lkdGg9IjI1NjAiIGlua3NjYXBlOndpbmRvdy1oZWlnaHQ9IjEzOTUiIGlkPSJuYW1lZHZpZXcxNzAiIHNob3dncmlkPSJ0cnVlIiBpbmtzY2FwZTp6b29tPSIzLjE4MDk1OTUiIGlua3NjYXBlOmN4PSIxMjcuMzMzOTciIGlua3NjYXBlOmN5PSI1Ny4xOTgzODYiIGlua3NjYXBlOndpbmRvdy14PSIxNDQwIiBpbmtzY2FwZTp3aW5kb3cteT0iMjMiIGlua3NjYXBlOndpbmRvdy1tYXhpbWl6ZWQ9IjEiIGlua3NjYXBlOmN1cnJlbnQtbGF5ZXI9ImcxNjUiIHNob3dndWlkZXM9ImZhbHNlIj48aW5rc2NhcGU6Z3JpZCB0eXBlPSJ4eWdyaWQiIGlkPSJncmlkMTIxNSIgb3JpZ2lueD0iLTEuMTkyNDYwOCIgb3JpZ2lueT0iLTQuODcwMTYyOSIvPjwvc29kaXBvZGk6bmFtZWR2aWV3PiYjeGE7PHN0eWxlIHR5cGU9InRleHQvY3NzIiBpZD0ic3R5bGUxMjgiPiYjeGE7CS5zdDB7ZmlsbDojMkRCQ0FGO30mI3hhOzwvc3R5bGU+JiN4YTs8ZyBpZD0iZzE2NyIgdHJhbnNmb3JtPSJ0cmFuc2xhdGUoLTEuMTkyNDYwOCwtNy41NTEyNzM4KSI+JiN4YTsJPGcgaWQ9ImcxMzYiIHN0eWxlPSJmaWxsOiMwMGM5ZmY7ZmlsbC1vcGFjaXR5OjEiIHRyYW5zZm9ybT0ibWF0cml4KDAuOTI2MTYzNjIsMCwwLDAuODM4ODI5ODksMS4xOTI0NjA4LDUuMzAyMjc3MykiPiYjeGE7CQk8ZyBpZD0iZzEzNCIgc3R5bGU9ImZpbGw6IzAwYzlmZjtmaWxsLW9wYWNpdHk6MSI+JiN4YTsJCQk8ZyBpZD0iZzEzMiIgc3R5bGU9ImZpbGw6IzAwYzlmZjtmaWxsLW9wYWNpdHk6MSI+JiN4YTsJCQkJPHBhdGggY2xhc3M9InN0MCIgZD0iTSAxNS41LDIzLjIgQyAxNS4xLDIzLjIgMTUsMjMgMTUuMiwyMi43IEwgMTcuMywyMCBjIDAuMiwtMC4zIDAuNywtMC41IDEuMSwtMC41IGggMzUuNyBjIDAuNCwwIDAuNSwwLjMgMC4zLDAuNiBsIC0xLjcsMi42IGMgLTAuMiwwLjMgLTAuNywwLjYgLTEsMC42IHoiIGlkPSJwYXRoMTMwIiBzdHlsZT0iZmlsbDojMDBjOWZmO2ZpbGwtb3BhY2l0eToxIiBpbmtzY2FwZTpjb25uZWN0b3ItY3VydmF0dXJlPSIwIi8+JiN4YTsJCQk8L2c+JiN4YTsJCTwvZz4mI3hhOwk8L2c+JiN4YTsJPGcgaWQ9ImcxNDQiIHN0eWxlPSJmaWxsOiMwMGM5ZmY7ZmlsbC1vcGFjaXR5OjEiIHRyYW5zZm9ybT0ibWF0cml4KDAuOTI2MTYzNjIsMCwwLDAuODM4ODI5ODksMS4xOTI0NjA4LDUuMzAyMjc3MykiPiYjeGE7CQk8ZyBpZD0iZzE0MiIgc3R5bGU9ImZpbGw6IzAwYzlmZjtmaWxsLW9wYWNpdHk6MSI+JiN4YTsJCQk8ZyBpZD0iZzE0MCIgc3R5bGU9ImZpbGw6IzAwYzlmZjtmaWxsLW9wYWNpdHk6MSI+JiN4YTsJCQkJPHBhdGggY2xhc3M9InN0MCIgZD0iTSAwLjQsMzIuNCBDIDAsMzIuNCAtMC4xLDMyLjIgMC4xLDMxLjkgbCAyLjEsLTIuNyBjIDAuMiwtMC4zIDAuNywtMC41IDEuMSwtMC41IGggNDUuNiBjIDAuNCwwIDAuNiwwLjMgMC41LDAuNiBsIC0wLjgsMi40IGMgLTAuMSwwLjQgLTAuNSwwLjYgLTAuOSwwLjYgeiIgaWQ9InBhdGgxMzgiIHN0eWxlPSJmaWxsOiMwMGM5ZmY7ZmlsbC1vcGFjaXR5OjEiIGlua3NjYXBlOmNvbm5lY3Rvci1jdXJ2YXR1cmU9IjAiLz4mI3hhOwkJCTwvZz4mI3hhOwkJPC9nPiYjeGE7CTwvZz4mI3hhOwk8ZyBpZD0iZzE1MiIgc3R5bGU9ImZpbGw6IzAwYzlmZjtmaWxsLW9wYWNpdHk6MSIgdHJhbnNmb3JtPSJtYXRyaXgoMC45MjYxNjM2MiwwLDAsMC44Mzg4Mjk4OSwxLjE5MjQ2MDgsNS4zMDIyNzczKSI+JiN4YTsJCTxnIGlkPSJnMTUwIiBzdHlsZT0iZmlsbDojMDBjOWZmO2ZpbGwtb3BhY2l0eToxIj4mI3hhOwkJCTxnIGlkPSJnMTQ4IiBzdHlsZT0iZmlsbDojMDBjOWZmO2ZpbGwtb3BhY2l0eToxIj4mI3hhOwkJCQk8cGF0aCBjbGFzcz0ic3QwIiBkPSJtIDI0LjYsNDEuNiBjIC0wLjQsMCAtMC41LC0wLjMgLTAuMywtMC42IGwgMS40LC0yLjUgYyAwLjIsLTAuMyAwLjYsLTAuNiAxLC0wLjYgaCAyMCBjIDAuNCwwIDAuNiwwLjMgMC42LDAuNyBMIDQ3LjEsNDEgYyAwLDAuNCAtMC40LDAuNyAtMC43LDAuNyB6IiBpZD0icGF0aDE0NiIgc3R5bGU9ImZpbGw6IzAwYzlmZjtmaWxsLW9wYWNpdHk6MSIgaW5rc2NhcGU6Y29ubmVjdG9yLWN1cnZhdHVyZT0iMCIvPiYjeGE7CQkJPC9nPiYjeGE7CQk8L2c+JiN4YTsJPC9nPiYjeGE7CTxnIGlkPSJnMTY1IiB0cmFuc2Zvcm09Im1hdHJpeCgwLjkyNjE2MzYyLDAsMCwwLjgzODgyOTg5LDQuODM1NDYxOSw3Ljc1ODIwODcpIj4mI3hhOwkJJiN4YTsJPHRleHQgeG1sOnNwYWNlPSJwcmVzZXJ2ZSIgc3R5bGU9ImZvbnQtc3R5bGU6bm9ybWFsO2ZvbnQtdmFyaWFudDpub3JtYWw7Zm9udC13ZWlnaHQ6bm9ybWFsO2ZvbnQtc3RyZXRjaDpub3JtYWw7Zm9udC1zaXplOjY5LjMzMzNweDtsaW5lLWhlaWdodDoxLjI1O2ZvbnQtZmFtaWx5OidOb2tpYSBQdXJlIEhlYWRsaW5lJzstaW5rc2NhcGUtZm9udC1zcGVjaWZpY2F0aW9uOidOb2tpYSBQdXJlIEhlYWRsaW5lIHdlaWdodD0yNTUnO2ZpbGw6IzAwMDAwMDtmaWxsLW9wYWNpdHk6MTtzdHJva2U6bm9uZSIgeD0iNDMuMzQ1Mzc1IiB5PSI0OC40OTQ2MTQiIGlkPSJ0ZXh0MTc4Ij48dHNwYW4gc29kaXBvZGk6cm9sZT0ibGluZSIgaWQ9InRzcGFuMTc2IiB4PSI0My4zNDUzNzUiIHk9IjQ4LjQ5NDYxNCIgc3R5bGU9ImZvbnQtc3R5bGU6aXRhbGljO2ZvbnQtdmFyaWFudDpub3JtYWw7Zm9udC13ZWlnaHQ6Ym9sZDtmb250LXN0cmV0Y2g6bm9ybWFsO2ZvbnQtZmFtaWx5OidOb2tpYSBQdXJlIFRleHQnOy1pbmtzY2FwZS1mb250LXNwZWNpZmljYXRpb246J05va2lhIFB1cmUgVGV4dCBCb2xkJztmaWxsOiMxMjQxOTE7ZmlsbC1vcGFjaXR5OjEiPmdOTUljPC90c3Bhbj48L3RleHQ+PC9nPiYjeGE7PC9nPiYjeGE7PC9zdmc+;" vertex="1" parent="1">
          <mxGeometry x="328" y="238.00000000000006" width="63" height="15" as="geometry" />
        </mxCell>
        <mxCell id="Lh2qIq0kyytRX2KrADmU-16" value="" style="endArrow=classic;html=1;exitX=1;exitY=0.5;exitDx=0;exitDy=0;entryX=0.5;entryY=1;entryDx=0;entryDy=0;entryPerimeter=0;fillColor=#dae8fc;strokeColor=#6c8ebf;" edge="1" parent="1" source="Lh2qIq0kyytRX2KrADmU-11" target="Lh2qIq0kyytRX2KrADmU-2">
          <mxGeometry width="50" height="50" relative="1" as="geometry">
            <mxPoint x="451" y="133" as="sourcePoint" />
            <mxPoint x="468" y="200" as="targetPoint" />
          </mxGeometry>
        </mxCell>
        <mxCell id="Lh2qIq0kyytRX2KrADmU-17" value="" style="endArrow=classic;html=1;exitX=1;exitY=0.5;exitDx=0;exitDy=0;entryX=0.579;entryY=1.008;entryDx=0;entryDy=0;entryPerimeter=0;fillColor=#dae8fc;strokeColor=#6c8ebf;" edge="1" parent="1" source="Lh2qIq0kyytRX2KrADmU-14" target="Lh2qIq0kyytRX2KrADmU-2">
          <mxGeometry width="50" height="50" relative="1" as="geometry">
            <mxPoint x="458.0000000000001" y="210.09000000000003" as="sourcePoint" />
            <mxPoint x="490.44000000000017" y="210" as="targetPoint" />
          </mxGeometry>
        </mxCell>
        <mxCell id="Lh2qIq0kyytRX2KrADmU-18" value="" style="endArrow=classic;html=1;exitX=1;exitY=0.5;exitDx=0;exitDy=0;entryX=0;entryY=0.5;entryDx=0;entryDy=0;fillColor=#dae8fc;strokeColor=#6c8ebf;" edge="1" parent="1" source="Lh2qIq0kyytRX2KrADmU-27" target="Lh2qIq0kyytRX2KrADmU-11">
          <mxGeometry width="50" height="50" relative="1" as="geometry">
            <mxPoint x="296.75" y="203" as="sourcePoint" />
            <mxPoint x="358" y="133" as="targetPoint" />
          </mxGeometry>
        </mxCell>
        <mxCell id="Lh2qIq0kyytRX2KrADmU-19" value="output" style="rounded=0;whiteSpace=wrap;html=1;align=center;fillColor=#D4E1F5;" vertex="1" parent="1">
          <mxGeometry x="365" y="123" width="43" height="20" as="geometry" />
        </mxCell>
        <mxCell id="Lh2qIq0kyytRX2KrADmU-20" value="output" style="rounded=0;whiteSpace=wrap;html=1;align=center;fillColor=#D4E1F5;" vertex="1" parent="1">
          <mxGeometry x="365" y="263" width="43" height="20" as="geometry" />
        </mxCell>
        <mxCell id="Lh2qIq0kyytRX2KrADmU-21" value="" style="endArrow=classic;html=1;entryX=0;entryY=0.5;entryDx=0;entryDy=0;exitX=1;exitY=0.5;exitDx=0;exitDy=0;fillColor=#dae8fc;strokeColor=#6c8ebf;" edge="1" parent="1" source="Lh2qIq0kyytRX2KrADmU-29" target="Lh2qIq0kyytRX2KrADmU-14">
          <mxGeometry width="50" height="50" relative="1" as="geometry">
            <mxPoint x="298" y="203" as="sourcePoint" />
            <mxPoint x="348" y="193" as="targetPoint" />
          </mxGeometry>
        </mxCell>
        <mxCell id="Lh2qIq0kyytRX2KrADmU-22" value="&lt;font style=&quot;font-size: 10px&quot;&gt;output&lt;/font&gt;" style="rounded=0;whiteSpace=wrap;html=1;fillColor=#D4E1F5;" vertex="1" parent="1">
          <mxGeometry x="574" y="179.99999999999997" width="31" height="20" as="geometry" />
        </mxCell>
        <mxCell id="Lh2qIq0kyytRX2KrADmU-23" value="" style="shape=image;verticalLabelPosition=bottom;labelBackgroundColor=#ffffff;verticalAlign=top;aspect=fixed;imageAspect=0;image=data:image/svg+xml,PHN2ZyB4bWxucz0iaHR0cDovL3d3dy53My5vcmcvMjAwMC9zdmciIHhtbG5zOnhsaW5rPSJodHRwOi8vd3d3LnczLm9yZy8xOTk5L3hsaW5rIiB2aWV3Qm94PSIwIDAgOTMgNTEiIGZpbGw9IiNmZmYiIGZpbGwtcnVsZT0iZXZlbm9kZCIgc3Ryb2tlPSIjMDAwIiBzdHJva2UtbGluZWNhcD0icm91bmQiIHN0cm9rZS1saW5lam9pbj0icm91bmQiPjx1c2UgeGxpbms6aHJlZj0iI0EiIHg9Ii41IiB5PSIuNSIvPjxzeW1ib2wgaWQ9IkEiIG92ZXJmbG93PSJ2aXNpYmxlIj48ZyBzdHJva2U9Im5vbmUiIGZpbGwtcnVsZT0ibm9uemVybyI+PHBhdGggZD0iTTQ1LjcwNyAwYy05LjIzIDAtMTYuNzEzIDcuNDgyLTE2LjcxMyAxNi43MTNzNy40ODMgMTYuNzEzIDE2LjcxMyAxNi43MTNTNjIuNDIgMjUuOTQzIDYyLjQyIDE2LjcxMyA1NC45MzcgMCA0NS43MDcgMHptMCAzMS4yOGMtMi42MjYgMC00Ljc1NS0xLjc1NC00Ljc1NS0zLjkxOGg5LjVjMCAyLjE2My0yLjEzIDMuOTE4LTQuNzU1IDMuOTE4em03Ljg1NC01LjIxNWgtMTUuN3YtMi44NWgxNS43djIuODV6bS0uMDU2LTQuMzE1SDM3Ljg5N2wtLjE1NS0uMThjLTEuNjA4LTEuOTUzLTEuOTg3LTIuOTcyLTIuMzU0LTQtLjAwNi0uMDM0IDEuOTUuNCAzLjMzNy43MTIuNTgzLjEzIDEuMTcuMjUgMS43NTcuMzU1LTEuMDAyLTEuMTc0LTEuNTk3LTIuNjY3LTEuNTk3LTQuMTkzIDAtMy4zNSAyLjU3LTYuMjc4IDEuNjQyLTguNjQ0LjkwMi4wNzMgMS44NjcgMS45MDQgMS45MzIgNC43NjcuOTYtMS4zMjUgMS4zNi0zLjc0NiAxLjM2LTUuMjMgMC0xLjUzNyAxLjAxMy0zLjMyMiAyLjAyNS0zLjM4My0uOTAzIDEuNDg4LjIzNCAyLjc2NCAxLjI0NCA1LjkyOC4zOCAxLjIuMzMgMy4yLjYyMyA0LjQ1Ny4wOTctMi42MzUuNTUtNi40OCAyLjIyMi03LjgwNi0uNzM3IDEuNjcuMSAzLjc2My42ODggNC43NjguOTM0IDEuNjIyIDEuNSAyLjg1IDEuNSA1LjE3NmE2LjQ2IDYuNDYgMCAwIDEtMS41NDYgNC4xNzNjMS4xMDQtLjIwNyAxLjg2Ni0uMzk0IDEuODY2LS4zOTRsMy41ODQtLjdzLS41MiAyLjE0LTIuNTIyIDQuMjA0eiIgZmlsbD0iI2RhNGUzMSIvPjxwYXRoIGQ9Ik0wIDM2LjkyMmMuNzc4LS4xMyAxLjc5Ny0uMjQgMy4wOTMtLjI0IDEuNTkzIDAgMi43Ni4zNyAzLjUgMS4wMzcuNjY3LjU5MyAxLjA5MyAxLjUgMS4wOTMgMi42MTIgMCAxLjEzLS4zMzMgMi4wMi0uOTYzIDIuNjY3LS44Ny45MDgtMi4yNCAxLjM3LTMuODE2IDEuMzctLjQ4MiAwLS45MjYtLjAyLTEuMjk3LS4xdjVILjAxem0xLjYgNi4wMmMuMzUyLjA5My43OTcuMTMgMS4zMzQuMTMgMS45NDUgMCAzLjEzLS45NjMgMy4xMy0yLjY1IDAtMS42NjctMS4xODUtMi40NjMtMi45NDUtMi40NjMtLjcwNCAwLTEuMjQuMDU2LTEuNTIuMTN6bTcuODkzLjE0OGwtLjA3NC0yLjc5N2gxLjQyNmwuMDc0IDEuNzc4aC4wNTZjLjQwOC0xLjIwNCAxLjQwOC0xLjk2NCAyLjUtMS45NjQuMTY3IDAgLjI5Ni4wMi40NDUuMDM3djEuNTM3Yy0uMTY3LS4wMzctLjMzMy0uMDM3LS41NTYtLjAzNy0xLjE0OCAwLTEuOTYzLjg1Mi0yLjE4NiAyLjA3NS0uMDM4LjI1Mi0uMDU3LjUwNi0uMDU2Ljc2djQuNzhoLTEuNjNWNDMuMDl6bTEzLjk5NCAxLjZjMCAzLjMxNi0yLjMxNSA0Ljc2LTQuNDY0IDQuNzYtMi40MDggMC00LjI5Ny0xLjc3OC00LjI5Ny00LjYxMiAwLTIuOTgyIDEuOTgyLTQuNzQyIDQuNDQ2LTQuNzQyIDIuNTc1IDAgNC4zMTYgMS44NyA0LjMxNiA0LjU5NHptLTcuMDk0LjA5M2MwIDEuOTY0IDEuMSAzLjQ0NSAyLjcwNCAzLjQ0NSAxLjU1NiAwIDIuNzIzLTEuNDYzIDIuNzIzLTMuNDgyIDAtMS41Mi0uNzYtMy40MjctMi42ODYtMy40MjctMS45MDggMC0yLjc0IDEuNzc4LTIuNzQgMy40NjR6bTkuMTUyLTIuMDc2bC0uMDc0LTIuNDI2aDEuNDI2bC4wNzQgMS40NjNoLjA1NmMuNS0uODUyIDEuMzM0LTEuNjUgMi44MzQtMS42NSAxLjIwNCAwIDIuMTMuNzQgMi41MiAxLjc5N2guMDM3YTMuNTQgMy41NCAwIDAgMSAxLjAxOS0xLjE2N2MuNTM3LS40MDcgMS4xLS42MyAxLjk2My0uNjMgMS4yMDQgMCAyLjk2NC43NzggMi45NjQgMy45djUuMjZIMzYuNzd2LTUuMDU2YzAtMS43NC0uNjUtMi43Ni0xLjk0NS0yLjc2LS45NDUgMC0xLjY1LjY4NS0xLjk0NSAxLjQ2M2EyLjc5IDIuNzkgMCAwIDAtLjEzLjgxNXY1LjUzOGgtMS41OTR2LTUuMzdjMC0xLjQyNi0uNjMtMi40NDUtMS44Ny0yLjQ0NS0xIDAtMS43Ni44MTUtMi4wMiAxLjYzLS4wOTMuMjIyLS4xMy41Mi0uMTMuNzk3djUuNGgtMS41OTN2LTYuNTR6bTE2LjM1NyAyLjM1NWMuMDM3IDIuMjA0IDEuNDI2IDMuMTEyIDMuMDc1IDMuMTEyIDEuMTY3IDAgMS45LS4yMDQgMi40ODItLjQ2M2wuMjk2IDEuMTY3Yy0uNTc0LjI2LTEuNTc0LjU3NC0zIC41NzQtMi43NiAwLTQuNDA4LTEuODM0LTQuNDA4LTQuNTM4czEuNTkzLTQuODE2IDQuMjA1LTQuODE2YzIuOTQ1IDAgMy43MDUgMi41NTYgMy43MDUgNC4yMDUuMDA1LjI1NS0uMDE0LjUxLS4wNTYuNzZ6bTQuNzgtMS4xNjdjLjAyLTEuMDItLjQyNi0yLjYzLTIuMjYtMi42My0xLjY2NyAwLTIuMzcgMS41LTIuNSAyLjYzem01LjU1NS01Ljc2djIuMTVoMi4zMzR2MS4yNGgtMi4zMzR2NC44MzVjMCAxLjEuMzE1IDEuNzQgMS4yMjMgMS43NC40NDUgMCAuNzA0LS4wMzcuOTQ1LS4xbC4wNzQgMS4yNGMtLjMxNS4xLS44MTUuMjIyLTEuNDQ1LjIyMi0uNzYgMC0xLjM3LS4yNi0xLjc2LS42ODUtLjQ0NS0uNS0uNjMtMS4yOTctLjYzLTIuMzUzdi00LjloLTEuMzg3di0xLjI0aDEuNHYtMS42NTZ6bTQuMTctMi4wNDdoMS42M1Y0MS43aC4wMzdhMy4wNyAzLjA3IDAgMCAxIDEuMTY3LTEuMTY3IDMuMzQgMy4zNCAwIDAgMSAxLjY2Ny0uNDQ1YzEuMjA0IDAgMy4xMy43NCAzLjEzIDMuODE2djUuMzM0aC0xLjYzdi01LjE0YzAtMS40NDUtLjUzNy0yLjY1LTIuMDc1LTIuNjUtMS4wNTYgMC0xLjg3Ljc0LTIuMTg2IDEuNi0uMDkyLjI0LS4xLjQ4Mi0uMS43Nzh2NS40aC0xLjYzVjM2LjA5OHptMTEuMTg4IDguOTY0Yy4wMzcgMi4yMDQgMS40MjYgMy4xMTIgMy4wNzUgMy4xMTIgMS4xNjcgMCAxLjktLjIwNCAyLjQ4Mi0uNDYzbC4yOTYgMS4xNjdjLS41NzQuMjYtMS41NzQuNTc0LTMgLjU3NC0yLjc2IDAtNC40LTEuODM0LTQuNC00LjUzOHMxLjU5My00LjgxNiA0LjIwNS00LjgxNmMyLjk0NSAwIDMuNzA1IDIuNTU2IDMuNzA1IDQuMjA1LjAwNi4yNTUtLjAxMy41MS0uMDU2Ljc2em00Ljc4LTEuMTY3Yy4wMi0xLjAyLS40MjYtMi42My0yLjI2LTIuNjMtMS42NjcgMC0yLjM3IDEuNS0yLjUgMi42M3ptMTEuMDk0IDIuOWwuMDc0IDIuNDY0aC0xLjQ0NmwtLjA5My0xLjQ2M2gtLjA0N2MtLjQwOC43MjItMS4zNyAxLjY2Ny0yLjk2NCAxLjY2Ny0xLjQwOCAwLTMuMDkzLS43OTctMy4wOTMtMy45Mjd2LTUuMjQyaDEuNjN2NC45NDVjMCAxLjcwNC41MzcgMi44NyAyIDIuODcgMS4wOTMgMCAxLjg1Mi0uNzYgMi4xNS0xLjVhMi4yNCAyLjI0IDAgMCAwIC4xNDgtLjgzNHYtNS40ODNoMS42M3ptMi40ODMuODE0Yy41LjI5NiAxLjM1Mi42MyAyLjE2Ny42MyAxLjE2NyAwIDEuNzIyLS41NzQgMS43MjItMS4zMzQgMC0uNzc4LS40NjMtMS4xODUtMS42NS0xLjYzLTEuNjMtLjU5My0yLjQtMS40NjMtMi40LTIuNTM4IDAtMS40NDUgMS4xODUtMi42MyAzLjA5My0yLjYzLjkwOCAwIDEuNzA0LjI0IDIuMTg2LjU1NmwtLjQgMS4xODVjLS4zNTItLjIyMi0xLS41MzctMS44MzQtLjUzNy0uOTYzIDAtMS40ODIuNTU2LTEuNDgyIDEuMjIzIDAgLjc0LjUxOCAxLjA3NCAxLjY4NSAxLjUzNyAxLjUzNy41NzQgMi4zNTIgMS4zNTIgMi4zNTIgMi42ODYgMCAxLjU5My0xLjI0IDIuNzA0LTMuMzM0IDIuNzA0LS45ODIgMC0xLjktLjI2LTIuNTItLjYzeiIgZmlsbD0iI2U2NTIyYyIvPjwvZz48L3N5bWJvbD48L3N2Zz4=;perimeterSpacing=25;" vertex="1" parent="1">
          <mxGeometry x="660" y="159.99999999999997" width="54.71" height="30" as="geometry" />
        </mxCell>
        <mxCell id="Lh2qIq0kyytRX2KrADmU-24" value="" style="endArrow=classic;html=1;exitX=0.21;exitY=0.682;exitDx=0;exitDy=0;fillColor=#dae8fc;strokeColor=#6c8ebf;exitPerimeter=0;entryX=1;entryY=0.5;entryDx=0;entryDy=0;" edge="1" parent="1" source="Lh2qIq0kyytRX2KrADmU-23" target="Lh2qIq0kyytRX2KrADmU-22">
          <mxGeometry width="50" height="50" relative="1" as="geometry">
            <mxPoint x="548" y="153" as="sourcePoint" />
            <mxPoint x="608" y="202" as="targetPoint" />
          </mxGeometry>
        </mxCell>
        <mxCell id="Lh2qIq0kyytRX2KrADmU-25" value="" style="shape=image;verticalLabelPosition=bottom;labelBackgroundColor=#ffffff;verticalAlign=top;aspect=fixed;imageAspect=0;image=data:image/png,iVBORw0KGgoAAAANSUhEUgAAAk8AAAJPCAYAAABlxzBuAAAQ/HpUWHRSYXcgcHJvZmlsZSB0eXBlIGV4aWYAAHjarZppdlwpkEb/s4peAhAMwXIYgnN6B738vvFSklW2ymWXS2kr05kveRDDN4CD/d//3vA//NTYNJTatY3WIj9llJEnLzR++7G359d7KZbn9/tPevudwpcfZJ6FZ3m92cvbp/L2/vv17eOZgb74INXvviAft8mfb9zn2/s55r/MqOwk8fOPfvt779F77bW6WRphaK9FvW4R3ofhwsVQ8nyt8ej8rbzuz2Pw0DjjTiWeuOPisdNImVvfVNIJaaabLB2ed9rMsWTLneecd5bnPZWeR94SJUnxR7q5y5AjKll2NhEpQfLHXNJz3/HcbyflzidxaU4MlvjKTx/hny74lce9OxKjlFh9eosV88rZ85A8jOK/uYyEpPuWt/oE+P3x8RM+JVbIYH3CrCxwxvUaYtX0rbbkKQDhusrzq75SP561/FRJ4d6VySQhBbElqaml2HPuKRXJSoImM89S8iIDqdZ8mGQuIo3cKHXEvflOT8+1uebX+7QK+anSpJObIZNklVKpn16UGppVaqm1ttqr1lFnaNJKq6213rznZpdeeu2t96599KmiRas27ao6dI48hJaso40+dIwxJ/ecJcw6+fbkijlXXrLKqqutvnSNNTfls8uuu+2+dY89Tz5yyqmnnX70jDMtGaUUrFi1Zt3Uhs1LrV255dbbbr96x50fWXvL6g+P38haestafjLl1/WPrPFu7z7QM0RynKmeMzKWSyLj3TNAQWfPWdRUSvbMec7iyHRFzUyyem5OijOkRgqLpVxv+sjdt8z9ct4Csf6nvOVfyVzw1P0HmcvB5Lu8fZG140i4n4y9utBjGoXuu9Fm1pnXCcIk/aVy8Z88hz8d4PcGWrPeWK9mu2u3O0c5pEhkg5m7pju0hL3G5i21U/epnYhAZZv48JylN5CYV9XWPY2uKlydDy/ytG2VYc+Ne9USbpQ2LuEf/fbaruRCvCkTMNsK1Sfn2qi7kKDU7yrFB94673xenW6Qy9Zw6pVZM3+owXOUrA6jjit/mpfP85I5/cNz+NUL//bZo0EsAsF4D8UrEGsrZfHEqHX6dqS1KrQ3qS1bYFi79BHvqNqS23T4NTXcMvyi86yXPlvWC+vPz0BvF315TS1iMZ3CgG/pPwqFPpmOf/AcfvFC1nXPsKc4SrNThHUSgEm6nziF+yqa7+KUJ+Uh2ek8ndbtJOGavGzwXO/yAVeW2jelcQvRCz+7pEzt9OocN72yVBfQ+lRG/P45/N0Hv/v8aSBf1V1yXpV7DtO5x6ukgi0/i1KrdVmIzfOYZW5gJ/driMrjz+vVb6DnvOOwdl0/uyKc/BRX7JXhXllaLf8+koTf/cKiOXfsoIoZbEXrljNB1jA6BKLohF267QZoo5Wb7b1pi3iXz5RJbofTJbBN31XviomEypp3Aw66ewwDkC9PgDNRIsFnodSIX92j9HOopbZs9oEeHyBZn6MrDNSHlHPgsQNr9TzDFjMGnkzPuGmmDb9oVarWhPUUCMhkgkxex4SyIjuPs0mgH/sUuaeW2xP5pgxINFHYMqgA7m652ARtbULeZUxZdc8F8dVzkKi3zT0OFkJmg6aAy7SKEsovcvzKsNmeexoabB1t205OfUBp+I+Rwm4I16rjgQ5I7gCrBmsm0wH39iisAQHncGooY3Ryb1KdLCVdhQOORdIQEICdAElbgjzddg9qQe6alF9xdaAzlZ2ZxVZA+TgKoRPOuioscsPH80qvYZW9h9TVXVpcMzrUSDtQPxf3rjqL5tYVIENVIOFRDS1pjupV4b2vD/MEFIwntdmd0nRxqcHtujFcF0HqqEJJiPdIm6PVkfsY1ggAU7RdkRB6cxnBZluYFIM9rJR9ckX2/4tOCT98sPpsVAtL96BH8gPt2SWv/CRXb408EqtjrKwhI+4m0CFO4p/RU4iTiYhGHR2UVNynOyS0c1ZLdpRhO3iDv5mS2r4unIB7nJGRui1hACGLFY3mlT2rJmcYSHzEQokvxxs5dXa6ouSjr7m3/D2sBzmrWxJaka7L1Kn2tdHz1rjdXhR/MWSZt6Fe1Fiatx9pyKd86PPerSLtJzHCDNTI/WdHPo5bRCmDCDusdneGDVduCDUa34DugxhoGxGJpkMkXpTZ6xbB78GgqD3QE7WSBFS43QaaI4EoLAMNW/mFqECJCIm/ddP9jVVwnzm8wGERq4cmq4Pftfe0cKu0EOCt8jAKwNHpVqJ6DdByt6nt7TvUFZoD4O4jYIhQlwvfw7/XMUCf0hsjFxrS7+v6dvBlWgiNPVDOqNq++LBM6rqOaF1WC4pGftUr8DEmX2cIYd4dAb7SreglRK8zTa9Dv5Q5iC0NZSH5LywJAGzUgquRdhKNj4luFSknB4O/km3UdfcJiqTsQov01kcSlnZKoBpXYlJ6wO5pACsSZNFA+kg+rtYu5hTmS14H3X+87trlX4lCowdYqAZX5rsZ+QcTAUsmD9YdRb8RzvrqupJ/lNDTO5fiAan51g4ySfV7M83u+CMX5sCK9DL8zp3uLzMd1/Ga6HEafkXo5u59Z3S8p6SDI91AeUUxPqcW4JxJ7rlIAEx7iYplm+EBWnKFL7aGoZBOGzT/HPmP8sfpokQhrpTb8fzEZljirVAAdM49XecMvsTtSAIVFqleV81MaUKBSpdJoJsJZuXzvK7RGJDCRQOncSAwZZVg/MTWUGeIG4S2RFCvC+ZuQXaHGiAXN1RDFXMXQwseLzt8UgN+dwf2aEtgeENOqd0xm+Me8hFNtRGkg8/XWglmFiobLT8yrfSmZC0N5/SnPUqiNFgYlaBOmyk+cjQWMIyImSL0oxlNNzIxcohx8RPjl5fT4R9jfxv5GSEbfYk9oOhneAbYgr5ShBVZr00As8eBRIeBzMsZB1BhC6jDRvb4aYD374fvBkCUwurA5rNpAevCPtsHnCBgEco8F1gD3zuulNaYbFHKqmBFEw11mxRAgBtBQ29/6FdC5w72GIpk0AcTJx6lqKFJKbdieURkr6vG19I+1gAEf6ziiwW7UKbGEQCf1+aaU8JXwflq2C+C8wzw/v3wewNMdS1B4gGQAaum2CkSkm7P0j6y/mXOP9fTk3XxYU8HgNSpARybu4YZgZqM3wPt4MLb40bj+abjRKLJxBEY6mOjM+ib1bCilrlw0zcF6tm0OrpKwl0s4ZjrlOKmnyompDflUuENFoRyaAAePYnWiAg9gKwrXNmZb0uw89OUofmOA/oiJbgKtzz2eooMBEarMSStJh0KGRMaTxWgpJDwfJSZAGOIvJLbigFF73swQx0qEQ0EEMyCHeBZpui7JchPrnRfHFND8WZg2gUtmDo3scPA1xQMiu7og5sR2cBlPURlarnNN/NcOkn0HRVK3uUV7Uv/H64AKsEIGA/Ih0YDpXt82+klBcRzQXQBerADlRU9RshY+nqvDBUffgkUsDpwZ2QnDoe8EvZN6hTiArQTJbQqHt8Lqt3iPi5TxwqOwrOoogVJ0ZGYRPjFANDNICTaQnWUe4CjSEUdz7oRSiCWekn5JgDiFUNAomhHEuyksOi8DcmIQiQHibF7MKKb6VpqHpQkuDpOBHQ1YtjgLvw1VdzRzq6n3MSQMkLH/PJBpdHmhAuEpIYoxQFzPZWCQCaImZW5kHOta+7eqeoVxaWegctHBy7trOEu8eBqaoUgfTP1Qs7IgjLWOenoqx0Log7gLBFCpsafnRDSoK+m+n7iT6/53N0LI3dg+OhgwQR9T+VGgH7y4kRUT8JU0Xw6n17EaZTs6AlfyA1jcjlw6Fstiaz65vyiKd2D349pkYpvE3tN67tJhY9wPlNyzRHTpwnFr6bE0lDA3e2PlGfPEDzafqOR1L3D24Dr84AFFs2KM0ICFt/7xGGCqWvsU+r7VgAsGsYGFTwv1lssivWoGDoKPHFlfCFXYwaOzj9bbvhqvX9dbqs+vXp/Hrnwdeh+P3LhLXSf8umI/WT0SahvUXyd0r/WWviVYvtLrf0wvdfkwvel5pIm4onHYWlo4IiPfHWp6/BHV+YGu4In0S0i7YVcvSucDivRXFcL3s9owrYWz+D1BCxwVkgpQXxhGY2gYDD7LTis4/od5dVgh+g2i7cAc5vq+2eYFXP/jiPBuiqqkXaprk8dtRsczrgHhcx0D2rk4IbSwe4fsobmw6t0LICWRITpuIKvwSHjAp+NTCrtAMeAFTPq7oGBNMZWVGM01CvWNuSuC3eCwr1YoOpGOR+Xw1ifvGuK/oR2U7KnFYGbgb4xFxrYel76vtP1445Wd98SHYBRvb5dUZ+SYGWC3Iy5aYJgRqYbgF+oA4StAvgzEZaCiQBMzXeFN24ib14IulQNZ4XUZumT8GJ0rh4XyWsiohamhyQQuRzS6Ml8y2JjaE1mwxXiw5BZIw9jGbgS6szLCFatJNkzggZAZ2RUPHCYGxKVYLdIu1K1YL2TEp4EpZzy/jv3itZvADdUwzvF6UJdjZAOhFPFMcChJB9XgoO9LrFd9gspwTrhSUdHyUyon2/panyj7xMr8t2QxyegPHw/EqqldkaOWg0bV1spDQWfS/OK6sj/gouBy5GY2x0rzLlfJcLMqLBwfNMGzeL7IQvYg63dtsxzIvgEbS4MPCLSN1O30aN4Uvh063TFVfR9pyTY9p2iU65v3m/MZrkZxkb2HEAO7kJ4wNd+b8RWpD0rb1GmlAl11XGYeACLWIiI/kVOuBEhJFQ21tJQeF1AiFqIxPXdKuZhfnokI+Hr0Quftm0AotDO11bVfSphkVKXO9Wjm3EShZP7wb1TtQ38MkUrE8OKhVh+NqAATXZhBlZ1GNJyRucBWkaz4tcacoBPMk5I3SLVOFhQMVFvevTeRGjRpMk3HMTNvTak4vTZ+k7+e68hYJTasooZwkQn9b0FuAdnpVQ+DiCHAj41kACdAgBio6gU/HzGQr0q8pRf2oAPf7Oh7rXLDOMgaTiltq5j514tglWAHdJXpIGxzcXrHSd0QJP+gGMevD4ZFrhu3Y8AKspqJhxJnXvSK/9UwyESF/V9eIz7XmajI0aru02EXX0kGeY2gg9oZ0w8y1TX3m0Px2hgH44trmLMK3hQeuI7rgtdF55NT2/z7Ju9q+6C6HzAzANbH9qR7UcE3QGTb7rcv6igzgQKrpUkoNQC4pBOgUx9ezh9vVOLzPUt4OOKvPjOS/IldPKQEdr+tVLCOvCMuicDwqgJsK80dyqsittCW24hquNZx8K5GG9Fe1X1U6uV6JQMF2gYEKQ39ro/OZfZi7pb4wip8FfiVgGRn7Dxzho7Af7UFPLPdzZapDidj4uzgRMdBEfOplHiKUNzBeKRHUnI2G6TqOgHgUR30O9wwY9F406x9BrBhYWjqX4wbXAoxNBjHQRDVz3oHKoDBn5QK6TbYS5WU2BC8/9EgcC/3Jc6Wu4cVvJNKeEDd7lgGm3J+1gbkAYqedtHDf/qyOG3DzN/cs6Gzn9OZHw7j7wQo09HMr6D5ZvwGH0/NSJM43Xo+H7k+Bw4+mGnvk4cvx1LMtDXl/hBlu8LMdzbeSTG82fHiOGPzh9/GOjtQPJPziPD5wPJPzmPDJ8PJP/kPDL8i4PLL0/awucDyT85jwyfDyT/5Dwy/Bfnjz8Z6B/OI4Hn7fq6L70x+wYoqhZ9OTaSAJvuG9G1I/Jil7G5ZIHQYymdPkF48S3cV60g098qwYPvzja8l4L/3wLf/CENwDFi/cwDSbYBrcHX8I41bWVExJw7L7SE75tEV7n+/03CGYi4cz6O+OevH/H/5Tn8R632bwaiwqjH8P/KHqSHM8IirwAAAAZiS0dEAP8A/wD/oL2nkwAAAAlwSFlzAAAuIwAALiMBeKU/dgAAAAd0SU1FB+QEHQ4iBlK9FKkAACAASURBVHja7d17/OZznf/x53zHaTIMKYaRxDrEzI4ialONFC2m4+ZQcthyiorKpiMpHVbFViJqQyLaosiitZFasSp+QzksKcXQyaCMU35/XO+paczh+n6/1+FzuN9vt/etw62mvq/P5/t5P+ZzXdfnmpDVnxOAMVguyZPKmlTWSmWtWP5xhUXW8uW/t2BNLGtkoTWhrAUeL+vPC63Hynp0ofVIkocXWfOTPFT+cX6SB8v6U1mPOozAWC5+AAubnGTdsqYlWaesqWWtleSpSVZrwM96b5LfJLk7ydyy7izr10l+VdYDTgtAPEG7f+83LOsZZa2f5OllPbVFs1itrI2W8Z/7TZJflHV7kp+XdWtZ7mBBi0zwsh001tQkm5a1cVkblTXBeHrm8SS3lHVzWTeWNdd4QDwB1TM5yYyypifZPMlmJZ4YrrlJfprkhiTXJ5lTlpcBQTwBA/KUJM8qa2ZZmxtL7dyQ5LqyflLWb40FxBMwPssn2TrJVmVtmeSZxtJYP0vyoyTXlHV1Op8gBMQTsATTkjy3rG1KOK1oLK31UAmoq5L8sKxfGwuIJ2izDZI8f6E13UhYhuuT/GChdZuRgHiCJpuW5IULrc2MhHH6aZLvLbTcmQLxBLW2fJIXJ9murK2NhD67Osl3y/rveM8UiCeogU2SvKSs7ZOsYiQMyf1JLk3yX2XdZCQgnqAqtkuyQ1nPNg4q6sdJLinru8YB4gkGaaUkOyV5WVlPMxJq5o4kF5V1YTpfmgyIJ+ipKUl2XmhNMRIaYl6Sby+05hkJiCcYq1WSvDzJ7CS7JFnZSGi4Pya5IMn5Sb6VzvumAPEESzUxySuTvKKsVY2ElrovyTfLOi/JY0YC4gkWtn2SVyd5VZK1jQP+xl1Jzk3yjXQ+wQfiCVpqepJ/KtE0wzigK3NKRP1HOk88B/EEDTc5ya5JXpvOJ+WAsbsoydeSnJPkAeNAPEGzvCDJbiWcnmoc0FO/KQF1dpIrjAPxBPW1WpI9kuyeznfJAf33vSRfTXJWknuNA/EE9bB1kteXcHKXCYbjNyWgvpLOd+6BeIIK2qNE085GAZXy7RJRZxkF4gmGb+0keyV5Q5LNjQMq7YYkX05yejqPPwDxBAP07CR7l3BazTigVu4tAXVaOl9YDOIJ+miHJPum8yZwoP6+muRLSS4xCsQT9NZuJZp2NApopItLRJ1tFIgnGJ83lvU8o4BWuDLJF8sC8QRdWinJm8qaaRzQStcl+UJZ840D8QSLt3KS/ZPsl+SZxgEk+VmSU5KcnOSPxoF4gr+NpgOSbGIcwGLclOTzIgrxRNutWILpwLjTBHTnZ0lOKiH1kHEgnmiTA5IcFO9pAsbmuiQnlogC8USjvaFEk0/PAb1wZYmoLxsF4ommeXmSg9N5yCVAr12S5IQk3zIKxBN1t22SQ9J5yCVAv52d5LNJvm8U9MvETJpmCvTDJkmOSueNndONAxiQ6Un+OclTktyW5HdGgnii6lZN8s4STdsZBzAkWyfZNZ1P9V4Xn8xDPFFR+6Tzxs3Xp/PsJoBhWjnJi5O8rMTTtUaCeKIqZiU5Psm7kqxtHEDFrJ3klUmelWRuktuNBPHEsKyX5Mh07jZtahxAxW2aZO8kU9J52OY8I0E8MUgHlWjaOckE4wBqYkI6z5nbJcmjSa4xEsQT/bZdkk8neXuSNYwDqKk1yl/+toyX8hBP9MlTk7w/nYfQbWYcQENskmSPdN5c/v+S/MlIEE/0wh4lmnZNMtE4gMbthZ0H+r44yf1JrjcSxBNjtWmSjyU5Jsk6xgE03DpJXpPkaUluTvJbI0E8MRoHpvMVB9sbBdAyz07yj0kejjeUsxi+245FPSvJ4em8VAd9N2vbLcf137933v25ds7NBkm/nJXk2CQ/MQrEE4vzliT/kmRdo2BQHv/91eP671/+gx9n1uwDDZJ++lWSf03yGaMgSUaMgHTuNn01nUcQCCeAv7VuuT5+tVwvEU+03EFJzk2ym1EALNVu5Xp5kFGIJ9pp0ySnJvlckqcbB0BXnl6um6fG11KJJ1plzyT/kc53PAEwenuX6+ieRiGeaLY1kxyX5MtJNjcOgHHZvFxPjyvXV8QTDbNDkrOTHGoUAD11aLm+7mAU4onmODydT4nMMgqAvphVrrOHG4V4ot42TXJaOs8nWd04APpq9XK9PS3eTC6eqKVXJzkjyV5GATBQe5Xr76uNQjxRDxOSvLf84m5pHABDsWW5Dr+3XJcRT1TUpklOT/LhJJOMA2CoJpXr8enxMp54opJmp/PQNs8cAaiWPcv1ebZRiCeq47AkX0qyjVEAVNI25Tp9mFGIJ4ZrrXS+5ftTSdYwDoBKW6Ncrz9Trt+IJ4bwt5gvJDnEKABq5ZBy/fZqgXhigHZNckqSXYwCoJZ2KdfxXY1CPNF/70hycpIZRgFQazPK9fwdRiGe6I/V03mt/BNJphgHQCNMKdf1T8U3QYgnemrzJCfGpzQAmuqwcp3f3CjEE+O3fZLPJdnNKAAabbdyvd/eKMQTY/e6JCckeaFRALTCC8t1/3VGIZ4Yvbel8yyQTYwCoFU2Kdf/txmFeKI7yyf5UJLjkzzZOABa6cllH/hQ2RcQTyzBWuWX5X1GAUDZD46PJ5KLJxZrkyTHJXmzUQCwkDeX/cHbOMQTC9kmnWd87GEUACzGHmWf8JUu4okkL0nnAWk7GQUAS7FT2S9eYhTiqc1eVX4RtjUKALqwbdk3XmUU4qmN9kzyr0lmGgUAozCz7B97GoV4apP9k3w8yd8ZBQBj8HdlH9nfKMRTG7w1yceSrGMUAIzDOmU/eatRiKcmOzzJR+ObswHojdXLvnK4UYinJnpvko8keZJRANBDTyr7y3uNQjw1yVFJPpxkOaMAoA+WK/vMUUYhnupuYjrfS3SkUQAwAEeWfWeiUYinOlo+ydHxPXUADNb7yv7jC4X7xMtI/bFCqf/3GAUAQ7Bg//lgkoeNo7fceepPkAonAKoQUEfGjRLxVHEThBMAFQyoCUYhnqrqyHiPEwDV8r744JJ4cnICgL/ci6d6e1c8WwOAajuq7FeIp6E7tBS9Z2oAUGUTy351qFGIp2E6sJyIk4wCgBqYVPatA41CPA3DXuUEXM0oAKiR1cr+tZdRiKdBek058aYaBQA1NLXsY68xCvE0CDuWE24DowCgxjYo+9mORiGe+ukfyok2wygAaIAZZV/7B6MQT/2weZIPJHmeUQDQIM8r+9vmRiGeemmdcmK5tQlAE+1Y9rl1jEI89cJK6dzS3NUoAGiwXct+t5JRiKfxOjLJ/sYAQAvsH181Jp7G6R1JjjAGAFrkiLL/IZ5Gba90Xv8FgLb5QDxEUzyN0svKibOqUQDQQquWffBlRiGeurFFOWE2NAoAWmzDsh9uYRTiaWnWSvL+eJYTAKTsh+8v+yPiabHen+TVxgAAf/Hqsj8inp7giCQHGwMAPMHB8elz8bSIPVU1ACzV+8t+KZ6MIC9I8r4kTzIKAFiiJ5X98gXiqd3WKyW9id8JAFimTcq+uZ54aq/3JXmp3wUA6NpLy/4pnlroiCT7+R0AgFHbLy1+A3lb4+mfkrzXuQ8AY/besp+KpxaYmc7txsnOewAYs8llP50pnpptUinlmc55ABi3mWVfnSSemus9SV7rXAeAnnlt2V/FUwO9Pt7nBAD98N6yz4qnBtmiVPEE5zcA9NyEss9uIZ6aYblyQDdzbgNA32xW9tvlxFP9eZ8TAAxGK97/1PR4emWSdzuXAWBg3l32X/FUQ+un8/TTlZzHADAwK5X9d33xVD9HJNnGOQwAA7dNGvz1LU2Np/2THODcBYChOaDsx+KpBrZMi7+sEAAq5IiyL4unintXkmc4XwFg6J5R9mXxVGHvjMcSAECVvLbsz+KpgrZtYt0CQAO8q+zT4qlCJpYD8xTnJwBUzlPKPj1RPFXHvyTZxbkJAJW1S9mvxVMFvCDJ4c5JAKi8w8u+LZ4qcCBWdz4CQOWtngbc8Kh7PL0zyWznIgDUxuzU/NN3dY6nreLlOgCoo8PLPi6eBuydSdZ0/gFA7ayZGt99qms87Z9kN+ceANTWbqnpd9/VMZ42SPIO5xwA1N47yr4unvrs7Uk2dr4BQO1tXPZ18dRHL09ysHMNABrj4LK/i6c+WKGOdQoALNPbyz4vnnrssCQvcn4BQOO8qOzz4qmHpic51LkFAI11aNnvxVMPBzrVeQUAjTU1NblRUod4ekWSNzqnAKDx3lj2ffE0Tm9zLgFAa1R+3696PL01yXbOIwBoje3K/i+exuBpcdcJANrobaUDxNMovSU1fGQ7ADBuG5QOEE+jsHUqfssOAOirt5YeEE9dekuSFZ03ANBaK6aid5+qGE+7JNnTOQMArbdn6QLxtAyHOFcAgKp2QdXiae8kOzpPAIBix9IH4mkxJiZ5s3MEAFjEm0sniKfFDGZr5wcAsIitU6EbLFWJpylx1wkAWLI3l14QT8VBSTZ1XgAAS7Bp6QXxlGRqVYYBAFTaQaUbWh9PByZZz/kAACzDeqUbWh1P6yY5wLkAAHTpgNIPrY2nA1KB228AQG1MzZBvvAwznp6WZH/nAAAwSvuXjmhdPO2XZE3HHwAYpTVLR7QqntYZ5g8NANTefqUnWhNPb4r3OgEAYze19EQr4mmNYf2wAECjvKl0RePj6Y0Z4pu8AIDGeFrpikbH00pJ/tmxBgB65J9LXzQ2nvZNsonjDAD0yCalLxobT+46AQC17otBxtMeSbZyfAGAHtuqdEbj4mkfxxYAqHtnDCqeXppkB8cVAOiTHUpvNCae9nZMAYAm9MYg4ml6ktc7ngBAn72+dEft42kvxxIAGJC+d0e/42m1JG9wHAGAAXlD6Y/axtOe8QXAAMDgTC39Uet4AgAYpNrG005JtnH8AIAB26Z0SO3i6XWOHQAwJH3rkH7F09+JJwBgyPH0d3WKpz2STHDcAIAhmZA+fd9dv+Jpd8cMABiyvvRIP+LpVUk2c7wAgCHbrHRJ5eNpN8cKAKiInndJr+Np/SS7Ok4AQEXsWvqksvG0a7xRHACojgnp8Y2dXsfTax0jAKBietonvYynWUm2cnyg2raYsXG2mLGxQfTBoQftkdWmrGIQUD1blU6pXDy9xrGB6ofTZeeflMvOP0lA9dipJxyZ4445LJedf5KAgmrqWaf0Kp5WEE9Qj3CasurkTFl1soDqcTjtvcfOSZKZ0zcSUFDdeFqhSvH06iRrOy5Q/XBaQED1PpwWEFBQSWuXXqlMPL3KMYH6hJOA6l84CSiotJ70Si/iaS3xBPULJwHVv3ASUFDpeFqrCvH0yiTLOx5Qv3ASUP0LJwEFlbR86ZZKxBNQ03ASUP0LJwEFlTT0eHpGkpc5DlDvcBJQ/QsnAQWV87LSL0OLp5c7BtCMcBJQ/QsnAQWVM65+GW88zTZ/aE44Caj+hZOAgkoZV7+MJ542TLK9+UOzwklA9S+cBBRUxvalYwYeT7uYPVTDUe/ar6fhJKD6F04LB9Q+r3MZhSEa8y/geOJpJ3OHatjn4KNz3fW39OXPbmtA9TOckuS0s76d4088y8kLwzPmjhlrPK2bZAdzh2q4d979mTX7QAFVo3Da5+APOnFhuHYoPTOweHLXCQSUcBJOUHdj6pmxxpNnO4GAEk7CCepuTD0zlnhaNck/mjcIKOEknKDm/rF0Td/jacckK5k3CKimBJRwgtZaqXRN3+PJG8VBQDUmoIQTtN6ou0Y8gYBqbUAJJ2AQ8fT8JOuZMwiougeUcAKK9Urf9C2eXmrGIKDqHlDCCRhP34w2nnyXHQioWgeUcALG2zejiae1k2xrviCg6hpQwglYgm1L5/Q8nl5stiCg6hpQwgnoVeeMJp62M1cQUHUMKOEE9LJzRhNPs8wVBFTdAko4Ab3unG7j6e+TbGiuIKDqFFDCCRiFDUvv9CyeXmSmIKDqFFDCCRiDrnqn23h6oXmCgKpLQAknYIy66p1u4+kF5gkCqg4BJZyAceiqd7qJp+ckWcs8QUBVPaCEEzBOa5XuGXc8Pd8sQUBVPaCEE9Ajy+we8QTUPqCEEzDIeJqQ1Zd5d+rXSdYxS2if1aasksvOPykzp2/Ulz9/3n0PZMqqk8f1Z9x9z++y1pprCCegV+5MMm1p/4Fl3XmaIZygvQZxB2q8hBPQY+uU/hlzPD3PDEFA9TOgqko4Qas9bzzx9FzzA9oWUMIJWu+544mnrc0PaFNACSdgWf2ztHiammRz8wPaElDCCSg2Lx006nh6jtkBbQko4QR020FLi6etzA1oQ0AJJ2A0HSSegFYHlHACehlPW5ob0OSAEk7AWDpoSfG0UXwZMNDggBJOwDKsVXqo63h6lpkBTQ0o4QR06VniCWh9QAknoF/xNNO8gKYFlHACRmmmeAJaG1DCCehnPD0tnW8UBmhEQAknYIzWKV20zHiaYVbVcPxH3p59XreLQSCghBMtsdqUVXLeGcdmixkbG0Z1zOgmnqab0/CdesKReduBu+dLn/2AgEJACSdaEk6XnX9SXrHTi3LZ+ScJqOqYLp5qEk5777HzX/61gEJACSfaEU4zp3ceKzRl1ckCqmbxtJk5VSecBBQCSjjRrnBaQEBVxmbiqYbhJKAQUMKJdoWTgKpXPG2SZJI5VS+cBBQCSjjRrnASUJUxqfTREuNpUzOqbjgJKASUcKJd4SSgKmNT8VTjcBJQCCjhRLvCSUBVP54ckRqEk4BCQAkn2hVOAmroNhZPDQgnAYWAEk60K5wEVHXjaSPzqU84CSjaHFDCiTaGk4Aamo2WFE9PTrKW+dQrnAQUbQwo4USbw0lADcVapZOeEE8bmk09wwnaFFDCCQTUkGy4uHjawFzqG077HnJ0Tj3zAoOm0QElnGjyXwwEVOVtIJ6EE9RqoxFOCCgBVcV4Wt9chBNUcaMRTggoAVUBf+mkCVn9OQv++cVJdjAb4QRVsdqUVbLP63bJ8SeeZRg06rzuxxvIF5h33wOZNfvAXDvnZsPurUuS7LhoPN2YRb67BeEEgIAiSXJTypPGF37Zbj1zEU4A9J+X8GrpL520IJ6mpvOtwQgnAAQUTzSp9NJf4mldMxFOAAgolmpd8SScABBQjDGe1jEP4QSAgGKp1hFPwgkAAcUY42lt8xBOAAgolmrtheNpqnkIJwAEFEs1VTwJJwAEFGOMpzXNQzgBIKBYqjXFk3ACQEAJqDHE02pJVjAP4QSAgGKpVkgyeSTJU8xCOAEgoARUd+MaSbKGOQgnAASUgOrKqiNJnmwOwgkAASWguo+n1c1BOAEgoARUV1YRT8IJAAEloEYZT1PMQTgBIKAEVFdWFk/CCQABJaBGGU+rmoNwAkBACaju42kV4SScABBQAqork0aSTBZOwgkAASWguvKkkSQrCyfhBICAElBdWam18SScABBQAmqs8TRJOAknAASUgOrKiq2LJ+EEgIASUOONp5WEk3ACQEAJqK6sMJJkReEknAAQUAKqK8uPJFlBOAknAASUgOrKchOy+nPuS4MflNnvcIIm+ODHT8lRHz/FIJbh8d9fbQiwFPPueyCzZh+Ya+fc3OQf8z9HkiwnnACA8WrJHaiJjY0n4QQAAqpf8TQinAAAAdWVkcbFk3ACAAHVRxNGkkwQTgCAgOo+noQTACCgujSS5HHhBAAIqK48PpLkz3X+CbaYsbFwAoAaBNTxH3m7eKqCa+fcnH0POdpZCQAVdt31t+SVex7ehB/lzyNJHq37T3HqmRcIKACocDjNmn1g7p13fxN+nMcaEU8CCgCE0yDj6ZGm/DQCCgCEU589OpLk4Sb9RAIKAIRTv+Ppoab9VAIKAIRTnzwykmR+E38yAQUAwqkPHl4uyYNN/elOPfOCJMmXPvuBvv1v3H3P73LjLb/w20Kt3X7HXYbQhct/8GNDoNYmrzwpM2dsnOUmThROY/dQo+NpEAG11ppr5KJLf5h9Dv6g30pouFmzDzQEamuLGRvnsvNPEk49iKeJmTRt9yQbNPmnvHbOzfnFHXfllTu9qG8n5DPWWyfnXXi5304AKhtOU1adLJzG74qJmTTtNUk2bfpPKqAAEE7CqQe+OzGTpu2S5O/b8NMKKACEk3Aap4snZtK0lybZqi0/sYACQDgJp3H49sRMmvbCJM9v008toAAQTsJpjM6dmEnTtk6yfdt+cgEFgHASTmNw9sRMmvb3SXZq408voAAQTsJplM6YmEnTNkrymrZOQEABIJyE0yh8YWImTVs3yevbPAUBBYBwEk5d+tzETJq2RpI3tX0SAgoA4SScuvCpiZk0bVKSt5qFgAJAOAmnZfroxEya9uckR5iFgAJAOAmnZTpyYiZNm5/kPUkmmoeAAkA4CaclejjJByZm0rQkOSDJqmYioAAQTsJpie5KctyCeNozydpmIqAAEE7CaYn+L8nJC+LpFUk2MhMBBYBwYol+kuTMBfG0fZJnmYmAAkA4sURXJPnWgnjaOskLzURAASCcWKILk/z3gnjaNMnOZiKgABBOLNHZSf53QTxNS7K7mQgoAIQTS/SFJDcuiKfJSfY3EwEFgHBiiT6Z5M4F8fTnJO80EwEFgHBiiY5M8sCCeHogybuSLG8uAgoA4cQTPJjk3UmyIJ6S5A1JnmI2AgoA4cQT3Jbks4vG0+wkG5qNgAJAOPEEP05yxqLx9IIkW5qNgAJAOPEElya5IElGFvo3bzeX8Tn1zAuy7yFH9+3P33uPnXPqCUcaNK3bVFabsophIJyE07D9pZMWjqfbzEVAQdU2lRc9/9kCCuEknKrgNvEkoKA2m8rM6RsJKISTcKpkPN1qLgIKqrqpCCiEk3AaslsXF0+/T3K32QgoqOqmIqAQTsJpSO4unfSEeEqSW8xHQEGVNxUBhXASTkPwN320aDzdbD4CCqq+qQgohJNwGrC/6aOFn/OUJM9M8hIz6r1BPAdq9Smr5KJLrzRsWrGpTF1zjfzjS/4hX/3GdzL/oYcNkspaf72188PvfEk41dvZSX6w4F8seufpRvPpn37egZp33wM59awLDJlW/W3cHSjq4PZf3pXzvt2fBxwLp4H5mz4STw0IqHn3PZBZsw/MtXO86kp7wklAUSf7HPzBnHbWt4VTQ+PppnS+NZiaBJRwos3hJKBoa0AJp4F6sPTREuMpSX5qTvUIKOGEcBJQtC+ghNPAPaGLxFNNA0o4IZwEFO0LKOFUjXha9NN2SbJRkpea1WCM5VN4wgnhtGQ+hUcdnHfh5XnGeutkixkbC6fqOzMLfdJuSfE0JcnrzaqaASWcEE4CivYFlHAaquOzyEMyFxdP85McZlbVCyjhhHASULQvoITT0L07yX0L/xuLe8/THUnuNKvBW9p7oIQTwmn0vAeKOljae6CE09DdWbrobyzuzlPSecr4RmY2eIu7AyWcEE5j5w4UdbC4O1DCqRK+n+Qr3cbT9CTbmtnwA0o4IZwEFO0LKOFUGV9Pcumi/+aErP6cxf2Hd03ne1wYolfu/KLc/su7hBPCqUdsSNTBoQftkVPPvMB5Wg27JTmn23jaKIt8gzBAncNJQAFjsHEW+aRdsvg3jKf8B+82M6BJ4ZR4EznQtbsXF05Li6ck+ZG5AU0KJwEFjMISO2hp8XSNuQFNCycBBXTpGvEECCcBBfQ5nv7X3ICmhpOAApbhf8cST3OT3GB2QFPDSUABS3BD6aBRx1OSXG1+QJPDSUABo+2fZcXTD80PaHo4CShgNP2zrHi60vyANoSTgAK67Z9lxdOcdL5RGBBOjQ8nAQWU7pkznnhKkv8xRxBOVQ2nRx97TEABvbTM7ukmnn5gjiCc+uG6628Z/58x5+bMu+8BAQX0yjK7RzwBQwunWbMPHPef88AfH8ys2QcKKKBS8fS/8SXBIJz6EE73zru/J3/etXNuFlBAL9ydLh4SPtLlH3aFeYJwqmI4CSigh7rqnW7j6XvmCcKpquEkoIAe6ap3uo2ny80ThFOVw0lAAT3QVe90G0//L8mtZgrCqcrhJKCAcbi19E7P4ilJLjNXEE5VDycBBYxR150zmnj6rrmCcKpDOAkoYAy67pzRxNN/mysIp7qEk4ACRqnrzhlNPN2V5PtmC8KpLuEkoIAufb90Ts/jKUkuNV8QTnUKJwEF9LpvRhtP3zFfEE51CycBBfSyb0YbTz9I8kszBuFUt3ASUMAS/DKj/B7fkTH8j1xiziCc6hhOAgroRdeIJxBOrQonAQUMI54uTjLfrEE41TWcBBRQzC9d0/d4ui/Jf5o3CKc6h5OAAkrP3DeIeEqSi8wbhFPdw0lAQeuNqWfGGk8XmjcIpyYRUNBKY+qZscbTr+KN4yCcGkZAQatcUnpmYPE05loDhJOAElBQAWPumPHE0wXmDsJJQAkoqKkxd8x44unW+K47qISj3rWfcKphQM3a9tlOXhiOS0vHDDyekuR884fh2+fgo3Pd9bcIpxoF1L6HHJ3zvn25kxeGY1z9Mt54+pb5w/DdO+/+zJp9YE8Dqu3h1M+A2veQo3Pqmd75AEM0rn4Zbzz9PJ75BI0LKOHUv4ASTjB0F5V+GVo8Jcl5jgM0J6CEU/8CSjhBJYy7W3oVT484FlD/gBJO/Qso4QSV8EhV4unuJOc6HlDvgBJO/Qso4QSVcW7plqHHU8QT1DughFP/Ako4QeXiadx6FU/fSHKXYwL1Cyjh1L+AEk5QKXeVXqlMPD2c5OuOC9QroIRT/wJKOEHlfL30SmXiKeIJ6hVQwql/ASWcoLLx1BO9jKfLklzj2ED1A0o49S+ghBNU0jWlU3piuR7/n/takq0cI6h2QC345/Q2oNaf+QpzhWr6Wi//sJEe/587J8njjhFUO6Bs8P2bLVA5j5c+qWw83d7r/4MAAONwTumTysZTkpztOAEAFdHzLulHPJ2b5KeOFQAwZD9NHx7kPdKn/7NfdbwAgCHrS4/0K57ODsXSLAAADmBJREFUijeOAwDD83jpkdrE0/8lOdNxAwCG5MzSI7WJp4gnAGDI8dQX/YynC5Nc5dgBAAN2VemQ2sVTkpzh+AEAA9bX/hhEPM11DAGAAZlb93i6N8mXHUcAYEC+XPqjtvGUJKc7jgDAgPS9OwYRT9cn+YpjCQD02VdKd9Q+npLkNMcTAGhCbwwqnr6T5BLHFADok0tKbzQmnpLkVMcVAKh7Zwwyns5Kco1jCwD02DXp0/fYDTuekuTfHV8AoM59Meh4+lKSmxxjAKBHbip90dh4mh93nwCA3vn30heNjack+WKSOxxrAGCc7ihdMVDDiKffJfmC4w0AjNMXSlc0Pp4W/LC+MBgAGKu5GdLNmGHF051JTnHcAYAxOqX0RGviacEPfY9jDwCM0j0Z4k2YYcbTHUlOdvwBgFE6OUP88NnIkH/4z8d7nwCA7s0t/TA0w46nXw17AABArXy+9ENr4ylJTkryS+cCALAMvyzdMFRViKe5SU50PgAAy3BiKvB2n5EKDeNG5wQAsAQ3piI3W6oST/OSfM55AQAswedKL4inRYZytXMDAFjE1anQTZYqxdNjcfcJAHiiz5VOEE+LcVqSi50jAEBxcemDyhip4JA+6zwBAKraBVWMpwuSnOFcAYDWO6N0gXjqwmeSPOScAYDWeqj0QOVUNZ6uTvJp5w0AtNanU9FP4Y9UeGifSXKbcwcAWue2VPSuU9Xj6Y4k/+b8AYDW+bfSAeJpDD6d5LvOIQBoje+m4m/dGanBEN19AoD2qPy+X4d4+maSLzqXAKDxvlj2ffHUA8cnmeucAoDGmlv2+8qrSzxdX5eBAgBjcnzZ78VTDx2X5HLnFgA0zuVln6+FOsXTw0k+5fwCgMb5VNnnxVMffCvJCc4xAGiME8r+XhsjNRzyp5Lc7FwDgNq7OTV8VamO8XRbkk863wCg9j6ZGn4V20hNh31ykrOdcwBQW2eX/bx2Rmo89E8kuce5BwC1c0/Zx2upzvF0TZJjnX8AUDvHln1cPA3BJ5Kc7xwEgNo4PzW+69SEeFpQr39wLgJA5f0hDXjVqAnxdEW8fAcAdXBs2bfFUwX8a5ILnJMAUFkXlP269poST48l+XiS3zo3AaByflv26cfEU7V8vxwYAKBaPl726UYYadjB+USSrzlHAaAyvpaaf7qu6fG0oG5/7lwFgKH7eRr4qlAT4+lHST7mfAWAoftY2ZfFUw2cnOTzzlkAGJrPp6bfXdfWeFpQu1c5dwFg4K5Kg18FanI83V4O3HznMAAMzPyy/94unurpvCQfdR4DwMB8tOy/jTXSgoP4kXh8AQAMwtfKvttobYinR8uB/KlzGgD65qdlv31UPDXDteWAPu7cBoCee7zss9e24YcdadGB/UqSY5zfANBzx5R9thVGWnZwvf8JAHqrFe9zanM8PVjq+DrnOgCM23VlX31QPDX/QH84yQPOeQAYswfKftq6GxIjLT3g/xHvfwKA8Tim7KetM9Lig/6xJKc49wFg1E5Jg79+RTwt3YeTfMfvAAB07Ttl/2yttsfTL5N8KMlNfhcAYJluKvvmL8VTu11RCvpPRgEAS/Snsl9e0fZBiKeOM0pJAwCL96GyX7aeePqrjyU5wRgA4AlOSIvfIC6ell3V3zAGAPiLb8SrM+JpKe4uJ8iVRgEAubLsi3cbhXhammuTHJ3kVqMAoMVuLfvhtUYhnrpxUTlh7jMKAFrovrIPXmQU4mk0Ti8nDgC0zdFlH0Q8jdon49MFALTLx8r+h3gasw8mOdkYAGiBk8u+h3gal/nlRDrHKABosHPKfjffKMRTL9yZzuu/FxsFAA10cdnn7jQK8dRLN5QTyzOgAGiSK8v+doNRiKd++J90bmnOMQoAGmBO2df+xyjEUz9dXE6024wCgBq7rexn3pIingbi6+WEm2sUANTQ3LKPfd0oxNMgnV5OvHuNAoAaubfsXx6CKZ6G4qRyAj5oFADUwINl3zrJKMTTMB1fTsTHjAKACnus7FfHG4V4qoKPJznKGACosKPKfoV4qowPxyPtAaimD5Z9CvHk5AQAf7kXT3X2eDlBP2IUAFTAR8q+9LhRiKcqe1RAAVChcHrUKHprOSPoi4fz1zeQv8c4ABhCOB2V5BGj6D13nvrnkSQfiPdAATBYHy77j3AST7X0WJL3xxv1ABiMD5Z9x7MHxVPtHZXkffG6MwD98WjZZ44yCvHUJMek8/6nPxkFAD30p7K/HGMU4qmJjk3y7iR/MAoAeuAPZV851ijEU5N9OskRSe40CgDG4c6yn3zaKMRTG5yc5F1J/s8oABiD/yv7yMlGIZ7a5Iwk/5LkOqMAYBSuK/vHGUYhntro3CTvTPJ9owCgC98v+8a5RiGe2uy/yi/ChUYBwFJcWPaL/zIK8URyVZK3JznLKABYjLPKPnGVUYgn/uqmJIcl+ZxRALCQz5X94SajEE880d1JDo3vwwOg48NlX7jbKMQTS/ZIOt9LdGiS3xsHQCv9vuwD748v+BVPdO3fkrwlbtMCtM1N5fr/b0Yhnhi9M5McnOR7RgHQCt8r1/0zjUI8MXaXJnlzkrONAqDRzi7X+0uNQjwxfjckOSjJcUYB0EjHlev8DUYhnuidP6TzjI93JplnHACNMK9c199ervOIJ/rgk0n2TzLHKABqbU65nn/SKMQT/XdOkv2SXGAUALV0QbmOn2MU4onBuSrJm5J81igAauWz5frtq1bEE0NwdzrPAnl7kt8ZB0Cl/a5cr98STwwXTwzdcUn29bcYgMq6qlynfWpaPFEh5yfZJ8kZRgFQKWeU6/P5RiGeqJ4bk+yV5H1JHjQOgKF6sFyP9yrXZ8QTFfV4kmOS7JnkR8YBMBQ/KtfhY8p1GfFEDXyj/OKebhQAA3V6uf5+wyjEE/VzY5K9k/xLPLkWoN/+UK63e8fLdOKJ2js2ye5JLjMKgL64rFxnjzUK8URzXJJktyTHGwVATx1frq+XGIV4onnuSXJYkjfEN3cDjNcN5Xp6WLm+Ip5osDOS/FOS04wCYExOK9dRz9YTT7TIjek8tO3NSX5hHABd+UW5bu4TbwoXT7TWiUleleRsowBYqrPL9fJEoxBP8JN0PiXy1iS/Mg6Av/Grcn3cvVwvEU/wF59J8vIkZxkFQFKuhy8v10cQTyzWT5K8LslBSW41DqClbi3XwdfF3SYWMSGrP8cUWJJNk7wzyRuNAmiRLyb5RLwhnCWYmEnTTIEl+W2SbyW5Ocn6SdYxEqDBflT+wviRcv0D8cSYXZ/k3CSPJdk6yUQjARrk4XS+VuWQJFcZB+KJXvlTkkuT/CDJk5NsYiRAA5xfoukL5ToH4omeuz2dT5/ck2TjJGsYCVBDtyR5f5J3lOsaiCf67pok3yz//LlJJhgJUAOPp/NFvm9O5246iCcGal6Si5NcnmT1dD6dB1BV30zn8QOfL9cvEE8Mze1JvprOdz49PcnaRgJUyE+SvCfJEfESHeKJirk2nfdD/THJ9CQrGwkwRPck+Wg6L9H5FB3iicp6KMkV6XyCJek82gBg0D6bzkt055brEognKu93Sf4znTdkrpzOnSiAfjs7f31f0++Mg37w9SwMysuTHJxkB6MA+uCSJCek860IIJ5olDeUvxU+zyiAHrgyyYlJvmwUiCea7oASUTONAhiD60o0fd4oEE+0yYolog5M8kzjALrwsyQnlWjyRnDEE621cpL9S0j5zjxgcW4qwXRyOo9DAfEEC0XUfnEnCuj4WZJTRBPiCZZupSRvKst7oqCdrkvyhbLmGwfiCbr3xrJ8Og/a4cokXywLxBOMw25J9k2yo1FAI12c5EvpPOQSxBP00A4lonY3CmiEr5ZousQoEE/QX89OsneSvZKsZhxQK/cmOT3JaUl+bByIJxistUtAvSHJ5sYBlXZDOk8CPz3JXcaBeILh2yPJ65PsbBRQKd9O8pUkZxkF4gmqaesSUXskeapxwFD8psTSV5JcbRyIJ6iH1UpA7Z7khcYBA/G9dN4EflY6720C8QQ19YJ0Hnewa9yNgl77TZJz0nnMwBXGgXiCZplcAuq1SV5mHDAuFyX5WgmnB4wD8QTNNz3JPyV5dZIZxgFdmZPkG0n+I8n1xoF4gvbavkTUq9J5/AHwV3clObdE06XGgXgST7CwiUlemeQVZa1qJLTUfUm+WdZ5SR4zEhBPsCyrJHl5ktlJdkmyspHQcH9MckGS85N8K8n9RgLiCcZqSjoP31ywphgJDTEvnYdYLljzjATEE/TaSkl2SufTei9L8jQjoWbuSOeTchcluTDJfCMB8QSDtF2SHcp6tnFQUT9OcklZ3zUOEE9QFZskeUlZ26fzvikYhvvT+WTcf5V1k5GAeIKqWz7Ji9O5M7VdOt+5B/10dTp3lb6b5L+TPGIkIJ6gzqal8x17C9ZmRsI4/TSd75JbsH5tJCCeoMk2SPL8hdZ0I2EZrk/yg4XWbUYC4gnabFqS55a1TTov861oLK31UDovw12V5IdlubME4glYiuVLQG1V1pZJnmksjfWzJD9Kck1ZV8d7lkA8AeP2lCTPKmtmWZsbS+3ckOS6sn5S1m+NBcQTMBiTk8woa3qJqc2STDWaoZubzpu6b0jn/UpzynrAaEA8AdUzNcmmZW1c1kZlTTCennk8yS1l3VzWjWXNNR4QT0D9LZdkw7KeUdb6SZ5e1lON6Al+k+QXZd2e5Odl3VrWo0YE4glor8lJ1i1rWpJ1yppa1lolsFZrwM96bwmju9O5SzQ3yZ1l/TrJr8ryMhsgnoBxWzGdN7A/JcmTy1qtrCllrVJibHKSlZM8KcmkdL5cecWyli9ruSQTk4yUtcCfy3osnTs8j5T1UFnzkzyY5E9J/lhC54F0vp5kXln3lvX7sn5b1kMOIzBayxkBMEYPpXN3xrOHgFb5/3PElIRugQnVAAAAAElFTkSuQmCC;" vertex="1" parent="1">
          <mxGeometry x="238" y="103" width="28.16" height="28.16" as="geometry" />
        </mxCell>
        <mxCell id="Lh2qIq0kyytRX2KrADmU-26" value="" style="shape=image;verticalLabelPosition=bottom;labelBackgroundColor=#ffffff;verticalAlign=top;aspect=fixed;imageAspect=0;image=data:image/png,iVBORw0KGgoAAAANSUhEUgAAAk8AAAJPCAYAAABlxzBuAAAQ/HpUWHRSYXcgcHJvZmlsZSB0eXBlIGV4aWYAAHjarZppdlwpkEb/s4peAhAMwXIYgnN6B738vvFSklW2ymWXS2kr05kveRDDN4CD/d//3vA//NTYNJTatY3WIj9llJEnLzR++7G359d7KZbn9/tPevudwpcfZJ6FZ3m92cvbp/L2/vv17eOZgb74INXvviAft8mfb9zn2/s55r/MqOwk8fOPfvt779F77bW6WRphaK9FvW4R3ofhwsVQ8nyt8ej8rbzuz2Pw0DjjTiWeuOPisdNImVvfVNIJaaabLB2ed9rMsWTLneecd5bnPZWeR94SJUnxR7q5y5AjKll2NhEpQfLHXNJz3/HcbyflzidxaU4MlvjKTx/hny74lce9OxKjlFh9eosV88rZ85A8jOK/uYyEpPuWt/oE+P3x8RM+JVbIYH3CrCxwxvUaYtX0rbbkKQDhusrzq75SP561/FRJ4d6VySQhBbElqaml2HPuKRXJSoImM89S8iIDqdZ8mGQuIo3cKHXEvflOT8+1uebX+7QK+anSpJObIZNklVKpn16UGppVaqm1ttqr1lFnaNJKq6213rznZpdeeu2t96599KmiRas27ao6dI48hJaso40+dIwxJ/ecJcw6+fbkijlXXrLKqqutvnSNNTfls8uuu+2+dY89Tz5yyqmnnX70jDMtGaUUrFi1Zt3Uhs1LrV255dbbbr96x50fWXvL6g+P38haestafjLl1/WPrPFu7z7QM0RynKmeMzKWSyLj3TNAQWfPWdRUSvbMec7iyHRFzUyyem5OijOkRgqLpVxv+sjdt8z9ct4Csf6nvOVfyVzw1P0HmcvB5Lu8fZG140i4n4y9utBjGoXuu9Fm1pnXCcIk/aVy8Z88hz8d4PcGWrPeWK9mu2u3O0c5pEhkg5m7pju0hL3G5i21U/epnYhAZZv48JylN5CYV9XWPY2uKlydDy/ytG2VYc+Ne9USbpQ2LuEf/fbaruRCvCkTMNsK1Sfn2qi7kKDU7yrFB94673xenW6Qy9Zw6pVZM3+owXOUrA6jjit/mpfP85I5/cNz+NUL//bZo0EsAsF4D8UrEGsrZfHEqHX6dqS1KrQ3qS1bYFi79BHvqNqS23T4NTXcMvyi86yXPlvWC+vPz0BvF315TS1iMZ3CgG/pPwqFPpmOf/AcfvFC1nXPsKc4SrNThHUSgEm6nziF+yqa7+KUJ+Uh2ek8ndbtJOGavGzwXO/yAVeW2jelcQvRCz+7pEzt9OocN72yVBfQ+lRG/P45/N0Hv/v8aSBf1V1yXpV7DtO5x6ukgi0/i1KrdVmIzfOYZW5gJ/driMrjz+vVb6DnvOOwdl0/uyKc/BRX7JXhXllaLf8+koTf/cKiOXfsoIoZbEXrljNB1jA6BKLohF267QZoo5Wb7b1pi3iXz5RJbofTJbBN31XviomEypp3Aw66ewwDkC9PgDNRIsFnodSIX92j9HOopbZs9oEeHyBZn6MrDNSHlHPgsQNr9TzDFjMGnkzPuGmmDb9oVarWhPUUCMhkgkxex4SyIjuPs0mgH/sUuaeW2xP5pgxINFHYMqgA7m652ARtbULeZUxZdc8F8dVzkKi3zT0OFkJmg6aAy7SKEsovcvzKsNmeexoabB1t205OfUBp+I+Rwm4I16rjgQ5I7gCrBmsm0wH39iisAQHncGooY3Ryb1KdLCVdhQOORdIQEICdAElbgjzddg9qQe6alF9xdaAzlZ2ZxVZA+TgKoRPOuioscsPH80qvYZW9h9TVXVpcMzrUSDtQPxf3rjqL5tYVIENVIOFRDS1pjupV4b2vD/MEFIwntdmd0nRxqcHtujFcF0HqqEJJiPdIm6PVkfsY1ggAU7RdkRB6cxnBZluYFIM9rJR9ckX2/4tOCT98sPpsVAtL96BH8gPt2SWv/CRXb408EqtjrKwhI+4m0CFO4p/RU4iTiYhGHR2UVNynOyS0c1ZLdpRhO3iDv5mS2r4unIB7nJGRui1hACGLFY3mlT2rJmcYSHzEQokvxxs5dXa6ouSjr7m3/D2sBzmrWxJaka7L1Kn2tdHz1rjdXhR/MWSZt6Fe1Fiatx9pyKd86PPerSLtJzHCDNTI/WdHPo5bRCmDCDusdneGDVduCDUa34DugxhoGxGJpkMkXpTZ6xbB78GgqD3QE7WSBFS43QaaI4EoLAMNW/mFqECJCIm/ddP9jVVwnzm8wGERq4cmq4Pftfe0cKu0EOCt8jAKwNHpVqJ6DdByt6nt7TvUFZoD4O4jYIhQlwvfw7/XMUCf0hsjFxrS7+v6dvBlWgiNPVDOqNq++LBM6rqOaF1WC4pGftUr8DEmX2cIYd4dAb7SreglRK8zTa9Dv5Q5iC0NZSH5LywJAGzUgquRdhKNj4luFSknB4O/km3UdfcJiqTsQov01kcSlnZKoBpXYlJ6wO5pACsSZNFA+kg+rtYu5hTmS14H3X+87trlX4lCowdYqAZX5rsZ+QcTAUsmD9YdRb8RzvrqupJ/lNDTO5fiAan51g4ySfV7M83u+CMX5sCK9DL8zp3uLzMd1/Ga6HEafkXo5u59Z3S8p6SDI91AeUUxPqcW4JxJ7rlIAEx7iYplm+EBWnKFL7aGoZBOGzT/HPmP8sfpokQhrpTb8fzEZljirVAAdM49XecMvsTtSAIVFqleV81MaUKBSpdJoJsJZuXzvK7RGJDCRQOncSAwZZVg/MTWUGeIG4S2RFCvC+ZuQXaHGiAXN1RDFXMXQwseLzt8UgN+dwf2aEtgeENOqd0xm+Me8hFNtRGkg8/XWglmFiobLT8yrfSmZC0N5/SnPUqiNFgYlaBOmyk+cjQWMIyImSL0oxlNNzIxcohx8RPjl5fT4R9jfxv5GSEbfYk9oOhneAbYgr5ShBVZr00As8eBRIeBzMsZB1BhC6jDRvb4aYD374fvBkCUwurA5rNpAevCPtsHnCBgEco8F1gD3zuulNaYbFHKqmBFEw11mxRAgBtBQ29/6FdC5w72GIpk0AcTJx6lqKFJKbdieURkr6vG19I+1gAEf6ziiwW7UKbGEQCf1+aaU8JXwflq2C+C8wzw/v3wewNMdS1B4gGQAaum2CkSkm7P0j6y/mXOP9fTk3XxYU8HgNSpARybu4YZgZqM3wPt4MLb40bj+abjRKLJxBEY6mOjM+ib1bCilrlw0zcF6tm0OrpKwl0s4ZjrlOKmnyompDflUuENFoRyaAAePYnWiAg9gKwrXNmZb0uw89OUofmOA/oiJbgKtzz2eooMBEarMSStJh0KGRMaTxWgpJDwfJSZAGOIvJLbigFF73swQx0qEQ0EEMyCHeBZpui7JchPrnRfHFND8WZg2gUtmDo3scPA1xQMiu7og5sR2cBlPURlarnNN/NcOkn0HRVK3uUV7Uv/H64AKsEIGA/Ih0YDpXt82+klBcRzQXQBerADlRU9RshY+nqvDBUffgkUsDpwZ2QnDoe8EvZN6hTiArQTJbQqHt8Lqt3iPi5TxwqOwrOoogVJ0ZGYRPjFANDNICTaQnWUe4CjSEUdz7oRSiCWekn5JgDiFUNAomhHEuyksOi8DcmIQiQHibF7MKKb6VpqHpQkuDpOBHQ1YtjgLvw1VdzRzq6n3MSQMkLH/PJBpdHmhAuEpIYoxQFzPZWCQCaImZW5kHOta+7eqeoVxaWegctHBy7trOEu8eBqaoUgfTP1Qs7IgjLWOenoqx0Log7gLBFCpsafnRDSoK+m+n7iT6/53N0LI3dg+OhgwQR9T+VGgH7y4kRUT8JU0Xw6n17EaZTs6AlfyA1jcjlw6Fstiaz65vyiKd2D349pkYpvE3tN67tJhY9wPlNyzRHTpwnFr6bE0lDA3e2PlGfPEDzafqOR1L3D24Dr84AFFs2KM0ICFt/7xGGCqWvsU+r7VgAsGsYGFTwv1lssivWoGDoKPHFlfCFXYwaOzj9bbvhqvX9dbqs+vXp/Hrnwdeh+P3LhLXSf8umI/WT0SahvUXyd0r/WWviVYvtLrf0wvdfkwvel5pIm4onHYWlo4IiPfHWp6/BHV+YGu4In0S0i7YVcvSucDivRXFcL3s9owrYWz+D1BCxwVkgpQXxhGY2gYDD7LTis4/od5dVgh+g2i7cAc5vq+2eYFXP/jiPBuiqqkXaprk8dtRsczrgHhcx0D2rk4IbSwe4fsobmw6t0LICWRITpuIKvwSHjAp+NTCrtAMeAFTPq7oGBNMZWVGM01CvWNuSuC3eCwr1YoOpGOR+Xw1ifvGuK/oR2U7KnFYGbgb4xFxrYel76vtP1445Wd98SHYBRvb5dUZ+SYGWC3Iy5aYJgRqYbgF+oA4StAvgzEZaCiQBMzXeFN24ib14IulQNZ4XUZumT8GJ0rh4XyWsiohamhyQQuRzS6Ml8y2JjaE1mwxXiw5BZIw9jGbgS6szLCFatJNkzggZAZ2RUPHCYGxKVYLdIu1K1YL2TEp4EpZzy/jv3itZvADdUwzvF6UJdjZAOhFPFMcChJB9XgoO9LrFd9gspwTrhSUdHyUyon2/panyj7xMr8t2QxyegPHw/EqqldkaOWg0bV1spDQWfS/OK6sj/gouBy5GY2x0rzLlfJcLMqLBwfNMGzeL7IQvYg63dtsxzIvgEbS4MPCLSN1O30aN4Uvh063TFVfR9pyTY9p2iU65v3m/MZrkZxkb2HEAO7kJ4wNd+b8RWpD0rb1GmlAl11XGYeACLWIiI/kVOuBEhJFQ21tJQeF1AiFqIxPXdKuZhfnokI+Hr0Quftm0AotDO11bVfSphkVKXO9Wjm3EShZP7wb1TtQ38MkUrE8OKhVh+NqAATXZhBlZ1GNJyRucBWkaz4tcacoBPMk5I3SLVOFhQMVFvevTeRGjRpMk3HMTNvTak4vTZ+k7+e68hYJTasooZwkQn9b0FuAdnpVQ+DiCHAj41kACdAgBio6gU/HzGQr0q8pRf2oAPf7Oh7rXLDOMgaTiltq5j514tglWAHdJXpIGxzcXrHSd0QJP+gGMevD4ZFrhu3Y8AKspqJhxJnXvSK/9UwyESF/V9eIz7XmajI0aru02EXX0kGeY2gg9oZ0w8y1TX3m0Px2hgH44trmLMK3hQeuI7rgtdF55NT2/z7Ju9q+6C6HzAzANbH9qR7UcE3QGTb7rcv6igzgQKrpUkoNQC4pBOgUx9ezh9vVOLzPUt4OOKvPjOS/IldPKQEdr+tVLCOvCMuicDwqgJsK80dyqsittCW24hquNZx8K5GG9Fe1X1U6uV6JQMF2gYEKQ39ro/OZfZi7pb4wip8FfiVgGRn7Dxzho7Af7UFPLPdzZapDidj4uzgRMdBEfOplHiKUNzBeKRHUnI2G6TqOgHgUR30O9wwY9F406x9BrBhYWjqX4wbXAoxNBjHQRDVz3oHKoDBn5QK6TbYS5WU2BC8/9EgcC/3Jc6Wu4cVvJNKeEDd7lgGm3J+1gbkAYqedtHDf/qyOG3DzN/cs6Gzn9OZHw7j7wQo09HMr6D5ZvwGH0/NSJM43Xo+H7k+Bw4+mGnvk4cvx1LMtDXl/hBlu8LMdzbeSTG82fHiOGPzh9/GOjtQPJPziPD5wPJPzmPDJ8PJP/kPDL8i4PLL0/awucDyT85jwyfDyT/5Dwy/Bfnjz8Z6B/OI4Hn7fq6L70x+wYoqhZ9OTaSAJvuG9G1I/Jil7G5ZIHQYymdPkF48S3cV60g098qwYPvzja8l4L/3wLf/CENwDFi/cwDSbYBrcHX8I41bWVExJw7L7SE75tEV7n+/03CGYi4cz6O+OevH/H/5Tn8R632bwaiwqjH8P/KHqSHM8IirwAAAAZiS0dEAP8A/wD/oL2nkwAAAAlwSFlzAAAuIwAALiMBeKU/dgAAAAd0SU1FB+QEHQ4iBlK9FKkAACAASURBVHja7d17/OZznf/x53zHaTIMKYaRxDrEzI4ialONFC2m4+ZQcthyiorKpiMpHVbFViJqQyLaosiitZFasSp+QzksKcXQyaCMU35/XO+paczh+n6/1+FzuN9vt/etw62mvq/P5/t5P+ZzXdfnmpDVnxOAMVguyZPKmlTWSmWtWP5xhUXW8uW/t2BNLGtkoTWhrAUeL+vPC63Hynp0ofVIkocXWfOTPFT+cX6SB8v6U1mPOozAWC5+AAubnGTdsqYlWaesqWWtleSpSVZrwM96b5LfJLk7ydyy7izr10l+VdYDTgtAPEG7f+83LOsZZa2f5OllPbVFs1itrI2W8Z/7TZJflHV7kp+XdWtZ7mBBi0zwsh001tQkm5a1cVkblTXBeHrm8SS3lHVzWTeWNdd4QDwB1TM5yYyypifZPMlmJZ4YrrlJfprkhiTXJ5lTlpcBQTwBA/KUJM8qa2ZZmxtL7dyQ5LqyflLWb40FxBMwPssn2TrJVmVtmeSZxtJYP0vyoyTXlHV1Op8gBMQTsATTkjy3rG1KOK1oLK31UAmoq5L8sKxfGwuIJ2izDZI8f6E13UhYhuuT/GChdZuRgHiCJpuW5IULrc2MhHH6aZLvLbTcmQLxBLW2fJIXJ9murK2NhD67Osl3y/rveM8UiCeogU2SvKSs7ZOsYiQMyf1JLk3yX2XdZCQgnqAqtkuyQ1nPNg4q6sdJLinru8YB4gkGaaUkOyV5WVlPMxJq5o4kF5V1YTpfmgyIJ+ipKUl2XmhNMRIaYl6Sby+05hkJiCcYq1WSvDzJ7CS7JFnZSGi4Pya5IMn5Sb6VzvumAPEESzUxySuTvKKsVY2ElrovyTfLOi/JY0YC4gkWtn2SVyd5VZK1jQP+xl1Jzk3yjXQ+wQfiCVpqepJ/KtE0wzigK3NKRP1HOk88B/EEDTc5ya5JXpvOJ+WAsbsoydeSnJPkAeNAPEGzvCDJbiWcnmoc0FO/KQF1dpIrjAPxBPW1WpI9kuyeznfJAf33vSRfTXJWknuNA/EE9bB1kteXcHKXCYbjNyWgvpLOd+6BeIIK2qNE085GAZXy7RJRZxkF4gmGb+0keyV5Q5LNjQMq7YYkX05yejqPPwDxBAP07CR7l3BazTigVu4tAXVaOl9YDOIJ+miHJPum8yZwoP6+muRLSS4xCsQT9NZuJZp2NApopItLRJ1tFIgnGJ83lvU8o4BWuDLJF8sC8QRdWinJm8qaaRzQStcl+UJZ840D8QSLt3KS/ZPsl+SZxgEk+VmSU5KcnOSPxoF4gr+NpgOSbGIcwGLclOTzIgrxRNutWILpwLjTBHTnZ0lOKiH1kHEgnmiTA5IcFO9pAsbmuiQnlogC8USjvaFEk0/PAb1wZYmoLxsF4ommeXmSg9N5yCVAr12S5IQk3zIKxBN1t22SQ9J5yCVAv52d5LNJvm8U9MvETJpmCvTDJkmOSueNndONAxiQ6Un+OclTktyW5HdGgnii6lZN8s4STdsZBzAkWyfZNZ1P9V4Xn8xDPFFR+6Tzxs3Xp/PsJoBhWjnJi5O8rMTTtUaCeKIqZiU5Psm7kqxtHEDFrJ3klUmelWRuktuNBPHEsKyX5Mh07jZtahxAxW2aZO8kU9J52OY8I0E8MUgHlWjaOckE4wBqYkI6z5nbJcmjSa4xEsQT/bZdkk8neXuSNYwDqKk1yl/+toyX8hBP9MlTk7w/nYfQbWYcQENskmSPdN5c/v+S/MlIEE/0wh4lmnZNMtE4gMbthZ0H+r44yf1JrjcSxBNjtWmSjyU5Jsk6xgE03DpJXpPkaUluTvJbI0E8MRoHpvMVB9sbBdAyz07yj0kejjeUsxi+245FPSvJ4em8VAd9N2vbLcf137933v25ds7NBkm/nJXk2CQ/MQrEE4vzliT/kmRdo2BQHv/91eP671/+gx9n1uwDDZJ++lWSf03yGaMgSUaMgHTuNn01nUcQCCeAv7VuuT5+tVwvEU+03EFJzk2ym1EALNVu5Xp5kFGIJ9pp0ySnJvlckqcbB0BXnl6um6fG11KJJ1plzyT/kc53PAEwenuX6+ieRiGeaLY1kxyX5MtJNjcOgHHZvFxPjyvXV8QTDbNDkrOTHGoUAD11aLm+7mAU4onmODydT4nMMgqAvphVrrOHG4V4ot42TXJaOs8nWd04APpq9XK9PS3eTC6eqKVXJzkjyV5GATBQe5Xr76uNQjxRDxOSvLf84m5pHABDsWW5Dr+3XJcRT1TUpklOT/LhJJOMA2CoJpXr8enxMp54opJmp/PQNs8cAaiWPcv1ebZRiCeq47AkX0qyjVEAVNI25Tp9mFGIJ4ZrrXS+5ftTSdYwDoBKW6Ncrz9Trt+IJ4bwt5gvJDnEKABq5ZBy/fZqgXhigHZNckqSXYwCoJZ2KdfxXY1CPNF/70hycpIZRgFQazPK9fwdRiGe6I/V03mt/BNJphgHQCNMKdf1T8U3QYgnemrzJCfGpzQAmuqwcp3f3CjEE+O3fZLPJdnNKAAabbdyvd/eKMQTY/e6JCckeaFRALTCC8t1/3VGIZ4Yvbel8yyQTYwCoFU2Kdf/txmFeKI7yyf5UJLjkzzZOABa6cllH/hQ2RcQTyzBWuWX5X1GAUDZD46PJ5KLJxZrkyTHJXmzUQCwkDeX/cHbOMQTC9kmnWd87GEUACzGHmWf8JUu4okkL0nnAWk7GQUAS7FT2S9eYhTiqc1eVX4RtjUKALqwbdk3XmUU4qmN9kzyr0lmGgUAozCz7B97GoV4apP9k3w8yd8ZBQBj8HdlH9nfKMRTG7w1yceSrGMUAIzDOmU/eatRiKcmOzzJR+ObswHojdXLvnK4UYinJnpvko8keZJRANBDTyr7y3uNQjw1yVFJPpxkOaMAoA+WK/vMUUYhnupuYjrfS3SkUQAwAEeWfWeiUYinOlo+ydHxPXUADNb7yv7jC4X7xMtI/bFCqf/3GAUAQ7Bg//lgkoeNo7fceepPkAonAKoQUEfGjRLxVHEThBMAFQyoCUYhnqrqyHiPEwDV8r744JJ4cnICgL/ci6d6e1c8WwOAajuq7FeIp6E7tBS9Z2oAUGUTy351qFGIp2E6sJyIk4wCgBqYVPatA41CPA3DXuUEXM0oAKiR1cr+tZdRiKdBek058aYaBQA1NLXsY68xCvE0CDuWE24DowCgxjYo+9mORiGe+ukfyok2wygAaIAZZV/7B6MQT/2weZIPJHmeUQDQIM8r+9vmRiGeemmdcmK5tQlAE+1Y9rl1jEI89cJK6dzS3NUoAGiwXct+t5JRiKfxOjLJ/sYAQAvsH181Jp7G6R1JjjAGAFrkiLL/IZ5Gba90Xv8FgLb5QDxEUzyN0svKibOqUQDQQquWffBlRiGeurFFOWE2NAoAWmzDsh9uYRTiaWnWSvL+eJYTAKTsh+8v+yPiabHen+TVxgAAf/Hqsj8inp7giCQHGwMAPMHB8elz8bSIPVU1ACzV+8t+KZ6MIC9I8r4kTzIKAFiiJ5X98gXiqd3WKyW9id8JAFimTcq+uZ54aq/3JXmp3wUA6NpLy/4pnlroiCT7+R0AgFHbLy1+A3lb4+mfkrzXuQ8AY/besp+KpxaYmc7txsnOewAYs8llP50pnpptUinlmc55ABi3mWVfnSSemus9SV7rXAeAnnlt2V/FUwO9Pt7nBAD98N6yz4qnBtmiVPEE5zcA9NyEss9uIZ6aYblyQDdzbgNA32xW9tvlxFP9eZ8TAAxGK97/1PR4emWSdzuXAWBg3l32X/FUQ+un8/TTlZzHADAwK5X9d33xVD9HJNnGOQwAA7dNGvz1LU2Np/2THODcBYChOaDsx+KpBrZMi7+sEAAq5IiyL4unintXkmc4XwFg6J5R9mXxVGHvjMcSAECVvLbsz+KpgrZtYt0CQAO8q+zT4qlCJpYD8xTnJwBUzlPKPj1RPFXHvyTZxbkJAJW1S9mvxVMFvCDJ4c5JAKi8w8u+LZ4qcCBWdz4CQOWtngbc8Kh7PL0zyWznIgDUxuzU/NN3dY6nreLlOgCoo8PLPi6eBuydSdZ0/gFA7ayZGt99qms87Z9kN+ceANTWbqnpd9/VMZ42SPIO5xwA1N47yr4unvrs7Uk2dr4BQO1tXPZ18dRHL09ysHMNABrj4LK/i6c+WKGOdQoALNPbyz4vnnrssCQvcn4BQOO8qOzz4qmHpic51LkFAI11aNnvxVMPBzrVeQUAjTU1NblRUod4ekWSNzqnAKDx3lj2ffE0Tm9zLgFAa1R+3696PL01yXbOIwBoje3K/i+exuBpcdcJANrobaUDxNMovSU1fGQ7ADBuG5QOEE+jsHUqfssOAOirt5YeEE9dekuSFZ03ANBaK6aid5+qGE+7JNnTOQMArbdn6QLxtAyHOFcAgKp2QdXiae8kOzpPAIBix9IH4mkxJiZ5s3MEAFjEm0sniKfFDGZr5wcAsIitU6EbLFWJpylx1wkAWLI3l14QT8VBSTZ1XgAAS7Bp6QXxlGRqVYYBAFTaQaUbWh9PByZZz/kAACzDeqUbWh1P6yY5wLkAAHTpgNIPrY2nA1KB228AQG1MzZBvvAwznp6WZH/nAAAwSvuXjmhdPO2XZE3HHwAYpTVLR7QqntYZ5g8NANTefqUnWhNPb4r3OgEAYze19EQr4mmNYf2wAECjvKl0RePj6Y0Z4pu8AIDGeFrpikbH00pJ/tmxBgB65J9LXzQ2nvZNsonjDAD0yCalLxobT+46AQC17otBxtMeSbZyfAGAHtuqdEbj4mkfxxYAqHtnDCqeXppkB8cVAOiTHUpvNCae9nZMAYAm9MYg4ml6ktc7ngBAn72+dEft42kvxxIAGJC+d0e/42m1JG9wHAGAAXlD6Y/axtOe8QXAAMDgTC39Uet4AgAYpNrG005JtnH8AIAB26Z0SO3i6XWOHQAwJH3rkH7F09+JJwBgyPH0d3WKpz2STHDcAIAhmZA+fd9dv+Jpd8cMABiyvvRIP+LpVUk2c7wAgCHbrHRJ5eNpN8cKAKiInndJr+Np/SS7Ok4AQEXsWvqksvG0a7xRHACojgnp8Y2dXsfTax0jAKBietonvYynWUm2cnyg2raYsXG2mLGxQfTBoQftkdWmrGIQUD1blU6pXDy9xrGB6ofTZeeflMvOP0lA9dipJxyZ4445LJedf5KAgmrqWaf0Kp5WEE9Qj3CasurkTFl1soDqcTjtvcfOSZKZ0zcSUFDdeFqhSvH06iRrOy5Q/XBaQED1PpwWEFBQSWuXXqlMPL3KMYH6hJOA6l84CSiotJ70Si/iaS3xBPULJwHVv3ASUFDpeFqrCvH0yiTLOx5Qv3ASUP0LJwEFlbR86ZZKxBNQ03ASUP0LJwEFlTT0eHpGkpc5DlDvcBJQ/QsnAQWV87LSL0OLp5c7BtCMcBJQ/QsnAQWVM65+GW88zTZ/aE44Caj+hZOAgkoZV7+MJ542TLK9+UOzwklA9S+cBBRUxvalYwYeT7uYPVTDUe/ar6fhJKD6F04LB9Q+r3MZhSEa8y/geOJpJ3OHatjn4KNz3fW39OXPbmtA9TOckuS0s76d4088y8kLwzPmjhlrPK2bZAdzh2q4d979mTX7QAFVo3Da5+APOnFhuHYoPTOweHLXCQSUcBJOUHdj6pmxxpNnO4GAEk7CCepuTD0zlnhaNck/mjcIKOEknKDm/rF0Td/jacckK5k3CKimBJRwgtZaqXRN3+PJG8VBQDUmoIQTtN6ou0Y8gYBqbUAJJ2AQ8fT8JOuZMwiougeUcAKK9Urf9C2eXmrGIKDqHlDCCRhP34w2nnyXHQioWgeUcALG2zejiae1k2xrviCg6hpQwglYgm1L5/Q8nl5stiCg6hpQwgnoVeeMJp62M1cQUHUMKOEE9LJzRhNPs8wVBFTdAko4Ab3unG7j6e+TbGiuIKDqFFDCCRiFDUvv9CyeXmSmIKDqFFDCCRiDrnqn23h6oXmCgKpLQAknYIy66p1u4+kF5gkCqg4BJZyAceiqd7qJp+ckWcs8QUBVPaCEEzBOa5XuGXc8Pd8sQUBVPaCEE9Ajy+we8QTUPqCEEzDIeJqQ1Zd5d+rXSdYxS2if1aasksvOPykzp2/Ulz9/3n0PZMqqk8f1Z9x9z++y1pprCCegV+5MMm1p/4Fl3XmaIZygvQZxB2q8hBPQY+uU/hlzPD3PDEFA9TOgqko4Qas9bzzx9FzzA9oWUMIJWu+544mnrc0PaFNACSdgWf2ztHiammRz8wPaElDCCSg2Lx006nh6jtkBbQko4QR020FLi6etzA1oQ0AJJ2A0HSSegFYHlHACehlPW5ob0OSAEk7AWDpoSfG0UXwZMNDggBJOwDKsVXqo63h6lpkBTQ0o4QR06VniCWh9QAknoF/xNNO8gKYFlHACRmmmeAJaG1DCCehnPD0tnW8UBmhEQAknYIzWKV20zHiaYVbVcPxH3p59XreLQSCghBMtsdqUVXLeGcdmixkbG0Z1zOgmnqab0/CdesKReduBu+dLn/2AgEJACSdaEk6XnX9SXrHTi3LZ+ScJqOqYLp5qEk5777HzX/61gEJACSfaEU4zp3ceKzRl1ckCqmbxtJk5VSecBBQCSjjRrnBaQEBVxmbiqYbhJKAQUMKJdoWTgKpXPG2SZJI5VS+cBBQCSjjRrnASUJUxqfTREuNpUzOqbjgJKASUcKJd4SSgKmNT8VTjcBJQCCjhRLvCSUBVP54ckRqEk4BCQAkn2hVOAmroNhZPDQgnAYWAEk60K5wEVHXjaSPzqU84CSjaHFDCiTaGk4Aamo2WFE9PTrKW+dQrnAQUbQwo4USbw0lADcVapZOeEE8bmk09wwnaFFDCCQTUkGy4uHjawFzqG077HnJ0Tj3zAoOm0QElnGjyXwwEVOVtIJ6EE9RqoxFOCCgBVcV4Wt9chBNUcaMRTggoAVUBf+mkCVn9OQv++cVJdjAb4QRVsdqUVbLP63bJ8SeeZRg06rzuxxvIF5h33wOZNfvAXDvnZsPurUuS7LhoPN2YRb67BeEEgIAiSXJTypPGF37Zbj1zEU4A9J+X8GrpL520IJ6mpvOtwQgnAAQUTzSp9NJf4mldMxFOAAgolmpd8SScABBQjDGe1jEP4QSAgGKp1hFPwgkAAcUY42lt8xBOAAgolmrtheNpqnkIJwAEFEs1VTwJJwAEFGOMpzXNQzgBIKBYqjXFk3ACQEAJqDHE02pJVjAP4QSAgGKpVkgyeSTJU8xCOAEgoARUd+MaSbKGOQgnAASUgOrKqiNJnmwOwgkAASWguo+n1c1BOAEgoARUV1YRT8IJAAEloEYZT1PMQTgBIKAEVFdWFk/CCQABJaBGGU+rmoNwAkBACaju42kV4SScABBQAqork0aSTBZOwgkAASWguvKkkSQrCyfhBICAElBdWam18SScABBQAmqs8TRJOAknAASUgOrKiq2LJ+EEgIASUOONp5WEk3ACQEAJqK6sMJJkReEknAAQUAKqK8uPJFlBOAknAASUgOrKchOy+nPuS4MflNnvcIIm+ODHT8lRHz/FIJbh8d9fbQiwFPPueyCzZh+Ya+fc3OQf8z9HkiwnnACA8WrJHaiJjY0n4QQAAqpf8TQinAAAAdWVkcbFk3ACAAHVRxNGkkwQTgCAgOo+noQTACCgujSS5HHhBAAIqK48PpLkz3X+CbaYsbFwAoAaBNTxH3m7eKqCa+fcnH0POdpZCQAVdt31t+SVex7ehB/lzyNJHq37T3HqmRcIKACocDjNmn1g7p13fxN+nMcaEU8CCgCE0yDj6ZGm/DQCCgCEU589OpLk4Sb9RAIKAIRTv+Ppoab9VAIKAIRTnzwykmR+E38yAQUAwqkPHl4uyYNN/elOPfOCJMmXPvuBvv1v3H3P73LjLb/w20Kt3X7HXYbQhct/8GNDoNYmrzwpM2dsnOUmThROY/dQo+NpEAG11ppr5KJLf5h9Dv6g30pouFmzDzQEamuLGRvnsvNPEk49iKeJmTRt9yQbNPmnvHbOzfnFHXfllTu9qG8n5DPWWyfnXXi5304AKhtOU1adLJzG74qJmTTtNUk2bfpPKqAAEE7CqQe+OzGTpu2S5O/b8NMKKACEk3Aap4snZtK0lybZqi0/sYACQDgJp3H49sRMmvbCJM9v008toAAQTsJpjM6dmEnTtk6yfdt+cgEFgHASTmNw9sRMmvb3SXZq408voAAQTsJplM6YmEnTNkrymrZOQEABIJyE0yh8YWImTVs3yevbPAUBBYBwEk5d+tzETJq2RpI3tX0SAgoA4SScuvCpiZk0bVKSt5qFgAJAOAmnZfroxEya9uckR5iFgAJAOAmnZTpyYiZNm5/kPUkmmoeAAkA4CaclejjJByZm0rQkOSDJqmYioAAQTsJpie5KctyCeNozydpmIqAAEE7CaYn+L8nJC+LpFUk2MhMBBYBwYol+kuTMBfG0fZJnmYmAAkA4sURXJPnWgnjaOskLzURAASCcWKILk/z3gnjaNMnOZiKgABBOLNHZSf53QTxNS7K7mQgoAIQTS/SFJDcuiKfJSfY3EwEFgHBiiT6Z5M4F8fTnJO80EwEFgHBiiY5M8sCCeHogybuSLG8uAgoA4cQTPJjk3UmyIJ6S5A1JnmI2AgoA4cQT3Jbks4vG0+wkG5qNgAJAOPEEP05yxqLx9IIkW5qNgAJAOPEElya5IElGFvo3bzeX8Tn1zAuy7yFH9+3P33uPnXPqCUcaNK3bVFabsophIJyE07D9pZMWjqfbzEVAQdU2lRc9/9kCCuEknKrgNvEkoKA2m8rM6RsJKISTcKpkPN1qLgIKqrqpCCiEk3AaslsXF0+/T3K32QgoqOqmIqAQTsJpSO4unfSEeEqSW8xHQEGVNxUBhXASTkPwN320aDzdbD4CCqq+qQgohJNwGrC/6aOFn/OUJM9M8hIz6r1BPAdq9Smr5KJLrzRsWrGpTF1zjfzjS/4hX/3GdzL/oYcNkspaf72188PvfEk41dvZSX6w4F8seufpRvPpn37egZp33wM59awLDJlW/W3cHSjq4PZf3pXzvt2fBxwLp4H5mz4STw0IqHn3PZBZsw/MtXO86kp7wklAUSf7HPzBnHbWt4VTQ+PppnS+NZiaBJRwos3hJKBoa0AJp4F6sPTREuMpSX5qTvUIKOGEcBJQtC+ghNPAPaGLxFNNA0o4IZwEFO0LKOFUjXha9NN2SbJRkpea1WCM5VN4wgnhtGQ+hUcdnHfh5XnGeutkixkbC6fqOzMLfdJuSfE0JcnrzaqaASWcEE4CivYFlHAaquOzyEMyFxdP85McZlbVCyjhhHASULQvoITT0L07yX0L/xuLe8/THUnuNKvBW9p7oIQTwmn0vAeKOljae6CE09DdWbrobyzuzlPSecr4RmY2eIu7AyWcEE5j5w4UdbC4O1DCqRK+n+Qr3cbT9CTbmtnwA0o4IZwEFO0LKOFUGV9Pcumi/+aErP6cxf2Hd03ne1wYolfu/KLc/su7hBPCqUdsSNTBoQftkVPPvMB5Wg27JTmn23jaKIt8gzBAncNJQAFjsHEW+aRdsvg3jKf8B+82M6BJ4ZR4EznQtbsXF05Li6ck+ZG5AU0KJwEFjMISO2hp8XSNuQFNCycBBXTpGvEECCcBBfQ5nv7X3ICmhpOAApbhf8cST3OT3GB2QFPDSUABS3BD6aBRx1OSXG1+QJPDSUABo+2fZcXTD80PaHo4CShgNP2zrHi60vyANoSTgAK67Z9lxdOcdL5RGBBOjQ8nAQWU7pkznnhKkv8xRxBOVQ2nRx97TEABvbTM7ukmnn5gjiCc+uG6628Z/58x5+bMu+8BAQX0yjK7RzwBQwunWbMPHPef88AfH8ys2QcKKKBS8fS/8SXBIJz6EE73zru/J3/etXNuFlBAL9ydLh4SPtLlH3aFeYJwqmI4CSigh7rqnW7j6XvmCcKpquEkoIAe6ap3uo2ny80ThFOVw0lAAT3QVe90G0//L8mtZgrCqcrhJKCAcbi19E7P4ilJLjNXEE5VDycBBYxR150zmnj6rrmCcKpDOAkoYAy67pzRxNN/mysIp7qEk4ACRqnrzhlNPN2V5PtmC8KpLuEkoIAufb90Ts/jKUkuNV8QTnUKJwEF9LpvRhtP3zFfEE51CycBBfSyb0YbTz9I8kszBuFUt3ASUMAS/DKj/B7fkTH8j1xiziCc6hhOAgroRdeIJxBOrQonAQUMI54uTjLfrEE41TWcBBRQzC9d0/d4ui/Jf5o3CKc6h5OAAkrP3DeIeEqSi8wbhFPdw0lAQeuNqWfGGk8XmjcIpyYRUNBKY+qZscbTr+KN4yCcGkZAQatcUnpmYPE05loDhJOAElBQAWPumPHE0wXmDsJJQAkoqKkxd8x44unW+K47qISj3rWfcKphQM3a9tlOXhiOS0vHDDyekuR884fh2+fgo3Pd9bcIpxoF1L6HHJ3zvn25kxeGY1z9Mt54+pb5w/DdO+/+zJp9YE8Dqu3h1M+A2veQo3Pqmd75AEM0rn4Zbzz9PJ75BI0LKOHUv4ASTjB0F5V+GVo8Jcl5jgM0J6CEU/8CSjhBJYy7W3oVT484FlD/gBJO/Qso4QSV8EhV4unuJOc6HlDvgBJO/Qso4QSVcW7plqHHU8QT1DughFP/Ako4QeXiadx6FU/fSHKXYwL1Cyjh1L+AEk5QKXeVXqlMPD2c5OuOC9QroIRT/wJKOEHlfL30SmXiKeIJ6hVQwql/ASWcoLLx1BO9jKfLklzj2ED1A0o49S+ghBNU0jWlU3piuR7/n/takq0cI6h2QC345/Q2oNaf+QpzhWr6Wi//sJEe/587J8njjhFUO6Bs8P2bLVA5j5c+qWw83d7r/4MAAONwTumTysZTkpztOAEAFdHzLulHPJ2b5KeOFQAwZD9NHx7kPdKn/7NfdbwAgCHrS4/0K57ODsXSLAAADmBJREFUijeOAwDD83jpkdrE0/8lOdNxAwCG5MzSI7WJp4gnAGDI8dQX/YynC5Nc5dgBAAN2VemQ2sVTkpzh+AEAA9bX/hhEPM11DAGAAZlb93i6N8mXHUcAYEC+XPqjtvGUJKc7jgDAgPS9OwYRT9cn+YpjCQD02VdKd9Q+npLkNMcTAGhCbwwqnr6T5BLHFADok0tKbzQmnpLkVMcVAKh7Zwwyns5Kco1jCwD02DXp0/fYDTuekuTfHV8AoM59Meh4+lKSmxxjAKBHbip90dh4mh93nwCA3vn30heNjack+WKSOxxrAGCc7ihdMVDDiKffJfmC4w0AjNMXSlc0Pp4W/LC+MBgAGKu5GdLNmGHF051JTnHcAYAxOqX0RGviacEPfY9jDwCM0j0Z4k2YYcbTHUlOdvwBgFE6OUP88NnIkH/4z8d7nwCA7s0t/TA0w46nXw17AABArXy+9ENr4ylJTkryS+cCALAMvyzdMFRViKe5SU50PgAAy3BiKvB2n5EKDeNG5wQAsAQ3piI3W6oST/OSfM55AQAswedKL4inRYZytXMDAFjE1anQTZYqxdNjcfcJAHiiz5VOEE+LcVqSi50jAEBxcemDyhip4JA+6zwBAKraBVWMpwuSnOFcAYDWO6N0gXjqwmeSPOScAYDWeqj0QOVUNZ6uTvJp5w0AtNanU9FP4Y9UeGifSXKbcwcAWue2VPSuU9Xj6Y4k/+b8AYDW+bfSAeJpDD6d5LvOIQBoje+m4m/dGanBEN19AoD2qPy+X4d4+maSLzqXAKDxvlj2ffHUA8cnmeucAoDGmlv2+8qrSzxdX5eBAgBjcnzZ78VTDx2X5HLnFgA0zuVln6+FOsXTw0k+5fwCgMb5VNnnxVMffCvJCc4xAGiME8r+XhsjNRzyp5Lc7FwDgNq7OTV8VamO8XRbkk863wCg9j6ZGn4V20hNh31ykrOdcwBQW2eX/bx2Rmo89E8kuce5BwC1c0/Zx2upzvF0TZJjnX8AUDvHln1cPA3BJ5Kc7xwEgNo4PzW+69SEeFpQr39wLgJA5f0hDXjVqAnxdEW8fAcAdXBs2bfFUwX8a5ILnJMAUFkXlP269poST48l+XiS3zo3AaByflv26cfEU7V8vxwYAKBaPl726UYYadjB+USSrzlHAaAyvpaaf7qu6fG0oG5/7lwFgKH7eRr4qlAT4+lHST7mfAWAoftY2ZfFUw2cnOTzzlkAGJrPp6bfXdfWeFpQu1c5dwFg4K5Kg18FanI83V4O3HznMAAMzPyy/94unurpvCQfdR4DwMB8tOy/jTXSgoP4kXh8AQAMwtfKvttobYinR8uB/KlzGgD65qdlv31UPDXDteWAPu7cBoCee7zss9e24YcdadGB/UqSY5zfANBzx5R9thVGWnZwvf8JAHqrFe9zanM8PVjq+DrnOgCM23VlX31QPDX/QH84yQPOeQAYswfKftq6GxIjLT3g/xHvfwKA8Tim7KetM9Lig/6xJKc49wFg1E5Jg79+RTwt3YeTfMfvAAB07Ttl/2yttsfTL5N8KMlNfhcAYJluKvvmL8VTu11RCvpPRgEAS/Snsl9e0fZBiKeOM0pJAwCL96GyX7aeePqrjyU5wRgA4AlOSIvfIC6ell3V3zAGAPiLb8SrM+JpKe4uJ8iVRgEAubLsi3cbhXhammuTHJ3kVqMAoMVuLfvhtUYhnrpxUTlh7jMKAFrovrIPXmQU4mk0Ti8nDgC0zdFlH0Q8jdon49MFALTLx8r+h3gasw8mOdkYAGiBk8u+h3gal/nlRDrHKABosHPKfjffKMRTL9yZzuu/FxsFAA10cdnn7jQK8dRLN5QTyzOgAGiSK8v+doNRiKd++J90bmnOMQoAGmBO2df+xyjEUz9dXE6024wCgBq7rexn3pIingbi6+WEm2sUANTQ3LKPfd0oxNMgnV5OvHuNAoAaubfsXx6CKZ6G4qRyAj5oFADUwINl3zrJKMTTMB1fTsTHjAKACnus7FfHG4V4qoKPJznKGACosKPKfoV4qowPxyPtAaimD5Z9CvHk5AQAf7kXT3X2eDlBP2IUAFTAR8q+9LhRiKcqe1RAAVChcHrUKHprOSPoi4fz1zeQv8c4ABhCOB2V5BGj6D13nvrnkSQfiPdAATBYHy77j3AST7X0WJL3xxv1ABiMD5Z9x7MHxVPtHZXkffG6MwD98WjZZ44yCvHUJMek8/6nPxkFAD30p7K/HGMU4qmJjk3y7iR/MAoAeuAPZV851ijEU5N9OskRSe40CgDG4c6yn3zaKMRTG5yc5F1J/s8oABiD/yv7yMlGIZ7a5Iwk/5LkOqMAYBSuK/vHGUYhntro3CTvTPJ9owCgC98v+8a5RiGe2uy/yi/ChUYBwFJcWPaL/zIK8URyVZK3JznLKABYjLPKPnGVUYgn/uqmJIcl+ZxRALCQz5X94SajEE880d1JDo3vwwOg48NlX7jbKMQTS/ZIOt9LdGiS3xsHQCv9vuwD748v+BVPdO3fkrwlbtMCtM1N5fr/b0Yhnhi9M5McnOR7RgHQCt8r1/0zjUI8MXaXJnlzkrONAqDRzi7X+0uNQjwxfjckOSjJcUYB0EjHlev8DUYhnuidP6TzjI93JplnHACNMK9c199ervOIJ/rgk0n2TzLHKABqbU65nn/SKMQT/XdOkv2SXGAUALV0QbmOn2MU4onBuSrJm5J81igAauWz5frtq1bEE0NwdzrPAnl7kt8ZB0Cl/a5cr98STwwXTwzdcUn29bcYgMq6qlynfWpaPFEh5yfZJ8kZRgFQKWeU6/P5RiGeqJ4bk+yV5H1JHjQOgKF6sFyP9yrXZ8QTFfV4kmOS7JnkR8YBMBQ/KtfhY8p1GfFEDXyj/OKebhQAA3V6uf5+wyjEE/VzY5K9k/xLPLkWoN/+UK63e8fLdOKJ2js2ye5JLjMKgL64rFxnjzUK8URzXJJktyTHGwVATx1frq+XGIV4onnuSXJYkjfEN3cDjNcN5Xp6WLm+Ip5osDOS/FOS04wCYExOK9dRz9YTT7TIjek8tO3NSX5hHABd+UW5bu4TbwoXT7TWiUleleRsowBYqrPL9fJEoxBP8JN0PiXy1iS/Mg6Av/Grcn3cvVwvEU/wF59J8vIkZxkFQFKuhy8v10cQTyzWT5K8LslBSW41DqClbi3XwdfF3SYWMSGrP8cUWJJNk7wzyRuNAmiRLyb5RLwhnCWYmEnTTIEl+W2SbyW5Ocn6SdYxEqDBflT+wviRcv0D8cSYXZ/k3CSPJdk6yUQjARrk4XS+VuWQJFcZB+KJXvlTkkuT/CDJk5NsYiRAA5xfoukL5ToH4omeuz2dT5/ck2TjJGsYCVBDtyR5f5J3lOsaiCf67pok3yz//LlJJhgJUAOPp/NFvm9O5246iCcGal6Si5NcnmT1dD6dB1BV30zn8QOfL9cvEE8Mze1JvprOdz49PcnaRgJUyE+SvCfJEfESHeKJirk2nfdD/THJ9CQrGwkwRPck+Wg6L9H5FB3iicp6KMkV6XyCJek82gBg0D6bzkt055brEognKu93Sf4znTdkrpzOnSiAfjs7f31f0++Mg37w9SwMysuTHJxkB6MA+uCSJCek860IIJ5olDeUvxU+zyiAHrgyyYlJvmwUiCea7oASUTONAhiD60o0fd4oEE+0yYolog5M8kzjALrwsyQnlWjyRnDEE621cpL9S0j5zjxgcW4qwXRyOo9DAfEEC0XUfnEnCuj4WZJTRBPiCZZupSRvKst7oqCdrkvyhbLmGwfiCbr3xrJ8Og/a4cokXywLxBOMw25J9k2yo1FAI12c5EvpPOQSxBP00A4lonY3CmiEr5ZousQoEE/QX89OsneSvZKsZhxQK/cmOT3JaUl+bByIJxistUtAvSHJ5sYBlXZDOk8CPz3JXcaBeILh2yPJ65PsbBRQKd9O8pUkZxkF4gmqaesSUXskeapxwFD8psTSV5JcbRyIJ6iH1UpA7Z7khcYBA/G9dN4EflY6720C8QQ19YJ0Hnewa9yNgl77TZJz0nnMwBXGgXiCZplcAuq1SV5mHDAuFyX5WgmnB4wD8QTNNz3JPyV5dZIZxgFdmZPkG0n+I8n1xoF4gvbavkTUq9J5/AHwV3clObdE06XGgXgST7CwiUlemeQVZa1qJLTUfUm+WdZ5SR4zEhBPsCyrJHl5ktlJdkmyspHQcH9MckGS85N8K8n9RgLiCcZqSjoP31ywphgJDTEvnYdYLljzjATEE/TaSkl2SufTei9L8jQjoWbuSOeTchcluTDJfCMB8QSDtF2SHcp6tnFQUT9OcklZ3zUOEE9QFZskeUlZ26fzvikYhvvT+WTcf5V1k5GAeIKqWz7Ji9O5M7VdOt+5B/10dTp3lb6b5L+TPGIkIJ6gzqal8x17C9ZmRsI4/TSd75JbsH5tJCCeoMk2SPL8hdZ0I2EZrk/yg4XWbUYC4gnabFqS55a1TTov861oLK31UDovw12V5IdlubME4glYiuVLQG1V1pZJnmksjfWzJD9Kck1ZV8d7lkA8AeP2lCTPKmtmWZsbS+3ckOS6sn5S1m+NBcQTMBiTk8woa3qJqc2STDWaoZubzpu6b0jn/UpzynrAaEA8AdUzNcmmZW1c1kZlTTCennk8yS1l3VzWjWXNNR4QT0D9LZdkw7KeUdb6SZ5e1lON6Al+k+QXZd2e5Odl3VrWo0YE4glor8lJ1i1rWpJ1yppa1lolsFZrwM96bwmju9O5SzQ3yZ1l/TrJr8ryMhsgnoBxWzGdN7A/JcmTy1qtrCllrVJibHKSlZM8KcmkdL5cecWyli9ruSQTk4yUtcCfy3osnTs8j5T1UFnzkzyY5E9J/lhC54F0vp5kXln3lvX7sn5b1kMOIzBayxkBMEYPpXN3xrOHgFb5/3PElIRugQnVAAAAAElFTkSuQmCC;" vertex="1" parent="1">
          <mxGeometry x="238" y="134.68000000000006" width="28.16" height="28.16" as="geometry" />
        </mxCell>
        <mxCell id="Lh2qIq0kyytRX2KrADmU-27" value="" style="shape=image;verticalLabelPosition=bottom;labelBackgroundColor=#ffffff;verticalAlign=top;aspect=fixed;imageAspect=0;image=data:image/png,iVBORw0KGgoAAAANSUhEUgAAAk8AAAJPCAYAAABlxzBuAAAQ/HpUWHRSYXcgcHJvZmlsZSB0eXBlIGV4aWYAAHjarZppdlwpkEb/s4peAhAMwXIYgnN6B738vvFSklW2ymWXS2kr05kveRDDN4CD/d//3vA//NTYNJTatY3WIj9llJEnLzR++7G359d7KZbn9/tPevudwpcfZJ6FZ3m92cvbp/L2/vv17eOZgb74INXvviAft8mfb9zn2/s55r/MqOwk8fOPfvt779F77bW6WRphaK9FvW4R3ofhwsVQ8nyt8ej8rbzuz2Pw0DjjTiWeuOPisdNImVvfVNIJaaabLB2ed9rMsWTLneecd5bnPZWeR94SJUnxR7q5y5AjKll2NhEpQfLHXNJz3/HcbyflzidxaU4MlvjKTx/hny74lce9OxKjlFh9eosV88rZ85A8jOK/uYyEpPuWt/oE+P3x8RM+JVbIYH3CrCxwxvUaYtX0rbbkKQDhusrzq75SP561/FRJ4d6VySQhBbElqaml2HPuKRXJSoImM89S8iIDqdZ8mGQuIo3cKHXEvflOT8+1uebX+7QK+anSpJObIZNklVKpn16UGppVaqm1ttqr1lFnaNJKq6213rznZpdeeu2t96599KmiRas27ao6dI48hJaso40+dIwxJ/ecJcw6+fbkijlXXrLKqqutvnSNNTfls8uuu+2+dY89Tz5yyqmnnX70jDMtGaUUrFi1Zt3Uhs1LrV255dbbbr96x50fWXvL6g+P38haestafjLl1/WPrPFu7z7QM0RynKmeMzKWSyLj3TNAQWfPWdRUSvbMec7iyHRFzUyyem5OijOkRgqLpVxv+sjdt8z9ct4Csf6nvOVfyVzw1P0HmcvB5Lu8fZG140i4n4y9utBjGoXuu9Fm1pnXCcIk/aVy8Z88hz8d4PcGWrPeWK9mu2u3O0c5pEhkg5m7pju0hL3G5i21U/epnYhAZZv48JylN5CYV9XWPY2uKlydDy/ytG2VYc+Ne9USbpQ2LuEf/fbaruRCvCkTMNsK1Sfn2qi7kKDU7yrFB94673xenW6Qy9Zw6pVZM3+owXOUrA6jjit/mpfP85I5/cNz+NUL//bZo0EsAsF4D8UrEGsrZfHEqHX6dqS1KrQ3qS1bYFi79BHvqNqS23T4NTXcMvyi86yXPlvWC+vPz0BvF315TS1iMZ3CgG/pPwqFPpmOf/AcfvFC1nXPsKc4SrNThHUSgEm6nziF+yqa7+KUJ+Uh2ek8ndbtJOGavGzwXO/yAVeW2jelcQvRCz+7pEzt9OocN72yVBfQ+lRG/P45/N0Hv/v8aSBf1V1yXpV7DtO5x6ukgi0/i1KrdVmIzfOYZW5gJ/driMrjz+vVb6DnvOOwdl0/uyKc/BRX7JXhXllaLf8+koTf/cKiOXfsoIoZbEXrljNB1jA6BKLohF267QZoo5Wb7b1pi3iXz5RJbofTJbBN31XviomEypp3Aw66ewwDkC9PgDNRIsFnodSIX92j9HOopbZs9oEeHyBZn6MrDNSHlHPgsQNr9TzDFjMGnkzPuGmmDb9oVarWhPUUCMhkgkxex4SyIjuPs0mgH/sUuaeW2xP5pgxINFHYMqgA7m652ARtbULeZUxZdc8F8dVzkKi3zT0OFkJmg6aAy7SKEsovcvzKsNmeexoabB1t205OfUBp+I+Rwm4I16rjgQ5I7gCrBmsm0wH39iisAQHncGooY3Ryb1KdLCVdhQOORdIQEICdAElbgjzddg9qQe6alF9xdaAzlZ2ZxVZA+TgKoRPOuioscsPH80qvYZW9h9TVXVpcMzrUSDtQPxf3rjqL5tYVIENVIOFRDS1pjupV4b2vD/MEFIwntdmd0nRxqcHtujFcF0HqqEJJiPdIm6PVkfsY1ggAU7RdkRB6cxnBZluYFIM9rJR9ckX2/4tOCT98sPpsVAtL96BH8gPt2SWv/CRXb408EqtjrKwhI+4m0CFO4p/RU4iTiYhGHR2UVNynOyS0c1ZLdpRhO3iDv5mS2r4unIB7nJGRui1hACGLFY3mlT2rJmcYSHzEQokvxxs5dXa6ouSjr7m3/D2sBzmrWxJaka7L1Kn2tdHz1rjdXhR/MWSZt6Fe1Fiatx9pyKd86PPerSLtJzHCDNTI/WdHPo5bRCmDCDusdneGDVduCDUa34DugxhoGxGJpkMkXpTZ6xbB78GgqD3QE7WSBFS43QaaI4EoLAMNW/mFqECJCIm/ddP9jVVwnzm8wGERq4cmq4Pftfe0cKu0EOCt8jAKwNHpVqJ6DdByt6nt7TvUFZoD4O4jYIhQlwvfw7/XMUCf0hsjFxrS7+v6dvBlWgiNPVDOqNq++LBM6rqOaF1WC4pGftUr8DEmX2cIYd4dAb7SreglRK8zTa9Dv5Q5iC0NZSH5LywJAGzUgquRdhKNj4luFSknB4O/km3UdfcJiqTsQov01kcSlnZKoBpXYlJ6wO5pACsSZNFA+kg+rtYu5hTmS14H3X+87trlX4lCowdYqAZX5rsZ+QcTAUsmD9YdRb8RzvrqupJ/lNDTO5fiAan51g4ySfV7M83u+CMX5sCK9DL8zp3uLzMd1/Ga6HEafkXo5u59Z3S8p6SDI91AeUUxPqcW4JxJ7rlIAEx7iYplm+EBWnKFL7aGoZBOGzT/HPmP8sfpokQhrpTb8fzEZljirVAAdM49XecMvsTtSAIVFqleV81MaUKBSpdJoJsJZuXzvK7RGJDCRQOncSAwZZVg/MTWUGeIG4S2RFCvC+ZuQXaHGiAXN1RDFXMXQwseLzt8UgN+dwf2aEtgeENOqd0xm+Me8hFNtRGkg8/XWglmFiobLT8yrfSmZC0N5/SnPUqiNFgYlaBOmyk+cjQWMIyImSL0oxlNNzIxcohx8RPjl5fT4R9jfxv5GSEbfYk9oOhneAbYgr5ShBVZr00As8eBRIeBzMsZB1BhC6jDRvb4aYD374fvBkCUwurA5rNpAevCPtsHnCBgEco8F1gD3zuulNaYbFHKqmBFEw11mxRAgBtBQ29/6FdC5w72GIpk0AcTJx6lqKFJKbdieURkr6vG19I+1gAEf6ziiwW7UKbGEQCf1+aaU8JXwflq2C+C8wzw/v3wewNMdS1B4gGQAaum2CkSkm7P0j6y/mXOP9fTk3XxYU8HgNSpARybu4YZgZqM3wPt4MLb40bj+abjRKLJxBEY6mOjM+ib1bCilrlw0zcF6tm0OrpKwl0s4ZjrlOKmnyompDflUuENFoRyaAAePYnWiAg9gKwrXNmZb0uw89OUofmOA/oiJbgKtzz2eooMBEarMSStJh0KGRMaTxWgpJDwfJSZAGOIvJLbigFF73swQx0qEQ0EEMyCHeBZpui7JchPrnRfHFND8WZg2gUtmDo3scPA1xQMiu7og5sR2cBlPURlarnNN/NcOkn0HRVK3uUV7Uv/H64AKsEIGA/Ih0YDpXt82+klBcRzQXQBerADlRU9RshY+nqvDBUffgkUsDpwZ2QnDoe8EvZN6hTiArQTJbQqHt8Lqt3iPi5TxwqOwrOoogVJ0ZGYRPjFANDNICTaQnWUe4CjSEUdz7oRSiCWekn5JgDiFUNAomhHEuyksOi8DcmIQiQHibF7MKKb6VpqHpQkuDpOBHQ1YtjgLvw1VdzRzq6n3MSQMkLH/PJBpdHmhAuEpIYoxQFzPZWCQCaImZW5kHOta+7eqeoVxaWegctHBy7trOEu8eBqaoUgfTP1Qs7IgjLWOenoqx0Log7gLBFCpsafnRDSoK+m+n7iT6/53N0LI3dg+OhgwQR9T+VGgH7y4kRUT8JU0Xw6n17EaZTs6AlfyA1jcjlw6Fstiaz65vyiKd2D349pkYpvE3tN67tJhY9wPlNyzRHTpwnFr6bE0lDA3e2PlGfPEDzafqOR1L3D24Dr84AFFs2KM0ICFt/7xGGCqWvsU+r7VgAsGsYGFTwv1lssivWoGDoKPHFlfCFXYwaOzj9bbvhqvX9dbqs+vXp/Hrnwdeh+P3LhLXSf8umI/WT0SahvUXyd0r/WWviVYvtLrf0wvdfkwvel5pIm4onHYWlo4IiPfHWp6/BHV+YGu4In0S0i7YVcvSucDivRXFcL3s9owrYWz+D1BCxwVkgpQXxhGY2gYDD7LTis4/od5dVgh+g2i7cAc5vq+2eYFXP/jiPBuiqqkXaprk8dtRsczrgHhcx0D2rk4IbSwe4fsobmw6t0LICWRITpuIKvwSHjAp+NTCrtAMeAFTPq7oGBNMZWVGM01CvWNuSuC3eCwr1YoOpGOR+Xw1ifvGuK/oR2U7KnFYGbgb4xFxrYel76vtP1445Wd98SHYBRvb5dUZ+SYGWC3Iy5aYJgRqYbgF+oA4StAvgzEZaCiQBMzXeFN24ib14IulQNZ4XUZumT8GJ0rh4XyWsiohamhyQQuRzS6Ml8y2JjaE1mwxXiw5BZIw9jGbgS6szLCFatJNkzggZAZ2RUPHCYGxKVYLdIu1K1YL2TEp4EpZzy/jv3itZvADdUwzvF6UJdjZAOhFPFMcChJB9XgoO9LrFd9gspwTrhSUdHyUyon2/panyj7xMr8t2QxyegPHw/EqqldkaOWg0bV1spDQWfS/OK6sj/gouBy5GY2x0rzLlfJcLMqLBwfNMGzeL7IQvYg63dtsxzIvgEbS4MPCLSN1O30aN4Uvh063TFVfR9pyTY9p2iU65v3m/MZrkZxkb2HEAO7kJ4wNd+b8RWpD0rb1GmlAl11XGYeACLWIiI/kVOuBEhJFQ21tJQeF1AiFqIxPXdKuZhfnokI+Hr0Quftm0AotDO11bVfSphkVKXO9Wjm3EShZP7wb1TtQ38MkUrE8OKhVh+NqAATXZhBlZ1GNJyRucBWkaz4tcacoBPMk5I3SLVOFhQMVFvevTeRGjRpMk3HMTNvTak4vTZ+k7+e68hYJTasooZwkQn9b0FuAdnpVQ+DiCHAj41kACdAgBio6gU/HzGQr0q8pRf2oAPf7Oh7rXLDOMgaTiltq5j514tglWAHdJXpIGxzcXrHSd0QJP+gGMevD4ZFrhu3Y8AKspqJhxJnXvSK/9UwyESF/V9eIz7XmajI0aru02EXX0kGeY2gg9oZ0w8y1TX3m0Px2hgH44trmLMK3hQeuI7rgtdF55NT2/z7Ju9q+6C6HzAzANbH9qR7UcE3QGTb7rcv6igzgQKrpUkoNQC4pBOgUx9ezh9vVOLzPUt4OOKvPjOS/IldPKQEdr+tVLCOvCMuicDwqgJsK80dyqsittCW24hquNZx8K5GG9Fe1X1U6uV6JQMF2gYEKQ39ro/OZfZi7pb4wip8FfiVgGRn7Dxzho7Af7UFPLPdzZapDidj4uzgRMdBEfOplHiKUNzBeKRHUnI2G6TqOgHgUR30O9wwY9F406x9BrBhYWjqX4wbXAoxNBjHQRDVz3oHKoDBn5QK6TbYS5WU2BC8/9EgcC/3Jc6Wu4cVvJNKeEDd7lgGm3J+1gbkAYqedtHDf/qyOG3DzN/cs6Gzn9OZHw7j7wQo09HMr6D5ZvwGH0/NSJM43Xo+H7k+Bw4+mGnvk4cvx1LMtDXl/hBlu8LMdzbeSTG82fHiOGPzh9/GOjtQPJPziPD5wPJPzmPDJ8PJP/kPDL8i4PLL0/awucDyT85jwyfDyT/5Dwy/Bfnjz8Z6B/OI4Hn7fq6L70x+wYoqhZ9OTaSAJvuG9G1I/Jil7G5ZIHQYymdPkF48S3cV60g098qwYPvzja8l4L/3wLf/CENwDFi/cwDSbYBrcHX8I41bWVExJw7L7SE75tEV7n+/03CGYi4cz6O+OevH/H/5Tn8R632bwaiwqjH8P/KHqSHM8IirwAAAAZiS0dEAP8A/wD/oL2nkwAAAAlwSFlzAAAuIwAALiMBeKU/dgAAAAd0SU1FB+QEHQ4iBlK9FKkAACAASURBVHja7d17/OZznf/x53zHaTIMKYaRxDrEzI4ialONFC2m4+ZQcthyiorKpiMpHVbFViJqQyLaosiitZFasSp+QzksKcXQyaCMU35/XO+paczh+n6/1+FzuN9vt/etw62mvq/P5/t5P+ZzXdfnmpDVnxOAMVguyZPKmlTWSmWtWP5xhUXW8uW/t2BNLGtkoTWhrAUeL+vPC63Hynp0ofVIkocXWfOTPFT+cX6SB8v6U1mPOozAWC5+AAubnGTdsqYlWaesqWWtleSpSVZrwM96b5LfJLk7ydyy7izr10l+VdYDTgtAPEG7f+83LOsZZa2f5OllPbVFs1itrI2W8Z/7TZJflHV7kp+XdWtZ7mBBi0zwsh001tQkm5a1cVkblTXBeHrm8SS3lHVzWTeWNdd4QDwB1TM5yYyypifZPMlmJZ4YrrlJfprkhiTXJ5lTlpcBQTwBA/KUJM8qa2ZZmxtL7dyQ5LqyflLWb40FxBMwPssn2TrJVmVtmeSZxtJYP0vyoyTXlHV1Op8gBMQTsATTkjy3rG1KOK1oLK31UAmoq5L8sKxfGwuIJ2izDZI8f6E13UhYhuuT/GChdZuRgHiCJpuW5IULrc2MhHH6aZLvLbTcmQLxBLW2fJIXJ9murK2NhD67Osl3y/rveM8UiCeogU2SvKSs7ZOsYiQMyf1JLk3yX2XdZCQgnqAqtkuyQ1nPNg4q6sdJLinru8YB4gkGaaUkOyV5WVlPMxJq5o4kF5V1YTpfmgyIJ+ipKUl2XmhNMRIaYl6Sby+05hkJiCcYq1WSvDzJ7CS7JFnZSGi4Pya5IMn5Sb6VzvumAPEESzUxySuTvKKsVY2ElrovyTfLOi/JY0YC4gkWtn2SVyd5VZK1jQP+xl1Jzk3yjXQ+wQfiCVpqepJ/KtE0wzigK3NKRP1HOk88B/EEDTc5ya5JXpvOJ+WAsbsoydeSnJPkAeNAPEGzvCDJbiWcnmoc0FO/KQF1dpIrjAPxBPW1WpI9kuyeznfJAf33vSRfTXJWknuNA/EE9bB1kteXcHKXCYbjNyWgvpLOd+6BeIIK2qNE085GAZXy7RJRZxkF4gmGb+0keyV5Q5LNjQMq7YYkX05yejqPPwDxBAP07CR7l3BazTigVu4tAXVaOl9YDOIJ+miHJPum8yZwoP6+muRLSS4xCsQT9NZuJZp2NApopItLRJ1tFIgnGJ83lvU8o4BWuDLJF8sC8QRdWinJm8qaaRzQStcl+UJZ840D8QSLt3KS/ZPsl+SZxgEk+VmSU5KcnOSPxoF4gr+NpgOSbGIcwGLclOTzIgrxRNutWILpwLjTBHTnZ0lOKiH1kHEgnmiTA5IcFO9pAsbmuiQnlogC8USjvaFEk0/PAb1wZYmoLxsF4ommeXmSg9N5yCVAr12S5IQk3zIKxBN1t22SQ9J5yCVAv52d5LNJvm8U9MvETJpmCvTDJkmOSueNndONAxiQ6Un+OclTktyW5HdGgnii6lZN8s4STdsZBzAkWyfZNZ1P9V4Xn8xDPFFR+6Tzxs3Xp/PsJoBhWjnJi5O8rMTTtUaCeKIqZiU5Psm7kqxtHEDFrJ3klUmelWRuktuNBPHEsKyX5Mh07jZtahxAxW2aZO8kU9J52OY8I0E8MUgHlWjaOckE4wBqYkI6z5nbJcmjSa4xEsQT/bZdkk8neXuSNYwDqKk1yl/+toyX8hBP9MlTk7w/nYfQbWYcQENskmSPdN5c/v+S/MlIEE/0wh4lmnZNMtE4gMbthZ0H+r44yf1JrjcSxBNjtWmSjyU5Jsk6xgE03DpJXpPkaUluTvJbI0E8MRoHpvMVB9sbBdAyz07yj0kejjeUsxi+245FPSvJ4em8VAd9N2vbLcf137933v25ds7NBkm/nJXk2CQ/MQrEE4vzliT/kmRdo2BQHv/91eP671/+gx9n1uwDDZJ++lWSf03yGaMgSUaMgHTuNn01nUcQCCeAv7VuuT5+tVwvEU+03EFJzk2ym1EALNVu5Xp5kFGIJ9pp0ySnJvlckqcbB0BXnl6um6fG11KJJ1plzyT/kc53PAEwenuX6+ieRiGeaLY1kxyX5MtJNjcOgHHZvFxPjyvXV8QTDbNDkrOTHGoUAD11aLm+7mAU4onmODydT4nMMgqAvphVrrOHG4V4ot42TXJaOs8nWd04APpq9XK9PS3eTC6eqKVXJzkjyV5GATBQe5Xr76uNQjxRDxOSvLf84m5pHABDsWW5Dr+3XJcRT1TUpklOT/LhJJOMA2CoJpXr8enxMp54opJmp/PQNs8cAaiWPcv1ebZRiCeq47AkX0qyjVEAVNI25Tp9mFGIJ4ZrrXS+5ftTSdYwDoBKW6Ncrz9Trt+IJ4bwt5gvJDnEKABq5ZBy/fZqgXhigHZNckqSXYwCoJZ2KdfxXY1CPNF/70hycpIZRgFQazPK9fwdRiGe6I/V03mt/BNJphgHQCNMKdf1T8U3QYgnemrzJCfGpzQAmuqwcp3f3CjEE+O3fZLPJdnNKAAabbdyvd/eKMQTY/e6JCckeaFRALTCC8t1/3VGIZ4Yvbel8yyQTYwCoFU2Kdf/txmFeKI7yyf5UJLjkzzZOABa6cllH/hQ2RcQTyzBWuWX5X1GAUDZD46PJ5KLJxZrkyTHJXmzUQCwkDeX/cHbOMQTC9kmnWd87GEUACzGHmWf8JUu4okkL0nnAWk7GQUAS7FT2S9eYhTiqc1eVX4RtjUKALqwbdk3XmUU4qmN9kzyr0lmGgUAozCz7B97GoV4apP9k3w8yd8ZBQBj8HdlH9nfKMRTG7w1yceSrGMUAIzDOmU/eatRiKcmOzzJR+ObswHojdXLvnK4UYinJnpvko8keZJRANBDTyr7y3uNQjw1yVFJPpxkOaMAoA+WK/vMUUYhnupuYjrfS3SkUQAwAEeWfWeiUYinOlo+ydHxPXUADNb7yv7jC4X7xMtI/bFCqf/3GAUAQ7Bg//lgkoeNo7fceepPkAonAKoQUEfGjRLxVHEThBMAFQyoCUYhnqrqyHiPEwDV8r744JJ4cnICgL/ci6d6e1c8WwOAajuq7FeIp6E7tBS9Z2oAUGUTy351qFGIp2E6sJyIk4wCgBqYVPatA41CPA3DXuUEXM0oAKiR1cr+tZdRiKdBek058aYaBQA1NLXsY68xCvE0CDuWE24DowCgxjYo+9mORiGe+ukfyok2wygAaIAZZV/7B6MQT/2weZIPJHmeUQDQIM8r+9vmRiGeemmdcmK5tQlAE+1Y9rl1jEI89cJK6dzS3NUoAGiwXct+t5JRiKfxOjLJ/sYAQAvsH181Jp7G6R1JjjAGAFrkiLL/IZ5Gba90Xv8FgLb5QDxEUzyN0svKibOqUQDQQquWffBlRiGeurFFOWE2NAoAWmzDsh9uYRTiaWnWSvL+eJYTAKTsh+8v+yPiabHen+TVxgAAf/Hqsj8inp7giCQHGwMAPMHB8elz8bSIPVU1ACzV+8t+KZ6MIC9I8r4kTzIKAFiiJ5X98gXiqd3WKyW9id8JAFimTcq+uZ54aq/3JXmp3wUA6NpLy/4pnlroiCT7+R0AgFHbLy1+A3lb4+mfkrzXuQ8AY/besp+KpxaYmc7txsnOewAYs8llP50pnpptUinlmc55ABi3mWVfnSSemus9SV7rXAeAnnlt2V/FUwO9Pt7nBAD98N6yz4qnBtmiVPEE5zcA9NyEss9uIZ6aYblyQDdzbgNA32xW9tvlxFP9eZ8TAAxGK97/1PR4emWSdzuXAWBg3l32X/FUQ+un8/TTlZzHADAwK5X9d33xVD9HJNnGOQwAA7dNGvz1LU2Np/2THODcBYChOaDsx+KpBrZMi7+sEAAq5IiyL4unintXkmc4XwFg6J5R9mXxVGHvjMcSAECVvLbsz+KpgrZtYt0CQAO8q+zT4qlCJpYD8xTnJwBUzlPKPj1RPFXHvyTZxbkJAJW1S9mvxVMFvCDJ4c5JAKi8w8u+LZ4qcCBWdz4CQOWtngbc8Kh7PL0zyWznIgDUxuzU/NN3dY6nreLlOgCoo8PLPi6eBuydSdZ0/gFA7ayZGt99qms87Z9kN+ceANTWbqnpd9/VMZ42SPIO5xwA1N47yr4unvrs7Uk2dr4BQO1tXPZ18dRHL09ysHMNABrj4LK/i6c+WKGOdQoALNPbyz4vnnrssCQvcn4BQOO8qOzz4qmHpic51LkFAI11aNnvxVMPBzrVeQUAjTU1NblRUod4ekWSNzqnAKDx3lj2ffE0Tm9zLgFAa1R+3696PL01yXbOIwBoje3K/i+exuBpcdcJANrobaUDxNMovSU1fGQ7ADBuG5QOEE+jsHUqfssOAOirt5YeEE9dekuSFZ03ANBaK6aid5+qGE+7JNnTOQMArbdn6QLxtAyHOFcAgKp2QdXiae8kOzpPAIBix9IH4mkxJiZ5s3MEAFjEm0sniKfFDGZr5wcAsIitU6EbLFWJpylx1wkAWLI3l14QT8VBSTZ1XgAAS7Bp6QXxlGRqVYYBAFTaQaUbWh9PByZZz/kAACzDeqUbWh1P6yY5wLkAAHTpgNIPrY2nA1KB228AQG1MzZBvvAwznp6WZH/nAAAwSvuXjmhdPO2XZE3HHwAYpTVLR7QqntYZ5g8NANTefqUnWhNPb4r3OgEAYze19EQr4mmNYf2wAECjvKl0RePj6Y0Z4pu8AIDGeFrpikbH00pJ/tmxBgB65J9LXzQ2nvZNsonjDAD0yCalLxobT+46AQC17otBxtMeSbZyfAGAHtuqdEbj4mkfxxYAqHtnDCqeXppkB8cVAOiTHUpvNCae9nZMAYAm9MYg4ml6ktc7ngBAn72+dEft42kvxxIAGJC+d0e/42m1JG9wHAGAAXlD6Y/axtOe8QXAAMDgTC39Uet4AgAYpNrG005JtnH8AIAB26Z0SO3i6XWOHQAwJH3rkH7F09+JJwBgyPH0d3WKpz2STHDcAIAhmZA+fd9dv+Jpd8cMABiyvvRIP+LpVUk2c7wAgCHbrHRJ5eNpN8cKAKiInndJr+Np/SS7Ok4AQEXsWvqksvG0a7xRHACojgnp8Y2dXsfTax0jAKBietonvYynWUm2cnyg2raYsXG2mLGxQfTBoQftkdWmrGIQUD1blU6pXDy9xrGB6ofTZeeflMvOP0lA9dipJxyZ4445LJedf5KAgmrqWaf0Kp5WEE9Qj3CasurkTFl1soDqcTjtvcfOSZKZ0zcSUFDdeFqhSvH06iRrOy5Q/XBaQED1PpwWEFBQSWuXXqlMPL3KMYH6hJOA6l84CSiotJ70Si/iaS3xBPULJwHVv3ASUFDpeFqrCvH0yiTLOx5Qv3ASUP0LJwEFlbR86ZZKxBNQ03ASUP0LJwEFlTT0eHpGkpc5DlDvcBJQ/QsnAQWV87LSL0OLp5c7BtCMcBJQ/QsnAQWVM65+GW88zTZ/aE44Caj+hZOAgkoZV7+MJ542TLK9+UOzwklA9S+cBBRUxvalYwYeT7uYPVTDUe/ar6fhJKD6F04LB9Q+r3MZhSEa8y/geOJpJ3OHatjn4KNz3fW39OXPbmtA9TOckuS0s76d4088y8kLwzPmjhlrPK2bZAdzh2q4d979mTX7QAFVo3Da5+APOnFhuHYoPTOweHLXCQSUcBJOUHdj6pmxxpNnO4GAEk7CCepuTD0zlnhaNck/mjcIKOEknKDm/rF0Td/jacckK5k3CKimBJRwgtZaqXRN3+PJG8VBQDUmoIQTtN6ou0Y8gYBqbUAJJ2AQ8fT8JOuZMwiougeUcAKK9Urf9C2eXmrGIKDqHlDCCRhP34w2nnyXHQioWgeUcALG2zejiae1k2xrviCg6hpQwglYgm1L5/Q8nl5stiCg6hpQwgnoVeeMJp62M1cQUHUMKOEE9LJzRhNPs8wVBFTdAko4Ab3unG7j6e+TbGiuIKDqFFDCCRiFDUvv9CyeXmSmIKDqFFDCCRiDrnqn23h6oXmCgKpLQAknYIy66p1u4+kF5gkCqg4BJZyAceiqd7qJp+ckWcs8QUBVPaCEEzBOa5XuGXc8Pd8sQUBVPaCEE9Ajy+we8QTUPqCEEzDIeJqQ1Zd5d+rXSdYxS2if1aasksvOPykzp2/Ulz9/3n0PZMqqk8f1Z9x9z++y1pprCCegV+5MMm1p/4Fl3XmaIZygvQZxB2q8hBPQY+uU/hlzPD3PDEFA9TOgqko4Qas9bzzx9FzzA9oWUMIJWu+544mnrc0PaFNACSdgWf2ztHiammRz8wPaElDCCSg2Lx006nh6jtkBbQko4QR020FLi6etzA1oQ0AJJ2A0HSSegFYHlHACehlPW5ob0OSAEk7AWDpoSfG0UXwZMNDggBJOwDKsVXqo63h6lpkBTQ0o4QR06VniCWh9QAknoF/xNNO8gKYFlHACRmmmeAJaG1DCCehnPD0tnW8UBmhEQAknYIzWKV20zHiaYVbVcPxH3p59XreLQSCghBMtsdqUVXLeGcdmixkbG0Z1zOgmnqab0/CdesKReduBu+dLn/2AgEJACSdaEk6XnX9SXrHTi3LZ+ScJqOqYLp5qEk5777HzX/61gEJACSfaEU4zp3ceKzRl1ckCqmbxtJk5VSecBBQCSjjRrnBaQEBVxmbiqYbhJKAQUMKJdoWTgKpXPG2SZJI5VS+cBBQCSjjRrnASUJUxqfTREuNpUzOqbjgJKASUcKJd4SSgKmNT8VTjcBJQCCjhRLvCSUBVP54ckRqEk4BCQAkn2hVOAmroNhZPDQgnAYWAEk60K5wEVHXjaSPzqU84CSjaHFDCiTaGk4Aamo2WFE9PTrKW+dQrnAQUbQwo4USbw0lADcVapZOeEE8bmk09wwnaFFDCCQTUkGy4uHjawFzqG077HnJ0Tj3zAoOm0QElnGjyXwwEVOVtIJ6EE9RqoxFOCCgBVcV4Wt9chBNUcaMRTggoAVUBf+mkCVn9OQv++cVJdjAb4QRVsdqUVbLP63bJ8SeeZRg06rzuxxvIF5h33wOZNfvAXDvnZsPurUuS7LhoPN2YRb67BeEEgIAiSXJTypPGF37Zbj1zEU4A9J+X8GrpL520IJ6mpvOtwQgnAAQUTzSp9NJf4mldMxFOAAgolmpd8SScABBQjDGe1jEP4QSAgGKp1hFPwgkAAcUY42lt8xBOAAgolmrtheNpqnkIJwAEFEs1VTwJJwAEFGOMpzXNQzgBIKBYqjXFk3ACQEAJqDHE02pJVjAP4QSAgGKpVkgyeSTJU8xCOAEgoARUd+MaSbKGOQgnAASUgOrKqiNJnmwOwgkAASWguo+n1c1BOAEgoARUV1YRT8IJAAEloEYZT1PMQTgBIKAEVFdWFk/CCQABJaBGGU+rmoNwAkBACaju42kV4SScABBQAqork0aSTBZOwgkAASWguvKkkSQrCyfhBICAElBdWam18SScABBQAmqs8TRJOAknAASUgOrKiq2LJ+EEgIASUOONp5WEk3ACQEAJqK6sMJJkReEknAAQUAKqK8uPJFlBOAknAASUgOrKchOy+nPuS4MflNnvcIIm+ODHT8lRHz/FIJbh8d9fbQiwFPPueyCzZh+Ya+fc3OQf8z9HkiwnnACA8WrJHaiJjY0n4QQAAqpf8TQinAAAAdWVkcbFk3ACAAHVRxNGkkwQTgCAgOo+noQTACCgujSS5HHhBAAIqK48PpLkz3X+CbaYsbFwAoAaBNTxH3m7eKqCa+fcnH0POdpZCQAVdt31t+SVex7ehB/lzyNJHq37T3HqmRcIKACocDjNmn1g7p13fxN+nMcaEU8CCgCE0yDj6ZGm/DQCCgCEU589OpLk4Sb9RAIKAIRTv+Ppoab9VAIKAIRTnzwykmR+E38yAQUAwqkPHl4uyYNN/elOPfOCJMmXPvuBvv1v3H3P73LjLb/w20Kt3X7HXYbQhct/8GNDoNYmrzwpM2dsnOUmThROY/dQo+NpEAG11ppr5KJLf5h9Dv6g30pouFmzDzQEamuLGRvnsvNPEk49iKeJmTRt9yQbNPmnvHbOzfnFHXfllTu9qG8n5DPWWyfnXXi5304AKhtOU1adLJzG74qJmTTtNUk2bfpPKqAAEE7CqQe+OzGTpu2S5O/b8NMKKACEk3Aap4snZtK0lybZqi0/sYACQDgJp3H49sRMmvbCJM9v008toAAQTsJpjM6dmEnTtk6yfdt+cgEFgHASTmNw9sRMmvb3SXZq408voAAQTsJplM6YmEnTNkrymrZOQEABIJyE0yh8YWImTVs3yevbPAUBBYBwEk5d+tzETJq2RpI3tX0SAgoA4SScuvCpiZk0bVKSt5qFgAJAOAmnZfroxEya9uckR5iFgAJAOAmnZTpyYiZNm5/kPUkmmoeAAkA4CaclejjJByZm0rQkOSDJqmYioAAQTsJpie5KctyCeNozydpmIqAAEE7CaYn+L8nJC+LpFUk2MhMBBYBwYol+kuTMBfG0fZJnmYmAAkA4sURXJPnWgnjaOskLzURAASCcWKILk/z3gnjaNMnOZiKgABBOLNHZSf53QTxNS7K7mQgoAIQTS/SFJDcuiKfJSfY3EwEFgHBiiT6Z5M4F8fTnJO80EwEFgHBiiY5M8sCCeHogybuSLG8uAgoA4cQTPJjk3UmyIJ6S5A1JnmI2AgoA4cQT3Jbks4vG0+wkG5qNgAJAOPEEP05yxqLx9IIkW5qNgAJAOPEElya5IElGFvo3bzeX8Tn1zAuy7yFH9+3P33uPnXPqCUcaNK3bVFabsophIJyE07D9pZMWjqfbzEVAQdU2lRc9/9kCCuEknKrgNvEkoKA2m8rM6RsJKISTcKpkPN1qLgIKqrqpCCiEk3AaslsXF0+/T3K32QgoqOqmIqAQTsJpSO4unfSEeEqSW8xHQEGVNxUBhXASTkPwN320aDzdbD4CCqq+qQgohJNwGrC/6aOFn/OUJM9M8hIz6r1BPAdq9Smr5KJLrzRsWrGpTF1zjfzjS/4hX/3GdzL/oYcNkspaf72188PvfEk41dvZSX6w4F8seufpRvPpn37egZp33wM59awLDJlW/W3cHSjq4PZf3pXzvt2fBxwLp4H5mz4STw0IqHn3PZBZsw/MtXO86kp7wklAUSf7HPzBnHbWt4VTQ+PppnS+NZiaBJRwos3hJKBoa0AJp4F6sPTREuMpSX5qTvUIKOGEcBJQtC+ghNPAPaGLxFNNA0o4IZwEFO0LKOFUjXha9NN2SbJRkpea1WCM5VN4wgnhtGQ+hUcdnHfh5XnGeutkixkbC6fqOzMLfdJuSfE0JcnrzaqaASWcEE4CivYFlHAaquOzyEMyFxdP85McZlbVCyjhhHASULQvoITT0L07yX0L/xuLe8/THUnuNKvBW9p7oIQTwmn0vAeKOljae6CE09DdWbrobyzuzlPSecr4RmY2eIu7AyWcEE5j5w4UdbC4O1DCqRK+n+Qr3cbT9CTbmtnwA0o4IZwEFO0LKOFUGV9Pcumi/+aErP6cxf2Hd03ne1wYolfu/KLc/su7hBPCqUdsSNTBoQftkVPPvMB5Wg27JTmn23jaKIt8gzBAncNJQAFjsHEW+aRdsvg3jKf8B+82M6BJ4ZR4EznQtbsXF05Li6ck+ZG5AU0KJwEFjMISO2hp8XSNuQFNCycBBXTpGvEECCcBBfQ5nv7X3ICmhpOAApbhf8cST3OT3GB2QFPDSUABS3BD6aBRx1OSXG1+QJPDSUABo+2fZcXTD80PaHo4CShgNP2zrHi60vyANoSTgAK67Z9lxdOcdL5RGBBOjQ8nAQWU7pkznnhKkv8xRxBOVQ2nRx97TEABvbTM7ukmnn5gjiCc+uG6628Z/58x5+bMu+8BAQX0yjK7RzwBQwunWbMPHPef88AfH8ys2QcKKKBS8fS/8SXBIJz6EE73zru/J3/etXNuFlBAL9ydLh4SPtLlH3aFeYJwqmI4CSigh7rqnW7j6XvmCcKpquEkoIAe6ap3uo2ny80ThFOVw0lAAT3QVe90G0//L8mtZgrCqcrhJKCAcbi19E7P4ilJLjNXEE5VDycBBYxR150zmnj6rrmCcKpDOAkoYAy67pzRxNN/mysIp7qEk4ACRqnrzhlNPN2V5PtmC8KpLuEkoIAufb90Ts/jKUkuNV8QTnUKJwEF9LpvRhtP3zFfEE51CycBBfSyb0YbTz9I8kszBuFUt3ASUMAS/DKj/B7fkTH8j1xiziCc6hhOAgroRdeIJxBOrQonAQUMI54uTjLfrEE41TWcBBRQzC9d0/d4ui/Jf5o3CKc6h5OAAkrP3DeIeEqSi8wbhFPdw0lAQeuNqWfGGk8XmjcIpyYRUNBKY+qZscbTr+KN4yCcGkZAQatcUnpmYPE05loDhJOAElBQAWPumPHE0wXmDsJJQAkoqKkxd8x44unW+K47qISj3rWfcKphQM3a9tlOXhiOS0vHDDyekuR884fh2+fgo3Pd9bcIpxoF1L6HHJ3zvn25kxeGY1z9Mt54+pb5w/DdO+/+zJp9YE8Dqu3h1M+A2veQo3Pqmd75AEM0rn4Zbzz9PJ75BI0LKOHUv4ASTjB0F5V+GVo8Jcl5jgM0J6CEU/8CSjhBJYy7W3oVT484FlD/gBJO/Qso4QSV8EhV4unuJOc6HlDvgBJO/Qso4QSVcW7plqHHU8QT1DughFP/Ako4QeXiadx6FU/fSHKXYwL1Cyjh1L+AEk5QKXeVXqlMPD2c5OuOC9QroIRT/wJKOEHlfL30SmXiKeIJ6hVQwql/ASWcoLLx1BO9jKfLklzj2ED1A0o49S+ghBNU0jWlU3piuR7/n/takq0cI6h2QC345/Q2oNaf+QpzhWr6Wi//sJEe/587J8njjhFUO6Bs8P2bLVA5j5c+qWw83d7r/4MAAONwTumTysZTkpztOAEAFdHzLulHPJ2b5KeOFQAwZD9NHx7kPdKn/7NfdbwAgCHrS4/0K57ODsXSLAAADmBJREFUijeOAwDD83jpkdrE0/8lOdNxAwCG5MzSI7WJp4gnAGDI8dQX/YynC5Nc5dgBAAN2VemQ2sVTkpzh+AEAA9bX/hhEPM11DAGAAZlb93i6N8mXHUcAYEC+XPqjtvGUJKc7jgDAgPS9OwYRT9cn+YpjCQD02VdKd9Q+npLkNMcTAGhCbwwqnr6T5BLHFADok0tKbzQmnpLkVMcVAKh7Zwwyns5Kco1jCwD02DXp0/fYDTuekuTfHV8AoM59Meh4+lKSmxxjAKBHbip90dh4mh93nwCA3vn30heNjack+WKSOxxrAGCc7ihdMVDDiKffJfmC4w0AjNMXSlc0Pp4W/LC+MBgAGKu5GdLNmGHF051JTnHcAYAxOqX0RGviacEPfY9jDwCM0j0Z4k2YYcbTHUlOdvwBgFE6OUP88NnIkH/4z8d7nwCA7s0t/TA0w46nXw17AABArXy+9ENr4ylJTkryS+cCALAMvyzdMFRViKe5SU50PgAAy3BiKvB2n5EKDeNG5wQAsAQ3piI3W6oST/OSfM55AQAswedKL4inRYZytXMDAFjE1anQTZYqxdNjcfcJAHiiz5VOEE+LcVqSi50jAEBxcemDyhip4JA+6zwBAKraBVWMpwuSnOFcAYDWO6N0gXjqwmeSPOScAYDWeqj0QOVUNZ6uTvJp5w0AtNanU9FP4Y9UeGifSXKbcwcAWue2VPSuU9Xj6Y4k/+b8AYDW+bfSAeJpDD6d5LvOIQBoje+m4m/dGanBEN19AoD2qPy+X4d4+maSLzqXAKDxvlj2ffHUA8cnmeucAoDGmlv2+8qrSzxdX5eBAgBjcnzZ78VTDx2X5HLnFgA0zuVln6+FOsXTw0k+5fwCgMb5VNnnxVMffCvJCc4xAGiME8r+XhsjNRzyp5Lc7FwDgNq7OTV8VamO8XRbkk863wCg9j6ZGn4V20hNh31ykrOdcwBQW2eX/bx2Rmo89E8kuce5BwC1c0/Zx2upzvF0TZJjnX8AUDvHln1cPA3BJ5Kc7xwEgNo4PzW+69SEeFpQr39wLgJA5f0hDXjVqAnxdEW8fAcAdXBs2bfFUwX8a5ILnJMAUFkXlP269poST48l+XiS3zo3AaByflv26cfEU7V8vxwYAKBaPl726UYYadjB+USSrzlHAaAyvpaaf7qu6fG0oG5/7lwFgKH7eRr4qlAT4+lHST7mfAWAoftY2ZfFUw2cnOTzzlkAGJrPp6bfXdfWeFpQu1c5dwFg4K5Kg18FanI83V4O3HznMAAMzPyy/94unurpvCQfdR4DwMB8tOy/jTXSgoP4kXh8AQAMwtfKvttobYinR8uB/KlzGgD65qdlv31UPDXDteWAPu7cBoCee7zss9e24YcdadGB/UqSY5zfANBzx5R9thVGWnZwvf8JAHqrFe9zanM8PVjq+DrnOgCM23VlX31QPDX/QH84yQPOeQAYswfKftq6GxIjLT3g/xHvfwKA8Tim7KetM9Lig/6xJKc49wFg1E5Jg79+RTwt3YeTfMfvAAB07Ttl/2yttsfTL5N8KMlNfhcAYJluKvvmL8VTu11RCvpPRgEAS/Snsl9e0fZBiKeOM0pJAwCL96GyX7aeePqrjyU5wRgA4AlOSIvfIC6ell3V3zAGAPiLb8SrM+JpKe4uJ8iVRgEAubLsi3cbhXhammuTHJ3kVqMAoMVuLfvhtUYhnrpxUTlh7jMKAFrovrIPXmQU4mk0Ti8nDgC0zdFlH0Q8jdon49MFALTLx8r+h3gasw8mOdkYAGiBk8u+h3gal/nlRDrHKABosHPKfjffKMRTL9yZzuu/FxsFAA10cdnn7jQK8dRLN5QTyzOgAGiSK8v+doNRiKd++J90bmnOMQoAGmBO2df+xyjEUz9dXE6024wCgBq7rexn3pIingbi6+WEm2sUANTQ3LKPfd0oxNMgnV5OvHuNAoAaubfsXx6CKZ6G4qRyAj5oFADUwINl3zrJKMTTMB1fTsTHjAKACnus7FfHG4V4qoKPJznKGACosKPKfoV4qowPxyPtAaimD5Z9CvHk5AQAf7kXT3X2eDlBP2IUAFTAR8q+9LhRiKcqe1RAAVChcHrUKHprOSPoi4fz1zeQv8c4ABhCOB2V5BGj6D13nvrnkSQfiPdAATBYHy77j3AST7X0WJL3xxv1ABiMD5Z9x7MHxVPtHZXkffG6MwD98WjZZ44yCvHUJMek8/6nPxkFAD30p7K/HGMU4qmJjk3y7iR/MAoAeuAPZV851ijEU5N9OskRSe40CgDG4c6yn3zaKMRTG5yc5F1J/s8oABiD/yv7yMlGIZ7a5Iwk/5LkOqMAYBSuK/vHGUYhntro3CTvTPJ9owCgC98v+8a5RiGe2uy/yi/ChUYBwFJcWPaL/zIK8URyVZK3JznLKABYjLPKPnGVUYgn/uqmJIcl+ZxRALCQz5X94SajEE880d1JDo3vwwOg48NlX7jbKMQTS/ZIOt9LdGiS3xsHQCv9vuwD748v+BVPdO3fkrwlbtMCtM1N5fr/b0Yhnhi9M5McnOR7RgHQCt8r1/0zjUI8MXaXJnlzkrONAqDRzi7X+0uNQjwxfjckOSjJcUYB0EjHlev8DUYhnuidP6TzjI93JplnHACNMK9c199ervOIJ/rgk0n2TzLHKABqbU65nn/SKMQT/XdOkv2SXGAUALV0QbmOn2MU4onBuSrJm5J81igAauWz5frtq1bEE0NwdzrPAnl7kt8ZB0Cl/a5cr98STwwXTwzdcUn29bcYgMq6qlynfWpaPFEh5yfZJ8kZRgFQKWeU6/P5RiGeqJ4bk+yV5H1JHjQOgKF6sFyP9yrXZ8QTFfV4kmOS7JnkR8YBMBQ/KtfhY8p1GfFEDXyj/OKebhQAA3V6uf5+wyjEE/VzY5K9k/xLPLkWoN/+UK63e8fLdOKJ2js2ye5JLjMKgL64rFxnjzUK8URzXJJktyTHGwVATx1frq+XGIV4onnuSXJYkjfEN3cDjNcN5Xp6WLm+Ip5osDOS/FOS04wCYExOK9dRz9YTT7TIjek8tO3NSX5hHABd+UW5bu4TbwoXT7TWiUleleRsowBYqrPL9fJEoxBP8JN0PiXy1iS/Mg6Av/Grcn3cvVwvEU/wF59J8vIkZxkFQFKuhy8v10cQTyzWT5K8LslBSW41DqClbi3XwdfF3SYWMSGrP8cUWJJNk7wzyRuNAmiRLyb5RLwhnCWYmEnTTIEl+W2SbyW5Ocn6SdYxEqDBflT+wviRcv0D8cSYXZ/k3CSPJdk6yUQjARrk4XS+VuWQJFcZB+KJXvlTkkuT/CDJk5NsYiRAA5xfoukL5ToH4omeuz2dT5/ck2TjJGsYCVBDtyR5f5J3lOsaiCf67pok3yz//LlJJhgJUAOPp/NFvm9O5246iCcGal6Si5NcnmT1dD6dB1BV30zn8QOfL9cvEE8Mze1JvprOdz49PcnaRgJUyE+SvCfJEfESHeKJirk2nfdD/THJ9CQrGwkwRPck+Wg6L9H5FB3iicp6KMkV6XyCJek82gBg0D6bzkt055brEognKu93Sf4znTdkrpzOnSiAfjs7f31f0++Mg37w9SwMysuTHJxkB6MA+uCSJCek860IIJ5olDeUvxU+zyiAHrgyyYlJvmwUiCea7oASUTONAhiD60o0fd4oEE+0yYolog5M8kzjALrwsyQnlWjyRnDEE621cpL9S0j5zjxgcW4qwXRyOo9DAfEEC0XUfnEnCuj4WZJTRBPiCZZupSRvKst7oqCdrkvyhbLmGwfiCbr3xrJ8Og/a4cokXywLxBOMw25J9k2yo1FAI12c5EvpPOQSxBP00A4lonY3CmiEr5ZousQoEE/QX89OsneSvZKsZhxQK/cmOT3JaUl+bByIJxistUtAvSHJ5sYBlXZDOk8CPz3JXcaBeILh2yPJ65PsbBRQKd9O8pUkZxkF4gmqaesSUXskeapxwFD8psTSV5JcbRyIJ6iH1UpA7Z7khcYBA/G9dN4EflY6720C8QQ19YJ0Hnewa9yNgl77TZJz0nnMwBXGgXiCZplcAuq1SV5mHDAuFyX5WgmnB4wD8QTNNz3JPyV5dZIZxgFdmZPkG0n+I8n1xoF4gvbavkTUq9J5/AHwV3clObdE06XGgXgST7CwiUlemeQVZa1qJLTUfUm+WdZ5SR4zEhBPsCyrJHl5ktlJdkmyspHQcH9MckGS85N8K8n9RgLiCcZqSjoP31ywphgJDTEvnYdYLljzjATEE/TaSkl2SufTei9L8jQjoWbuSOeTchcluTDJfCMB8QSDtF2SHcp6tnFQUT9OcklZ3zUOEE9QFZskeUlZ26fzvikYhvvT+WTcf5V1k5GAeIKqWz7Ji9O5M7VdOt+5B/10dTp3lb6b5L+TPGIkIJ6gzqal8x17C9ZmRsI4/TSd75JbsH5tJCCeoMk2SPL8hdZ0I2EZrk/yg4XWbUYC4gnabFqS55a1TTov861oLK31UDovw12V5IdlubME4glYiuVLQG1V1pZJnmksjfWzJD9Kck1ZV8d7lkA8AeP2lCTPKmtmWZsbS+3ckOS6sn5S1m+NBcQTMBiTk8woa3qJqc2STDWaoZubzpu6b0jn/UpzynrAaEA8AdUzNcmmZW1c1kZlTTCennk8yS1l3VzWjWXNNR4QT0D9LZdkw7KeUdb6SZ5e1lON6Al+k+QXZd2e5Odl3VrWo0YE4glor8lJ1i1rWpJ1yppa1lolsFZrwM96bwmju9O5SzQ3yZ1l/TrJr8ryMhsgnoBxWzGdN7A/JcmTy1qtrCllrVJibHKSlZM8KcmkdL5cecWyli9ruSQTk4yUtcCfy3osnTs8j5T1UFnzkzyY5E9J/lhC54F0vp5kXln3lvX7sn5b1kMOIzBayxkBMEYPpXN3xrOHgFb5/3PElIRugQnVAAAAAElFTkSuQmCC;" vertex="1" parent="1">
          <mxGeometry x="238" y="173.88000000000005" width="28.16" height="28.16" as="geometry" />
        </mxCell>
        <mxCell id="Lh2qIq0kyytRX2KrADmU-28" value="" style="shape=image;verticalLabelPosition=bottom;labelBackgroundColor=#ffffff;verticalAlign=top;aspect=fixed;imageAspect=0;image=data:image/png,iVBORw0KGgoAAAANSUhEUgAAAk8AAAJPCAYAAABlxzBuAAAQ/HpUWHRSYXcgcHJvZmlsZSB0eXBlIGV4aWYAAHjarZppdlwpkEb/s4peAhAMwXIYgnN6B738vvFSklW2ymWXS2kr05kveRDDN4CD/d//3vA//NTYNJTatY3WIj9llJEnLzR++7G359d7KZbn9/tPevudwpcfZJ6FZ3m92cvbp/L2/vv17eOZgb74INXvviAft8mfb9zn2/s55r/MqOwk8fOPfvt779F77bW6WRphaK9FvW4R3ofhwsVQ8nyt8ej8rbzuz2Pw0DjjTiWeuOPisdNImVvfVNIJaaabLB2ed9rMsWTLneecd5bnPZWeR94SJUnxR7q5y5AjKll2NhEpQfLHXNJz3/HcbyflzidxaU4MlvjKTx/hny74lce9OxKjlFh9eosV88rZ85A8jOK/uYyEpPuWt/oE+P3x8RM+JVbIYH3CrCxwxvUaYtX0rbbkKQDhusrzq75SP561/FRJ4d6VySQhBbElqaml2HPuKRXJSoImM89S8iIDqdZ8mGQuIo3cKHXEvflOT8+1uebX+7QK+anSpJObIZNklVKpn16UGppVaqm1ttqr1lFnaNJKq6213rznZpdeeu2t96599KmiRas27ao6dI48hJaso40+dIwxJ/ecJcw6+fbkijlXXrLKqqutvnSNNTfls8uuu+2+dY89Tz5yyqmnnX70jDMtGaUUrFi1Zt3Uhs1LrV255dbbbr96x50fWXvL6g+P38haestafjLl1/WPrPFu7z7QM0RynKmeMzKWSyLj3TNAQWfPWdRUSvbMec7iyHRFzUyyem5OijOkRgqLpVxv+sjdt8z9ct4Csf6nvOVfyVzw1P0HmcvB5Lu8fZG140i4n4y9utBjGoXuu9Fm1pnXCcIk/aVy8Z88hz8d4PcGWrPeWK9mu2u3O0c5pEhkg5m7pju0hL3G5i21U/epnYhAZZv48JylN5CYV9XWPY2uKlydDy/ytG2VYc+Ne9USbpQ2LuEf/fbaruRCvCkTMNsK1Sfn2qi7kKDU7yrFB94673xenW6Qy9Zw6pVZM3+owXOUrA6jjit/mpfP85I5/cNz+NUL//bZo0EsAsF4D8UrEGsrZfHEqHX6dqS1KrQ3qS1bYFi79BHvqNqS23T4NTXcMvyi86yXPlvWC+vPz0BvF315TS1iMZ3CgG/pPwqFPpmOf/AcfvFC1nXPsKc4SrNThHUSgEm6nziF+yqa7+KUJ+Uh2ek8ndbtJOGavGzwXO/yAVeW2jelcQvRCz+7pEzt9OocN72yVBfQ+lRG/P45/N0Hv/v8aSBf1V1yXpV7DtO5x6ukgi0/i1KrdVmIzfOYZW5gJ/driMrjz+vVb6DnvOOwdl0/uyKc/BRX7JXhXllaLf8+koTf/cKiOXfsoIoZbEXrljNB1jA6BKLohF267QZoo5Wb7b1pi3iXz5RJbofTJbBN31XviomEypp3Aw66ewwDkC9PgDNRIsFnodSIX92j9HOopbZs9oEeHyBZn6MrDNSHlHPgsQNr9TzDFjMGnkzPuGmmDb9oVarWhPUUCMhkgkxex4SyIjuPs0mgH/sUuaeW2xP5pgxINFHYMqgA7m652ARtbULeZUxZdc8F8dVzkKi3zT0OFkJmg6aAy7SKEsovcvzKsNmeexoabB1t205OfUBp+I+Rwm4I16rjgQ5I7gCrBmsm0wH39iisAQHncGooY3Ryb1KdLCVdhQOORdIQEICdAElbgjzddg9qQe6alF9xdaAzlZ2ZxVZA+TgKoRPOuioscsPH80qvYZW9h9TVXVpcMzrUSDtQPxf3rjqL5tYVIENVIOFRDS1pjupV4b2vD/MEFIwntdmd0nRxqcHtujFcF0HqqEJJiPdIm6PVkfsY1ggAU7RdkRB6cxnBZluYFIM9rJR9ckX2/4tOCT98sPpsVAtL96BH8gPt2SWv/CRXb408EqtjrKwhI+4m0CFO4p/RU4iTiYhGHR2UVNynOyS0c1ZLdpRhO3iDv5mS2r4unIB7nJGRui1hACGLFY3mlT2rJmcYSHzEQokvxxs5dXa6ouSjr7m3/D2sBzmrWxJaka7L1Kn2tdHz1rjdXhR/MWSZt6Fe1Fiatx9pyKd86PPerSLtJzHCDNTI/WdHPo5bRCmDCDusdneGDVduCDUa34DugxhoGxGJpkMkXpTZ6xbB78GgqD3QE7WSBFS43QaaI4EoLAMNW/mFqECJCIm/ddP9jVVwnzm8wGERq4cmq4Pftfe0cKu0EOCt8jAKwNHpVqJ6DdByt6nt7TvUFZoD4O4jYIhQlwvfw7/XMUCf0hsjFxrS7+v6dvBlWgiNPVDOqNq++LBM6rqOaF1WC4pGftUr8DEmX2cIYd4dAb7SreglRK8zTa9Dv5Q5iC0NZSH5LywJAGzUgquRdhKNj4luFSknB4O/km3UdfcJiqTsQov01kcSlnZKoBpXYlJ6wO5pACsSZNFA+kg+rtYu5hTmS14H3X+87trlX4lCowdYqAZX5rsZ+QcTAUsmD9YdRb8RzvrqupJ/lNDTO5fiAan51g4ySfV7M83u+CMX5sCK9DL8zp3uLzMd1/Ga6HEafkXo5u59Z3S8p6SDI91AeUUxPqcW4JxJ7rlIAEx7iYplm+EBWnKFL7aGoZBOGzT/HPmP8sfpokQhrpTb8fzEZljirVAAdM49XecMvsTtSAIVFqleV81MaUKBSpdJoJsJZuXzvK7RGJDCRQOncSAwZZVg/MTWUGeIG4S2RFCvC+ZuQXaHGiAXN1RDFXMXQwseLzt8UgN+dwf2aEtgeENOqd0xm+Me8hFNtRGkg8/XWglmFiobLT8yrfSmZC0N5/SnPUqiNFgYlaBOmyk+cjQWMIyImSL0oxlNNzIxcohx8RPjl5fT4R9jfxv5GSEbfYk9oOhneAbYgr5ShBVZr00As8eBRIeBzMsZB1BhC6jDRvb4aYD374fvBkCUwurA5rNpAevCPtsHnCBgEco8F1gD3zuulNaYbFHKqmBFEw11mxRAgBtBQ29/6FdC5w72GIpk0AcTJx6lqKFJKbdieURkr6vG19I+1gAEf6ziiwW7UKbGEQCf1+aaU8JXwflq2C+C8wzw/v3wewNMdS1B4gGQAaum2CkSkm7P0j6y/mXOP9fTk3XxYU8HgNSpARybu4YZgZqM3wPt4MLb40bj+abjRKLJxBEY6mOjM+ib1bCilrlw0zcF6tm0OrpKwl0s4ZjrlOKmnyompDflUuENFoRyaAAePYnWiAg9gKwrXNmZb0uw89OUofmOA/oiJbgKtzz2eooMBEarMSStJh0KGRMaTxWgpJDwfJSZAGOIvJLbigFF73swQx0qEQ0EEMyCHeBZpui7JchPrnRfHFND8WZg2gUtmDo3scPA1xQMiu7og5sR2cBlPURlarnNN/NcOkn0HRVK3uUV7Uv/H64AKsEIGA/Ih0YDpXt82+klBcRzQXQBerADlRU9RshY+nqvDBUffgkUsDpwZ2QnDoe8EvZN6hTiArQTJbQqHt8Lqt3iPi5TxwqOwrOoogVJ0ZGYRPjFANDNICTaQnWUe4CjSEUdz7oRSiCWekn5JgDiFUNAomhHEuyksOi8DcmIQiQHibF7MKKb6VpqHpQkuDpOBHQ1YtjgLvw1VdzRzq6n3MSQMkLH/PJBpdHmhAuEpIYoxQFzPZWCQCaImZW5kHOta+7eqeoVxaWegctHBy7trOEu8eBqaoUgfTP1Qs7IgjLWOenoqx0Log7gLBFCpsafnRDSoK+m+n7iT6/53N0LI3dg+OhgwQR9T+VGgH7y4kRUT8JU0Xw6n17EaZTs6AlfyA1jcjlw6Fstiaz65vyiKd2D349pkYpvE3tN67tJhY9wPlNyzRHTpwnFr6bE0lDA3e2PlGfPEDzafqOR1L3D24Dr84AFFs2KM0ICFt/7xGGCqWvsU+r7VgAsGsYGFTwv1lssivWoGDoKPHFlfCFXYwaOzj9bbvhqvX9dbqs+vXp/Hrnwdeh+P3LhLXSf8umI/WT0SahvUXyd0r/WWviVYvtLrf0wvdfkwvel5pIm4onHYWlo4IiPfHWp6/BHV+YGu4In0S0i7YVcvSucDivRXFcL3s9owrYWz+D1BCxwVkgpQXxhGY2gYDD7LTis4/od5dVgh+g2i7cAc5vq+2eYFXP/jiPBuiqqkXaprk8dtRsczrgHhcx0D2rk4IbSwe4fsobmw6t0LICWRITpuIKvwSHjAp+NTCrtAMeAFTPq7oGBNMZWVGM01CvWNuSuC3eCwr1YoOpGOR+Xw1ifvGuK/oR2U7KnFYGbgb4xFxrYel76vtP1445Wd98SHYBRvb5dUZ+SYGWC3Iy5aYJgRqYbgF+oA4StAvgzEZaCiQBMzXeFN24ib14IulQNZ4XUZumT8GJ0rh4XyWsiohamhyQQuRzS6Ml8y2JjaE1mwxXiw5BZIw9jGbgS6szLCFatJNkzggZAZ2RUPHCYGxKVYLdIu1K1YL2TEp4EpZzy/jv3itZvADdUwzvF6UJdjZAOhFPFMcChJB9XgoO9LrFd9gspwTrhSUdHyUyon2/panyj7xMr8t2QxyegPHw/EqqldkaOWg0bV1spDQWfS/OK6sj/gouBy5GY2x0rzLlfJcLMqLBwfNMGzeL7IQvYg63dtsxzIvgEbS4MPCLSN1O30aN4Uvh063TFVfR9pyTY9p2iU65v3m/MZrkZxkb2HEAO7kJ4wNd+b8RWpD0rb1GmlAl11XGYeACLWIiI/kVOuBEhJFQ21tJQeF1AiFqIxPXdKuZhfnokI+Hr0Quftm0AotDO11bVfSphkVKXO9Wjm3EShZP7wb1TtQ38MkUrE8OKhVh+NqAATXZhBlZ1GNJyRucBWkaz4tcacoBPMk5I3SLVOFhQMVFvevTeRGjRpMk3HMTNvTak4vTZ+k7+e68hYJTasooZwkQn9b0FuAdnpVQ+DiCHAj41kACdAgBio6gU/HzGQr0q8pRf2oAPf7Oh7rXLDOMgaTiltq5j514tglWAHdJXpIGxzcXrHSd0QJP+gGMevD4ZFrhu3Y8AKspqJhxJnXvSK/9UwyESF/V9eIz7XmajI0aru02EXX0kGeY2gg9oZ0w8y1TX3m0Px2hgH44trmLMK3hQeuI7rgtdF55NT2/z7Ju9q+6C6HzAzANbH9qR7UcE3QGTb7rcv6igzgQKrpUkoNQC4pBOgUx9ezh9vVOLzPUt4OOKvPjOS/IldPKQEdr+tVLCOvCMuicDwqgJsK80dyqsittCW24hquNZx8K5GG9Fe1X1U6uV6JQMF2gYEKQ39ro/OZfZi7pb4wip8FfiVgGRn7Dxzho7Af7UFPLPdzZapDidj4uzgRMdBEfOplHiKUNzBeKRHUnI2G6TqOgHgUR30O9wwY9F406x9BrBhYWjqX4wbXAoxNBjHQRDVz3oHKoDBn5QK6TbYS5WU2BC8/9EgcC/3Jc6Wu4cVvJNKeEDd7lgGm3J+1gbkAYqedtHDf/qyOG3DzN/cs6Gzn9OZHw7j7wQo09HMr6D5ZvwGH0/NSJM43Xo+H7k+Bw4+mGnvk4cvx1LMtDXl/hBlu8LMdzbeSTG82fHiOGPzh9/GOjtQPJPziPD5wPJPzmPDJ8PJP/kPDL8i4PLL0/awucDyT85jwyfDyT/5Dwy/Bfnjz8Z6B/OI4Hn7fq6L70x+wYoqhZ9OTaSAJvuG9G1I/Jil7G5ZIHQYymdPkF48S3cV60g098qwYPvzja8l4L/3wLf/CENwDFi/cwDSbYBrcHX8I41bWVExJw7L7SE75tEV7n+/03CGYi4cz6O+OevH/H/5Tn8R632bwaiwqjH8P/KHqSHM8IirwAAAAZiS0dEAP8A/wD/oL2nkwAAAAlwSFlzAAAuIwAALiMBeKU/dgAAAAd0SU1FB+QEHQ4iBlK9FKkAACAASURBVHja7d17/OZznf/x53zHaTIMKYaRxDrEzI4ialONFC2m4+ZQcthyiorKpiMpHVbFViJqQyLaosiitZFasSp+QzksKcXQyaCMU35/XO+paczh+n6/1+FzuN9vt/etw62mvq/P5/t5P+ZzXdfnmpDVnxOAMVguyZPKmlTWSmWtWP5xhUXW8uW/t2BNLGtkoTWhrAUeL+vPC63Hynp0ofVIkocXWfOTPFT+cX6SB8v6U1mPOozAWC5+AAubnGTdsqYlWaesqWWtleSpSVZrwM96b5LfJLk7ydyy7izr10l+VdYDTgtAPEG7f+83LOsZZa2f5OllPbVFs1itrI2W8Z/7TZJflHV7kp+XdWtZ7mBBi0zwsh001tQkm5a1cVkblTXBeHrm8SS3lHVzWTeWNdd4QDwB1TM5yYyypifZPMlmJZ4YrrlJfprkhiTXJ5lTlpcBQTwBA/KUJM8qa2ZZmxtL7dyQ5LqyflLWb40FxBMwPssn2TrJVmVtmeSZxtJYP0vyoyTXlHV1Op8gBMQTsATTkjy3rG1KOK1oLK31UAmoq5L8sKxfGwuIJ2izDZI8f6E13UhYhuuT/GChdZuRgHiCJpuW5IULrc2MhHH6aZLvLbTcmQLxBLW2fJIXJ9murK2NhD67Osl3y/rveM8UiCeogU2SvKSs7ZOsYiQMyf1JLk3yX2XdZCQgnqAqtkuyQ1nPNg4q6sdJLinru8YB4gkGaaUkOyV5WVlPMxJq5o4kF5V1YTpfmgyIJ+ipKUl2XmhNMRIaYl6Sby+05hkJiCcYq1WSvDzJ7CS7JFnZSGi4Pya5IMn5Sb6VzvumAPEESzUxySuTvKKsVY2ElrovyTfLOi/JY0YC4gkWtn2SVyd5VZK1jQP+xl1Jzk3yjXQ+wQfiCVpqepJ/KtE0wzigK3NKRP1HOk88B/EEDTc5ya5JXpvOJ+WAsbsoydeSnJPkAeNAPEGzvCDJbiWcnmoc0FO/KQF1dpIrjAPxBPW1WpI9kuyeznfJAf33vSRfTXJWknuNA/EE9bB1kteXcHKXCYbjNyWgvpLOd+6BeIIK2qNE085GAZXy7RJRZxkF4gmGb+0keyV5Q5LNjQMq7YYkX05yejqPPwDxBAP07CR7l3BazTigVu4tAXVaOl9YDOIJ+miHJPum8yZwoP6+muRLSS4xCsQT9NZuJZp2NApopItLRJ1tFIgnGJ83lvU8o4BWuDLJF8sC8QRdWinJm8qaaRzQStcl+UJZ840D8QSLt3KS/ZPsl+SZxgEk+VmSU5KcnOSPxoF4gr+NpgOSbGIcwGLclOTzIgrxRNutWILpwLjTBHTnZ0lOKiH1kHEgnmiTA5IcFO9pAsbmuiQnlogC8USjvaFEk0/PAb1wZYmoLxsF4ommeXmSg9N5yCVAr12S5IQk3zIKxBN1t22SQ9J5yCVAv52d5LNJvm8U9MvETJpmCvTDJkmOSueNndONAxiQ6Un+OclTktyW5HdGgnii6lZN8s4STdsZBzAkWyfZNZ1P9V4Xn8xDPFFR+6Tzxs3Xp/PsJoBhWjnJi5O8rMTTtUaCeKIqZiU5Psm7kqxtHEDFrJ3klUmelWRuktuNBPHEsKyX5Mh07jZtahxAxW2aZO8kU9J52OY8I0E8MUgHlWjaOckE4wBqYkI6z5nbJcmjSa4xEsQT/bZdkk8neXuSNYwDqKk1yl/+toyX8hBP9MlTk7w/nYfQbWYcQENskmSPdN5c/v+S/MlIEE/0wh4lmnZNMtE4gMbthZ0H+r44yf1JrjcSxBNjtWmSjyU5Jsk6xgE03DpJXpPkaUluTvJbI0E8MRoHpvMVB9sbBdAyz07yj0kejjeUsxi+245FPSvJ4em8VAd9N2vbLcf137933v25ds7NBkm/nJXk2CQ/MQrEE4vzliT/kmRdo2BQHv/91eP671/+gx9n1uwDDZJ++lWSf03yGaMgSUaMgHTuNn01nUcQCCeAv7VuuT5+tVwvEU+03EFJzk2ym1EALNVu5Xp5kFGIJ9pp0ySnJvlckqcbB0BXnl6um6fG11KJJ1plzyT/kc53PAEwenuX6+ieRiGeaLY1kxyX5MtJNjcOgHHZvFxPjyvXV8QTDbNDkrOTHGoUAD11aLm+7mAU4onmODydT4nMMgqAvphVrrOHG4V4ot42TXJaOs8nWd04APpq9XK9PS3eTC6eqKVXJzkjyV5GATBQe5Xr76uNQjxRDxOSvLf84m5pHABDsWW5Dr+3XJcRT1TUpklOT/LhJJOMA2CoJpXr8enxMp54opJmp/PQNs8cAaiWPcv1ebZRiCeq47AkX0qyjVEAVNI25Tp9mFGIJ4ZrrXS+5ftTSdYwDoBKW6Ncrz9Trt+IJ4bwt5gvJDnEKABq5ZBy/fZqgXhigHZNckqSXYwCoJZ2KdfxXY1CPNF/70hycpIZRgFQazPK9fwdRiGe6I/V03mt/BNJphgHQCNMKdf1T8U3QYgnemrzJCfGpzQAmuqwcp3f3CjEE+O3fZLPJdnNKAAabbdyvd/eKMQTY/e6JCckeaFRALTCC8t1/3VGIZ4Yvbel8yyQTYwCoFU2Kdf/txmFeKI7yyf5UJLjkzzZOABa6cllH/hQ2RcQTyzBWuWX5X1GAUDZD46PJ5KLJxZrkyTHJXmzUQCwkDeX/cHbOMQTC9kmnWd87GEUACzGHmWf8JUu4okkL0nnAWk7GQUAS7FT2S9eYhTiqc1eVX4RtjUKALqwbdk3XmUU4qmN9kzyr0lmGgUAozCz7B97GoV4apP9k3w8yd8ZBQBj8HdlH9nfKMRTG7w1yceSrGMUAIzDOmU/eatRiKcmOzzJR+ObswHojdXLvnK4UYinJnpvko8keZJRANBDTyr7y3uNQjw1yVFJPpxkOaMAoA+WK/vMUUYhnupuYjrfS3SkUQAwAEeWfWeiUYinOlo+ydHxPXUADNb7yv7jC4X7xMtI/bFCqf/3GAUAQ7Bg//lgkoeNo7fceepPkAonAKoQUEfGjRLxVHEThBMAFQyoCUYhnqrqyHiPEwDV8r744JJ4cnICgL/ci6d6e1c8WwOAajuq7FeIp6E7tBS9Z2oAUGUTy351qFGIp2E6sJyIk4wCgBqYVPatA41CPA3DXuUEXM0oAKiR1cr+tZdRiKdBek058aYaBQA1NLXsY68xCvE0CDuWE24DowCgxjYo+9mORiGe+ukfyok2wygAaIAZZV/7B6MQT/2weZIPJHmeUQDQIM8r+9vmRiGeemmdcmK5tQlAE+1Y9rl1jEI89cJK6dzS3NUoAGiwXct+t5JRiKfxOjLJ/sYAQAvsH181Jp7G6R1JjjAGAFrkiLL/IZ5Gba90Xv8FgLb5QDxEUzyN0svKibOqUQDQQquWffBlRiGeurFFOWE2NAoAWmzDsh9uYRTiaWnWSvL+eJYTAKTsh+8v+yPiabHen+TVxgAAf/Hqsj8inp7giCQHGwMAPMHB8elz8bSIPVU1ACzV+8t+KZ6MIC9I8r4kTzIKAFiiJ5X98gXiqd3WKyW9id8JAFimTcq+uZ54aq/3JXmp3wUA6NpLy/4pnlroiCT7+R0AgFHbLy1+A3lb4+mfkrzXuQ8AY/besp+KpxaYmc7txsnOewAYs8llP50pnpptUinlmc55ABi3mWVfnSSemus9SV7rXAeAnnlt2V/FUwO9Pt7nBAD98N6yz4qnBtmiVPEE5zcA9NyEss9uIZ6aYblyQDdzbgNA32xW9tvlxFP9eZ8TAAxGK97/1PR4emWSdzuXAWBg3l32X/FUQ+un8/TTlZzHADAwK5X9d33xVD9HJNnGOQwAA7dNGvz1LU2Np/2THODcBYChOaDsx+KpBrZMi7+sEAAq5IiyL4unintXkmc4XwFg6J5R9mXxVGHvjMcSAECVvLbsz+KpgrZtYt0CQAO8q+zT4qlCJpYD8xTnJwBUzlPKPj1RPFXHvyTZxbkJAJW1S9mvxVMFvCDJ4c5JAKi8w8u+LZ4qcCBWdz4CQOWtngbc8Kh7PL0zyWznIgDUxuzU/NN3dY6nreLlOgCoo8PLPi6eBuydSdZ0/gFA7ayZGt99qms87Z9kN+ceANTWbqnpd9/VMZ42SPIO5xwA1N47yr4unvrs7Uk2dr4BQO1tXPZ18dRHL09ysHMNABrj4LK/i6c+WKGOdQoALNPbyz4vnnrssCQvcn4BQOO8qOzz4qmHpic51LkFAI11aNnvxVMPBzrVeQUAjTU1NblRUod4ekWSNzqnAKDx3lj2ffE0Tm9zLgFAa1R+3696PL01yXbOIwBoje3K/i+exuBpcdcJANrobaUDxNMovSU1fGQ7ADBuG5QOEE+jsHUqfssOAOirt5YeEE9dekuSFZ03ANBaK6aid5+qGE+7JNnTOQMArbdn6QLxtAyHOFcAgKp2QdXiae8kOzpPAIBix9IH4mkxJiZ5s3MEAFjEm0sniKfFDGZr5wcAsIitU6EbLFWJpylx1wkAWLI3l14QT8VBSTZ1XgAAS7Bp6QXxlGRqVYYBAFTaQaUbWh9PByZZz/kAACzDeqUbWh1P6yY5wLkAAHTpgNIPrY2nA1KB228AQG1MzZBvvAwznp6WZH/nAAAwSvuXjmhdPO2XZE3HHwAYpTVLR7QqntYZ5g8NANTefqUnWhNPb4r3OgEAYze19EQr4mmNYf2wAECjvKl0RePj6Y0Z4pu8AIDGeFrpikbH00pJ/tmxBgB65J9LXzQ2nvZNsonjDAD0yCalLxobT+46AQC17otBxtMeSbZyfAGAHtuqdEbj4mkfxxYAqHtnDCqeXppkB8cVAOiTHUpvNCae9nZMAYAm9MYg4ml6ktc7ngBAn72+dEft42kvxxIAGJC+d0e/42m1JG9wHAGAAXlD6Y/axtOe8QXAAMDgTC39Uet4AgAYpNrG005JtnH8AIAB26Z0SO3i6XWOHQAwJH3rkH7F09+JJwBgyPH0d3WKpz2STHDcAIAhmZA+fd9dv+Jpd8cMABiyvvRIP+LpVUk2c7wAgCHbrHRJ5eNpN8cKAKiInndJr+Np/SS7Ok4AQEXsWvqksvG0a7xRHACojgnp8Y2dXsfTax0jAKBietonvYynWUm2cnyg2raYsXG2mLGxQfTBoQftkdWmrGIQUD1blU6pXDy9xrGB6ofTZeeflMvOP0lA9dipJxyZ4445LJedf5KAgmrqWaf0Kp5WEE9Qj3CasurkTFl1soDqcTjtvcfOSZKZ0zcSUFDdeFqhSvH06iRrOy5Q/XBaQED1PpwWEFBQSWuXXqlMPL3KMYH6hJOA6l84CSiotJ70Si/iaS3xBPULJwHVv3ASUFDpeFqrCvH0yiTLOx5Qv3ASUP0LJwEFlbR86ZZKxBNQ03ASUP0LJwEFlTT0eHpGkpc5DlDvcBJQ/QsnAQWV87LSL0OLp5c7BtCMcBJQ/QsnAQWVM65+GW88zTZ/aE44Caj+hZOAgkoZV7+MJ542TLK9+UOzwklA9S+cBBRUxvalYwYeT7uYPVTDUe/ar6fhJKD6F04LB9Q+r3MZhSEa8y/geOJpJ3OHatjn4KNz3fW39OXPbmtA9TOckuS0s76d4088y8kLwzPmjhlrPK2bZAdzh2q4d979mTX7QAFVo3Da5+APOnFhuHYoPTOweHLXCQSUcBJOUHdj6pmxxpNnO4GAEk7CCepuTD0zlnhaNck/mjcIKOEknKDm/rF0Td/jacckK5k3CKimBJRwgtZaqXRN3+PJG8VBQDUmoIQTtN6ou0Y8gYBqbUAJJ2AQ8fT8JOuZMwiougeUcAKK9Urf9C2eXmrGIKDqHlDCCRhP34w2nnyXHQioWgeUcALG2zejiae1k2xrviCg6hpQwglYgm1L5/Q8nl5stiCg6hpQwgnoVeeMJp62M1cQUHUMKOEE9LJzRhNPs8wVBFTdAko4Ab3unG7j6e+TbGiuIKDqFFDCCRiFDUvv9CyeXmSmIKDqFFDCCRiDrnqn23h6oXmCgKpLQAknYIy66p1u4+kF5gkCqg4BJZyAceiqd7qJp+ckWcs8QUBVPaCEEzBOa5XuGXc8Pd8sQUBVPaCEE9Ajy+we8QTUPqCEEzDIeJqQ1Zd5d+rXSdYxS2if1aasksvOPykzp2/Ulz9/3n0PZMqqk8f1Z9x9z++y1pprCCegV+5MMm1p/4Fl3XmaIZygvQZxB2q8hBPQY+uU/hlzPD3PDEFA9TOgqko4Qas9bzzx9FzzA9oWUMIJWu+544mnrc0PaFNACSdgWf2ztHiammRz8wPaElDCCSg2Lx006nh6jtkBbQko4QR020FLi6etzA1oQ0AJJ2A0HSSegFYHlHACehlPW5ob0OSAEk7AWDpoSfG0UXwZMNDggBJOwDKsVXqo63h6lpkBTQ0o4QR06VniCWh9QAknoF/xNNO8gKYFlHACRmmmeAJaG1DCCehnPD0tnW8UBmhEQAknYIzWKV20zHiaYVbVcPxH3p59XreLQSCghBMtsdqUVXLeGcdmixkbG0Z1zOgmnqab0/CdesKReduBu+dLn/2AgEJACSdaEk6XnX9SXrHTi3LZ+ScJqOqYLp5qEk5777HzX/61gEJACSfaEU4zp3ceKzRl1ckCqmbxtJk5VSecBBQCSjjRrnBaQEBVxmbiqYbhJKAQUMKJdoWTgKpXPG2SZJI5VS+cBBQCSjjRrnASUJUxqfTREuNpUzOqbjgJKASUcKJd4SSgKmNT8VTjcBJQCCjhRLvCSUBVP54ckRqEk4BCQAkn2hVOAmroNhZPDQgnAYWAEk60K5wEVHXjaSPzqU84CSjaHFDCiTaGk4Aamo2WFE9PTrKW+dQrnAQUbQwo4USbw0lADcVapZOeEE8bmk09wwnaFFDCCQTUkGy4uHjawFzqG077HnJ0Tj3zAoOm0QElnGjyXwwEVOVtIJ6EE9RqoxFOCCgBVcV4Wt9chBNUcaMRTggoAVUBf+mkCVn9OQv++cVJdjAb4QRVsdqUVbLP63bJ8SeeZRg06rzuxxvIF5h33wOZNfvAXDvnZsPurUuS7LhoPN2YRb67BeEEgIAiSXJTypPGF37Zbj1zEU4A9J+X8GrpL520IJ6mpvOtwQgnAAQUTzSp9NJf4mldMxFOAAgolmpd8SScABBQjDGe1jEP4QSAgGKp1hFPwgkAAcUY42lt8xBOAAgolmrtheNpqnkIJwAEFEs1VTwJJwAEFGOMpzXNQzgBIKBYqjXFk3ACQEAJqDHE02pJVjAP4QSAgGKpVkgyeSTJU8xCOAEgoARUd+MaSbKGOQgnAASUgOrKqiNJnmwOwgkAASWguo+n1c1BOAEgoARUV1YRT8IJAAEloEYZT1PMQTgBIKAEVFdWFk/CCQABJaBGGU+rmoNwAkBACaju42kV4SScABBQAqork0aSTBZOwgkAASWguvKkkSQrCyfhBICAElBdWam18SScABBQAmqs8TRJOAknAASUgOrKiq2LJ+EEgIASUOONp5WEk3ACQEAJqK6sMJJkReEknAAQUAKqK8uPJFlBOAknAASUgOrKchOy+nPuS4MflNnvcIIm+ODHT8lRHz/FIJbh8d9fbQiwFPPueyCzZh+Ya+fc3OQf8z9HkiwnnACA8WrJHaiJjY0n4QQAAqpf8TQinAAAAdWVkcbFk3ACAAHVRxNGkkwQTgCAgOo+noQTACCgujSS5HHhBAAIqK48PpLkz3X+CbaYsbFwAoAaBNTxH3m7eKqCa+fcnH0POdpZCQAVdt31t+SVex7ehB/lzyNJHq37T3HqmRcIKACocDjNmn1g7p13fxN+nMcaEU8CCgCE0yDj6ZGm/DQCCgCEU589OpLk4Sb9RAIKAIRTv+Ppoab9VAIKAIRTnzwykmR+E38yAQUAwqkPHl4uyYNN/elOPfOCJMmXPvuBvv1v3H3P73LjLb/w20Kt3X7HXYbQhct/8GNDoNYmrzwpM2dsnOUmThROY/dQo+NpEAG11ppr5KJLf5h9Dv6g30pouFmzDzQEamuLGRvnsvNPEk49iKeJmTRt9yQbNPmnvHbOzfnFHXfllTu9qG8n5DPWWyfnXXi5304AKhtOU1adLJzG74qJmTTtNUk2bfpPKqAAEE7CqQe+OzGTpu2S5O/b8NMKKACEk3Aap4snZtK0lybZqi0/sYACQDgJp3H49sRMmvbCJM9v008toAAQTsJpjM6dmEnTtk6yfdt+cgEFgHASTmNw9sRMmvb3SXZq408voAAQTsJplM6YmEnTNkrymrZOQEABIJyE0yh8YWImTVs3yevbPAUBBYBwEk5d+tzETJq2RpI3tX0SAgoA4SScuvCpiZk0bVKSt5qFgAJAOAmnZfroxEya9uckR5iFgAJAOAmnZTpyYiZNm5/kPUkmmoeAAkA4CaclejjJByZm0rQkOSDJqmYioAAQTsJpie5KctyCeNozydpmIqAAEE7CaYn+L8nJC+LpFUk2MhMBBYBwYol+kuTMBfG0fZJnmYmAAkA4sURXJPnWgnjaOskLzURAASCcWKILk/z3gnjaNMnOZiKgABBOLNHZSf53QTxNS7K7mQgoAIQTS/SFJDcuiKfJSfY3EwEFgHBiiT6Z5M4F8fTnJO80EwEFgHBiiY5M8sCCeHogybuSLG8uAgoA4cQTPJjk3UmyIJ6S5A1JnmI2AgoA4cQT3Jbks4vG0+wkG5qNgAJAOPEEP05yxqLx9IIkW5qNgAJAOPEElya5IElGFvo3bzeX8Tn1zAuy7yFH9+3P33uPnXPqCUcaNK3bVFabsophIJyE07D9pZMWjqfbzEVAQdU2lRc9/9kCCuEknKrgNvEkoKA2m8rM6RsJKISTcKpkPN1qLgIKqrqpCCiEk3AaslsXF0+/T3K32QgoqOqmIqAQTsJpSO4unfSEeEqSW8xHQEGVNxUBhXASTkPwN320aDzdbD4CCqq+qQgohJNwGrC/6aOFn/OUJM9M8hIz6r1BPAdq9Smr5KJLrzRsWrGpTF1zjfzjS/4hX/3GdzL/oYcNkspaf72188PvfEk41dvZSX6w4F8seufpRvPpn37egZp33wM59awLDJlW/W3cHSjq4PZf3pXzvt2fBxwLp4H5mz4STw0IqHn3PZBZsw/MtXO86kp7wklAUSf7HPzBnHbWt4VTQ+PppnS+NZiaBJRwos3hJKBoa0AJp4F6sPTREuMpSX5qTvUIKOGEcBJQtC+ghNPAPaGLxFNNA0o4IZwEFO0LKOFUjXha9NN2SbJRkpea1WCM5VN4wgnhtGQ+hUcdnHfh5XnGeutkixkbC6fqOzMLfdJuSfE0JcnrzaqaASWcEE4CivYFlHAaquOzyEMyFxdP85McZlbVCyjhhHASULQvoITT0L07yX0L/xuLe8/THUnuNKvBW9p7oIQTwmn0vAeKOljae6CE09DdWbrobyzuzlPSecr4RmY2eIu7AyWcEE5j5w4UdbC4O1DCqRK+n+Qr3cbT9CTbmtnwA0o4IZwEFO0LKOFUGV9Pcumi/+aErP6cxf2Hd03ne1wYolfu/KLc/su7hBPCqUdsSNTBoQftkVPPvMB5Wg27JTmn23jaKIt8gzBAncNJQAFjsHEW+aRdsvg3jKf8B+82M6BJ4ZR4EznQtbsXF05Li6ck+ZG5AU0KJwEFjMISO2hp8XSNuQFNCycBBXTpGvEECCcBBfQ5nv7X3ICmhpOAApbhf8cST3OT3GB2QFPDSUABS3BD6aBRx1OSXG1+QJPDSUABo+2fZcXTD80PaHo4CShgNP2zrHi60vyANoSTgAK67Z9lxdOcdL5RGBBOjQ8nAQWU7pkznnhKkv8xRxBOVQ2nRx97TEABvbTM7ukmnn5gjiCc+uG6628Z/58x5+bMu+8BAQX0yjK7RzwBQwunWbMPHPef88AfH8ys2QcKKKBS8fS/8SXBIJz6EE73zru/J3/etXNuFlBAL9ydLh4SPtLlH3aFeYJwqmI4CSigh7rqnW7j6XvmCcKpquEkoIAe6ap3uo2ny80ThFOVw0lAAT3QVe90G0//L8mtZgrCqcrhJKCAcbi19E7P4ilJLjNXEE5VDycBBYxR150zmnj6rrmCcKpDOAkoYAy67pzRxNN/mysIp7qEk4ACRqnrzhlNPN2V5PtmC8KpLuEkoIAufb90Ts/jKUkuNV8QTnUKJwEF9LpvRhtP3zFfEE51CycBBfSyb0YbTz9I8kszBuFUt3ASUMAS/DKj/B7fkTH8j1xiziCc6hhOAgroRdeIJxBOrQonAQUMI54uTjLfrEE41TWcBBRQzC9d0/d4ui/Jf5o3CKc6h5OAAkrP3DeIeEqSi8wbhFPdw0lAQeuNqWfGGk8XmjcIpyYRUNBKY+qZscbTr+KN4yCcGkZAQatcUnpmYPE05loDhJOAElBQAWPumPHE0wXmDsJJQAkoqKkxd8x44unW+K47qISj3rWfcKphQM3a9tlOXhiOS0vHDDyekuR884fh2+fgo3Pd9bcIpxoF1L6HHJ3zvn25kxeGY1z9Mt54+pb5w/DdO+/+zJp9YE8Dqu3h1M+A2veQo3Pqmd75AEM0rn4Zbzz9PJ75BI0LKOHUv4ASTjB0F5V+GVo8Jcl5jgM0J6CEU/8CSjhBJYy7W3oVT484FlD/gBJO/Qso4QSV8EhV4unuJOc6HlDvgBJO/Qso4QSVcW7plqHHU8QT1DughFP/Ako4QeXiadx6FU/fSHKXYwL1Cyjh1L+AEk5QKXeVXqlMPD2c5OuOC9QroIRT/wJKOEHlfL30SmXiKeIJ6hVQwql/ASWcoLLx1BO9jKfLklzj2ED1A0o49S+ghBNU0jWlU3piuR7/n/takq0cI6h2QC345/Q2oNaf+QpzhWr6Wi//sJEe/587J8njjhFUO6Bs8P2bLVA5j5c+qWw83d7r/4MAAONwTumTysZTkpztOAEAFdHzLulHPJ2b5KeOFQAwZD9NHx7kPdKn/7NfdbwAgCHrS4/0K57ODsXSLAAADmBJREFUijeOAwDD83jpkdrE0/8lOdNxAwCG5MzSI7WJp4gnAGDI8dQX/YynC5Nc5dgBAAN2VemQ2sVTkpzh+AEAA9bX/hhEPM11DAGAAZlb93i6N8mXHUcAYEC+XPqjtvGUJKc7jgDAgPS9OwYRT9cn+YpjCQD02VdKd9Q+npLkNMcTAGhCbwwqnr6T5BLHFADok0tKbzQmnpLkVMcVAKh7Zwwyns5Kco1jCwD02DXp0/fYDTuekuTfHV8AoM59Meh4+lKSmxxjAKBHbip90dh4mh93nwCA3vn30heNjack+WKSOxxrAGCc7ihdMVDDiKffJfmC4w0AjNMXSlc0Pp4W/LC+MBgAGKu5GdLNmGHF051JTnHcAYAxOqX0RGviacEPfY9jDwCM0j0Z4k2YYcbTHUlOdvwBgFE6OUP88NnIkH/4z8d7nwCA7s0t/TA0w46nXw17AABArXy+9ENr4ylJTkryS+cCALAMvyzdMFRViKe5SU50PgAAy3BiKvB2n5EKDeNG5wQAsAQ3piI3W6oST/OSfM55AQAswedKL4inRYZytXMDAFjE1anQTZYqxdNjcfcJAHiiz5VOEE+LcVqSi50jAEBxcemDyhip4JA+6zwBAKraBVWMpwuSnOFcAYDWO6N0gXjqwmeSPOScAYDWeqj0QOVUNZ6uTvJp5w0AtNanU9FP4Y9UeGifSXKbcwcAWue2VPSuU9Xj6Y4k/+b8AYDW+bfSAeJpDD6d5LvOIQBoje+m4m/dGanBEN19AoD2qPy+X4d4+maSLzqXAKDxvlj2ffHUA8cnmeucAoDGmlv2+8qrSzxdX5eBAgBjcnzZ78VTDx2X5HLnFgA0zuVln6+FOsXTw0k+5fwCgMb5VNnnxVMffCvJCc4xAGiME8r+XhsjNRzyp5Lc7FwDgNq7OTV8VamO8XRbkk863wCg9j6ZGn4V20hNh31ykrOdcwBQW2eX/bx2Rmo89E8kuce5BwC1c0/Zx2upzvF0TZJjnX8AUDvHln1cPA3BJ5Kc7xwEgNo4PzW+69SEeFpQr39wLgJA5f0hDXjVqAnxdEW8fAcAdXBs2bfFUwX8a5ILnJMAUFkXlP269poST48l+XiS3zo3AaByflv26cfEU7V8vxwYAKBaPl726UYYadjB+USSrzlHAaAyvpaaf7qu6fG0oG5/7lwFgKH7eRr4qlAT4+lHST7mfAWAoftY2ZfFUw2cnOTzzlkAGJrPp6bfXdfWeFpQu1c5dwFg4K5Kg18FanI83V4O3HznMAAMzPyy/94unurpvCQfdR4DwMB8tOy/jTXSgoP4kXh8AQAMwtfKvttobYinR8uB/KlzGgD65qdlv31UPDXDteWAPu7cBoCee7zss9e24YcdadGB/UqSY5zfANBzx5R9thVGWnZwvf8JAHqrFe9zanM8PVjq+DrnOgCM23VlX31QPDX/QH84yQPOeQAYswfKftq6GxIjLT3g/xHvfwKA8Tim7KetM9Lig/6xJKc49wFg1E5Jg79+RTwt3YeTfMfvAAB07Ttl/2yttsfTL5N8KMlNfhcAYJluKvvmL8VTu11RCvpPRgEAS/Snsl9e0fZBiKeOM0pJAwCL96GyX7aeePqrjyU5wRgA4AlOSIvfIC6ell3V3zAGAPiLb8SrM+JpKe4uJ8iVRgEAubLsi3cbhXhammuTHJ3kVqMAoMVuLfvhtUYhnrpxUTlh7jMKAFrovrIPXmQU4mk0Ti8nDgC0zdFlH0Q8jdon49MFALTLx8r+h3gasw8mOdkYAGiBk8u+h3gal/nlRDrHKABosHPKfjffKMRTL9yZzuu/FxsFAA10cdnn7jQK8dRLN5QTyzOgAGiSK8v+doNRiKd++J90bmnOMQoAGmBO2df+xyjEUz9dXE6024wCgBq7rexn3pIingbi6+WEm2sUANTQ3LKPfd0oxNMgnV5OvHuNAoAaubfsXx6CKZ6G4qRyAj5oFADUwINl3zrJKMTTMB1fTsTHjAKACnus7FfHG4V4qoKPJznKGACosKPKfoV4qowPxyPtAaimD5Z9CvHk5AQAf7kXT3X2eDlBP2IUAFTAR8q+9LhRiKcqe1RAAVChcHrUKHprOSPoi4fz1zeQv8c4ABhCOB2V5BGj6D13nvrnkSQfiPdAATBYHy77j3AST7X0WJL3xxv1ABiMD5Z9x7MHxVPtHZXkffG6MwD98WjZZ44yCvHUJMek8/6nPxkFAD30p7K/HGMU4qmJjk3y7iR/MAoAeuAPZV851ijEU5N9OskRSe40CgDG4c6yn3zaKMRTG5yc5F1J/s8oABiD/yv7yMlGIZ7a5Iwk/5LkOqMAYBSuK/vHGUYhntro3CTvTPJ9owCgC98v+8a5RiGe2uy/yi/ChUYBwFJcWPaL/zIK8URyVZK3JznLKABYjLPKPnGVUYgn/uqmJIcl+ZxRALCQz5X94SajEE880d1JDo3vwwOg48NlX7jbKMQTS/ZIOt9LdGiS3xsHQCv9vuwD748v+BVPdO3fkrwlbtMCtM1N5fr/b0Yhnhi9M5McnOR7RgHQCt8r1/0zjUI8MXaXJnlzkrONAqDRzi7X+0uNQjwxfjckOSjJcUYB0EjHlev8DUYhnuidP6TzjI93JplnHACNMK9c199ervOIJ/rgk0n2TzLHKABqbU65nn/SKMQT/XdOkv2SXGAUALV0QbmOn2MU4onBuSrJm5J81igAauWz5frtq1bEE0NwdzrPAnl7kt8ZB0Cl/a5cr98STwwXTwzdcUn29bcYgMq6qlynfWpaPFEh5yfZJ8kZRgFQKWeU6/P5RiGeqJ4bk+yV5H1JHjQOgKF6sFyP9yrXZ8QTFfV4kmOS7JnkR8YBMBQ/KtfhY8p1GfFEDXyj/OKebhQAA3V6uf5+wyjEE/VzY5K9k/xLPLkWoN/+UK63e8fLdOKJ2js2ye5JLjMKgL64rFxnjzUK8URzXJJktyTHGwVATx1frq+XGIV4onnuSXJYkjfEN3cDjNcN5Xp6WLm+Ip5osDOS/FOS04wCYExOK9dRz9YTT7TIjek8tO3NSX5hHABd+UW5bu4TbwoXT7TWiUleleRsowBYqrPL9fJEoxBP8JN0PiXy1iS/Mg6Av/Grcn3cvVwvEU/wF59J8vIkZxkFQFKuhy8v10cQTyzWT5K8LslBSW41DqClbi3XwdfF3SYWMSGrP8cUWJJNk7wzyRuNAmiRLyb5RLwhnCWYmEnTTIEl+W2SbyW5Ocn6SdYxEqDBflT+wviRcv0D8cSYXZ/k3CSPJdk6yUQjARrk4XS+VuWQJFcZB+KJXvlTkkuT/CDJk5NsYiRAA5xfoukL5ToH4omeuz2dT5/ck2TjJGsYCVBDtyR5f5J3lOsaiCf67pok3yz//LlJJhgJUAOPp/NFvm9O5246iCcGal6Si5NcnmT1dD6dB1BV30zn8QOfL9cvEE8Mze1JvprOdz49PcnaRgJUyE+SvCfJEfESHeKJirk2nfdD/THJ9CQrGwkwRPck+Wg6L9H5FB3iicp6KMkV6XyCJek82gBg0D6bzkt055brEognKu93Sf4znTdkrpzOnSiAfjs7f31f0++Mg37w9SwMysuTHJxkB6MA+uCSJCek860IIJ5olDeUvxU+zyiAHrgyyYlJvmwUiCea7oASUTONAhiD60o0fd4oEE+0yYolog5M8kzjALrwsyQnlWjyRnDEE621cpL9S0j5zjxgcW4qwXRyOo9DAfEEC0XUfnEnCuj4WZJTRBPiCZZupSRvKst7oqCdrkvyhbLmGwfiCbr3xrJ8Og/a4cokXywLxBOMw25J9k2yo1FAI12c5EvpPOQSxBP00A4lonY3CmiEr5ZousQoEE/QX89OsneSvZKsZhxQK/cmOT3JaUl+bByIJxistUtAvSHJ5sYBlXZDOk8CPz3JXcaBeILh2yPJ65PsbBRQKd9O8pUkZxkF4gmqaesSUXskeapxwFD8psTSV5JcbRyIJ6iH1UpA7Z7khcYBA/G9dN4EflY6720C8QQ19YJ0Hnewa9yNgl77TZJz0nnMwBXGgXiCZplcAuq1SV5mHDAuFyX5WgmnB4wD8QTNNz3JPyV5dZIZxgFdmZPkG0n+I8n1xoF4gvbavkTUq9J5/AHwV3clObdE06XGgXgST7CwiUlemeQVZa1qJLTUfUm+WdZ5SR4zEhBPsCyrJHl5ktlJdkmyspHQcH9MckGS85N8K8n9RgLiCcZqSjoP31ywphgJDTEvnYdYLljzjATEE/TaSkl2SufTei9L8jQjoWbuSOeTchcluTDJfCMB8QSDtF2SHcp6tnFQUT9OcklZ3zUOEE9QFZskeUlZ26fzvikYhvvT+WTcf5V1k5GAeIKqWz7Ji9O5M7VdOt+5B/10dTp3lb6b5L+TPGIkIJ6gzqal8x17C9ZmRsI4/TSd75JbsH5tJCCeoMk2SPL8hdZ0I2EZrk/yg4XWbUYC4gnabFqS55a1TTov861oLK31UDovw12V5IdlubME4glYiuVLQG1V1pZJnmksjfWzJD9Kck1ZV8d7lkA8AeP2lCTPKmtmWZsbS+3ckOS6sn5S1m+NBcQTMBiTk8woa3qJqc2STDWaoZubzpu6b0jn/UpzynrAaEA8AdUzNcmmZW1c1kZlTTCennk8yS1l3VzWjWXNNR4QT0D9LZdkw7KeUdb6SZ5e1lON6Al+k+QXZd2e5Odl3VrWo0YE4glor8lJ1i1rWpJ1yppa1lolsFZrwM96bwmju9O5SzQ3yZ1l/TrJr8ryMhsgnoBxWzGdN7A/JcmTy1qtrCllrVJibHKSlZM8KcmkdL5cecWyli9ruSQTk4yUtcCfy3osnTs8j5T1UFnzkzyY5E9J/lhC54F0vp5kXln3lvX7sn5b1kMOIzBayxkBMEYPpXN3xrOHgFb5/3PElIRugQnVAAAAAElFTkSuQmCC;" vertex="1" parent="1">
          <mxGeometry x="238" y="204.04000000000002" width="28.16" height="28.16" as="geometry" />
        </mxCell>
        <mxCell id="Lh2qIq0kyytRX2KrADmU-29" value="" style="shape=image;verticalLabelPosition=bottom;labelBackgroundColor=#ffffff;verticalAlign=top;aspect=fixed;imageAspect=0;image=data:image/png,iVBORw0KGgoAAAANSUhEUgAAAk8AAAJPCAYAAABlxzBuAAAQ/HpUWHRSYXcgcHJvZmlsZSB0eXBlIGV4aWYAAHjarZppdlwpkEb/s4peAhAMwXIYgnN6B738vvFSklW2ymWXS2kr05kveRDDN4CD/d//3vA//NTYNJTatY3WIj9llJEnLzR++7G359d7KZbn9/tPevudwpcfZJ6FZ3m92cvbp/L2/vv17eOZgb74INXvviAft8mfb9zn2/s55r/MqOwk8fOPfvt779F77bW6WRphaK9FvW4R3ofhwsVQ8nyt8ej8rbzuz2Pw0DjjTiWeuOPisdNImVvfVNIJaaabLB2ed9rMsWTLneecd5bnPZWeR94SJUnxR7q5y5AjKll2NhEpQfLHXNJz3/HcbyflzidxaU4MlvjKTx/hny74lce9OxKjlFh9eosV88rZ85A8jOK/uYyEpPuWt/oE+P3x8RM+JVbIYH3CrCxwxvUaYtX0rbbkKQDhusrzq75SP561/FRJ4d6VySQhBbElqaml2HPuKRXJSoImM89S8iIDqdZ8mGQuIo3cKHXEvflOT8+1uebX+7QK+anSpJObIZNklVKpn16UGppVaqm1ttqr1lFnaNJKq6213rznZpdeeu2t96599KmiRas27ao6dI48hJaso40+dIwxJ/ecJcw6+fbkijlXXrLKqqutvnSNNTfls8uuu+2+dY89Tz5yyqmnnX70jDMtGaUUrFi1Zt3Uhs1LrV255dbbbr96x50fWXvL6g+P38haestafjLl1/WPrPFu7z7QM0RynKmeMzKWSyLj3TNAQWfPWdRUSvbMec7iyHRFzUyyem5OijOkRgqLpVxv+sjdt8z9ct4Csf6nvOVfyVzw1P0HmcvB5Lu8fZG140i4n4y9utBjGoXuu9Fm1pnXCcIk/aVy8Z88hz8d4PcGWrPeWK9mu2u3O0c5pEhkg5m7pju0hL3G5i21U/epnYhAZZv48JylN5CYV9XWPY2uKlydDy/ytG2VYc+Ne9USbpQ2LuEf/fbaruRCvCkTMNsK1Sfn2qi7kKDU7yrFB94673xenW6Qy9Zw6pVZM3+owXOUrA6jjit/mpfP85I5/cNz+NUL//bZo0EsAsF4D8UrEGsrZfHEqHX6dqS1KrQ3qS1bYFi79BHvqNqS23T4NTXcMvyi86yXPlvWC+vPz0BvF315TS1iMZ3CgG/pPwqFPpmOf/AcfvFC1nXPsKc4SrNThHUSgEm6nziF+yqa7+KUJ+Uh2ek8ndbtJOGavGzwXO/yAVeW2jelcQvRCz+7pEzt9OocN72yVBfQ+lRG/P45/N0Hv/v8aSBf1V1yXpV7DtO5x6ukgi0/i1KrdVmIzfOYZW5gJ/driMrjz+vVb6DnvOOwdl0/uyKc/BRX7JXhXllaLf8+koTf/cKiOXfsoIoZbEXrljNB1jA6BKLohF267QZoo5Wb7b1pi3iXz5RJbofTJbBN31XviomEypp3Aw66ewwDkC9PgDNRIsFnodSIX92j9HOopbZs9oEeHyBZn6MrDNSHlHPgsQNr9TzDFjMGnkzPuGmmDb9oVarWhPUUCMhkgkxex4SyIjuPs0mgH/sUuaeW2xP5pgxINFHYMqgA7m652ARtbULeZUxZdc8F8dVzkKi3zT0OFkJmg6aAy7SKEsovcvzKsNmeexoabB1t205OfUBp+I+Rwm4I16rjgQ5I7gCrBmsm0wH39iisAQHncGooY3Ryb1KdLCVdhQOORdIQEICdAElbgjzddg9qQe6alF9xdaAzlZ2ZxVZA+TgKoRPOuioscsPH80qvYZW9h9TVXVpcMzrUSDtQPxf3rjqL5tYVIENVIOFRDS1pjupV4b2vD/MEFIwntdmd0nRxqcHtujFcF0HqqEJJiPdIm6PVkfsY1ggAU7RdkRB6cxnBZluYFIM9rJR9ckX2/4tOCT98sPpsVAtL96BH8gPt2SWv/CRXb408EqtjrKwhI+4m0CFO4p/RU4iTiYhGHR2UVNynOyS0c1ZLdpRhO3iDv5mS2r4unIB7nJGRui1hACGLFY3mlT2rJmcYSHzEQokvxxs5dXa6ouSjr7m3/D2sBzmrWxJaka7L1Kn2tdHz1rjdXhR/MWSZt6Fe1Fiatx9pyKd86PPerSLtJzHCDNTI/WdHPo5bRCmDCDusdneGDVduCDUa34DugxhoGxGJpkMkXpTZ6xbB78GgqD3QE7WSBFS43QaaI4EoLAMNW/mFqECJCIm/ddP9jVVwnzm8wGERq4cmq4Pftfe0cKu0EOCt8jAKwNHpVqJ6DdByt6nt7TvUFZoD4O4jYIhQlwvfw7/XMUCf0hsjFxrS7+v6dvBlWgiNPVDOqNq++LBM6rqOaF1WC4pGftUr8DEmX2cIYd4dAb7SreglRK8zTa9Dv5Q5iC0NZSH5LywJAGzUgquRdhKNj4luFSknB4O/km3UdfcJiqTsQov01kcSlnZKoBpXYlJ6wO5pACsSZNFA+kg+rtYu5hTmS14H3X+87trlX4lCowdYqAZX5rsZ+QcTAUsmD9YdRb8RzvrqupJ/lNDTO5fiAan51g4ySfV7M83u+CMX5sCK9DL8zp3uLzMd1/Ga6HEafkXo5u59Z3S8p6SDI91AeUUxPqcW4JxJ7rlIAEx7iYplm+EBWnKFL7aGoZBOGzT/HPmP8sfpokQhrpTb8fzEZljirVAAdM49XecMvsTtSAIVFqleV81MaUKBSpdJoJsJZuXzvK7RGJDCRQOncSAwZZVg/MTWUGeIG4S2RFCvC+ZuQXaHGiAXN1RDFXMXQwseLzt8UgN+dwf2aEtgeENOqd0xm+Me8hFNtRGkg8/XWglmFiobLT8yrfSmZC0N5/SnPUqiNFgYlaBOmyk+cjQWMIyImSL0oxlNNzIxcohx8RPjl5fT4R9jfxv5GSEbfYk9oOhneAbYgr5ShBVZr00As8eBRIeBzMsZB1BhC6jDRvb4aYD374fvBkCUwurA5rNpAevCPtsHnCBgEco8F1gD3zuulNaYbFHKqmBFEw11mxRAgBtBQ29/6FdC5w72GIpk0AcTJx6lqKFJKbdieURkr6vG19I+1gAEf6ziiwW7UKbGEQCf1+aaU8JXwflq2C+C8wzw/v3wewNMdS1B4gGQAaum2CkSkm7P0j6y/mXOP9fTk3XxYU8HgNSpARybu4YZgZqM3wPt4MLb40bj+abjRKLJxBEY6mOjM+ib1bCilrlw0zcF6tm0OrpKwl0s4ZjrlOKmnyompDflUuENFoRyaAAePYnWiAg9gKwrXNmZb0uw89OUofmOA/oiJbgKtzz2eooMBEarMSStJh0KGRMaTxWgpJDwfJSZAGOIvJLbigFF73swQx0qEQ0EEMyCHeBZpui7JchPrnRfHFND8WZg2gUtmDo3scPA1xQMiu7og5sR2cBlPURlarnNN/NcOkn0HRVK3uUV7Uv/H64AKsEIGA/Ih0YDpXt82+klBcRzQXQBerADlRU9RshY+nqvDBUffgkUsDpwZ2QnDoe8EvZN6hTiArQTJbQqHt8Lqt3iPi5TxwqOwrOoogVJ0ZGYRPjFANDNICTaQnWUe4CjSEUdz7oRSiCWekn5JgDiFUNAomhHEuyksOi8DcmIQiQHibF7MKKb6VpqHpQkuDpOBHQ1YtjgLvw1VdzRzq6n3MSQMkLH/PJBpdHmhAuEpIYoxQFzPZWCQCaImZW5kHOta+7eqeoVxaWegctHBy7trOEu8eBqaoUgfTP1Qs7IgjLWOenoqx0Log7gLBFCpsafnRDSoK+m+n7iT6/53N0LI3dg+OhgwQR9T+VGgH7y4kRUT8JU0Xw6n17EaZTs6AlfyA1jcjlw6Fstiaz65vyiKd2D349pkYpvE3tN67tJhY9wPlNyzRHTpwnFr6bE0lDA3e2PlGfPEDzafqOR1L3D24Dr84AFFs2KM0ICFt/7xGGCqWvsU+r7VgAsGsYGFTwv1lssivWoGDoKPHFlfCFXYwaOzj9bbvhqvX9dbqs+vXp/Hrnwdeh+P3LhLXSf8umI/WT0SahvUXyd0r/WWviVYvtLrf0wvdfkwvel5pIm4onHYWlo4IiPfHWp6/BHV+YGu4In0S0i7YVcvSucDivRXFcL3s9owrYWz+D1BCxwVkgpQXxhGY2gYDD7LTis4/od5dVgh+g2i7cAc5vq+2eYFXP/jiPBuiqqkXaprk8dtRsczrgHhcx0D2rk4IbSwe4fsobmw6t0LICWRITpuIKvwSHjAp+NTCrtAMeAFTPq7oGBNMZWVGM01CvWNuSuC3eCwr1YoOpGOR+Xw1ifvGuK/oR2U7KnFYGbgb4xFxrYel76vtP1445Wd98SHYBRvb5dUZ+SYGWC3Iy5aYJgRqYbgF+oA4StAvgzEZaCiQBMzXeFN24ib14IulQNZ4XUZumT8GJ0rh4XyWsiohamhyQQuRzS6Ml8y2JjaE1mwxXiw5BZIw9jGbgS6szLCFatJNkzggZAZ2RUPHCYGxKVYLdIu1K1YL2TEp4EpZzy/jv3itZvADdUwzvF6UJdjZAOhFPFMcChJB9XgoO9LrFd9gspwTrhSUdHyUyon2/panyj7xMr8t2QxyegPHw/EqqldkaOWg0bV1spDQWfS/OK6sj/gouBy5GY2x0rzLlfJcLMqLBwfNMGzeL7IQvYg63dtsxzIvgEbS4MPCLSN1O30aN4Uvh063TFVfR9pyTY9p2iU65v3m/MZrkZxkb2HEAO7kJ4wNd+b8RWpD0rb1GmlAl11XGYeACLWIiI/kVOuBEhJFQ21tJQeF1AiFqIxPXdKuZhfnokI+Hr0Quftm0AotDO11bVfSphkVKXO9Wjm3EShZP7wb1TtQ38MkUrE8OKhVh+NqAATXZhBlZ1GNJyRucBWkaz4tcacoBPMk5I3SLVOFhQMVFvevTeRGjRpMk3HMTNvTak4vTZ+k7+e68hYJTasooZwkQn9b0FuAdnpVQ+DiCHAj41kACdAgBio6gU/HzGQr0q8pRf2oAPf7Oh7rXLDOMgaTiltq5j514tglWAHdJXpIGxzcXrHSd0QJP+gGMevD4ZFrhu3Y8AKspqJhxJnXvSK/9UwyESF/V9eIz7XmajI0aru02EXX0kGeY2gg9oZ0w8y1TX3m0Px2hgH44trmLMK3hQeuI7rgtdF55NT2/z7Ju9q+6C6HzAzANbH9qR7UcE3QGTb7rcv6igzgQKrpUkoNQC4pBOgUx9ezh9vVOLzPUt4OOKvPjOS/IldPKQEdr+tVLCOvCMuicDwqgJsK80dyqsittCW24hquNZx8K5GG9Fe1X1U6uV6JQMF2gYEKQ39ro/OZfZi7pb4wip8FfiVgGRn7Dxzho7Af7UFPLPdzZapDidj4uzgRMdBEfOplHiKUNzBeKRHUnI2G6TqOgHgUR30O9wwY9F406x9BrBhYWjqX4wbXAoxNBjHQRDVz3oHKoDBn5QK6TbYS5WU2BC8/9EgcC/3Jc6Wu4cVvJNKeEDd7lgGm3J+1gbkAYqedtHDf/qyOG3DzN/cs6Gzn9OZHw7j7wQo09HMr6D5ZvwGH0/NSJM43Xo+H7k+Bw4+mGnvk4cvx1LMtDXl/hBlu8LMdzbeSTG82fHiOGPzh9/GOjtQPJPziPD5wPJPzmPDJ8PJP/kPDL8i4PLL0/awucDyT85jwyfDyT/5Dwy/Bfnjz8Z6B/OI4Hn7fq6L70x+wYoqhZ9OTaSAJvuG9G1I/Jil7G5ZIHQYymdPkF48S3cV60g098qwYPvzja8l4L/3wLf/CENwDFi/cwDSbYBrcHX8I41bWVExJw7L7SE75tEV7n+/03CGYi4cz6O+OevH/H/5Tn8R632bwaiwqjH8P/KHqSHM8IirwAAAAZiS0dEAP8A/wD/oL2nkwAAAAlwSFlzAAAuIwAALiMBeKU/dgAAAAd0SU1FB+QEHQ4iBlK9FKkAACAASURBVHja7d17/OZznf/x53zHaTIMKYaRxDrEzI4ialONFC2m4+ZQcthyiorKpiMpHVbFViJqQyLaosiitZFasSp+QzksKcXQyaCMU35/XO+paczh+n6/1+FzuN9vt/etw62mvq/P5/t5P+ZzXdfnmpDVnxOAMVguyZPKmlTWSmWtWP5xhUXW8uW/t2BNLGtkoTWhrAUeL+vPC63Hynp0ofVIkocXWfOTPFT+cX6SB8v6U1mPOozAWC5+AAubnGTdsqYlWaesqWWtleSpSVZrwM96b5LfJLk7ydyy7izr10l+VdYDTgtAPEG7f+83LOsZZa2f5OllPbVFs1itrI2W8Z/7TZJflHV7kp+XdWtZ7mBBi0zwsh001tQkm5a1cVkblTXBeHrm8SS3lHVzWTeWNdd4QDwB1TM5yYyypifZPMlmJZ4YrrlJfprkhiTXJ5lTlpcBQTwBA/KUJM8qa2ZZmxtL7dyQ5LqyflLWb40FxBMwPssn2TrJVmVtmeSZxtJYP0vyoyTXlHV1Op8gBMQTsATTkjy3rG1KOK1oLK31UAmoq5L8sKxfGwuIJ2izDZI8f6E13UhYhuuT/GChdZuRgHiCJpuW5IULrc2MhHH6aZLvLbTcmQLxBLW2fJIXJ9murK2NhD67Osl3y/rveM8UiCeogU2SvKSs7ZOsYiQMyf1JLk3yX2XdZCQgnqAqtkuyQ1nPNg4q6sdJLinru8YB4gkGaaUkOyV5WVlPMxJq5o4kF5V1YTpfmgyIJ+ipKUl2XmhNMRIaYl6Sby+05hkJiCcYq1WSvDzJ7CS7JFnZSGi4Pya5IMn5Sb6VzvumAPEESzUxySuTvKKsVY2ElrovyTfLOi/JY0YC4gkWtn2SVyd5VZK1jQP+xl1Jzk3yjXQ+wQfiCVpqepJ/KtE0wzigK3NKRP1HOk88B/EEDTc5ya5JXpvOJ+WAsbsoydeSnJPkAeNAPEGzvCDJbiWcnmoc0FO/KQF1dpIrjAPxBPW1WpI9kuyeznfJAf33vSRfTXJWknuNA/EE9bB1kteXcHKXCYbjNyWgvpLOd+6BeIIK2qNE085GAZXy7RJRZxkF4gmGb+0keyV5Q5LNjQMq7YYkX05yejqPPwDxBAP07CR7l3BazTigVu4tAXVaOl9YDOIJ+miHJPum8yZwoP6+muRLSS4xCsQT9NZuJZp2NApopItLRJ1tFIgnGJ83lvU8o4BWuDLJF8sC8QRdWinJm8qaaRzQStcl+UJZ840D8QSLt3KS/ZPsl+SZxgEk+VmSU5KcnOSPxoF4gr+NpgOSbGIcwGLclOTzIgrxRNutWILpwLjTBHTnZ0lOKiH1kHEgnmiTA5IcFO9pAsbmuiQnlogC8USjvaFEk0/PAb1wZYmoLxsF4ommeXmSg9N5yCVAr12S5IQk3zIKxBN1t22SQ9J5yCVAv52d5LNJvm8U9MvETJpmCvTDJkmOSueNndONAxiQ6Un+OclTktyW5HdGgnii6lZN8s4STdsZBzAkWyfZNZ1P9V4Xn8xDPFFR+6Tzxs3Xp/PsJoBhWjnJi5O8rMTTtUaCeKIqZiU5Psm7kqxtHEDFrJ3klUmelWRuktuNBPHEsKyX5Mh07jZtahxAxW2aZO8kU9J52OY8I0E8MUgHlWjaOckE4wBqYkI6z5nbJcmjSa4xEsQT/bZdkk8neXuSNYwDqKk1yl/+toyX8hBP9MlTk7w/nYfQbWYcQENskmSPdN5c/v+S/MlIEE/0wh4lmnZNMtE4gMbthZ0H+r44yf1JrjcSxBNjtWmSjyU5Jsk6xgE03DpJXpPkaUluTvJbI0E8MRoHpvMVB9sbBdAyz07yj0kejjeUsxi+245FPSvJ4em8VAd9N2vbLcf137933v25ds7NBkm/nJXk2CQ/MQrEE4vzliT/kmRdo2BQHv/91eP671/+gx9n1uwDDZJ++lWSf03yGaMgSUaMgHTuNn01nUcQCCeAv7VuuT5+tVwvEU+03EFJzk2ym1EALNVu5Xp5kFGIJ9pp0ySnJvlckqcbB0BXnl6um6fG11KJJ1plzyT/kc53PAEwenuX6+ieRiGeaLY1kxyX5MtJNjcOgHHZvFxPjyvXV8QTDbNDkrOTHGoUAD11aLm+7mAU4onmODydT4nMMgqAvphVrrOHG4V4ot42TXJaOs8nWd04APpq9XK9PS3eTC6eqKVXJzkjyV5GATBQe5Xr76uNQjxRDxOSvLf84m5pHABDsWW5Dr+3XJcRT1TUpklOT/LhJJOMA2CoJpXr8enxMp54opJmp/PQNs8cAaiWPcv1ebZRiCeq47AkX0qyjVEAVNI25Tp9mFGIJ4ZrrXS+5ftTSdYwDoBKW6Ncrz9Trt+IJ4bwt5gvJDnEKABq5ZBy/fZqgXhigHZNckqSXYwCoJZ2KdfxXY1CPNF/70hycpIZRgFQazPK9fwdRiGe6I/V03mt/BNJphgHQCNMKdf1T8U3QYgnemrzJCfGpzQAmuqwcp3f3CjEE+O3fZLPJdnNKAAabbdyvd/eKMQTY/e6JCckeaFRALTCC8t1/3VGIZ4Yvbel8yyQTYwCoFU2Kdf/txmFeKI7yyf5UJLjkzzZOABa6cllH/hQ2RcQTyzBWuWX5X1GAUDZD46PJ5KLJxZrkyTHJXmzUQCwkDeX/cHbOMQTC9kmnWd87GEUACzGHmWf8JUu4okkL0nnAWk7GQUAS7FT2S9eYhTiqc1eVX4RtjUKALqwbdk3XmUU4qmN9kzyr0lmGgUAozCz7B97GoV4apP9k3w8yd8ZBQBj8HdlH9nfKMRTG7w1yceSrGMUAIzDOmU/eatRiKcmOzzJR+ObswHojdXLvnK4UYinJnpvko8keZJRANBDTyr7y3uNQjw1yVFJPpxkOaMAoA+WK/vMUUYhnupuYjrfS3SkUQAwAEeWfWeiUYinOlo+ydHxPXUADNb7yv7jC4X7xMtI/bFCqf/3GAUAQ7Bg//lgkoeNo7fceepPkAonAKoQUEfGjRLxVHEThBMAFQyoCUYhnqrqyHiPEwDV8r744JJ4cnICgL/ci6d6e1c8WwOAajuq7FeIp6E7tBS9Z2oAUGUTy351qFGIp2E6sJyIk4wCgBqYVPatA41CPA3DXuUEXM0oAKiR1cr+tZdRiKdBek058aYaBQA1NLXsY68xCvE0CDuWE24DowCgxjYo+9mORiGe+ukfyok2wygAaIAZZV/7B6MQT/2weZIPJHmeUQDQIM8r+9vmRiGeemmdcmK5tQlAE+1Y9rl1jEI89cJK6dzS3NUoAGiwXct+t5JRiKfxOjLJ/sYAQAvsH181Jp7G6R1JjjAGAFrkiLL/IZ5Gba90Xv8FgLb5QDxEUzyN0svKibOqUQDQQquWffBlRiGeurFFOWE2NAoAWmzDsh9uYRTiaWnWSvL+eJYTAKTsh+8v+yPiabHen+TVxgAAf/Hqsj8inp7giCQHGwMAPMHB8elz8bSIPVU1ACzV+8t+KZ6MIC9I8r4kTzIKAFiiJ5X98gXiqd3WKyW9id8JAFimTcq+uZ54aq/3JXmp3wUA6NpLy/4pnlroiCT7+R0AgFHbLy1+A3lb4+mfkrzXuQ8AY/besp+KpxaYmc7txsnOewAYs8llP50pnpptUinlmc55ABi3mWVfnSSemus9SV7rXAeAnnlt2V/FUwO9Pt7nBAD98N6yz4qnBtmiVPEE5zcA9NyEss9uIZ6aYblyQDdzbgNA32xW9tvlxFP9eZ8TAAxGK97/1PR4emWSdzuXAWBg3l32X/FUQ+un8/TTlZzHADAwK5X9d33xVD9HJNnGOQwAA7dNGvz1LU2Np/2THODcBYChOaDsx+KpBrZMi7+sEAAq5IiyL4unintXkmc4XwFg6J5R9mXxVGHvjMcSAECVvLbsz+KpgrZtYt0CQAO8q+zT4qlCJpYD8xTnJwBUzlPKPj1RPFXHvyTZxbkJAJW1S9mvxVMFvCDJ4c5JAKi8w8u+LZ4qcCBWdz4CQOWtngbc8Kh7PL0zyWznIgDUxuzU/NN3dY6nreLlOgCoo8PLPi6eBuydSdZ0/gFA7ayZGt99qms87Z9kN+ceANTWbqnpd9/VMZ42SPIO5xwA1N47yr4unvrs7Uk2dr4BQO1tXPZ18dRHL09ysHMNABrj4LK/i6c+WKGOdQoALNPbyz4vnnrssCQvcn4BQOO8qOzz4qmHpic51LkFAI11aNnvxVMPBzrVeQUAjTU1NblRUod4ekWSNzqnAKDx3lj2ffE0Tm9zLgFAa1R+3696PL01yXbOIwBoje3K/i+exuBpcdcJANrobaUDxNMovSU1fGQ7ADBuG5QOEE+jsHUqfssOAOirt5YeEE9dekuSFZ03ANBaK6aid5+qGE+7JNnTOQMArbdn6QLxtAyHOFcAgKp2QdXiae8kOzpPAIBix9IH4mkxJiZ5s3MEAFjEm0sniKfFDGZr5wcAsIitU6EbLFWJpylx1wkAWLI3l14QT8VBSTZ1XgAAS7Bp6QXxlGRqVYYBAFTaQaUbWh9PByZZz/kAACzDeqUbWh1P6yY5wLkAAHTpgNIPrY2nA1KB228AQG1MzZBvvAwznp6WZH/nAAAwSvuXjmhdPO2XZE3HHwAYpTVLR7QqntYZ5g8NANTefqUnWhNPb4r3OgEAYze19EQr4mmNYf2wAECjvKl0RePj6Y0Z4pu8AIDGeFrpikbH00pJ/tmxBgB65J9LXzQ2nvZNsonjDAD0yCalLxobT+46AQC17otBxtMeSbZyfAGAHtuqdEbj4mkfxxYAqHtnDCqeXppkB8cVAOiTHUpvNCae9nZMAYAm9MYg4ml6ktc7ngBAn72+dEft42kvxxIAGJC+d0e/42m1JG9wHAGAAXlD6Y/axtOe8QXAAMDgTC39Uet4AgAYpNrG005JtnH8AIAB26Z0SO3i6XWOHQAwJH3rkH7F09+JJwBgyPH0d3WKpz2STHDcAIAhmZA+fd9dv+Jpd8cMABiyvvRIP+LpVUk2c7wAgCHbrHRJ5eNpN8cKAKiInndJr+Np/SS7Ok4AQEXsWvqksvG0a7xRHACojgnp8Y2dXsfTax0jAKBietonvYynWUm2cnyg2raYsXG2mLGxQfTBoQftkdWmrGIQUD1blU6pXDy9xrGB6ofTZeeflMvOP0lA9dipJxyZ4445LJedf5KAgmrqWaf0Kp5WEE9Qj3CasurkTFl1soDqcTjtvcfOSZKZ0zcSUFDdeFqhSvH06iRrOy5Q/XBaQED1PpwWEFBQSWuXXqlMPL3KMYH6hJOA6l84CSiotJ70Si/iaS3xBPULJwHVv3ASUFDpeFqrCvH0yiTLOx5Qv3ASUP0LJwEFlbR86ZZKxBNQ03ASUP0LJwEFlTT0eHpGkpc5DlDvcBJQ/QsnAQWV87LSL0OLp5c7BtCMcBJQ/QsnAQWVM65+GW88zTZ/aE44Caj+hZOAgkoZV7+MJ542TLK9+UOzwklA9S+cBBRUxvalYwYeT7uYPVTDUe/ar6fhJKD6F04LB9Q+r3MZhSEa8y/geOJpJ3OHatjn4KNz3fW39OXPbmtA9TOckuS0s76d4088y8kLwzPmjhlrPK2bZAdzh2q4d979mTX7QAFVo3Da5+APOnFhuHYoPTOweHLXCQSUcBJOUHdj6pmxxpNnO4GAEk7CCepuTD0zlnhaNck/mjcIKOEknKDm/rF0Td/jacckK5k3CKimBJRwgtZaqXRN3+PJG8VBQDUmoIQTtN6ou0Y8gYBqbUAJJ2AQ8fT8JOuZMwiougeUcAKK9Urf9C2eXmrGIKDqHlDCCRhP34w2nnyXHQioWgeUcALG2zejiae1k2xrviCg6hpQwglYgm1L5/Q8nl5stiCg6hpQwgnoVeeMJp62M1cQUHUMKOEE9LJzRhNPs8wVBFTdAko4Ab3unG7j6e+TbGiuIKDqFFDCCRiFDUvv9CyeXmSmIKDqFFDCCRiDrnqn23h6oXmCgKpLQAknYIy66p1u4+kF5gkCqg4BJZyAceiqd7qJp+ckWcs8QUBVPaCEEzBOa5XuGXc8Pd8sQUBVPaCEE9Ajy+we8QTUPqCEEzDIeJqQ1Zd5d+rXSdYxS2if1aasksvOPykzp2/Ulz9/3n0PZMqqk8f1Z9x9z++y1pprCCegV+5MMm1p/4Fl3XmaIZygvQZxB2q8hBPQY+uU/hlzPD3PDEFA9TOgqko4Qas9bzzx9FzzA9oWUMIJWu+544mnrc0PaFNACSdgWf2ztHiammRz8wPaElDCCSg2Lx006nh6jtkBbQko4QR020FLi6etzA1oQ0AJJ2A0HSSegFYHlHACehlPW5ob0OSAEk7AWDpoSfG0UXwZMNDggBJOwDKsVXqo63h6lpkBTQ0o4QR06VniCWh9QAknoF/xNNO8gKYFlHACRmmmeAJaG1DCCehnPD0tnW8UBmhEQAknYIzWKV20zHiaYVbVcPxH3p59XreLQSCghBMtsdqUVXLeGcdmixkbG0Z1zOgmnqab0/CdesKReduBu+dLn/2AgEJACSdaEk6XnX9SXrHTi3LZ+ScJqOqYLp5qEk5777HzX/61gEJACSfaEU4zp3ceKzRl1ckCqmbxtJk5VSecBBQCSjjRrnBaQEBVxmbiqYbhJKAQUMKJdoWTgKpXPG2SZJI5VS+cBBQCSjjRrnASUJUxqfTREuNpUzOqbjgJKASUcKJd4SSgKmNT8VTjcBJQCCjhRLvCSUBVP54ckRqEk4BCQAkn2hVOAmroNhZPDQgnAYWAEk60K5wEVHXjaSPzqU84CSjaHFDCiTaGk4Aamo2WFE9PTrKW+dQrnAQUbQwo4USbw0lADcVapZOeEE8bmk09wwnaFFDCCQTUkGy4uHjawFzqG077HnJ0Tj3zAoOm0QElnGjyXwwEVOVtIJ6EE9RqoxFOCCgBVcV4Wt9chBNUcaMRTggoAVUBf+mkCVn9OQv++cVJdjAb4QRVsdqUVbLP63bJ8SeeZRg06rzuxxvIF5h33wOZNfvAXDvnZsPurUuS7LhoPN2YRb67BeEEgIAiSXJTypPGF37Zbj1zEU4A9J+X8GrpL520IJ6mpvOtwQgnAAQUTzSp9NJf4mldMxFOAAgolmpd8SScABBQjDGe1jEP4QSAgGKp1hFPwgkAAcUY42lt8xBOAAgolmrtheNpqnkIJwAEFEs1VTwJJwAEFGOMpzXNQzgBIKBYqjXFk3ACQEAJqDHE02pJVjAP4QSAgGKpVkgyeSTJU8xCOAEgoARUd+MaSbKGOQgnAASUgOrKqiNJnmwOwgkAASWguo+n1c1BOAEgoARUV1YRT8IJAAEloEYZT1PMQTgBIKAEVFdWFk/CCQABJaBGGU+rmoNwAkBACaju42kV4SScABBQAqork0aSTBZOwgkAASWguvKkkSQrCyfhBICAElBdWam18SScABBQAmqs8TRJOAknAASUgOrKiq2LJ+EEgIASUOONp5WEk3ACQEAJqK6sMJJkReEknAAQUAKqK8uPJFlBOAknAASUgOrKchOy+nPuS4MflNnvcIIm+ODHT8lRHz/FIJbh8d9fbQiwFPPueyCzZh+Ya+fc3OQf8z9HkiwnnACA8WrJHaiJjY0n4QQAAqpf8TQinAAAAdWVkcbFk3ACAAHVRxNGkkwQTgCAgOo+noQTACCgujSS5HHhBAAIqK48PpLkz3X+CbaYsbFwAoAaBNTxH3m7eKqCa+fcnH0POdpZCQAVdt31t+SVex7ehB/lzyNJHq37T3HqmRcIKACocDjNmn1g7p13fxN+nMcaEU8CCgCE0yDj6ZGm/DQCCgCEU589OpLk4Sb9RAIKAIRTv+Ppoab9VAIKAIRTnzwykmR+E38yAQUAwqkPHl4uyYNN/elOPfOCJMmXPvuBvv1v3H3P73LjLb/w20Kt3X7HXYbQhct/8GNDoNYmrzwpM2dsnOUmThROY/dQo+NpEAG11ppr5KJLf5h9Dv6g30pouFmzDzQEamuLGRvnsvNPEk49iKeJmTRt9yQbNPmnvHbOzfnFHXfllTu9qG8n5DPWWyfnXXi5304AKhtOU1adLJzG74qJmTTtNUk2bfpPKqAAEE7CqQe+OzGTpu2S5O/b8NMKKACEk3Aap4snZtK0lybZqi0/sYACQDgJp3H49sRMmvbCJM9v008toAAQTsJpjM6dmEnTtk6yfdt+cgEFgHASTmNw9sRMmvb3SXZq408voAAQTsJplM6YmEnTNkrymrZOQEABIJyE0yh8YWImTVs3yevbPAUBBYBwEk5d+tzETJq2RpI3tX0SAgoA4SScuvCpiZk0bVKSt5qFgAJAOAmnZfroxEya9uckR5iFgAJAOAmnZTpyYiZNm5/kPUkmmoeAAkA4CaclejjJByZm0rQkOSDJqmYioAAQTsJpie5KctyCeNozydpmIqAAEE7CaYn+L8nJC+LpFUk2MhMBBYBwYol+kuTMBfG0fZJnmYmAAkA4sURXJPnWgnjaOskLzURAASCcWKILk/z3gnjaNMnOZiKgABBOLNHZSf53QTxNS7K7mQgoAIQTS/SFJDcuiKfJSfY3EwEFgHBiiT6Z5M4F8fTnJO80EwEFgHBiiY5M8sCCeHogybuSLG8uAgoA4cQTPJjk3UmyIJ6S5A1JnmI2AgoA4cQT3Jbks4vG0+wkG5qNgAJAOPEEP05yxqLx9IIkW5qNgAJAOPEElya5IElGFvo3bzeX8Tn1zAuy7yFH9+3P33uPnXPqCUcaNK3bVFabsophIJyE07D9pZMWjqfbzEVAQdU2lRc9/9kCCuEknKrgNvEkoKA2m8rM6RsJKISTcKpkPN1qLgIKqrqpCCiEk3AaslsXF0+/T3K32QgoqOqmIqAQTsJpSO4unfSEeEqSW8xHQEGVNxUBhXASTkPwN320aDzdbD4CCqq+qQgohJNwGrC/6aOFn/OUJM9M8hIz6r1BPAdq9Smr5KJLrzRsWrGpTF1zjfzjS/4hX/3GdzL/oYcNkspaf72188PvfEk41dvZSX6w4F8seufpRvPpn37egZp33wM59awLDJlW/W3cHSjq4PZf3pXzvt2fBxwLp4H5mz4STw0IqHn3PZBZsw/MtXO86kp7wklAUSf7HPzBnHbWt4VTQ+PppnS+NZiaBJRwos3hJKBoa0AJp4F6sPTREuMpSX5qTvUIKOGEcBJQtC+ghNPAPaGLxFNNA0o4IZwEFO0LKOFUjXha9NN2SbJRkpea1WCM5VN4wgnhtGQ+hUcdnHfh5XnGeutkixkbC6fqOzMLfdJuSfE0JcnrzaqaASWcEE4CivYFlHAaquOzyEMyFxdP85McZlbVCyjhhHASULQvoITT0L07yX0L/xuLe8/THUnuNKvBW9p7oIQTwmn0vAeKOljae6CE09DdWbrobyzuzlPSecr4RmY2eIu7AyWcEE5j5w4UdbC4O1DCqRK+n+Qr3cbT9CTbmtnwA0o4IZwEFO0LKOFUGV9Pcumi/+aErP6cxf2Hd03ne1wYolfu/KLc/su7hBPCqUdsSNTBoQftkVPPvMB5Wg27JTmn23jaKIt8gzBAncNJQAFjsHEW+aRdsvg3jKf8B+82M6BJ4ZR4EznQtbsXF05Li6ck+ZG5AU0KJwEFjMISO2hp8XSNuQFNCycBBXTpGvEECCcBBfQ5nv7X3ICmhpOAApbhf8cST3OT3GB2QFPDSUABS3BD6aBRx1OSXG1+QJPDSUABo+2fZcXTD80PaHo4CShgNP2zrHi60vyANoSTgAK67Z9lxdOcdL5RGBBOjQ8nAQWU7pkznnhKkv8xRxBOVQ2nRx97TEABvbTM7ukmnn5gjiCc+uG6628Z/58x5+bMu+8BAQX0yjK7RzwBQwunWbMPHPef88AfH8ys2QcKKKBS8fS/8SXBIJz6EE73zru/J3/etXNuFlBAL9ydLh4SPtLlH3aFeYJwqmI4CSigh7rqnW7j6XvmCcKpquEkoIAe6ap3uo2ny80ThFOVw0lAAT3QVe90G0//L8mtZgrCqcrhJKCAcbi19E7P4ilJLjNXEE5VDycBBYxR150zmnj6rrmCcKpDOAkoYAy67pzRxNN/mysIp7qEk4ACRqnrzhlNPN2V5PtmC8KpLuEkoIAufb90Ts/jKUkuNV8QTnUKJwEF9LpvRhtP3zFfEE51CycBBfSyb0YbTz9I8kszBuFUt3ASUMAS/DKj/B7fkTH8j1xiziCc6hhOAgroRdeIJxBOrQonAQUMI54uTjLfrEE41TWcBBRQzC9d0/d4ui/Jf5o3CKc6h5OAAkrP3DeIeEqSi8wbhFPdw0lAQeuNqWfGGk8XmjcIpyYRUNBKY+qZscbTr+KN4yCcGkZAQatcUnpmYPE05loDhJOAElBQAWPumPHE0wXmDsJJQAkoqKkxd8x44unW+K47qISj3rWfcKphQM3a9tlOXhiOS0vHDDyekuR884fh2+fgo3Pd9bcIpxoF1L6HHJ3zvn25kxeGY1z9Mt54+pb5w/DdO+/+zJp9YE8Dqu3h1M+A2veQo3Pqmd75AEM0rn4Zbzz9PJ75BI0LKOHUv4ASTjB0F5V+GVo8Jcl5jgM0J6CEU/8CSjhBJYy7W3oVT484FlD/gBJO/Qso4QSV8EhV4unuJOc6HlDvgBJO/Qso4QSVcW7plqHHU8QT1DughFP/Ako4QeXiadx6FU/fSHKXYwL1Cyjh1L+AEk5QKXeVXqlMPD2c5OuOC9QroIRT/wJKOEHlfL30SmXiKeIJ6hVQwql/ASWcoLLx1BO9jKfLklzj2ED1A0o49S+ghBNU0jWlU3piuR7/n/takq0cI6h2QC345/Q2oNaf+QpzhWr6Wi//sJEe/587J8njjhFUO6Bs8P2bLVA5j5c+qWw83d7r/4MAAONwTumTysZTkpztOAEAFdHzLulHPJ2b5KeOFQAwZD9NHx7kPdKn/7NfdbwAgCHrS4/0K57ODsXSLAAADmBJREFUijeOAwDD83jpkdrE0/8lOdNxAwCG5MzSI7WJp4gnAGDI8dQX/YynC5Nc5dgBAAN2VemQ2sVTkpzh+AEAA9bX/hhEPM11DAGAAZlb93i6N8mXHUcAYEC+XPqjtvGUJKc7jgDAgPS9OwYRT9cn+YpjCQD02VdKd9Q+npLkNMcTAGhCbwwqnr6T5BLHFADok0tKbzQmnpLkVMcVAKh7Zwwyns5Kco1jCwD02DXp0/fYDTuekuTfHV8AoM59Meh4+lKSmxxjAKBHbip90dh4mh93nwCA3vn30heNjack+WKSOxxrAGCc7ihdMVDDiKffJfmC4w0AjNMXSlc0Pp4W/LC+MBgAGKu5GdLNmGHF051JTnHcAYAxOqX0RGviacEPfY9jDwCM0j0Z4k2YYcbTHUlOdvwBgFE6OUP88NnIkH/4z8d7nwCA7s0t/TA0w46nXw17AABArXy+9ENr4ylJTkryS+cCALAMvyzdMFRViKe5SU50PgAAy3BiKvB2n5EKDeNG5wQAsAQ3piI3W6oST/OSfM55AQAswedKL4inRYZytXMDAFjE1anQTZYqxdNjcfcJAHiiz5VOEE+LcVqSi50jAEBxcemDyhip4JA+6zwBAKraBVWMpwuSnOFcAYDWO6N0gXjqwmeSPOScAYDWeqj0QOVUNZ6uTvJp5w0AtNanU9FP4Y9UeGifSXKbcwcAWue2VPSuU9Xj6Y4k/+b8AYDW+bfSAeJpDD6d5LvOIQBoje+m4m/dGanBEN19AoD2qPy+X4d4+maSLzqXAKDxvlj2ffHUA8cnmeucAoDGmlv2+8qrSzxdX5eBAgBjcnzZ78VTDx2X5HLnFgA0zuVln6+FOsXTw0k+5fwCgMb5VNnnxVMffCvJCc4xAGiME8r+XhsjNRzyp5Lc7FwDgNq7OTV8VamO8XRbkk863wCg9j6ZGn4V20hNh31ykrOdcwBQW2eX/bx2Rmo89E8kuce5BwC1c0/Zx2upzvF0TZJjnX8AUDvHln1cPA3BJ5Kc7xwEgNo4PzW+69SEeFpQr39wLgJA5f0hDXjVqAnxdEW8fAcAdXBs2bfFUwX8a5ILnJMAUFkXlP269poST48l+XiS3zo3AaByflv26cfEU7V8vxwYAKBaPl726UYYadjB+USSrzlHAaAyvpaaf7qu6fG0oG5/7lwFgKH7eRr4qlAT4+lHST7mfAWAoftY2ZfFUw2cnOTzzlkAGJrPp6bfXdfWeFpQu1c5dwFg4K5Kg18FanI83V4O3HznMAAMzPyy/94unurpvCQfdR4DwMB8tOy/jTXSgoP4kXh8AQAMwtfKvttobYinR8uB/KlzGgD65qdlv31UPDXDteWAPu7cBoCee7zss9e24YcdadGB/UqSY5zfANBzx5R9thVGWnZwvf8JAHqrFe9zanM8PVjq+DrnOgCM23VlX31QPDX/QH84yQPOeQAYswfKftq6GxIjLT3g/xHvfwKA8Tim7KetM9Lig/6xJKc49wFg1E5Jg79+RTwt3YeTfMfvAAB07Ttl/2yttsfTL5N8KMlNfhcAYJluKvvmL8VTu11RCvpPRgEAS/Snsl9e0fZBiKeOM0pJAwCL96GyX7aeePqrjyU5wRgA4AlOSIvfIC6ell3V3zAGAPiLb8SrM+JpKe4uJ8iVRgEAubLsi3cbhXhammuTHJ3kVqMAoMVuLfvhtUYhnrpxUTlh7jMKAFrovrIPXmQU4mk0Ti8nDgC0zdFlH0Q8jdon49MFALTLx8r+h3gasw8mOdkYAGiBk8u+h3gal/nlRDrHKABosHPKfjffKMRTL9yZzuu/FxsFAA10cdnn7jQK8dRLN5QTyzOgAGiSK8v+doNRiKd++J90bmnOMQoAGmBO2df+xyjEUz9dXE6024wCgBq7rexn3pIingbi6+WEm2sUANTQ3LKPfd0oxNMgnV5OvHuNAoAaubfsXx6CKZ6G4qRyAj5oFADUwINl3zrJKMTTMB1fTsTHjAKACnus7FfHG4V4qoKPJznKGACosKPKfoV4qowPxyPtAaimD5Z9CvHk5AQAf7kXT3X2eDlBP2IUAFTAR8q+9LhRiKcqe1RAAVChcHrUKHprOSPoi4fz1zeQv8c4ABhCOB2V5BGj6D13nvrnkSQfiPdAATBYHy77j3AST7X0WJL3xxv1ABiMD5Z9x7MHxVPtHZXkffG6MwD98WjZZ44yCvHUJMek8/6nPxkFAD30p7K/HGMU4qmJjk3y7iR/MAoAeuAPZV851ijEU5N9OskRSe40CgDG4c6yn3zaKMRTG5yc5F1J/s8oABiD/yv7yMlGIZ7a5Iwk/5LkOqMAYBSuK/vHGUYhntro3CTvTPJ9owCgC98v+8a5RiGe2uy/yi/ChUYBwFJcWPaL/zIK8URyVZK3JznLKABYjLPKPnGVUYgn/uqmJIcl+ZxRALCQz5X94SajEE880d1JDo3vwwOg48NlX7jbKMQTS/ZIOt9LdGiS3xsHQCv9vuwD748v+BVPdO3fkrwlbtMCtM1N5fr/b0Yhnhi9M5McnOR7RgHQCt8r1/0zjUI8MXaXJnlzkrONAqDRzi7X+0uNQjwxfjckOSjJcUYB0EjHlev8DUYhnuidP6TzjI93JplnHACNMK9c199ervOIJ/rgk0n2TzLHKABqbU65nn/SKMQT/XdOkv2SXGAUALV0QbmOn2MU4onBuSrJm5J81igAauWz5frtq1bEE0NwdzrPAnl7kt8ZB0Cl/a5cr98STwwXTwzdcUn29bcYgMq6qlynfWpaPFEh5yfZJ8kZRgFQKWeU6/P5RiGeqJ4bk+yV5H1JHjQOgKF6sFyP9yrXZ8QTFfV4kmOS7JnkR8YBMBQ/KtfhY8p1GfFEDXyj/OKebhQAA3V6uf5+wyjEE/VzY5K9k/xLPLkWoN/+UK63e8fLdOKJ2js2ye5JLjMKgL64rFxnjzUK8URzXJJktyTHGwVATx1frq+XGIV4onnuSXJYkjfEN3cDjNcN5Xp6WLm+Ip5osDOS/FOS04wCYExOK9dRz9YTT7TIjek8tO3NSX5hHABd+UW5bu4TbwoXT7TWiUleleRsowBYqrPL9fJEoxBP8JN0PiXy1iS/Mg6Av/Grcn3cvVwvEU/wF59J8vIkZxkFQFKuhy8v10cQTyzWT5K8LslBSW41DqClbi3XwdfF3SYWMSGrP8cUWJJNk7wzyRuNAmiRLyb5RLwhnCWYmEnTTIEl+W2SbyW5Ocn6SdYxEqDBflT+wviRcv0D8cSYXZ/k3CSPJdk6yUQjARrk4XS+VuWQJFcZB+KJXvlTkkuT/CDJk5NsYiRAA5xfoukL5ToH4omeuz2dT5/ck2TjJGsYCVBDtyR5f5J3lOsaiCf67pok3yz//LlJJhgJUAOPp/NFvm9O5246iCcGal6Si5NcnmT1dD6dB1BV30zn8QOfL9cvEE8Mze1JvprOdz49PcnaRgJUyE+SvCfJEfESHeKJirk2nfdD/THJ9CQrGwkwRPck+Wg6L9H5FB3iicp6KMkV6XyCJek82gBg0D6bzkt055brEognKu93Sf4znTdkrpzOnSiAfjs7f31f0++Mg37w9SwMysuTHJxkB6MA+uCSJCek860IIJ5olDeUvxU+zyiAHrgyyYlJvmwUiCea7oASUTONAhiD60o0fd4oEE+0yYolog5M8kzjALrwsyQnlWjyRnDEE621cpL9S0j5zjxgcW4qwXRyOo9DAfEEC0XUfnEnCuj4WZJTRBPiCZZupSRvKst7oqCdrkvyhbLmGwfiCbr3xrJ8Og/a4cokXywLxBOMw25J9k2yo1FAI12c5EvpPOQSxBP00A4lonY3CmiEr5ZousQoEE/QX89OsneSvZKsZhxQK/cmOT3JaUl+bByIJxistUtAvSHJ5sYBlXZDOk8CPz3JXcaBeILh2yPJ65PsbBRQKd9O8pUkZxkF4gmqaesSUXskeapxwFD8psTSV5JcbRyIJ6iH1UpA7Z7khcYBA/G9dN4EflY6720C8QQ19YJ0Hnewa9yNgl77TZJz0nnMwBXGgXiCZplcAuq1SV5mHDAuFyX5WgmnB4wD8QTNNz3JPyV5dZIZxgFdmZPkG0n+I8n1xoF4gvbavkTUq9J5/AHwV3clObdE06XGgXgST7CwiUlemeQVZa1qJLTUfUm+WdZ5SR4zEhBPsCyrJHl5ktlJdkmyspHQcH9MckGS85N8K8n9RgLiCcZqSjoP31ywphgJDTEvnYdYLljzjATEE/TaSkl2SufTei9L8jQjoWbuSOeTchcluTDJfCMB8QSDtF2SHcp6tnFQUT9OcklZ3zUOEE9QFZskeUlZ26fzvikYhvvT+WTcf5V1k5GAeIKqWz7Ji9O5M7VdOt+5B/10dTp3lb6b5L+TPGIkIJ6gzqal8x17C9ZmRsI4/TSd75JbsH5tJCCeoMk2SPL8hdZ0I2EZrk/yg4XWbUYC4gnabFqS55a1TTov861oLK31UDovw12V5IdlubME4glYiuVLQG1V1pZJnmksjfWzJD9Kck1ZV8d7lkA8AeP2lCTPKmtmWZsbS+3ckOS6sn5S1m+NBcQTMBiTk8woa3qJqc2STDWaoZubzpu6b0jn/UpzynrAaEA8AdUzNcmmZW1c1kZlTTCennk8yS1l3VzWjWXNNR4QT0D9LZdkw7KeUdb6SZ5e1lON6Al+k+QXZd2e5Odl3VrWo0YE4glor8lJ1i1rWpJ1yppa1lolsFZrwM96bwmju9O5SzQ3yZ1l/TrJr8ryMhsgnoBxWzGdN7A/JcmTy1qtrCllrVJibHKSlZM8KcmkdL5cecWyli9ruSQTk4yUtcCfy3osnTs8j5T1UFnzkzyY5E9J/lhC54F0vp5kXln3lvX7sn5b1kMOIzBayxkBMEYPpXN3xrOHgFb5/3PElIRugQnVAAAAAElFTkSuQmCC;" vertex="1" parent="1">
          <mxGeometry x="238" y="243" width="28.16" height="28.16" as="geometry" />
        </mxCell>
        <mxCell id="Lh2qIq0kyytRX2KrADmU-30" value="" style="shape=image;verticalLabelPosition=bottom;labelBackgroundColor=#ffffff;verticalAlign=top;aspect=fixed;imageAspect=0;image=data:image/png,iVBORw0KGgoAAAANSUhEUgAAAk8AAAJPCAYAAABlxzBuAAAQ/HpUWHRSYXcgcHJvZmlsZSB0eXBlIGV4aWYAAHjarZppdlwpkEb/s4peAhAMwXIYgnN6B738vvFSklW2ymWXS2kr05kveRDDN4CD/d//3vA//NTYNJTatY3WIj9llJEnLzR++7G359d7KZbn9/tPevudwpcfZJ6FZ3m92cvbp/L2/vv17eOZgb74INXvviAft8mfb9zn2/s55r/MqOwk8fOPfvt779F77bW6WRphaK9FvW4R3ofhwsVQ8nyt8ej8rbzuz2Pw0DjjTiWeuOPisdNImVvfVNIJaaabLB2ed9rMsWTLneecd5bnPZWeR94SJUnxR7q5y5AjKll2NhEpQfLHXNJz3/HcbyflzidxaU4MlvjKTx/hny74lce9OxKjlFh9eosV88rZ85A8jOK/uYyEpPuWt/oE+P3x8RM+JVbIYH3CrCxwxvUaYtX0rbbkKQDhusrzq75SP561/FRJ4d6VySQhBbElqaml2HPuKRXJSoImM89S8iIDqdZ8mGQuIo3cKHXEvflOT8+1uebX+7QK+anSpJObIZNklVKpn16UGppVaqm1ttqr1lFnaNJKq6213rznZpdeeu2t96599KmiRas27ao6dI48hJaso40+dIwxJ/ecJcw6+fbkijlXXrLKqqutvnSNNTfls8uuu+2+dY89Tz5yyqmnnX70jDMtGaUUrFi1Zt3Uhs1LrV255dbbbr96x50fWXvL6g+P38haestafjLl1/WPrPFu7z7QM0RynKmeMzKWSyLj3TNAQWfPWdRUSvbMec7iyHRFzUyyem5OijOkRgqLpVxv+sjdt8z9ct4Csf6nvOVfyVzw1P0HmcvB5Lu8fZG140i4n4y9utBjGoXuu9Fm1pnXCcIk/aVy8Z88hz8d4PcGWrPeWK9mu2u3O0c5pEhkg5m7pju0hL3G5i21U/epnYhAZZv48JylN5CYV9XWPY2uKlydDy/ytG2VYc+Ne9USbpQ2LuEf/fbaruRCvCkTMNsK1Sfn2qi7kKDU7yrFB94673xenW6Qy9Zw6pVZM3+owXOUrA6jjit/mpfP85I5/cNz+NUL//bZo0EsAsF4D8UrEGsrZfHEqHX6dqS1KrQ3qS1bYFi79BHvqNqS23T4NTXcMvyi86yXPlvWC+vPz0BvF315TS1iMZ3CgG/pPwqFPpmOf/AcfvFC1nXPsKc4SrNThHUSgEm6nziF+yqa7+KUJ+Uh2ek8ndbtJOGavGzwXO/yAVeW2jelcQvRCz+7pEzt9OocN72yVBfQ+lRG/P45/N0Hv/v8aSBf1V1yXpV7DtO5x6ukgi0/i1KrdVmIzfOYZW5gJ/driMrjz+vVb6DnvOOwdl0/uyKc/BRX7JXhXllaLf8+koTf/cKiOXfsoIoZbEXrljNB1jA6BKLohF267QZoo5Wb7b1pi3iXz5RJbofTJbBN31XviomEypp3Aw66ewwDkC9PgDNRIsFnodSIX92j9HOopbZs9oEeHyBZn6MrDNSHlHPgsQNr9TzDFjMGnkzPuGmmDb9oVarWhPUUCMhkgkxex4SyIjuPs0mgH/sUuaeW2xP5pgxINFHYMqgA7m652ARtbULeZUxZdc8F8dVzkKi3zT0OFkJmg6aAy7SKEsovcvzKsNmeexoabB1t205OfUBp+I+Rwm4I16rjgQ5I7gCrBmsm0wH39iisAQHncGooY3Ryb1KdLCVdhQOORdIQEICdAElbgjzddg9qQe6alF9xdaAzlZ2ZxVZA+TgKoRPOuioscsPH80qvYZW9h9TVXVpcMzrUSDtQPxf3rjqL5tYVIENVIOFRDS1pjupV4b2vD/MEFIwntdmd0nRxqcHtujFcF0HqqEJJiPdIm6PVkfsY1ggAU7RdkRB6cxnBZluYFIM9rJR9ckX2/4tOCT98sPpsVAtL96BH8gPt2SWv/CRXb408EqtjrKwhI+4m0CFO4p/RU4iTiYhGHR2UVNynOyS0c1ZLdpRhO3iDv5mS2r4unIB7nJGRui1hACGLFY3mlT2rJmcYSHzEQokvxxs5dXa6ouSjr7m3/D2sBzmrWxJaka7L1Kn2tdHz1rjdXhR/MWSZt6Fe1Fiatx9pyKd86PPerSLtJzHCDNTI/WdHPo5bRCmDCDusdneGDVduCDUa34DugxhoGxGJpkMkXpTZ6xbB78GgqD3QE7WSBFS43QaaI4EoLAMNW/mFqECJCIm/ddP9jVVwnzm8wGERq4cmq4Pftfe0cKu0EOCt8jAKwNHpVqJ6DdByt6nt7TvUFZoD4O4jYIhQlwvfw7/XMUCf0hsjFxrS7+v6dvBlWgiNPVDOqNq++LBM6rqOaF1WC4pGftUr8DEmX2cIYd4dAb7SreglRK8zTa9Dv5Q5iC0NZSH5LywJAGzUgquRdhKNj4luFSknB4O/km3UdfcJiqTsQov01kcSlnZKoBpXYlJ6wO5pACsSZNFA+kg+rtYu5hTmS14H3X+87trlX4lCowdYqAZX5rsZ+QcTAUsmD9YdRb8RzvrqupJ/lNDTO5fiAan51g4ySfV7M83u+CMX5sCK9DL8zp3uLzMd1/Ga6HEafkXo5u59Z3S8p6SDI91AeUUxPqcW4JxJ7rlIAEx7iYplm+EBWnKFL7aGoZBOGzT/HPmP8sfpokQhrpTb8fzEZljirVAAdM49XecMvsTtSAIVFqleV81MaUKBSpdJoJsJZuXzvK7RGJDCRQOncSAwZZVg/MTWUGeIG4S2RFCvC+ZuQXaHGiAXN1RDFXMXQwseLzt8UgN+dwf2aEtgeENOqd0xm+Me8hFNtRGkg8/XWglmFiobLT8yrfSmZC0N5/SnPUqiNFgYlaBOmyk+cjQWMIyImSL0oxlNNzIxcohx8RPjl5fT4R9jfxv5GSEbfYk9oOhneAbYgr5ShBVZr00As8eBRIeBzMsZB1BhC6jDRvb4aYD374fvBkCUwurA5rNpAevCPtsHnCBgEco8F1gD3zuulNaYbFHKqmBFEw11mxRAgBtBQ29/6FdC5w72GIpk0AcTJx6lqKFJKbdieURkr6vG19I+1gAEf6ziiwW7UKbGEQCf1+aaU8JXwflq2C+C8wzw/v3wewNMdS1B4gGQAaum2CkSkm7P0j6y/mXOP9fTk3XxYU8HgNSpARybu4YZgZqM3wPt4MLb40bj+abjRKLJxBEY6mOjM+ib1bCilrlw0zcF6tm0OrpKwl0s4ZjrlOKmnyompDflUuENFoRyaAAePYnWiAg9gKwrXNmZb0uw89OUofmOA/oiJbgKtzz2eooMBEarMSStJh0KGRMaTxWgpJDwfJSZAGOIvJLbigFF73swQx0qEQ0EEMyCHeBZpui7JchPrnRfHFND8WZg2gUtmDo3scPA1xQMiu7og5sR2cBlPURlarnNN/NcOkn0HRVK3uUV7Uv/H64AKsEIGA/Ih0YDpXt82+klBcRzQXQBerADlRU9RshY+nqvDBUffgkUsDpwZ2QnDoe8EvZN6hTiArQTJbQqHt8Lqt3iPi5TxwqOwrOoogVJ0ZGYRPjFANDNICTaQnWUe4CjSEUdz7oRSiCWekn5JgDiFUNAomhHEuyksOi8DcmIQiQHibF7MKKb6VpqHpQkuDpOBHQ1YtjgLvw1VdzRzq6n3MSQMkLH/PJBpdHmhAuEpIYoxQFzPZWCQCaImZW5kHOta+7eqeoVxaWegctHBy7trOEu8eBqaoUgfTP1Qs7IgjLWOenoqx0Log7gLBFCpsafnRDSoK+m+n7iT6/53N0LI3dg+OhgwQR9T+VGgH7y4kRUT8JU0Xw6n17EaZTs6AlfyA1jcjlw6Fstiaz65vyiKd2D349pkYpvE3tN67tJhY9wPlNyzRHTpwnFr6bE0lDA3e2PlGfPEDzafqOR1L3D24Dr84AFFs2KM0ICFt/7xGGCqWvsU+r7VgAsGsYGFTwv1lssivWoGDoKPHFlfCFXYwaOzj9bbvhqvX9dbqs+vXp/Hrnwdeh+P3LhLXSf8umI/WT0SahvUXyd0r/WWviVYvtLrf0wvdfkwvel5pIm4onHYWlo4IiPfHWp6/BHV+YGu4In0S0i7YVcvSucDivRXFcL3s9owrYWz+D1BCxwVkgpQXxhGY2gYDD7LTis4/od5dVgh+g2i7cAc5vq+2eYFXP/jiPBuiqqkXaprk8dtRsczrgHhcx0D2rk4IbSwe4fsobmw6t0LICWRITpuIKvwSHjAp+NTCrtAMeAFTPq7oGBNMZWVGM01CvWNuSuC3eCwr1YoOpGOR+Xw1ifvGuK/oR2U7KnFYGbgb4xFxrYel76vtP1445Wd98SHYBRvb5dUZ+SYGWC3Iy5aYJgRqYbgF+oA4StAvgzEZaCiQBMzXeFN24ib14IulQNZ4XUZumT8GJ0rh4XyWsiohamhyQQuRzS6Ml8y2JjaE1mwxXiw5BZIw9jGbgS6szLCFatJNkzggZAZ2RUPHCYGxKVYLdIu1K1YL2TEp4EpZzy/jv3itZvADdUwzvF6UJdjZAOhFPFMcChJB9XgoO9LrFd9gspwTrhSUdHyUyon2/panyj7xMr8t2QxyegPHw/EqqldkaOWg0bV1spDQWfS/OK6sj/gouBy5GY2x0rzLlfJcLMqLBwfNMGzeL7IQvYg63dtsxzIvgEbS4MPCLSN1O30aN4Uvh063TFVfR9pyTY9p2iU65v3m/MZrkZxkb2HEAO7kJ4wNd+b8RWpD0rb1GmlAl11XGYeACLWIiI/kVOuBEhJFQ21tJQeF1AiFqIxPXdKuZhfnokI+Hr0Quftm0AotDO11bVfSphkVKXO9Wjm3EShZP7wb1TtQ38MkUrE8OKhVh+NqAATXZhBlZ1GNJyRucBWkaz4tcacoBPMk5I3SLVOFhQMVFvevTeRGjRpMk3HMTNvTak4vTZ+k7+e68hYJTasooZwkQn9b0FuAdnpVQ+DiCHAj41kACdAgBio6gU/HzGQr0q8pRf2oAPf7Oh7rXLDOMgaTiltq5j514tglWAHdJXpIGxzcXrHSd0QJP+gGMevD4ZFrhu3Y8AKspqJhxJnXvSK/9UwyESF/V9eIz7XmajI0aru02EXX0kGeY2gg9oZ0w8y1TX3m0Px2hgH44trmLMK3hQeuI7rgtdF55NT2/z7Ju9q+6C6HzAzANbH9qR7UcE3QGTb7rcv6igzgQKrpUkoNQC4pBOgUx9ezh9vVOLzPUt4OOKvPjOS/IldPKQEdr+tVLCOvCMuicDwqgJsK80dyqsittCW24hquNZx8K5GG9Fe1X1U6uV6JQMF2gYEKQ39ro/OZfZi7pb4wip8FfiVgGRn7Dxzho7Af7UFPLPdzZapDidj4uzgRMdBEfOplHiKUNzBeKRHUnI2G6TqOgHgUR30O9wwY9F406x9BrBhYWjqX4wbXAoxNBjHQRDVz3oHKoDBn5QK6TbYS5WU2BC8/9EgcC/3Jc6Wu4cVvJNKeEDd7lgGm3J+1gbkAYqedtHDf/qyOG3DzN/cs6Gzn9OZHw7j7wQo09HMr6D5ZvwGH0/NSJM43Xo+H7k+Bw4+mGnvk4cvx1LMtDXl/hBlu8LMdzbeSTG82fHiOGPzh9/GOjtQPJPziPD5wPJPzmPDJ8PJP/kPDL8i4PLL0/awucDyT85jwyfDyT/5Dwy/Bfnjz8Z6B/OI4Hn7fq6L70x+wYoqhZ9OTaSAJvuG9G1I/Jil7G5ZIHQYymdPkF48S3cV60g098qwYPvzja8l4L/3wLf/CENwDFi/cwDSbYBrcHX8I41bWVExJw7L7SE75tEV7n+/03CGYi4cz6O+OevH/H/5Tn8R632bwaiwqjH8P/KHqSHM8IirwAAAAZiS0dEAP8A/wD/oL2nkwAAAAlwSFlzAAAuIwAALiMBeKU/dgAAAAd0SU1FB+QEHQ4iBlK9FKkAACAASURBVHja7d17/OZznf/x53zHaTIMKYaRxDrEzI4ialONFC2m4+ZQcthyiorKpiMpHVbFViJqQyLaosiitZFasSp+QzksKcXQyaCMU35/XO+paczh+n6/1+FzuN9vt/etw62mvq/P5/t5P+ZzXdfnmpDVnxOAMVguyZPKmlTWSmWtWP5xhUXW8uW/t2BNLGtkoTWhrAUeL+vPC63Hynp0ofVIkocXWfOTPFT+cX6SB8v6U1mPOozAWC5+AAubnGTdsqYlWaesqWWtleSpSVZrwM96b5LfJLk7ydyy7izr10l+VdYDTgtAPEG7f+83LOsZZa2f5OllPbVFs1itrI2W8Z/7TZJflHV7kp+XdWtZ7mBBi0zwsh001tQkm5a1cVkblTXBeHrm8SS3lHVzWTeWNdd4QDwB1TM5yYyypifZPMlmJZ4YrrlJfprkhiTXJ5lTlpcBQTwBA/KUJM8qa2ZZmxtL7dyQ5LqyflLWb40FxBMwPssn2TrJVmVtmeSZxtJYP0vyoyTXlHV1Op8gBMQTsATTkjy3rG1KOK1oLK31UAmoq5L8sKxfGwuIJ2izDZI8f6E13UhYhuuT/GChdZuRgHiCJpuW5IULrc2MhHH6aZLvLbTcmQLxBLW2fJIXJ9murK2NhD67Osl3y/rveM8UiCeogU2SvKSs7ZOsYiQMyf1JLk3yX2XdZCQgnqAqtkuyQ1nPNg4q6sdJLinru8YB4gkGaaUkOyV5WVlPMxJq5o4kF5V1YTpfmgyIJ+ipKUl2XmhNMRIaYl6Sby+05hkJiCcYq1WSvDzJ7CS7JFnZSGi4Pya5IMn5Sb6VzvumAPEESzUxySuTvKKsVY2ElrovyTfLOi/JY0YC4gkWtn2SVyd5VZK1jQP+xl1Jzk3yjXQ+wQfiCVpqepJ/KtE0wzigK3NKRP1HOk88B/EEDTc5ya5JXpvOJ+WAsbsoydeSnJPkAeNAPEGzvCDJbiWcnmoc0FO/KQF1dpIrjAPxBPW1WpI9kuyeznfJAf33vSRfTXJWknuNA/EE9bB1kteXcHKXCYbjNyWgvpLOd+6BeIIK2qNE085GAZXy7RJRZxkF4gmGb+0keyV5Q5LNjQMq7YYkX05yejqPPwDxBAP07CR7l3BazTigVu4tAXVaOl9YDOIJ+miHJPum8yZwoP6+muRLSS4xCsQT9NZuJZp2NApopItLRJ1tFIgnGJ83lvU8o4BWuDLJF8sC8QRdWinJm8qaaRzQStcl+UJZ840D8QSLt3KS/ZPsl+SZxgEk+VmSU5KcnOSPxoF4gr+NpgOSbGIcwGLclOTzIgrxRNutWILpwLjTBHTnZ0lOKiH1kHEgnmiTA5IcFO9pAsbmuiQnlogC8USjvaFEk0/PAb1wZYmoLxsF4ommeXmSg9N5yCVAr12S5IQk3zIKxBN1t22SQ9J5yCVAv52d5LNJvm8U9MvETJpmCvTDJkmOSueNndONAxiQ6Un+OclTktyW5HdGgnii6lZN8s4STdsZBzAkWyfZNZ1P9V4Xn8xDPFFR+6Tzxs3Xp/PsJoBhWjnJi5O8rMTTtUaCeKIqZiU5Psm7kqxtHEDFrJ3klUmelWRuktuNBPHEsKyX5Mh07jZtahxAxW2aZO8kU9J52OY8I0E8MUgHlWjaOckE4wBqYkI6z5nbJcmjSa4xEsQT/bZdkk8neXuSNYwDqKk1yl/+toyX8hBP9MlTk7w/nYfQbWYcQENskmSPdN5c/v+S/MlIEE/0wh4lmnZNMtE4gMbthZ0H+r44yf1JrjcSxBNjtWmSjyU5Jsk6xgE03DpJXpPkaUluTvJbI0E8MRoHpvMVB9sbBdAyz07yj0kejjeUsxi+245FPSvJ4em8VAd9N2vbLcf137933v25ds7NBkm/nJXk2CQ/MQrEE4vzliT/kmRdo2BQHv/91eP671/+gx9n1uwDDZJ++lWSf03yGaMgSUaMgHTuNn01nUcQCCeAv7VuuT5+tVwvEU+03EFJzk2ym1EALNVu5Xp5kFGIJ9pp0ySnJvlckqcbB0BXnl6um6fG11KJJ1plzyT/kc53PAEwenuX6+ieRiGeaLY1kxyX5MtJNjcOgHHZvFxPjyvXV8QTDbNDkrOTHGoUAD11aLm+7mAU4onmODydT4nMMgqAvphVrrOHG4V4ot42TXJaOs8nWd04APpq9XK9PS3eTC6eqKVXJzkjyV5GATBQe5Xr76uNQjxRDxOSvLf84m5pHABDsWW5Dr+3XJcRT1TUpklOT/LhJJOMA2CoJpXr8enxMp54opJmp/PQNs8cAaiWPcv1ebZRiCeq47AkX0qyjVEAVNI25Tp9mFGIJ4ZrrXS+5ftTSdYwDoBKW6Ncrz9Trt+IJ4bwt5gvJDnEKABq5ZBy/fZqgXhigHZNckqSXYwCoJZ2KdfxXY1CPNF/70hycpIZRgFQazPK9fwdRiGe6I/V03mt/BNJphgHQCNMKdf1T8U3QYgnemrzJCfGpzQAmuqwcp3f3CjEE+O3fZLPJdnNKAAabbdyvd/eKMQTY/e6JCckeaFRALTCC8t1/3VGIZ4Yvbel8yyQTYwCoFU2Kdf/txmFeKI7yyf5UJLjkzzZOABa6cllH/hQ2RcQTyzBWuWX5X1GAUDZD46PJ5KLJxZrkyTHJXmzUQCwkDeX/cHbOMQTC9kmnWd87GEUACzGHmWf8JUu4okkL0nnAWk7GQUAS7FT2S9eYhTiqc1eVX4RtjUKALqwbdk3XmUU4qmN9kzyr0lmGgUAozCz7B97GoV4apP9k3w8yd8ZBQBj8HdlH9nfKMRTG7w1yceSrGMUAIzDOmU/eatRiKcmOzzJR+ObswHojdXLvnK4UYinJnpvko8keZJRANBDTyr7y3uNQjw1yVFJPpxkOaMAoA+WK/vMUUYhnupuYjrfS3SkUQAwAEeWfWeiUYinOlo+ydHxPXUADNb7yv7jC4X7xMtI/bFCqf/3GAUAQ7Bg//lgkoeNo7fceepPkAonAKoQUEfGjRLxVHEThBMAFQyoCUYhnqrqyHiPEwDV8r744JJ4cnICgL/ci6d6e1c8WwOAajuq7FeIp6E7tBS9Z2oAUGUTy351qFGIp2E6sJyIk4wCgBqYVPatA41CPA3DXuUEXM0oAKiR1cr+tZdRiKdBek058aYaBQA1NLXsY68xCvE0CDuWE24DowCgxjYo+9mORiGe+ukfyok2wygAaIAZZV/7B6MQT/2weZIPJHmeUQDQIM8r+9vmRiGeemmdcmK5tQlAE+1Y9rl1jEI89cJK6dzS3NUoAGiwXct+t5JRiKfxOjLJ/sYAQAvsH181Jp7G6R1JjjAGAFrkiLL/IZ5Gba90Xv8FgLb5QDxEUzyN0svKibOqUQDQQquWffBlRiGeurFFOWE2NAoAWmzDsh9uYRTiaWnWSvL+eJYTAKTsh+8v+yPiabHen+TVxgAAf/Hqsj8inp7giCQHGwMAPMHB8elz8bSIPVU1ACzV+8t+KZ6MIC9I8r4kTzIKAFiiJ5X98gXiqd3WKyW9id8JAFimTcq+uZ54aq/3JXmp3wUA6NpLy/4pnlroiCT7+R0AgFHbLy1+A3lb4+mfkrzXuQ8AY/besp+KpxaYmc7txsnOewAYs8llP50pnpptUinlmc55ABi3mWVfnSSemus9SV7rXAeAnnlt2V/FUwO9Pt7nBAD98N6yz4qnBtmiVPEE5zcA9NyEss9uIZ6aYblyQDdzbgNA32xW9tvlxFP9eZ8TAAxGK97/1PR4emWSdzuXAWBg3l32X/FUQ+un8/TTlZzHADAwK5X9d33xVD9HJNnGOQwAA7dNGvz1LU2Np/2THODcBYChOaDsx+KpBrZMi7+sEAAq5IiyL4unintXkmc4XwFg6J5R9mXxVGHvjMcSAECVvLbsz+KpgrZtYt0CQAO8q+zT4qlCJpYD8xTnJwBUzlPKPj1RPFXHvyTZxbkJAJW1S9mvxVMFvCDJ4c5JAKi8w8u+LZ4qcCBWdz4CQOWtngbc8Kh7PL0zyWznIgDUxuzU/NN3dY6nreLlOgCoo8PLPi6eBuydSdZ0/gFA7ayZGt99qms87Z9kN+ceANTWbqnpd9/VMZ42SPIO5xwA1N47yr4unvrs7Uk2dr4BQO1tXPZ18dRHL09ysHMNABrj4LK/i6c+WKGOdQoALNPbyz4vnnrssCQvcn4BQOO8qOzz4qmHpic51LkFAI11aNnvxVMPBzrVeQUAjTU1NblRUod4ekWSNzqnAKDx3lj2ffE0Tm9zLgFAa1R+3696PL01yXbOIwBoje3K/i+exuBpcdcJANrobaUDxNMovSU1fGQ7ADBuG5QOEE+jsHUqfssOAOirt5YeEE9dekuSFZ03ANBaK6aid5+qGE+7JNnTOQMArbdn6QLxtAyHOFcAgKp2QdXiae8kOzpPAIBix9IH4mkxJiZ5s3MEAFjEm0sniKfFDGZr5wcAsIitU6EbLFWJpylx1wkAWLI3l14QT8VBSTZ1XgAAS7Bp6QXxlGRqVYYBAFTaQaUbWh9PByZZz/kAACzDeqUbWh1P6yY5wLkAAHTpgNIPrY2nA1KB228AQG1MzZBvvAwznp6WZH/nAAAwSvuXjmhdPO2XZE3HHwAYpTVLR7QqntYZ5g8NANTefqUnWhNPb4r3OgEAYze19EQr4mmNYf2wAECjvKl0RePj6Y0Z4pu8AIDGeFrpikbH00pJ/tmxBgB65J9LXzQ2nvZNsonjDAD0yCalLxobT+46AQC17otBxtMeSbZyfAGAHtuqdEbj4mkfxxYAqHtnDCqeXppkB8cVAOiTHUpvNCae9nZMAYAm9MYg4ml6ktc7ngBAn72+dEft42kvxxIAGJC+d0e/42m1JG9wHAGAAXlD6Y/axtOe8QXAAMDgTC39Uet4AgAYpNrG005JtnH8AIAB26Z0SO3i6XWOHQAwJH3rkH7F09+JJwBgyPH0d3WKpz2STHDcAIAhmZA+fd9dv+Jpd8cMABiyvvRIP+LpVUk2c7wAgCHbrHRJ5eNpN8cKAKiInndJr+Np/SS7Ok4AQEXsWvqksvG0a7xRHACojgnp8Y2dXsfTax0jAKBietonvYynWUm2cnyg2raYsXG2mLGxQfTBoQftkdWmrGIQUD1blU6pXDy9xrGB6ofTZeeflMvOP0lA9dipJxyZ4445LJedf5KAgmrqWaf0Kp5WEE9Qj3CasurkTFl1soDqcTjtvcfOSZKZ0zcSUFDdeFqhSvH06iRrOy5Q/XBaQED1PpwWEFBQSWuXXqlMPL3KMYH6hJOA6l84CSiotJ70Si/iaS3xBPULJwHVv3ASUFDpeFqrCvH0yiTLOx5Qv3ASUP0LJwEFlbR86ZZKxBNQ03ASUP0LJwEFlTT0eHpGkpc5DlDvcBJQ/QsnAQWV87LSL0OLp5c7BtCMcBJQ/QsnAQWVM65+GW88zTZ/aE44Caj+hZOAgkoZV7+MJ542TLK9+UOzwklA9S+cBBRUxvalYwYeT7uYPVTDUe/ar6fhJKD6F04LB9Q+r3MZhSEa8y/geOJpJ3OHatjn4KNz3fW39OXPbmtA9TOckuS0s76d4088y8kLwzPmjhlrPK2bZAdzh2q4d979mTX7QAFVo3Da5+APOnFhuHYoPTOweHLXCQSUcBJOUHdj6pmxxpNnO4GAEk7CCepuTD0zlnhaNck/mjcIKOEknKDm/rF0Td/jacckK5k3CKimBJRwgtZaqXRN3+PJG8VBQDUmoIQTtN6ou0Y8gYBqbUAJJ2AQ8fT8JOuZMwiougeUcAKK9Urf9C2eXmrGIKDqHlDCCRhP34w2nnyXHQioWgeUcALG2zejiae1k2xrviCg6hpQwglYgm1L5/Q8nl5stiCg6hpQwgnoVeeMJp62M1cQUHUMKOEE9LJzRhNPs8wVBFTdAko4Ab3unG7j6e+TbGiuIKDqFFDCCRiFDUvv9CyeXmSmIKDqFFDCCRiDrnqn23h6oXmCgKpLQAknYIy66p1u4+kF5gkCqg4BJZyAceiqd7qJp+ckWcs8QUBVPaCEEzBOa5XuGXc8Pd8sQUBVPaCEE9Ajy+we8QTUPqCEEzDIeJqQ1Zd5d+rXSdYxS2if1aasksvOPykzp2/Ulz9/3n0PZMqqk8f1Z9x9z++y1pprCCegV+5MMm1p/4Fl3XmaIZygvQZxB2q8hBPQY+uU/hlzPD3PDEFA9TOgqko4Qas9bzzx9FzzA9oWUMIJWu+544mnrc0PaFNACSdgWf2ztHiammRz8wPaElDCCSg2Lx006nh6jtkBbQko4QR020FLi6etzA1oQ0AJJ2A0HSSegFYHlHACehlPW5ob0OSAEk7AWDpoSfG0UXwZMNDggBJOwDKsVXqo63h6lpkBTQ0o4QR06VniCWh9QAknoF/xNNO8gKYFlHACRmmmeAJaG1DCCehnPD0tnW8UBmhEQAknYIzWKV20zHiaYVbVcPxH3p59XreLQSCghBMtsdqUVXLeGcdmixkbG0Z1zOgmnqab0/CdesKReduBu+dLn/2AgEJACSdaEk6XnX9SXrHTi3LZ+ScJqOqYLp5qEk5777HzX/61gEJACSfaEU4zp3ceKzRl1ckCqmbxtJk5VSecBBQCSjjRrnBaQEBVxmbiqYbhJKAQUMKJdoWTgKpXPG2SZJI5VS+cBBQCSjjRrnASUJUxqfTREuNpUzOqbjgJKASUcKJd4SSgKmNT8VTjcBJQCCjhRLvCSUBVP54ckRqEk4BCQAkn2hVOAmroNhZPDQgnAYWAEk60K5wEVHXjaSPzqU84CSjaHFDCiTaGk4Aamo2WFE9PTrKW+dQrnAQUbQwo4USbw0lADcVapZOeEE8bmk09wwnaFFDCCQTUkGy4uHjawFzqG077HnJ0Tj3zAoOm0QElnGjyXwwEVOVtIJ6EE9RqoxFOCCgBVcV4Wt9chBNUcaMRTggoAVUBf+mkCVn9OQv++cVJdjAb4QRVsdqUVbLP63bJ8SeeZRg06rzuxxvIF5h33wOZNfvAXDvnZsPurUuS7LhoPN2YRb67BeEEgIAiSXJTypPGF37Zbj1zEU4A9J+X8GrpL520IJ6mpvOtwQgnAAQUTzSp9NJf4mldMxFOAAgolmpd8SScABBQjDGe1jEP4QSAgGKp1hFPwgkAAcUY42lt8xBOAAgolmrtheNpqnkIJwAEFEs1VTwJJwAEFGOMpzXNQzgBIKBYqjXFk3ACQEAJqDHE02pJVjAP4QSAgGKpVkgyeSTJU8xCOAEgoARUd+MaSbKGOQgnAASUgOrKqiNJnmwOwgkAASWguo+n1c1BOAEgoARUV1YRT8IJAAEloEYZT1PMQTgBIKAEVFdWFk/CCQABJaBGGU+rmoNwAkBACaju42kV4SScABBQAqork0aSTBZOwgkAASWguvKkkSQrCyfhBICAElBdWam18SScABBQAmqs8TRJOAknAASUgOrKiq2LJ+EEgIASUOONp5WEk3ACQEAJqK6sMJJkReEknAAQUAKqK8uPJFlBOAknAASUgOrKchOy+nPuS4MflNnvcIIm+ODHT8lRHz/FIJbh8d9fbQiwFPPueyCzZh+Ya+fc3OQf8z9HkiwnnACA8WrJHaiJjY0n4QQAAqpf8TQinAAAAdWVkcbFk3ACAAHVRxNGkkwQTgCAgOo+noQTACCgujSS5HHhBAAIqK48PpLkz3X+CbaYsbFwAoAaBNTxH3m7eKqCa+fcnH0POdpZCQAVdt31t+SVex7ehB/lzyNJHq37T3HqmRcIKACocDjNmn1g7p13fxN+nMcaEU8CCgCE0yDj6ZGm/DQCCgCEU589OpLk4Sb9RAIKAIRTv+Ppoab9VAIKAIRTnzwykmR+E38yAQUAwqkPHl4uyYNN/elOPfOCJMmXPvuBvv1v3H3P73LjLb/w20Kt3X7HXYbQhct/8GNDoNYmrzwpM2dsnOUmThROY/dQo+NpEAG11ppr5KJLf5h9Dv6g30pouFmzDzQEamuLGRvnsvNPEk49iKeJmTRt9yQbNPmnvHbOzfnFHXfllTu9qG8n5DPWWyfnXXi5304AKhtOU1adLJzG74qJmTTtNUk2bfpPKqAAEE7CqQe+OzGTpu2S5O/b8NMKKACEk3Aap4snZtK0lybZqi0/sYACQDgJp3H49sRMmvbCJM9v008toAAQTsJpjM6dmEnTtk6yfdt+cgEFgHASTmNw9sRMmvb3SXZq408voAAQTsJplM6YmEnTNkrymrZOQEABIJyE0yh8YWImTVs3yevbPAUBBYBwEk5d+tzETJq2RpI3tX0SAgoA4SScuvCpiZk0bVKSt5qFgAJAOAmnZfroxEya9uckR5iFgAJAOAmnZTpyYiZNm5/kPUkmmoeAAkA4CaclejjJByZm0rQkOSDJqmYioAAQTsJpie5KctyCeNozydpmIqAAEE7CaYn+L8nJC+LpFUk2MhMBBYBwYol+kuTMBfG0fZJnmYmAAkA4sURXJPnWgnjaOskLzURAASCcWKILk/z3gnjaNMnOZiKgABBOLNHZSf53QTxNS7K7mQgoAIQTS/SFJDcuiKfJSfY3EwEFgHBiiT6Z5M4F8fTnJO80EwEFgHBiiY5M8sCCeHogybuSLG8uAgoA4cQTPJjk3UmyIJ6S5A1JnmI2AgoA4cQT3Jbks4vG0+wkG5qNgAJAOPEEP05yxqLx9IIkW5qNgAJAOPEElya5IElGFvo3bzeX8Tn1zAuy7yFH9+3P33uPnXPqCUcaNK3bVFabsophIJyE07D9pZMWjqfbzEVAQdU2lRc9/9kCCuEknKrgNvEkoKA2m8rM6RsJKISTcKpkPN1qLgIKqrqpCCiEk3AaslsXF0+/T3K32QgoqOqmIqAQTsJpSO4unfSEeEqSW8xHQEGVNxUBhXASTkPwN320aDzdbD4CCqq+qQgohJNwGrC/6aOFn/OUJM9M8hIz6r1BPAdq9Smr5KJLrzRsWrGpTF1zjfzjS/4hX/3GdzL/oYcNkspaf72188PvfEk41dvZSX6w4F8seufpRvPpn37egZp33wM59awLDJlW/W3cHSjq4PZf3pXzvt2fBxwLp4H5mz4STw0IqHn3PZBZsw/MtXO86kp7wklAUSf7HPzBnHbWt4VTQ+PppnS+NZiaBJRwos3hJKBoa0AJp4F6sPTREuMpSX5qTvUIKOGEcBJQtC+ghNPAPaGLxFNNA0o4IZwEFO0LKOFUjXha9NN2SbJRkpea1WCM5VN4wgnhtGQ+hUcdnHfh5XnGeutkixkbC6fqOzMLfdJuSfE0JcnrzaqaASWcEE4CivYFlHAaquOzyEMyFxdP85McZlbVCyjhhHASULQvoITT0L07yX0L/xuLe8/THUnuNKvBW9p7oIQTwmn0vAeKOljae6CE09DdWbrobyzuzlPSecr4RmY2eIu7AyWcEE5j5w4UdbC4O1DCqRK+n+Qr3cbT9CTbmtnwA0o4IZwEFO0LKOFUGV9Pcumi/+aErP6cxf2Hd03ne1wYolfu/KLc/su7hBPCqUdsSNTBoQftkVPPvMB5Wg27JTmn23jaKIt8gzBAncNJQAFjsHEW+aRdsvg3jKf8B+82M6BJ4ZR4EznQtbsXF05Li6ck+ZG5AU0KJwEFjMISO2hp8XSNuQFNCycBBXTpGvEECCcBBfQ5nv7X3ICmhpOAApbhf8cST3OT3GB2QFPDSUABS3BD6aBRx1OSXG1+QJPDSUABo+2fZcXTD80PaHo4CShgNP2zrHi60vyANoSTgAK67Z9lxdOcdL5RGBBOjQ8nAQWU7pkznnhKkv8xRxBOVQ2nRx97TEABvbTM7ukmnn5gjiCc+uG6628Z/58x5+bMu+8BAQX0yjK7RzwBQwunWbMPHPef88AfH8ys2QcKKKBS8fS/8SXBIJz6EE73zru/J3/etXNuFlBAL9ydLh4SPtLlH3aFeYJwqmI4CSigh7rqnW7j6XvmCcKpquEkoIAe6ap3uo2ny80ThFOVw0lAAT3QVe90G0//L8mtZgrCqcrhJKCAcbi19E7P4ilJLjNXEE5VDycBBYxR150zmnj6rrmCcKpDOAkoYAy67pzRxNN/mysIp7qEk4ACRqnrzhlNPN2V5PtmC8KpLuEkoIAufb90Ts/jKUkuNV8QTnUKJwEF9LpvRhtP3zFfEE51CycBBfSyb0YbTz9I8kszBuFUt3ASUMAS/DKj/B7fkTH8j1xiziCc6hhOAgroRdeIJxBOrQonAQUMI54uTjLfrEE41TWcBBRQzC9d0/d4ui/Jf5o3CKc6h5OAAkrP3DeIeEqSi8wbhFPdw0lAQeuNqWfGGk8XmjcIpyYRUNBKY+qZscbTr+KN4yCcGkZAQatcUnpmYPE05loDhJOAElBQAWPumPHE0wXmDsJJQAkoqKkxd8x44unW+K47qISj3rWfcKphQM3a9tlOXhiOS0vHDDyekuR884fh2+fgo3Pd9bcIpxoF1L6HHJ3zvn25kxeGY1z9Mt54+pb5w/DdO+/+zJp9YE8Dqu3h1M+A2veQo3Pqmd75AEM0rn4Zbzz9PJ75BI0LKOHUv4ASTjB0F5V+GVo8Jcl5jgM0J6CEU/8CSjhBJYy7W3oVT484FlD/gBJO/Qso4QSV8EhV4unuJOc6HlDvgBJO/Qso4QSVcW7plqHHU8QT1DughFP/Ako4QeXiadx6FU/fSHKXYwL1Cyjh1L+AEk5QKXeVXqlMPD2c5OuOC9QroIRT/wJKOEHlfL30SmXiKeIJ6hVQwql/ASWcoLLx1BO9jKfLklzj2ED1A0o49S+ghBNU0jWlU3piuR7/n/takq0cI6h2QC345/Q2oNaf+QpzhWr6Wi//sJEe/587J8njjhFUO6Bs8P2bLVA5j5c+qWw83d7r/4MAAONwTumTysZTkpztOAEAFdHzLulHPJ2b5KeOFQAwZD9NHx7kPdKn/7NfdbwAgCHrS4/0K57ODsXSLAAADmBJREFUijeOAwDD83jpkdrE0/8lOdNxAwCG5MzSI7WJp4gnAGDI8dQX/YynC5Nc5dgBAAN2VemQ2sVTkpzh+AEAA9bX/hhEPM11DAGAAZlb93i6N8mXHUcAYEC+XPqjtvGUJKc7jgDAgPS9OwYRT9cn+YpjCQD02VdKd9Q+npLkNMcTAGhCbwwqnr6T5BLHFADok0tKbzQmnpLkVMcVAKh7Zwwyns5Kco1jCwD02DXp0/fYDTuekuTfHV8AoM59Meh4+lKSmxxjAKBHbip90dh4mh93nwCA3vn30heNjack+WKSOxxrAGCc7ihdMVDDiKffJfmC4w0AjNMXSlc0Pp4W/LC+MBgAGKu5GdLNmGHF051JTnHcAYAxOqX0RGviacEPfY9jDwCM0j0Z4k2YYcbTHUlOdvwBgFE6OUP88NnIkH/4z8d7nwCA7s0t/TA0w46nXw17AABArXy+9ENr4ylJTkryS+cCALAMvyzdMFRViKe5SU50PgAAy3BiKvB2n5EKDeNG5wQAsAQ3piI3W6oST/OSfM55AQAswedKL4inRYZytXMDAFjE1anQTZYqxdNjcfcJAHiiz5VOEE+LcVqSi50jAEBxcemDyhip4JA+6zwBAKraBVWMpwuSnOFcAYDWO6N0gXjqwmeSPOScAYDWeqj0QOVUNZ6uTvJp5w0AtNanU9FP4Y9UeGifSXKbcwcAWue2VPSuU9Xj6Y4k/+b8AYDW+bfSAeJpDD6d5LvOIQBoje+m4m/dGanBEN19AoD2qPy+X4d4+maSLzqXAKDxvlj2ffHUA8cnmeucAoDGmlv2+8qrSzxdX5eBAgBjcnzZ78VTDx2X5HLnFgA0zuVln6+FOsXTw0k+5fwCgMb5VNnnxVMffCvJCc4xAGiME8r+XhsjNRzyp5Lc7FwDgNq7OTV8VamO8XRbkk863wCg9j6ZGn4V20hNh31ykrOdcwBQW2eX/bx2Rmo89E8kuce5BwC1c0/Zx2upzvF0TZJjnX8AUDvHln1cPA3BJ5Kc7xwEgNo4PzW+69SEeFpQr39wLgJA5f0hDXjVqAnxdEW8fAcAdXBs2bfFUwX8a5ILnJMAUFkXlP269poST48l+XiS3zo3AaByflv26cfEU7V8vxwYAKBaPl726UYYadjB+USSrzlHAaAyvpaaf7qu6fG0oG5/7lwFgKH7eRr4qlAT4+lHST7mfAWAoftY2ZfFUw2cnOTzzlkAGJrPp6bfXdfWeFpQu1c5dwFg4K5Kg18FanI83V4O3HznMAAMzPyy/94unurpvCQfdR4DwMB8tOy/jTXSgoP4kXh8AQAMwtfKvttobYinR8uB/KlzGgD65qdlv31UPDXDteWAPu7cBoCee7zss9e24YcdadGB/UqSY5zfANBzx5R9thVGWnZwvf8JAHqrFe9zanM8PVjq+DrnOgCM23VlX31QPDX/QH84yQPOeQAYswfKftq6GxIjLT3g/xHvfwKA8Tim7KetM9Lig/6xJKc49wFg1E5Jg79+RTwt3YeTfMfvAAB07Ttl/2yttsfTL5N8KMlNfhcAYJluKvvmL8VTu11RCvpPRgEAS/Snsl9e0fZBiKeOM0pJAwCL96GyX7aeePqrjyU5wRgA4AlOSIvfIC6ell3V3zAGAPiLb8SrM+JpKe4uJ8iVRgEAubLsi3cbhXhammuTHJ3kVqMAoMVuLfvhtUYhnrpxUTlh7jMKAFrovrIPXmQU4mk0Ti8nDgC0zdFlH0Q8jdon49MFALTLx8r+h3gasw8mOdkYAGiBk8u+h3gal/nlRDrHKABosHPKfjffKMRTL9yZzuu/FxsFAA10cdnn7jQK8dRLN5QTyzOgAGiSK8v+doNRiKd++J90bmnOMQoAGmBO2df+xyjEUz9dXE6024wCgBq7rexn3pIingbi6+WEm2sUANTQ3LKPfd0oxNMgnV5OvHuNAoAaubfsXx6CKZ6G4qRyAj5oFADUwINl3zrJKMTTMB1fTsTHjAKACnus7FfHG4V4qoKPJznKGACosKPKfoV4qowPxyPtAaimD5Z9CvHk5AQAf7kXT3X2eDlBP2IUAFTAR8q+9LhRiKcqe1RAAVChcHrUKHprOSPoi4fz1zeQv8c4ABhCOB2V5BGj6D13nvrnkSQfiPdAATBYHy77j3AST7X0WJL3xxv1ABiMD5Z9x7MHxVPtHZXkffG6MwD98WjZZ44yCvHUJMek8/6nPxkFAD30p7K/HGMU4qmJjk3y7iR/MAoAeuAPZV851ijEU5N9OskRSe40CgDG4c6yn3zaKMRTG5yc5F1J/s8oABiD/yv7yMlGIZ7a5Iwk/5LkOqMAYBSuK/vHGUYhntro3CTvTPJ9owCgC98v+8a5RiGe2uy/yi/ChUYBwFJcWPaL/zIK8URyVZK3JznLKABYjLPKPnGVUYgn/uqmJIcl+ZxRALCQz5X94SajEE880d1JDo3vwwOg48NlX7jbKMQTS/ZIOt9LdGiS3xsHQCv9vuwD748v+BVPdO3fkrwlbtMCtM1N5fr/b0Yhnhi9M5McnOR7RgHQCt8r1/0zjUI8MXaXJnlzkrONAqDRzi7X+0uNQjwxfjckOSjJcUYB0EjHlev8DUYhnuidP6TzjI93JplnHACNMK9c199ervOIJ/rgk0n2TzLHKABqbU65nn/SKMQT/XdOkv2SXGAUALV0QbmOn2MU4onBuSrJm5J81igAauWz5frtq1bEE0NwdzrPAnl7kt8ZB0Cl/a5cr98STwwXTwzdcUn29bcYgMq6qlynfWpaPFEh5yfZJ8kZRgFQKWeU6/P5RiGeqJ4bk+yV5H1JHjQOgKF6sFyP9yrXZ8QTFfV4kmOS7JnkR8YBMBQ/KtfhY8p1GfFEDXyj/OKebhQAA3V6uf5+wyjEE/VzY5K9k/xLPLkWoN/+UK63e8fLdOKJ2js2ye5JLjMKgL64rFxnjzUK8URzXJJktyTHGwVATx1frq+XGIV4onnuSXJYkjfEN3cDjNcN5Xp6WLm+Ip5osDOS/FOS04wCYExOK9dRz9YTT7TIjek8tO3NSX5hHABd+UW5bu4TbwoXT7TWiUleleRsowBYqrPL9fJEoxBP8JN0PiXy1iS/Mg6Av/Grcn3cvVwvEU/wF59J8vIkZxkFQFKuhy8v10cQTyzWT5K8LslBSW41DqClbi3XwdfF3SYWMSGrP8cUWJJNk7wzyRuNAmiRLyb5RLwhnCWYmEnTTIEl+W2SbyW5Ocn6SdYxEqDBflT+wviRcv0D8cSYXZ/k3CSPJdk6yUQjARrk4XS+VuWQJFcZB+KJXvlTkkuT/CDJk5NsYiRAA5xfoukL5ToH4omeuz2dT5/ck2TjJGsYCVBDtyR5f5J3lOsaiCf67pok3yz//LlJJhgJUAOPp/NFvm9O5246iCcGal6Si5NcnmT1dD6dB1BV30zn8QOfL9cvEE8Mze1JvprOdz49PcnaRgJUyE+SvCfJEfESHeKJirk2nfdD/THJ9CQrGwkwRPck+Wg6L9H5FB3iicp6KMkV6XyCJek82gBg0D6bzkt055brEognKu93Sf4znTdkrpzOnSiAfjs7f31f0++Mg37w9SwMysuTHJxkB6MA+uCSJCek860IIJ5olDeUvxU+zyiAHrgyyYlJvmwUiCea7oASUTONAhiD60o0fd4oEE+0yYolog5M8kzjALrwsyQnlWjyRnDEE621cpL9S0j5zjxgcW4qwXRyOo9DAfEEC0XUfnEnCuj4WZJTRBPiCZZupSRvKst7oqCdrkvyhbLmGwfiCbr3xrJ8Og/a4cokXywLxBOMw25J9k2yo1FAI12c5EvpPOQSxBP00A4lonY3CmiEr5ZousQoEE/QX89OsneSvZKsZhxQK/cmOT3JaUl+bByIJxistUtAvSHJ5sYBlXZDOk8CPz3JXcaBeILh2yPJ65PsbBRQKd9O8pUkZxkF4gmqaesSUXskeapxwFD8psTSV5JcbRyIJ6iH1UpA7Z7khcYBA/G9dN4EflY6720C8QQ19YJ0Hnewa9yNgl77TZJz0nnMwBXGgXiCZplcAuq1SV5mHDAuFyX5WgmnB4wD8QTNNz3JPyV5dZIZxgFdmZPkG0n+I8n1xoF4gvbavkTUq9J5/AHwV3clObdE06XGgXgST7CwiUlemeQVZa1qJLTUfUm+WdZ5SR4zEhBPsCyrJHl5ktlJdkmyspHQcH9MckGS85N8K8n9RgLiCcZqSjoP31ywphgJDTEvnYdYLljzjATEE/TaSkl2SufTei9L8jQjoWbuSOeTchcluTDJfCMB8QSDtF2SHcp6tnFQUT9OcklZ3zUOEE9QFZskeUlZ26fzvikYhvvT+WTcf5V1k5GAeIKqWz7Ji9O5M7VdOt+5B/10dTp3lb6b5L+TPGIkIJ6gzqal8x17C9ZmRsI4/TSd75JbsH5tJCCeoMk2SPL8hdZ0I2EZrk/yg4XWbUYC4gnabFqS55a1TTov861oLK31UDovw12V5IdlubME4glYiuVLQG1V1pZJnmksjfWzJD9Kck1ZV8d7lkA8AeP2lCTPKmtmWZsbS+3ckOS6sn5S1m+NBcQTMBiTk8woa3qJqc2STDWaoZubzpu6b0jn/UpzynrAaEA8AdUzNcmmZW1c1kZlTTCennk8yS1l3VzWjWXNNR4QT0D9LZdkw7KeUdb6SZ5e1lON6Al+k+QXZd2e5Odl3VrWo0YE4glor8lJ1i1rWpJ1yppa1lolsFZrwM96bwmju9O5SzQ3yZ1l/TrJr8ryMhsgnoBxWzGdN7A/JcmTy1qtrCllrVJibHKSlZM8KcmkdL5cecWyli9ruSQTk4yUtcCfy3osnTs8j5T1UFnzkzyY5E9J/lhC54F0vp5kXln3lvX7sn5b1kMOIzBayxkBMEYPpXN3xrOHgFb5/3PElIRugQnVAAAAAElFTkSuQmCC;" vertex="1" parent="1">
          <mxGeometry x="238" y="276" width="28.16" height="28.16" as="geometry" />
        </mxCell>
        <mxCell id="Lh2qIq0kyytRX2KrADmU-31" value="" style="endArrow=classic;html=1;exitX=1;exitY=0.5;exitDx=0;exitDy=0;fillColor=#dae8fc;strokeColor=#6c8ebf;" edge="1" parent="1" source="Lh2qIq0kyytRX2KrADmU-30">
          <mxGeometry width="50" height="50" relative="1" as="geometry">
            <mxPoint x="276.1600000000001" y="267.08000000000004" as="sourcePoint" />
            <mxPoint x="328" y="273" as="targetPoint" />
          </mxGeometry>
        </mxCell>
        <mxCell id="Lh2qIq0kyytRX2KrADmU-32" value="" style="endArrow=classic;html=1;entryX=0;entryY=0.5;entryDx=0;entryDy=0;exitX=1;exitY=0.5;exitDx=0;exitDy=0;fillColor=#dae8fc;strokeColor=#6c8ebf;" edge="1" parent="1" source="Lh2qIq0kyytRX2KrADmU-28" target="Lh2qIq0kyytRX2KrADmU-11">
          <mxGeometry width="50" height="50" relative="1" as="geometry">
            <mxPoint x="268" y="223" as="sourcePoint" />
            <mxPoint x="338" y="283.0000000000001" as="targetPoint" />
          </mxGeometry>
        </mxCell>
        <mxCell id="Lh2qIq0kyytRX2KrADmU-33" value="" style="endArrow=classic;html=1;entryX=0;entryY=0.5;entryDx=0;entryDy=0;exitX=1;exitY=0.5;exitDx=0;exitDy=0;fillColor=#dae8fc;strokeColor=#6c8ebf;" edge="1" parent="1" source="Lh2qIq0kyytRX2KrADmU-26" target="Lh2qIq0kyytRX2KrADmU-4">
          <mxGeometry width="50" height="50" relative="1" as="geometry">
            <mxPoint x="278" y="233.0000000000001" as="sourcePoint" />
            <mxPoint x="338" y="213" as="targetPoint" />
          </mxGeometry>
        </mxCell>
        <mxCell id="Lh2qIq0kyytRX2KrADmU-34" value="" style="shape=image;verticalLabelPosition=bottom;labelBackgroundColor=#ffffff;verticalAlign=top;aspect=fixed;imageAspect=0;image=data:image/svg+xml,PHN2ZyB4bWxucz0iaHR0cDovL3d3dy53My5vcmcvMjAwMC9zdmciIHhtbG5zOnhsaW5rPSJodHRwOi8vd3d3LnczLm9yZy8xOTk5L3hsaW5rIiB2aWV3Qm94PSIwIDAgNzkgODEiIGZpbGw9IiNmZmYiIGZpbGwtcnVsZT0iZXZlbm9kZCIgc3Ryb2tlPSIjMDAwIiBzdHJva2UtbGluZWNhcD0icm91bmQiIHN0cm9rZS1saW5lam9pbj0icm91bmQiPjx1c2UgeGxpbms6aHJlZj0iI0EiIHg9Ii41IiB5PSIuNSIvPjxzeW1ib2wgaWQ9IkEiIG92ZXJmbG93PSJ2aXNpYmxlIj48ZyBzdHJva2U9Im5vbmUiIGZpbGwtcnVsZT0ibm9uemVybyI+PHBhdGggZD0iTTI0LjY4NiA3Ny4zMTRjLTIuMTEyLTIuODk3LTEuNDQ4LTYuODggMS40NDgtOC45OTIuNjA0LS40MjIgMS4yNjctLjcyNCAxLjkzLS45NjZsLjEyLTIuNDE0Yy0xLjU3LS42NjQtMi44MzYtMi4zNTQtMi45NTctNC4wNDNsLTIuMzU0LS42MDNjLS40MjIuNjAzLS45MDUgMS4wODYtMS41MSAxLjUxLTIuODk3IDIuMTEyLTYuOTQgMS40NDgtOC45OTItMS40NDgtMi4xMTItMi44OTctMS40NDgtNi44OCAxLjQ0OC04Ljk5MnM2Ljg4LTEuNDQ4IDguOTkyIDEuNDQ4Yy41NDMuNzg1Ljk2NiAxLjcgMS4xNDcgMi41OTVsNC4xMDQgMS4wODZjMS4wODYtLjQyMiAyLjI5My0uNDgzIDMuMzgtLjA2bDIuMzU0LTEuN2MtLjYwNC0yLjQ3NC4zNjItNS4yIDIuNDc0LTYuNyAyLjg5Ny0yLjExMiA2Ljk0LTEuNDQ4IDguOTkyIDEuNDQ4IDIuMTEyIDIuODM2IDEuNDQ4IDYuODgtMS40NDggOC45OTItMi4xMTIgMS41MS00Ljk1IDEuNjMtNy4xMi4zMDJsLTIuMzU0IDEuN2MuMDYgMS4xNDctLjM2MiAyLjI5My0xLjA4NiAzLjJsLS4yNCA0LjIyNGMuODQ1LjQ4MyAxLjU3IDEuMDg2IDIuMTEyIDEuODcgMi4wNTIgMi44OTcgMS40NDggNi44OC0xLjQ0OCA4Ljk5Mi0yLjgzNiAyLjExMi02Ljg4IDEuNDQ4LTguOTkyLTEuNDQ4aDB6IiBmaWxsPSIjMDY5MGJhIi8+PHBhdGggZD0iTTMzLjY4IDcwLjc5N2MtLjY2NC0uOTA1LTEuNTctMS41MS0yLjUzNS0xLjc1bC4zNjItNi4xNTZjLjk2Ni0uNzg1IDEuMzI4LTIuMDUyLjkwNS0zLjJsNC4zNDUtMy4xMzhhNC42IDQuNiAwIDAgMCA2LjAzNS40ODNjMi4xMTItMS41MSAyLjUzNS00LjQwNSAxLjAyNi02LjUxOC0xLjUxLTIuMDUyLTQuNDA1LTIuNTM1LTYuNTE4LTEuMDI2LTEuODcgMS4zODgtMi40NzQgMy45MjMtMS4zODggNS45MTRsLTQuNDA1IDMuMTM4Yy0uOTA1LS43ODUtMi4yMzMtLjg0NS0zLjMyLS4xOGwtNS45NzUtMS41N2MuMDYtMS4wMjYtLjI0LTIuMTEyLS44NDUtMi45NTctMS41MS0yLjA1Mi00LjQ2Ni0yLjUzNS02LjUxOC0xLjAyNi0yLjExMiAxLjUxLTIuNTM1IDQuNDA1LTEuMDI2IDYuNTE4czQuNDA2IDIuNTM1IDYuNTE4IDEuMDI2Yy43ODUtLjYwMyAxLjMyOC0xLjMyOCAxLjYzLTIuMTczbDUuMjUgMS4zODhjLS40MjIuODQ1LS4zMDIgMS45My4zMDIgMi43MTYuNjA0Ljg0NSAxLjU3IDEuMjA3IDIuNTM1IDEuMTQ3bC0uMzAyIDUuNDNjLS45MDUgMC0xLjguMzAyLTIuNTk1LjkwNS0yLjA1MiAxLjUxLTIuNTM1IDQuNDA2LTEuMDI2IDYuNTE4czQuNDA2IDIuNTM1IDYuNTE4IDEuMDI2IDIuNTM1LTQuNDA1IDEuMDI2LTYuNTE4aDB6bTQuNzY4LTE5LjY3NGMxLjIwNy0uODQ1IDIuODM2LS42MDQgMy42OC42MDNzLjYwMyAyLjgzNi0uNjAzIDMuNjhjLS45NjYuNzI0LTIuMjkzLjY2NC0zLjItLjA2bC43ODUtLjYwM2MuNTQzLjMwMiAxLjMyOC4zMDIgMS44Ny0uMTIuNzg1LS41NDMuOTY2LTEuNjMuMzYyLTIuNDE0LS41NDMtLjc4NS0xLjYzLS45NjYtMi40MTQtLjM2Mi0uNTQzLjQyMi0uNzg1IDEuMDg2LS42NjQgMS43NWwtLjc4NS42MDNhMi43OCAyLjc4IDAgMCAxIC45NjYtMy4wNzhoMHptLTE5LjE5IDcuNzI1Yy0xLjI2Ny45MDUtMy4wMTcuNjAzLTMuOTIzLS42NjRzLS42MDQtMy4wMTcuNjY0LTMuOTIzIDMuMDE3LS42MDMgMy45MjMuNjAzYy4zMDIuNDIyLjQ4My45MDUuNTQzIDEuMzg4bC0uOTY2LS4yNGMtLjA2LS4xOC0uMTItLjQyMi0uMzAyLS42MDMtLjYwMy0uODQ1LTEuOC0xLjAyNi0yLjY1NS0uNDIycy0xLjAyNiAxLjgtLjQyMiAyLjY1NSAxLjggMS4wMjYgMi42NTUuNDIyYy4yNC0uMTguNDIyLS40MjIuNTQzLS42NjRsLjkwNS4yNGMtLjI0LjQ4My0uNTQzLjkwNS0uOTY2IDEuMjA3aDB6bTguMzkgMTYuMzU1Yy0uOTA1LTEuMjY3LS42MDMtMy4wMTcuNjA0LTMuOTIzLjQyMi0uMzAyLjkwNS0uNDgzIDEuMzg4LS41NDNsLS4wNi45NjZjLS4zMDIuMDYtLjU0My4xMi0uNzg1LjMwMi0uODQ1LjYwMy0xLjAyNiAxLjgtLjQyMiAyLjY1NXMxLjggMS4wMjYgMi42NTUuNDIyIDEuMDI2LTEuOC40MjItMi42NTVjLS4xMi0uMTgtLjMwMi0uMzAyLS40ODMtLjQyMmwuMDYtMS4wMjZhMi43NCAyLjc0IDAgMCAxIDEuMTQ3LjkwNWMuOTA1IDEuMjY3LjYwNCAzLjAxNy0uNjY0IDMuOTIzLTEuMjA3Ljk2Ni0yLjk1Ny42NjQtMy44NjItLjYwM2gweiIgZmlsbD0iI2MzZThmMiIvPjxwYXRoIGQ9Ik03Mi4xMiA2Ny41MzhjLTMuMzggMS4wODYtNy0uNzg1LTguMDg3LTQuMTY0LS4yNC0uNzI0LS4zMDItMS4zODgtLjMwMi0yLjExMmwtMi4yOTMtLjg0NWMtMS4wODYgMS4zMjgtMy4xMzggMS45My00Ljc2OCAxLjUxbC0xLjMyOCAyLjA1MmMuNDIyLjU0My43ODUgMS4yMDcuOTY2IDEuOTMgMS4wODYgMy4zOC0uNzg1IDctNC4xNjQgOC4xNDctMy4zOCAxLjA4Ni03LS43ODUtOC4wODctNC4xNjRzLjc4NS03IDQuMTY0LTguMDg3Yy45MDUtLjMwMiAxLjg3LS4zNjIgMi44MzYtLjI0bDIuMjkzLTMuNTZjLS4wNi0xLjE0Ny4yNC0yLjI5MyAxLjAyNi0zLjJsLS45MDUtMi43NzZjLTIuNTM1LS4xOC00Ljc2OC0xLjk5Mi01LjYxMi00LjQwNS0xLjA4Ni0zLjM4Ljc4NS03IDQuMTY0LTguMDg3czcgLjc4NSA4LjA4NyA0LjE2NGMuNzg1IDIuNDc0IDAgNS4yLTEuOTMgNi44OGwuOTA1IDIuNzc2YzEuMTQ3LjMwMiAyLjExMiAxLjAyNiAyLjcxNiAyLjA1MmwyLjg5NyAxLjM4OGMuNzI0LS42NjQgMi41OTUtMS4wMjYgMy41LTEuMzI4IDMuMzgtMS4wODYgNyAuNzg1IDguMTQ3IDQuMTY0IDEuMDI2IDMuMi0uODQ1IDYuODItNC4yMjQgNy45MDZoMHoiIGZpbGw9IiMwNjkwYmEiLz48cGF0aCBkPSJNNjguNjggNTYuOTc3Yy0xLjAyNi4zNjItMS45MyAxLjAyNi0yLjQ3NCAxLjg3bC01Ljc5NC0yLjIzM2MtLjQyMi0xLjE0Ny0xLjU3LTEuODctMi43NzYtMS44bC0xLjYzLTUuMDdjMi4wNTItMS4wMjYgMy4wNzgtMy4zOCAyLjM1NC01LjYxMi0uNzg1LTIuNDc0LTMuNDQtMy44MDItNS44NTQtMy4wMTdzLTMuODAyIDMuNDQtMy4wMTcgNS44NTRjLjcyNCAyLjIzMyAyLjk1NyAzLjU2IDUuMiAzLjEzOGwxLjYzIDUuMTNhMi42OSAyLjY5IDAgMCAwLTEuMTQ3IDMuMDc4bC0zLjM4IDUuMmMtLjk2Ni0uMzYyLTIuMDUyLS40MjItMy4wNzgtLjEyLTIuNDc0Ljc4NS0zLjgwMiAzLjQ0LTMuMDE3IDUuODU0Ljc4NSAyLjQ3NCAzLjQ0IDMuODAyIDUuODU0IDMuMDE3IDIuNDc0LS43ODUgMy44MDItMy40NCAzLjAxNy01Ljg1NC0uMzAyLS45MDUtLjg0NS0xLjctMS41Ny0yLjIzM2wyLjk1Ny00LjU4N2EyLjc4IDIuNzggMCAwIDAgMi43MTYuNjAzYy45NjYtLjMwMiAxLjYzLTEuMDg2IDEuODctMi4wNTJsNS4wNyAxLjk5MmE0LjY0IDQuNjQgMCAwIDAgLjA2IDIuNzE2Yy43ODUgMi40NzQgMy40NCAzLjgwMiA1Ljg1NCAzLjAxNyAyLjQ3NC0uNzg1IDMuODAyLTMuNDQgMy4wMTctNS44NTQtLjc4NS0yLjQ3NC0zLjM4LTMuODAyLTUuODU0LTMuMDE3aDB6bS0xNy4yLTEwLjYyYy0uNDIyLTEuMzg4LjMwMi0yLjg5NyAxLjctMy4zMiAxLjM4OC0uNDgzIDIuODk3LjMwMiAzLjMyIDEuNy4zNjIgMS4xNDctLjEyIDIuNDE0LTEuMDg2IDMuMDE3bC0uMzAyLS45MDVjLjQ4My0uNDIyLjcyNC0xLjE0Ny40ODMtMS44YTEuNzEgMS43MSAwIDAgMC0zLjI1OSAxLjA4NiAxLjg1IDEuODUgMCAwIDAgMS40NDggMS4yMDdsLjMwMi45NjZjLTEuMTQ3LS4wNi0yLjIzMy0uNzg1LTIuNTk1LTEuOTNoMHptMS4zODggMjAuNjRjLjQ4MyAxLjUxLS4zNjIgMy4wNzgtMS44IDMuNTYtMS41MS40ODMtMy4wNzgtLjM2Mi0zLjU2LTEuOHMuMzYyLTMuMDc4IDEuOC0zLjU2Yy40ODMtLjE4IDEuMDI2LS4xOCAxLjUxLS4wNmwtLjU0My44NDVjLS4xOCAwLS40MjIgMC0uNjY0LjA2LS45NjYuMzAyLTEuNTEgMS4zODgtMS4yMDcgMi40MTQuMzAyLjk2NiAxLjM4OCAxLjUxIDIuNDE0IDEuMjA3Ljk2Ni0uMzAyIDEuNTEtMS4zODggMS4yMDctMi4zNTQtLjEyLS4zMDItLjI0LS41NDMtLjQ4My0uNzI0bC41NDMtLjc4NWMuMzAyLjMwMi42MDMuNzI0Ljc4NSAxLjIwN2gwem0xOC4xMDUtMi44OTdjLTEuNTEuNDgzLTMuMDc4LS4zNjItMy41Ni0xLjgtLjE4LS40ODMtLjE4LTEuMDI2LS4wNi0xLjUxbC45MDUuMzYyYy0uMDYuMzAyLS4wNi42MDMuMDYuODQ1LjMwMiAxLjAyNiAxLjM4OCAxLjUxIDIuNDE0IDEuMjA3czEuNTctMS4zODggMS4yMDctMi40MTRjLS4zMDItLjk2Ni0xLjM4OC0xLjUxLTIuNDE0LTEuMjA3LS4xOC4wNi0uNDIyLjE4LS41NDMuMzAybC0uOTY2LS4zNjJjLjMwMi0uMzYyLjcyNC0uNjY0IDEuMjY3LS44NDUgMS41MS0uNDgzIDMuMDc4LjM2MiAzLjU2IDEuOC40MjIgMS41Ny0uMzYyIDMuMTM4LTEuODcgMy42MmgweiIgZmlsbD0iI2MzZThmMiIvPjxwYXRoIGQ9Ik03NyAxOS45MjJjMCAzLjU2LTIuODk3IDYuNDU3LTYuNDU3IDYuNDU3LS43MjQgMC0xLjQ0OC0uMTItMy4yLS40ODNsLTEuNTEgMS44N2MxLjkzIDEuNTcgMS45MyAzLjY4IDEuMDI2IDUuMTNsMS41MSAxLjg3Yy42NjQtLjI0IDEuMzg4LS4zNjIgMi4xMTItLjM2MiAzLjU2IDAgNi40NTcgMi44OTcgNi40NTcgNi40NTdzLTIuODk3IDYuNDU3LTYuNDU3IDYuNDU3LTYuNDU3LTIuODk3LTYuNDU3LTYuNDU3YzAtLjk2Ni4yNC0xLjkzLjYwMy0yLjc3NmwtMi42NTUtMy4yNmMtMS4xNDctLjMwMi0yLjExMi0uOTY2LTIuNzc2LTEuOTNINTYuM2MtLjg0NSAyLjM1NC0zLjIgMy45MjMtNS43OTQgMy45MjMtMy41NiAwLTYuNDU3LTIuODk3LTYuNDU3LTYuNDU3czIuODk3LTYuNDU3IDYuNDU3LTYuMzk3YTYuNDYgNi40NiAwIDAgMSA1LjkxNCAzLjk4M2gyLjg5N2MuNjY0LS45NjYgMS42My0xLjcgMi43NzYtMS45M2wyLjY1NS0zLjI2Yy0uNDIyLS44NDUtLjYwNC0xLjgtLjYwNC0yLjc3NiAwLTMuNTYgMi44OTctNi40NTcgNi40NTctNi40NTdTNzcgMTYuNDIyIDc3IDE5LjkyMmgweiIgZmlsbD0iIzA2OTBiYSIvPjxwYXRoIGQ9Ik02NS45MDUgMTkuOTIyYzAgMS4wODYuMzYyIDIuMTEyIDEuMDI2IDIuODk3bC0zLjkyMyA0Ljc2OGMtMS4yMDcuMDYtMi4yOTMuOTA1LTIuNTk1IDIuMDUyaC01LjM3Yy0uMzYyLTIuMjMzLTIuMjkzLTMuOTgzLTQuNTg3LTMuOTgzYTQuNjEgNC42MSAwIDAgMC00LjY0NyA0LjY0NyA0LjY1IDQuNjUgMCAwIDAgNC42NDcgNC42NDdjMi4zNTQgMCA0LjI4NS0xLjc1IDQuNjQ3LTMuOTgzaDUuMzdjLjMwMiAxLjE0NyAxLjMyOCAxLjk5MiAyLjU5NSAyLjA1MmwzLjkyMyA0Ljc2OGMtLjY2NC43ODUtMS4wMjYgMS44LTEuMDI2IDIuODk3YTQuNjUgNC42NSAwIDAgMCA0LjY0NyA0LjY0NyA0LjY1IDQuNjUgMCAwIDAgNC42NDctNC42NDcgNC42MSA0LjYxIDAgMCAwLTQuNjQ3LTQuNjQ3IDQuNyA0LjcgMCAwIDAtMi41OTUuNzg1bC0zLjQ0LTQuMjI0Yy44NDUtLjQ4MyAxLjM4OC0xLjM4OCAxLjM4OC0yLjM1NCAwLTEuMDI2LS41NDMtMS45My0xLjM4OC0yLjQxNGwzLjQ0LTQuMjI0YTQuNyA0LjcgMCAwIDAgMi41OTUuNzg1IDQuNjUgNC42NSAwIDAgMCA0LjY0Ny00LjY0NyA0LjY1IDQuNjUgMCAwIDAtNC42NDctNC42NDdjLTIuNTk1LjE4LTQuNzA3IDIuMjkzLTQuNzA3IDQuODI4aDB6bS0xNS4zOSAxMy4wOTZhMi42OCAyLjY4IDAgMCAxLTIuNjU1LTIuNjU1IDIuNjggMi42OCAwIDAgMSAyLjY1NS0yLjY1NWMxLjIwNyAwIDIuMjMzLjg0NSAyLjUzNSAxLjkzaC0uOTY2Yy0uMjQtLjYwMy0uODQ1LTEuMDI2LTEuNTctMS4wMjYtLjk2NiAwLTEuNy43ODUtMS43IDEuNyAwIC45NjYuNzg1IDEuNzUgMS43IDEuNzUuNzI0IDAgMS4zMjgtLjQyMiAxLjU3LTEuMDI2aC45NjZjLS4zMDIgMS4yMDctMS4zMjggMS45OTItMi41MzUgMS45OTJoMHptMjAuMDM2IDUuMDdjMS41NyAwIDIuODM2IDEuMjY3IDIuODM2IDIuODM2cy0xLjI2NyAyLjgzNi0yLjgzNiAyLjgzNi0yLjgzNi0xLjI2Ny0yLjgzNi0yLjgzNmMwLS41NDMuMTgtMS4wMjYuNDIyLTEuNDQ4bC42NjQuNzg1YTIuMTcgMi4xNyAwIDAgMC0uMTIxLjY2NCAxLjg4IDEuODggMCAwIDAgMS44NzEgMS44NzEgMS44OCAxLjg4IDAgMCAwIDEuODcxLTEuODcxIDEuODggMS44OCAwIDAgMC0xLjg3MS0xLjg3MWMtLjMwMiAwLS42MDMuMDYtLjg0NS4xOGwtLjYwNC0uNzI0Yy40MjItLjMwMi45NjYtLjQyMiAxLjQ0OC0uNDIyaDB6bTIuODM2LTE4LjE2NWMwIDEuNTctMS4yNjcgMi44MzYtMi44MzYgMi44MzYtLjU0MyAwLTEuMDI2LS4xMi0xLjQ0OC0uNDIybC42MDQtLjcyNGMuMjQuMTIuNTQzLjE4Ljg0NS4yNGExLjg4IDEuODggMCAwIDAgMS44NzEtMS44NzEgMS44OCAxLjg4IDAgMCAwLTEuODcxLTEuODcxIDEuODggMS44OCAwIDAgMC0xLjg3MSAxLjg3MWMwIC4yNC4wNi40MjIuMTIuNjAzbC0uNjY0Ljc4NWMtLjI0LS40MjItLjQyMi0uOTA1LS40MjItMS40NDggMC0xLjU3IDEuMjY3LTIuODM2IDIuODM2LTIuODM2IDEuNTcuMDYgMi44MzYgMS4yNjcgMi44MzYgMi44MzZoMHoiIGZpbGw9IiNjM2U4ZjIiLz48cGF0aCBkPSJNMzMuMjU2LjMxYTYuNDIgNi40MiAwIDAgMSA0LjEwNCA4LjE0N2MtLjI0LjcyNC0uNTQzIDEuMzI4LTEuMDI2IDEuOTNsMS4zMjggMi4wNTJjMS43LS40MjIgMy42OC4yNCA0Ljc2OCAxLjU3bDIuMjkzLS44NDVjMC0uNzI0LjEyLTEuNDQ4LjMwMi0yLjExMmE2LjQyIDYuNDIgMCAwIDEgOC4xNDctNC4xMDRjMy4zOCAxLjA4NiA1LjI1IDQuNzA3IDQuMTA0IDguMTQ3YTYuNDIgNi40MiAwIDAgMS04LjE0NyA0LjEwNGMtLjkwNS0uMzAyLTEuNzUtLjc4NS0yLjQxNC0xLjQ0OGwtMy45MjMgMS41MWMtLjYwNC45NjYtMS41NyAxLjc1LTIuNzE2IDIuMDUybC0uOTA1IDIuNzc2YzEuOTMgMS43IDIuNzE2IDQuNDA2IDEuOTMgNi44OGE2LjQyIDYuNDIgMCAwIDEtOC4xNDcgNC4xMDRjLTMuMzItMS4yNjctNS4yLTQuODg4LTQuMTA0LTguMjY4Ljc4NS0yLjQ3NCAzLjA3OC00LjIyNCA1LjYxMi00LjQwNWwuOTA1LTIuNzc2Yy0uNzI0LS45MDUtMS4wODYtMi4wNTItLjk2Ni0zLjI2TDMyLjExIDEyLjhjLS45NjYuMTItMS45My4wNi0yLjgzNi0uMjQtMy4zOC0xLjA4Ni01LjI1LTQuNzA3LTQuMTY0LTguMDg3IDEuMTQ3LTMuMzggNC43NjgtNS4yNSA4LjE0Ny00LjE2NGgweiIgZmlsbD0iIzA2OTBiYSIvPjxwYXRoIGQ9Ik0yOS44MTcgMTAuODdjMS4wMjYuMzYyIDIuMTEyLjMwMiAzLjA3OC0uMDZsMy4zMiA1LjJjLS4zNjIgMS4yMDcuMTggMi40MTQgMS4xNDcgMy4wNzhsLTEuNyA1LjA3Yy0yLjIzMy0uMzYyLTQuNDY2LjkwNS01LjIgMy4xMzgtLjc4NSAyLjQ3NC41NDMgNS4wNyAyLjk1NyA1LjkxNCAyLjQxNC43ODUgNS4wNy0uNTQzIDUuOTE0LTIuOTU3LjcyNC0yLjIzMy0uMzAyLTQuNTg3LTIuMzU0LTUuNjEybDEuNy01LjA3YzEuMjA3LjA2IDIuMzU0LS42NjQgMi43NzYtMS44bDUuNzk0LTIuMjMzYy41NDMuODQ1IDEuMzg4IDEuNTcgMi40NzQgMS44NyAyLjQ3NC43ODUgNS4wNy0uNTQzIDUuOTE0LTMuMDE3Ljc4NS0yLjQ3NC0uNTQzLTUuMDctMy4wMTctNS45MTQtMi40NzQtLjc4NS01LjA3LjU0My01LjkxNCAyLjk1N2E0LjY0IDQuNjQgMCAwIDAtLjA2IDIuNzE2bC01LjA3IDEuOTkyYy0uMTgtLjkwNS0uODQ1LTEuNzUtMS44LTIuMDUyYTIuOTEgMi45MSAwIDAgMC0yLjcxNi41NDNMMzQuMSAxMC4wMjVjLjcyNC0uNTQzIDEuMjY3LTEuMzI4IDEuNTctMi4yMzMuNzg1LTIuNDc0LS41NDMtNS4wNy0zLjAxNy01Ljg1NHMtNS4wNy41NDMtNS44NTQgMy4wMTcuNTQzIDUuMTMgMy4wMTcgNS45MTRoMHptNy42NjQgMTguNzdjLS40ODMgMS4zODgtMS45MyAyLjE3My0zLjMyIDEuN3MtMi4xNzMtMS45My0xLjctMy4zMmMuMzYyLTEuMTQ3IDEuNTEtMS44NyAyLjY1NS0xLjhsLS4zMDIuOTA1Yy0uNjY0LjA2LTEuMjA3LjU0My0xLjQ0OCAxLjE0N2ExLjcxIDEuNzEgMCAwIDAgMy4yNTkgMS4wODZjLjI0LS42NjQgMC0xLjM4OC0uNDgzLTEuOGwuMzAyLS45NjZjLjk2Ni42NjQgMS40NDggMS44NyAxLjAyNiAzLjA3OGgwem0xMC45ODQtMTcuNTYyYy40ODMtMS41MSAyLjA1Mi0yLjI5MyAzLjU2LTEuOCAxLjQ0OC40ODMgMi4yOTMgMi4xMTIgMS44IDMuNTZzLTIuMDUyIDIuMjkzLTMuNTYgMS44Yy0uNDgzLS4xOC0uOTA1LS40ODMtMS4yMDctLjg0NWwuOTY2LS4zNjJjLjE4LjEyLjM2Mi4yNC42MDMuMzAyLjk2Ni4zMDIgMi4wNTItLjI0IDIuMzU0LTEuMjA3cy0uMjQtMi4wNTItMS4yMDctMi4zNTQtMi4wNTIuMjQtMi40MTQgMS4yMDdjLS4wNi4zMDItLjEyLjYwMy0uMDYuODQ1bC0uOTA1LjM2MmMtLjA2LS40ODMtLjA2LTEuMDI2LjA2LTEuNTFoMHpNMzIuMSAzLjc1YzEuNTEuNDgzIDIuMjkzIDIuMDUyIDEuOCAzLjU2LS4xOC40ODMtLjQyMi45MDUtLjg0NSAxLjI2N2wtLjQ4My0uNzg1YTIuMTcgMi4xNyAwIDAgMCAuNDgzLS43MjRjLjMwMi0xLjAyNi0uMjQtMi4wNTItMS4yMDctMi40MTQtLjk2Ni0uMzAyLTIuMDUyLjI0LTIuNDE0IDEuMjA3LS4zMDIuOTY2LjI0IDIuMDUyIDEuMjA3IDIuMzU0LjE4LjA2LjQyMi4xMi42MDQuMDZsLjU0My44NDVjLS40ODMuMTItLjk2Ni4xMi0xLjUxLS4wNi0xLjUxLS40ODMtMi4yOTMtMi4wNTItMS44LTMuNTYuNTQzLTEuMzg4IDIuMTczLTIuMjMzIDMuNjItMS43NWgweiIgZmlsbD0iI2MzZThmMiIvPjxwYXRoIGQ9Ik0xMC4yMDMgMzQuMjg1Yy42MDMuNDIyIDEuMDg2Ljk2NiAxLjUxIDEuNTdsMi4zNTQtLjYwM2MuMTItMS43IDEuMzg4LTMuNDQgMi45NTctNC4wNDNsLS4xMi0yLjQxNGMtLjY2NC0uMTgtMS4zMjgtLjU0My0xLjkzLS45NjYtMi44MzYtMi4xNzMtMy41LTYuMjE2LTEuMzg4LTkuMTEzczYuMDk1LTMuNSA4Ljk5Mi0xLjM4OGMyLjgzNiAyLjExMiAzLjUgNi4wOTUgMS4zODggOC45OTItLjU0My43ODUtMS4yNjcgMS4zODgtMi4xMTIgMS44N2wuMjQgNC4yMjRjLjcyNC45MDUgMS4xNDcgMi4wNTIgMS4wODYgMy4ybDIuMzU0IDEuN2MyLjE3My0xLjMyOCA1LjAxLTEuMjA3IDcuMTIuMzAyIDIuODk3IDIuMTEyIDMuNSA2LjE1NiAxLjM4OCA4Ljk5Mi0yLjA1MiAyLjg5Ny02LjA5NSAzLjUtOC45OTIgMS40NDgtMi4xMTItMS41MS0zLjA3OC00LjIyNC0yLjQ3NC02LjdsLTIuMzU0LTEuN2MtMS4wODYuNDIyLTIuMjkzLjQyMi0zLjM4LS4wNmwtNC4xMDQgMS4wODZjLS4xOC45NjYtLjU0MyAxLjg3LTEuMTQ3IDIuNTk1LTIuMDUyIDIuODM2LTYuMDM1IDMuNS04LjkzMiAxLjM4OC0yLjg5Ny0yLjA1Mi0zLjUtNi4wOTUtMS40NDgtOC45OTIgMi4xMTItMi44OTcgNi4wOTUtMy41IDguOTkyLTEuMzg4eiIgZmlsbD0iIzA2OTBiYSIvPjxwYXRoIGQ9Ik0xMC4yMDMgNDIuMjUyYy42NjQtLjkwNS45NjYtMS45My45MDUtMi45NTdsNS45NzUtMS41N2EyLjgxIDIuODEgMCAwIDAgMy4zMTktLjE4MWw0LjM0NSAzLjEzOGMtMS4wMjYgMS45OTItLjQ4MyA0LjUyNiAxLjM4OCA1LjkxNCAyLjExMiAxLjUxIDUuMDEgMS4wODYgNi41MTgtMS4wMjYgMS41MS0yLjA1MiAxLjA4Ni01LjAxLTEuMDI2LTYuNTE4LTEuODctMS4zODgtNC40NjYtMS4xNDctNi4wOTUuNDgzbC00LjM0NS0zLjEzOGMuNDIyLTEuMDg2LjEyLTIuNDE0LS44NDUtMy4ybC0uMzYyLTYuMTU2YTQuMTcgNC4xNyAwIDAgMCAyLjUzNS0xLjc1YzEuNTEtMi4xMTIgMS4wMjYtNS4wMS0xLjAyNi02LjUxOHMtNS4wMS0xLjA4Ni02LjUxOCAxLjAyNmMtMS41MSAyLjA1Mi0xLjA4NiA1LjAxIDEuMDI2IDYuNTE4Ljc4NS41NDMgMS43Ljg0NSAyLjU5NS45MDVsLjMwMiA1LjQzYy0uOTY2LS4xMi0xLjkzLjMwMi0yLjUzNSAxLjE0N2EyLjc3IDIuNzcgMCAwIDAtLjMwMiAyLjcxNmwtNS4yNSAxLjM4OGMtLjMwMi0uODQ1LS44NDUtMS42My0xLjYzLTIuMTczLTIuMTEyLTEuNTEtNS4wMS0xLjAyNi02LjUxOCAxLjAyNnMtMS4wODYgNS4wMSAxLjAyNiA2LjUxOCA1LjAxIDEuMDI2IDYuNTE4LTEuMDI2aDB6bTIwLjIxNy0xLjU3YzEuMjA3Ljg0NSAxLjQ0OCAyLjUzNS42MDMgMy42OC0uODQ1IDEuMjA3LTIuNTM1IDEuNDQ4LTMuNjguNjA0LS45NjYtLjcyNC0xLjMyOC0xLjk5Mi0uOTA1LTMuMDc4bC43ODUuNjA0Yy0uMTIuNjY0LjEyIDEuMzI4LjY2NCAxLjc1Ljc4NS41NDMgMS44Ny4zNjIgMi40MTQtLjM2Mi41NDMtLjc4NS40MjItMS44Ny0uMzYyLTIuNDE0LS41NDMtLjQyMi0xLjMyOC0uNDIyLTEuODctLjEybC0uOTA1LS42MDNjLjk2Ni0uNzI0IDIuMjMzLS43ODUgMy4yNi0uMDZoMHpNMTcuMDgyIDI0LjgxYy0xLjI2Ny0uOTA1LTEuNTEtMi43MTYtLjYwNC0zLjkyMy45MDUtMS4yNjcgMi43MTYtMS41MSAzLjkyMy0uNjAzIDEuMjY3LjkwNSAxLjU3IDIuNzE2LjYwNCAzLjkyM2EyLjc0IDIuNzQgMCAwIDEtMS4xNDcuOTA1bC0uMDYtMS4wMjZjLjE4LS4xMi4zNjItLjI0LjQ4My0uNDIyLjYwMy0uODQ1LjQyMi0yLjA1Mi0uNDIyLTIuNjU1cy0yLjA1Mi0uNDIyLTIuNjU1LjQyMi0uNDIyIDIuMDUyLjQyMiAyLjY1NWMuMjQuMTguNTQzLjMwMi43ODUuMzAybC4wNi45NjZjLS40MjItLjA2LS45MDUtLjI0LTEuMzg4LS41NDNoMHpNNC4xNjggMzcuODQ2Yy45MDUtMS4yNjcgMi43MTYtMS41NyAzLjkyMy0uNjAzLjQyMi4zMDIuNzI0LjcyNC45NjYgMS4xNDdsLS45NjYuMjRjLS4xMi0uMjQtLjMwMi0uNDgzLS41NDMtLjY2NC0uODQ1LS42MDMtMi4wNTItLjQyMi0yLjY1NS40MjJzLS40MjIgMi4wNTIuNDIyIDIuNjU1IDIuMDUyLjQyMiAyLjY1NS0uNDIyYy4xMi0uMTguMjQtLjM2Mi4zMDItLjYwM2wxLjAyNi0uMjRjLS4wNi40ODMtLjE4Ljk2Ni0uNTQzIDEuMzg4LS45MDUgMS4yNjctMi42NTUgMS41MS0zLjkyMy42MDMtMS4zMjgtLjkwNS0xLjU3LTIuNzE2LS42NjQtMy45MjNoMHoiIGZpbGw9IiNjM2U4ZjIiLz48L2c+PC9zeW1ib2w+PC9zdmc+;" vertex="1" parent="1">
          <mxGeometry x="670.0000000000001" y="198.00000000000003" width="37.38" height="38.33" as="geometry" />
        </mxCell>
        <mxCell id="Lh2qIq0kyytRX2KrADmU-35" value="&lt;font style=&quot;font-size: 10px&quot;&gt;output&lt;/font&gt;" style="rounded=0;whiteSpace=wrap;html=1;fillColor=#D4E1F5;" vertex="1" parent="1">
          <mxGeometry x="574" y="206.99999999999997" width="31" height="20" as="geometry" />
        </mxCell>
        <mxCell id="Lh2qIq0kyytRX2KrADmU-36" value="" style="endArrow=classic;html=1;exitX=1;exitY=0.5;exitDx=0;exitDy=0;fillColor=#dae8fc;strokeColor=#6c8ebf;" edge="1" parent="1" source="Lh2qIq0kyytRX2KrADmU-35">
          <mxGeometry width="50" height="50" relative="1" as="geometry">
            <mxPoint x="605" y="216" as="sourcePoint" />
            <mxPoint x="660" y="217" as="targetPoint" />
          </mxGeometry>
        </mxCell>
        <mxCell id="Lh2qIq0kyytRX2KrADmU-37" value="&lt;font style=&quot;font-size: 7px&quot;&gt;InfluxDB&lt;/font&gt;" style="text;html=1;resizable=0;points=[];autosize=1;align=center;verticalAlign=middle;spacingTop=-4;fontSize=12;fontFamily=Nokia Pure Text;fontColor=#001135;" vertex="1" parent="1">
          <mxGeometry x="669.9950000000003" y="230" width="40" height="20" as="geometry" />
        </mxCell>
      </root>
    </mxGraphModel>
  </diagram>
</mxfile>
